<?xml version="1.0" encoding="UTF-8" standalone="no"?>
<!-- Created with Inkscape (http://www.inkscape.org/) -->

<svg
   width="652"
   height="274"
   viewBox="0 0 172.50833 72.495834"
   version="1.1"
   id="svg2705"
   inkscape:version="1.2.2 (1:1.2.2+202212051552+b0a8486541)"
   sodipodi:docname="рисунок.svg"
   xmlns:inkscape="http://www.inkscape.org/namespaces/inkscape"
   xmlns:sodipodi="http://sodipodi.sourceforge.net/DTD/sodipodi-0.dtd"
   xmlns="http://www.w3.org/2000/svg"
   xmlns:svg="http://www.w3.org/2000/svg">
  <sodipodi:namedview
     id="namedview2707"
     pagecolor="#ffffff"
     bordercolor="#000000"
     borderopacity="0.25"
     inkscape:showpageshadow="2"
     inkscape:pageopacity="0.0"
     inkscape:pagecheckerboard="0"
     inkscape:deskcolor="#d1d1d1"
     inkscape:document-units="mm"
     showgrid="false"
     inkscape:zoom="1.0832772"
     inkscape:cx="356.78771"
     inkscape:cy="41.079051"
     inkscape:window-width="1526"
     inkscape:window-height="836"
     inkscape:window-x="0"
     inkscape:window-y="0"
     inkscape:window-maximized="1"
     inkscape:current-layer="layer1" />
  <defs
     id="defs2702" />
  <g
     inkscape:label="Слой 1"
     inkscape:groupmode="layer"
     id="layer1">
    <path
       d="m -8.1574815,-0.8306849 c 2.7856579,0 4.1441025,0.46773849 5.3426705,0.88045856 1.1323901,0.3899386 2.20203148,0.75833237 4.1753424,0.75833237 1.9734726,0 3.0432215,-0.36839377 4.1757083,-0.75833237 1.1985574,-0.41272007 2.5570019,-0.88045856 5.3428533,-0.88045856 2.785561,0 4.144006,0.46773849 5.342574,0.88045856 1.1324,0.3899386 2.202042,0.75833237 4.175342,0.75833237 1.973387,0 3.042941,-0.36839377 4.175525,-0.75833237 1.198472,-0.41272007 2.556917,-0.88045856 5.342574,-0.88045856 2.785852,0 4.144382,0.46773849 5.343047,0.88045856 1.132487,0.3899386 2.202128,0.75833237 4.175708,0.75833237 1.973386,0 3.043038,-0.36839377 4.175525,-0.75833237 1.198568,-0.41272007 2.557012,-0.88045856 5.342757,-0.88045856 2.785668,0 4.144113,0.46773849 5.342681,0.88045856 1.132476,0.3899386 2.202128,0.75833237 4.175428,0.75833237 1.973387,0 3.043039,-0.36839377 4.175525,-0.75833237 1.198472,-0.41272007 2.556917,-0.88045856 5.342671,-0.88045856 2.785841,0 4.144285,0.46773849 5.342853,0.88045856 1.132391,0.3899386 2.202042,0.75833237 4.175526,0.75833237 1.973299,0 3.042851,-0.36839377 4.175423,-0.75833237 1.19931,-0.41272007 2.55711,-0.88045856 5.343134,-0.88045856 2.786033,0 4.144757,0.46773849 5.343132,0.88045856 1.132584,0.3899386 2.202139,0.75833237 4.175343,0.75833237 1.974128,0 3.043683,-0.36839377 4.176269,-0.75833237 1.19838,-0.41272007 2.5571,-0.88045856 5.34313,-0.88045856 2.78603,0 4.14383,0.46773849 5.34313,0.88045856 1.13166,0.3899386 2.20213,0.75833237 4.17535,0.75833237 1.9732,0 3.04275,-0.36839377 4.17533,-0.75833237 1.1993,-0.41272007 2.55711,-0.88045856 5.34315,-0.88045856 2.78601,0 4.14382,0.46773849 5.34312,0.88045856 1.13258,0.3899386 2.20213,0.75833237 4.17534,0.75833237 1.97321,0 3.04276,-0.36839377 4.17534,-0.75833237 1.1993,-0.41272007 2.5571,-0.88045856 5.34314,-0.88045856 2.78602,0 4.14475,0.46773849 5.34312,0.88045856 1.13259,0.3899386 2.20215,0.75833237 4.17535,0.75833237 1.97412,0 3.04367,-0.36839377 4.17627,-0.75833237 1.19837,-0.41272007 2.55709,-0.88045856 5.34221,-0.88045856 2.78601,0 4.14474,0.46773849 5.34312,0.88045856 1.13258,0.3899386 2.20214,0.75833237 4.17627,0.75833237 1.9732,0 3.04275,-0.36839377 4.17534,-0.75833237 1.19931,-0.41272007 2.5571,-0.88045856 5.34314,-0.88045856"
       style="fill:none;fill-opacity:1;fill-rule:nonzero;stroke:#000000;stroke-width:0.355638;stroke-dasharray:none;stroke-opacity:1"
       id="path5022"
       sodipodi:nodetypes="ccscssscssscscscssscscscscscscscscscscscc" />
    <path
       d="m -9.163979,3.4198701 c 2.7856583,0 4.1441027,0.467739 5.34267,0.8804593 1.1323903,0.389938 2.2020319,0.758332 4.17534254,0.758332 1.97347326,0 3.04322226,-0.368394 4.17570876,-0.758332 1.1985571,-0.4127203 2.5570015,-0.8804593 5.3428531,-0.8804593 2.7855606,0 4.1440056,0.467739 5.3425736,0.8804593 1.1324,0.389938 2.202042,0.758332 4.175342,0.758332 1.973387,0 3.042941,-0.368394 4.175525,-0.758332 1.198472,-0.4127203 2.556917,-0.8804593 5.342574,-0.8804593 2.785852,0 4.144382,0.467739 5.343047,0.8804593 1.132487,0.389938 2.202128,0.758332 4.175708,0.758332 1.973386,0 3.043038,-0.368394 4.175525,-0.758332 1.198568,-0.4127203 2.557013,-0.8804593 5.342757,-0.8804593 2.785668,0 4.144113,0.467739 5.342681,0.8804593 1.132476,0.389938 2.202128,0.758332 4.175428,0.758332 1.973387,0 3.043039,-0.368394 4.175525,-0.758332 1.198472,-0.4127203 2.556917,-0.8804593 5.342671,-0.8804593 2.785841,0 4.144285,0.467739 5.342853,0.8804593 1.132391,0.389938 2.202042,0.758332 4.175526,0.758332 1.973299,0 3.042851,-0.368394 4.175423,-0.758332 1.19931,-0.4127203 2.55711,-0.8804593 5.343134,-0.8804593 2.786034,0 4.144757,0.467739 5.343132,0.8804593 1.132584,0.389938 2.202139,0.758332 4.175343,0.758332 1.974128,0 3.043683,-0.368394 4.176267,-0.758332 1.19839,-0.4127203 2.5571,-0.8804593 5.34313,-0.8804593 2.78603,0 4.14383,0.467739 5.34314,0.8804593 1.13165,0.389938 2.20212,0.758332 4.17534,0.758332 1.97321,0 3.04276,-0.368394 4.17533,-0.758332 1.19931,-0.4127203 2.55711,-0.8804593 5.34315,-0.8804593 2.78601,0 4.14382,0.467739 5.34313,0.8804593 1.13257,0.389938 2.20212,0.758332 4.17533,0.758332 1.97322,0 3.04277,-0.368394 4.17535,-0.758332 1.1993,-0.4127203 2.5571,-0.8804593 5.34313,-0.8804593 2.78603,0 4.14476,0.467739 5.34313,0.8804593 1.13258,0.389938 2.20214,0.758332 4.17534,0.758332 1.97413,0 3.04368,-0.368394 4.17628,-0.758332 1.19837,-0.4127203 2.55709,-0.8804593 5.3422,-0.8804593 2.78601,0 4.14474,0.467739 5.34313,0.8804593 1.13257,0.389938 2.20213,0.758332 4.17626,0.758332 1.97321,0 3.04276,-0.368394 4.17534,-0.758332 1.19931,-0.4127203 2.5571,-0.8804593 5.34314,-0.8804593"
       style="fill:none;fill-opacity:1;fill-rule:nonzero;stroke:#000000;stroke-width:0.355638;stroke-dasharray:none;stroke-opacity:1"
       id="path5022-6"
       sodipodi:nodetypes="ccscssscssscscscssscscscscscscscscscscscc" />
    <path
       d="m -8.2503513,1.2945926 c 2.7856583,0 4.1441027,0.467739 5.34267,0.880459 1.1323903,0.389938 2.20203191,0.758332 4.1753426,0.758332 1.9734732,0 3.0432222,-0.368394 4.1757087,-0.758332 1.1985571,-0.41272 2.5570015,-0.880459 5.342853,-0.880459 2.785561,0 4.144005,0.467739 5.342574,0.880459 1.1324,0.389938 2.202042,0.758332 4.175342,0.758332 1.973386,0 3.042941,-0.368394 4.175525,-0.758332 1.198472,-0.41272 2.556916,-0.880459 5.342574,-0.880459 2.785851,0 4.144382,0.467739 5.343047,0.880459 1.132487,0.389938 2.202128,0.758332 4.175708,0.758332 1.973386,0 3.043038,-0.368394 4.175524,-0.758332 1.198569,-0.41272 2.557013,-0.880459 5.342757,-0.880459 2.785669,0 4.144113,0.467739 5.342682,0.880459 1.132476,0.389938 2.202128,0.758332 4.175428,0.758332 1.973386,0 3.043038,-0.368394 4.175525,-0.758332 1.198472,-0.41272 2.556916,-0.880459 5.342671,-0.880459 2.78584,0 4.144285,0.467739 5.342853,0.880459 1.13239,0.389938 2.202042,0.758332 4.175526,0.758332 1.973299,0 3.042851,-0.368394 4.175423,-0.758332 1.19931,-0.41272 2.55711,-0.880459 5.343133,-0.880459 2.786034,0 4.144758,0.467739 5.343133,0.880459 1.132584,0.389938 2.202139,0.758332 4.175342,0.758332 1.974128,0 3.043684,-0.368394 4.17627,-0.758332 1.19838,-0.41272 2.5571,-0.880459 5.34312,-0.880459 2.78604,0 4.14383,0.467739 5.34314,0.880459 1.13165,0.389938 2.20212,0.758332 4.17534,0.758332 1.97321,0 3.04276,-0.368394 4.17533,-0.758332 1.19931,-0.41272 2.55711,-0.880459 5.34315,-0.880459 2.78602,0 4.14382,0.467739 5.34313,0.880459 1.13257,0.389938 2.20212,0.758332 4.17533,0.758332 1.97322,0 3.04277,-0.368394 4.17535,-0.758332 1.1993,-0.41272 2.5571,-0.880459 5.34313,-0.880459 2.78604,0 4.14476,0.467739 5.34313,0.880459 1.13258,0.389938 2.20214,0.758332 4.17534,0.758332 1.97413,0 3.04368,-0.368394 4.17628,-0.758332 1.19837,-0.41272 2.55709,-0.880459 5.3422,-0.880459 2.78602,0 4.14474,0.467739 5.34313,0.880459 1.13257,0.389938 2.20213,0.758332 4.17626,0.758332 1.97321,0 3.04276,-0.368394 4.17534,-0.758332 1.19931,-0.41272 2.5571,-0.880459 5.34314,-0.880459"
       style="fill:none;fill-opacity:1;fill-rule:nonzero;stroke:#000000;stroke-width:0.355638;stroke-dasharray:none;stroke-opacity:1"
       id="path5022-2"
       sodipodi:nodetypes="ccscssscssscscscssscscscscscscscscscscscc" />
    <path
       d="m -8.9731519,5.545148 c 2.7856585,0 4.1441029,0.467739 5.3426702,0.880459 1.1323903,0.389938 2.2020319,0.758332 4.1753425,0.758332 1.9734733,0 3.0432224,-0.368394 4.1757088,-0.758332 1.1985571,-0.41272 2.5570015,-0.880459 5.3428534,-0.880459 2.78556,0 4.144005,0.467739 5.342573,0.880459 1.132401,0.389938 2.202042,0.758332 4.175343,0.758332 1.973386,0 3.042941,-0.368394 4.175524,-0.758332 1.198473,-0.41272 2.556917,-0.880459 5.342574,-0.880459 2.785852,0 4.144382,0.467739 5.343048,0.880459 1.132486,0.389938 2.202128,0.758332 4.175707,0.758332 1.973387,0 3.043039,-0.368394 4.175525,-0.758332 1.198568,-0.41272 2.557013,-0.880459 5.342757,-0.880459 2.785669,0 4.144113,0.467739 5.342681,0.880459 1.132477,0.389938 2.202128,0.758332 4.175429,0.758332 1.973386,0 3.043038,-0.368394 4.175524,-0.758332 1.198473,-0.41272 2.556917,-0.880459 5.342671,-0.880459 2.785841,0 4.144285,0.467739 5.342854,0.880459 1.13239,0.389938 2.202042,0.758332 4.175525,0.758332 1.9733,0 3.042851,-0.368394 4.175424,-0.758332 1.19931,-0.41272 2.55711,-0.880459 5.343133,-0.880459 2.786034,0 4.144758,0.467739 5.343133,0.880459 1.132583,0.389938 2.202139,0.758332 4.175342,0.758332 1.974128,0 3.043684,-0.368394 4.176267,-0.758332 1.198383,-0.41272 2.557103,-0.880459 5.343133,-0.880459 2.78604,0 4.14383,0.467739 5.34314,0.880459 1.13165,0.389938 2.20212,0.758332 4.17534,0.758332 1.97321,0 3.04276,-0.368394 4.17533,-0.758332 1.19931,-0.41272 2.55712,-0.880459 5.34315,-0.880459 2.78602,0 4.14382,0.467739 5.34313,0.880459 1.13257,0.389938 2.20212,0.758332 4.17532,0.758332 1.97322,0 3.04277,-0.368394 4.17534,-0.758332 1.19931,-0.41272 2.55711,-0.880459 5.34314,-0.880459 2.78603,0 4.14475,0.467739 5.34313,0.880459 1.13258,0.389938 2.20214,0.758332 4.17534,0.758332 1.97413,0 3.04368,-0.368394 4.17627,-0.758332 1.19838,-0.41272 2.5571,-0.880459 5.34221,-0.880459 2.78602,0 4.14474,0.467739 5.34313,0.880459 1.13257,0.389938 2.20213,0.758332 4.17626,0.758332 1.97321,0 3.04276,-0.368394 4.17534,-0.758332 1.19931,-0.41272 2.55711,-0.880459 5.34314,-0.880459"
       style="fill:none;fill-opacity:1;fill-rule:nonzero;stroke:#000000;stroke-width:0.355638;stroke-dasharray:none;stroke-opacity:1"
       id="path5022-61"
       sodipodi:nodetypes="ccscssscssscscscssscscscscscscscscscscscc" />
    <path
       d="m -9.5383123,7.6704255 c 2.7856583,0 4.1441027,0.467739 5.34267,0.8804594 1.1323903,0.389938 2.2020319,0.7583317 4.17534259,0.7583317 1.97347321,0 3.04322121,-0.3683937 4.17570871,-0.7583317 1.1985571,-0.4127204 2.5570015,-0.8804594 5.3428532,-0.8804594 2.7855618,0 4.1440058,0.467739 5.3425738,0.8804594 1.132401,0.389938 2.202043,0.7583317 4.175343,0.7583317 1.973386,0 3.042941,-0.3683937 4.175525,-0.7583317 1.198472,-0.4127204 2.556916,-0.8804594 5.342573,-0.8804594 2.785852,0 4.144382,0.467739 5.343048,0.8804594 1.132486,0.389938 2.202128,0.7583317 4.175708,0.7583317 1.973386,0 3.043038,-0.3683937 4.175524,-0.7583317 1.198569,-0.4127204 2.557013,-0.8804594 5.342757,-0.8804594 2.785669,0 4.144113,0.467739 5.342682,0.8804594 1.132476,0.389938 2.202128,0.7583317 4.175428,0.7583317 1.973386,0 3.043038,-0.3683937 4.175525,-0.7583317 1.198472,-0.4127204 2.556916,-0.8804594 5.342671,-0.8804594 2.78584,0 4.144284,0.467739 5.342853,0.8804594 1.13239,0.389938 2.202042,0.7583317 4.175525,0.7583317 1.9733,0 3.042851,-0.3683937 4.175424,-0.7583317 1.19931,-0.4127204 2.55711,-0.8804594 5.343133,-0.8804594 2.786034,0 4.144758,0.467739 5.343133,0.8804594 1.132583,0.389938 2.202139,0.7583317 4.175342,0.7583317 1.974128,0 3.043684,-0.3683937 4.176268,-0.7583317 1.198382,-0.4127204 2.557102,-0.8804594 5.343122,-0.8804594 2.78604,0 4.14383,0.467739 5.34314,0.8804594 1.13165,0.389938 2.20212,0.7583317 4.17534,0.7583317 1.97321,0 3.04276,-0.3683937 4.17533,-0.7583317 1.19931,-0.4127204 2.55712,-0.8804594 5.34315,-0.8804594 2.78602,0 4.14382,0.467739 5.34313,0.8804594 1.13257,0.389938 2.20212,0.7583317 4.17533,0.7583317 1.97322,0 3.04277,-0.3683937 4.17534,-0.7583317 1.19931,-0.4127204 2.5571,-0.8804594 5.34314,-0.8804594 2.78603,0 4.14475,0.467739 5.34313,0.8804594 1.13258,0.389938 2.20214,0.7583317 4.17534,0.7583317 1.97413,0 3.04368,-0.3683937 4.17627,-0.7583317 1.19838,-0.4127204 2.5571,-0.8804594 5.34221,-0.8804594 2.78602,0 4.14474,0.467739 5.34313,0.8804594 1.13257,0.389938 2.20213,0.7583317 4.17626,0.7583317 1.97321,0 3.04276,-0.3683937 4.17534,-0.7583317 1.19931,-0.4127204 2.55711,-0.8804594 5.34314,-0.8804594"
       style="fill:none;fill-opacity:1;fill-rule:nonzero;stroke:#000000;stroke-width:0.355638;stroke-dasharray:none;stroke-opacity:1"
       id="path5022-8"
       sodipodi:nodetypes="ccscssscssscscscssscscscscscscscscscscscc" />
    <path
       d="m -8.9132955,9.7957023 c 2.7856574,0 4.144102,0.4677387 5.3426701,0.8804587 1.1323901,0.389938 2.2020315,0.758332 4.17534242,0.758332 1.97347258,0 3.04322148,-0.368394 4.17570818,-0.758332 1.1985575,-0.41272 2.5570019,-0.8804587 5.3428538,-0.8804587 2.785561,0 4.144005,0.4677387 5.342574,0.8804587 1.1324,0.389938 2.202042,0.758332 4.175342,0.758332 1.973386,0 3.042941,-0.368394 4.175525,-0.758332 1.198472,-0.41272 2.556916,-0.8804587 5.342574,-0.8804587 2.785851,0 4.144382,0.4677387 5.343047,0.8804587 1.132487,0.389938 2.202128,0.758332 4.175708,0.758332 1.973386,0 3.043038,-0.368394 4.175525,-0.758332 1.198568,-0.41272 2.557012,-0.8804587 5.342757,-0.8804587 2.785668,0 4.144112,0.4677387 5.342681,0.8804587 1.132476,0.389938 2.202128,0.758332 4.175428,0.758332 1.973387,0 3.043038,-0.368394 4.175525,-0.758332 1.198472,-0.41272 2.556916,-0.8804587 5.342671,-0.8804587 2.78584,0 4.144285,0.4677387 5.342853,0.8804587 1.13239,0.389938 2.202042,0.758332 4.175526,0.758332 1.973299,0 3.042851,-0.368394 4.175423,-0.758332 1.19931,-0.41272 2.55711,-0.8804587 5.343133,-0.8804587 2.786034,0 4.144758,0.4677387 5.343133,0.8804587 1.132584,0.389938 2.202139,0.758332 4.175342,0.758332 1.974129,0 3.043684,-0.368394 4.176268,-0.758332 1.198386,-0.41272 2.557096,-0.8804587 5.343126,-0.8804587 2.78604,0 4.14383,0.4677387 5.34314,0.8804587 1.13165,0.389938 2.20212,0.758332 4.17534,0.758332 1.97321,0 3.04276,-0.368394 4.17533,-0.758332 1.19931,-0.41272 2.55712,-0.8804587 5.34315,-0.8804587 2.78602,0 4.14382,0.4677387 5.34313,0.8804587 1.13257,0.389938 2.20212,0.758332 4.17533,0.758332 1.97322,0 3.04277,-0.368394 4.17534,-0.758332 1.19931,-0.41272 2.55711,-0.8804587 5.34314,-0.8804587 2.78603,0 4.14475,0.4677387 5.34313,0.8804587 1.13258,0.389938 2.20214,0.758332 4.17534,0.758332 1.97413,0 3.04368,-0.368394 4.17628,-0.758332 1.19837,-0.41272 2.55709,-0.8804587 5.3422,-0.8804587 2.78602,0 4.14474,0.4677387 5.34313,0.8804587 1.13257,0.389938 2.20213,0.758332 4.17626,0.758332 1.97321,0 3.04276,-0.368394 4.17535,-0.758332 1.1993,-0.41272 2.5571,-0.8804587 5.34313,-0.8804587"
       style="fill:none;fill-opacity:1;fill-rule:nonzero;stroke:#000000;stroke-width:0.355638;stroke-dasharray:none;stroke-opacity:1"
       id="path5022-9"
       sodipodi:nodetypes="ccscssscssscscscssscscscscscscscscscscscc" />
    <path
       d="m -9.9197936,14.046257 c 2.7856585,0 4.1441029,0.467739 5.3426702,0.88046 1.1323903,0.389938 2.2020319,0.758332 4.17534253,0.758332 1.97347327,0 3.04322227,-0.368394 4.17570877,-0.758332 1.1985571,-0.412721 2.5570015,-0.88046 5.3428531,-0.88046 2.785561,0 4.144005,0.467739 5.342574,0.88046 1.1324,0.389938 2.202042,0.758332 4.175342,0.758332 1.973387,0 3.042941,-0.368394 4.175525,-0.758332 1.198472,-0.412721 2.556916,-0.88046 5.342574,-0.88046 2.785851,0 4.144382,0.467739 5.343047,0.88046 1.132487,0.389938 2.202128,0.758332 4.175708,0.758332 1.973386,0 3.043038,-0.368394 4.175525,-0.758332 1.198568,-0.412721 2.557012,-0.88046 5.342757,-0.88046 2.785668,0 4.144112,0.467739 5.342681,0.88046 1.132476,0.389938 2.202128,0.758332 4.175428,0.758332 1.973387,0 3.043038,-0.368394 4.175525,-0.758332 1.198472,-0.412721 2.556916,-0.88046 5.342671,-0.88046 2.78584,0 4.144285,0.467739 5.342853,0.88046 1.13239,0.389938 2.202042,0.758332 4.175526,0.758332 1.973299,0 3.042851,-0.368394 4.175423,-0.758332 1.19931,-0.412721 2.55711,-0.88046 5.343134,-0.88046 2.786033,0 4.144757,0.467739 5.343132,0.88046 1.132584,0.389938 2.202139,0.758332 4.175342,0.758332 1.974129,0 3.043684,-0.368394 4.176268,-0.758332 1.198384,-0.412721 2.557094,-0.88046 5.343134,-0.88046 2.78603,0 4.14383,0.467739 5.34313,0.88046 1.13166,0.389938 2.20213,0.758332 4.17535,0.758332 1.9732,0 3.04275,-0.368394 4.17533,-0.758332 1.1993,-0.412721 2.55711,-0.88046 5.34315,-0.88046 2.78601,0 4.14382,0.467739 5.34312,0.88046 1.13258,0.389938 2.20213,0.758332 4.17534,0.758332 1.97321,0 3.04276,-0.368394 4.17535,-0.758332 1.19929,-0.412721 2.5571,-0.88046 5.34313,-0.88046 2.78603,0 4.14476,0.467739 5.34312,0.88046 1.13259,0.389938 2.20215,0.758332 4.17534,0.758332 1.97413,0 3.04368,-0.368394 4.17629,-0.758332 1.19836,-0.412721 2.55709,-0.88046 5.3422,-0.88046 2.78601,0 4.14474,0.467739 5.34312,0.88046 1.13258,0.389938 2.20214,0.758332 4.17627,0.758332 1.9732,0 3.04275,-0.368394 4.17534,-0.758332 1.19931,-0.412721 2.5571,-0.88046 5.34314,-0.88046"
       style="fill:none;fill-opacity:1;fill-rule:nonzero;stroke:#000000;stroke-width:0.355638;stroke-dasharray:none;stroke-opacity:1"
       id="path5022-6-2"
       sodipodi:nodetypes="ccscssscssscscscssscscscscscscscscscscscc" />
    <path
       d="m -9.0061658,11.92098 c 2.7856584,0 4.1441028,0.467739 5.3426701,0.880459 1.1323903,0.389938 2.2020319,0.758332 4.17534254,0.758332 1.97347326,0 3.04322226,-0.368394 4.17570876,-0.758332 1.1985571,-0.41272 2.5570015,-0.880459 5.3428524,-0.880459 2.785562,0 4.144006,0.467739 5.342574,0.880459 1.132401,0.389938 2.202042,0.758332 4.175343,0.758332 1.973386,0 3.042941,-0.368394 4.175524,-0.758332 1.198473,-0.41272 2.556917,-0.880459 5.342574,-0.880459 2.785852,0 4.144382,0.467739 5.343048,0.880459 1.132486,0.389938 2.202128,0.758332 4.175708,0.758332 1.973386,0 3.043038,-0.368394 4.175524,-0.758332 1.198569,-0.41272 2.557013,-0.880459 5.342757,-0.880459 2.785669,0 4.144113,0.467739 5.342682,0.880459 1.132476,0.389938 2.202128,0.758332 4.175428,0.758332 1.973386,0 3.043038,-0.368394 4.175525,-0.758332 1.198472,-0.41272 2.556916,-0.880459 5.342671,-0.880459 2.78584,0 4.144284,0.467739 5.342853,0.880459 1.13239,0.389938 2.202042,0.758332 4.175525,0.758332 1.9733,0 3.042851,-0.368394 4.175424,-0.758332 1.19931,-0.41272 2.55711,-0.880459 5.343133,-0.880459 2.786034,0 4.144758,0.467739 5.343133,0.880459 1.132583,0.389938 2.202139,0.758332 4.175342,0.758332 1.974128,0 3.043684,-0.368394 4.176268,-0.758332 1.198386,-0.41272 2.557106,-0.880459 5.343126,-0.880459 2.78603,0 4.14383,0.467739 5.34314,0.880459 1.13165,0.389938 2.20212,0.758332 4.17534,0.758332 1.97321,0 3.04276,-0.368394 4.17533,-0.758332 1.19931,-0.41272 2.55711,-0.880459 5.34315,-0.880459 2.78601,0 4.14382,0.467739 5.34313,0.880459 1.13257,0.389938 2.20212,0.758332 4.17533,0.758332 1.97322,0 3.04277,-0.368394 4.17535,-0.758332 1.1993,-0.41272 2.5571,-0.880459 5.34313,-0.880459 2.78603,0 4.14476,0.467739 5.34313,0.880459 1.13258,0.389938 2.20214,0.758332 4.17534,0.758332 1.97413,0 3.04368,-0.368394 4.17628,-0.758332 1.19837,-0.41272 2.55709,-0.880459 5.3422,-0.880459 2.78601,0 4.14474,0.467739 5.34313,0.880459 1.13257,0.389938 2.20213,0.758332 4.17626,0.758332 1.97321,0 3.04276,-0.368394 4.17534,-0.758332 1.19931,-0.41272 2.5571,-0.880459 5.34314,-0.880459"
       style="fill:none;fill-opacity:1;fill-rule:nonzero;stroke:#000000;stroke-width:0.355638;stroke-dasharray:none;stroke-opacity:1"
       id="path5022-2-0"
       sodipodi:nodetypes="ccscssscssscscscssscscscscscscscscscscscc" />
    <path
       d="m -9.7289662,16.171536 c 2.7856584,0 4.1441028,0.467739 5.3426701,0.880459 1.1323903,0.389938 2.2020319,0.758332 4.17534246,0.758332 1.97347334,0 3.04322234,-0.368394 4.17570884,-0.758332 1.1985571,-0.41272 2.5570015,-0.880459 5.3428532,-0.880459 2.7855606,0 4.1440056,0.467739 5.3425736,0.880459 1.132401,0.389938 2.202042,0.758332 4.175343,0.758332 1.973386,0 3.04294,-0.368394 4.175524,-0.758332 1.198472,-0.41272 2.556917,-0.880459 5.342574,-0.880459 2.785852,0 4.144382,0.467739 5.343048,0.880459 1.132486,0.389938 2.202128,0.758332 4.175707,0.758332 1.973387,0 3.043038,-0.368394 4.175525,-0.758332 1.198568,-0.41272 2.557013,-0.880459 5.342757,-0.880459 2.785668,0 4.144113,0.467739 5.342681,0.880459 1.132476,0.389938 2.202128,0.758332 4.175429,0.758332 1.973386,0 3.043038,-0.368394 4.175524,-0.758332 1.198472,-0.41272 2.556917,-0.880459 5.342671,-0.880459 2.785841,0 4.144285,0.467739 5.342853,0.880459 1.132391,0.389938 2.202043,0.758332 4.175526,0.758332 1.973299,0 3.042851,-0.368394 4.175423,-0.758332 1.19931,-0.41272 2.55711,-0.880459 5.343134,-0.880459 2.786034,0 4.144757,0.467739 5.343132,0.880459 1.132584,0.389938 2.20214,0.758332 4.175343,0.758332 1.974128,0 3.043684,-0.368394 4.176267,-0.758332 1.198387,-0.41272 2.557097,-0.880459 5.343137,-0.880459 2.78604,0 4.14383,0.467739 5.34314,0.880459 1.13165,0.389938 2.20212,0.758332 4.17534,0.758332 1.97321,0 3.04276,-0.368394 4.17533,-0.758332 1.19931,-0.41272 2.55711,-0.880459 5.34315,-0.880459 2.78602,0 4.14382,0.467739 5.34313,0.880459 1.13257,0.389938 2.20212,0.758332 4.17532,0.758332 1.97322,0 3.04277,-0.368394 4.17534,-0.758332 1.19931,-0.41272 2.5571,-0.880459 5.34314,-0.880459 2.78603,0 4.14475,0.467739 5.34313,0.880459 1.13258,0.389938 2.20214,0.758332 4.17534,0.758332 1.97413,0 3.04368,-0.368394 4.17627,-0.758332 1.19838,-0.41272 2.55709,-0.880459 5.34221,-0.880459 2.78602,0 4.14474,0.467739 5.34313,0.880459 1.13257,0.389938 2.20213,0.758332 4.17626,0.758332 1.97321,0 3.04276,-0.368394 4.17534,-0.758332 1.19931,-0.41272 2.5571,-0.880459 5.34314,-0.880459"
       style="fill:none;fill-opacity:1;fill-rule:nonzero;stroke:#000000;stroke-width:0.355638;stroke-dasharray:none;stroke-opacity:1"
       id="path5022-61-2"
       sodipodi:nodetypes="ccscssscssscscscssscscscscscscscscscscscc" />
    <path
       d="m -10.294127,18.296813 c 2.7856583,0 4.144103,0.467739 5.3426703,0.880459 1.1323903,0.389938 2.2020319,0.758332 4.17534253,0.758332 1.97347327,0 3.04322127,-0.368394 4.17570877,-0.758332 1.1985571,-0.41272 2.5570015,-0.880459 5.3428531,-0.880459 2.7855613,0 4.1440063,0.467739 5.3425743,0.880459 1.132401,0.389938 2.202042,0.758332 4.175343,0.758332 1.973386,0 3.042941,-0.368394 4.175524,-0.758332 1.198473,-0.41272 2.556917,-0.880459 5.342574,-0.880459 2.785852,0 4.144382,0.467739 5.343048,0.880459 1.132486,0.389938 2.202128,0.758332 4.175707,0.758332 1.973387,0 3.043039,-0.368394 4.175525,-0.758332 1.198568,-0.41272 2.557013,-0.880459 5.342757,-0.880459 2.785669,0 4.144113,0.467739 5.342681,0.880459 1.132477,0.389938 2.202128,0.758332 4.175429,0.758332 1.973386,0 3.043038,-0.368394 4.175524,-0.758332 1.198473,-0.41272 2.556917,-0.880459 5.342671,-0.880459 2.785841,0 4.144285,0.467739 5.342854,0.880459 1.13239,0.389938 2.202042,0.758332 4.175525,0.758332 1.9733,0 3.042851,-0.368394 4.175424,-0.758332 1.19931,-0.41272 2.55711,-0.880459 5.343133,-0.880459 2.786034,0 4.144758,0.467739 5.343133,0.880459 1.132583,0.389938 2.202139,0.758332 4.175342,0.758332 1.974128,0 3.043684,-0.368394 4.176267,-0.758332 1.198386,-0.41272 2.557097,-0.880459 5.343127,-0.880459 2.78604,0 4.14383,0.467739 5.34314,0.880459 1.13165,0.389938 2.20212,0.758332 4.17534,0.758332 1.97321,0 3.04276,-0.368394 4.17533,-0.758332 1.19931,-0.41272 2.55711,-0.880459 5.34315,-0.880459 2.78602,0 4.14382,0.467739 5.34313,0.880459 1.13257,0.389938 2.20212,0.758332 4.17533,0.758332 1.97322,0 3.04277,-0.368394 4.17534,-0.758332 1.19931,-0.41272 2.5571,-0.880459 5.34314,-0.880459 2.78603,0 4.14475,0.467739 5.34313,0.880459 1.13258,0.389938 2.20214,0.758332 4.17534,0.758332 1.97413,0 3.04368,-0.368394 4.17627,-0.758332 1.19838,-0.41272 2.55709,-0.880459 5.34221,-0.880459 2.78602,0 4.14474,0.467739 5.34313,0.880459 1.13257,0.389938 2.20213,0.758332 4.17626,0.758332 1.97321,0 3.04276,-0.368394 4.17534,-0.758332 1.19931,-0.41272 2.5571,-0.880459 5.34314,-0.880459"
       style="fill:none;fill-opacity:1;fill-rule:nonzero;stroke:#000000;stroke-width:0.355638;stroke-dasharray:none;stroke-opacity:1"
       id="path5022-8-3"
       sodipodi:nodetypes="ccscssscssscscscssscscscscscscscscscscscc" />
    <path
       d="m -10.311068,20.422091 c 2.7856576,0 4.1441022,0.467739 5.3426702,0.880459 1.1323901,0.389938 2.2020315,0.758332 4.17534241,0.758332 1.97347259,0 3.04322149,-0.368394 4.17570829,-0.758332 1.1985573,-0.41272 2.5570017,-0.880459 5.3428533,-0.880459 2.7855608,0 4.1440058,0.467739 5.3425738,0.880459 1.132401,0.389938 2.202042,0.758332 4.175342,0.758332 1.973387,0 3.042941,-0.368394 4.175525,-0.758332 1.198472,-0.41272 2.556917,-0.880459 5.342574,-0.880459 2.785852,0 4.144382,0.467739 5.343047,0.880459 1.132487,0.389938 2.202129,0.758332 4.175708,0.758332 1.973387,0 3.043038,-0.368394 4.175525,-0.758332 1.198568,-0.41272 2.557013,-0.880459 5.342757,-0.880459 2.785668,0 4.144113,0.467739 5.342681,0.880459 1.132476,0.389938 2.202128,0.758332 4.175429,0.758332 1.973386,0 3.043038,-0.368394 4.175524,-0.758332 1.198472,-0.41272 2.556917,-0.880459 5.342671,-0.880459 2.785841,0 4.144285,0.467739 5.342853,0.880459 1.132391,0.389938 2.202042,0.758332 4.175526,0.758332 1.973299,0 3.042851,-0.368394 4.175423,-0.758332 1.19931,-0.41272 2.55711,-0.880459 5.343134,-0.880459 2.786034,0 4.144757,0.467739 5.343132,0.880459 1.132584,0.389938 2.20214,0.758332 4.175343,0.758332 1.974128,0 3.043689,-0.368394 4.176271,-0.758332 1.198377,-0.41272 2.557105,-0.880459 5.343135,-0.880459 2.78603,0 4.14383,0.467739 5.34314,0.880459 1.13165,0.389938 2.20212,0.758332 4.17534,0.758332 1.97321,0 3.04276,-0.368394 4.17533,-0.758332 1.19931,-0.41272 2.55711,-0.880459 5.34315,-0.880459 2.78601,0 4.14381,0.467739 5.34312,0.880459 1.13257,0.389938 2.20213,0.758332 4.17533,0.758332 1.97322,0 3.04277,-0.368394 4.17534,-0.758332 1.19931,-0.41272 2.55711,-0.880459 5.34314,-0.880459 2.78603,0 4.14475,0.467739 5.34313,0.880459 1.13258,0.389938 2.20214,0.758332 4.17534,0.758332 1.97413,0 3.04368,-0.368394 4.17628,-0.758332 1.19837,-0.41272 2.55709,-0.880459 5.3422,-0.880459 2.78601,0 4.14474,0.467739 5.34313,0.880459 1.13257,0.389938 2.20213,0.758332 4.17626,0.758332 1.97321,0 3.04276,-0.368394 4.17534,-0.758332 1.19931,-0.41272 2.55711,-0.880459 5.34314,-0.880459"
       style="fill:none;fill-opacity:1;fill-rule:nonzero;stroke:#000000;stroke-width:0.355638;stroke-dasharray:none;stroke-opacity:1"
       id="path5022-7"
       sodipodi:nodetypes="ccscssscssscscscssscscscscscscscscscscscc" />
    <path
       d="m -11.317565,24.672646 c 2.7856575,0 4.1441019,0.467739 5.3426692,0.88046 1.1323903,0.389938 2.2020319,0.758332 4.1753425,0.758332 1.97347335,0 3.0432224,-0.368394 4.1757088,-0.758332 1.1985571,-0.412721 2.5570011,-0.88046 5.3428527,-0.88046 2.7855608,0 4.1440058,0.467739 5.3425738,0.88046 1.132401,0.389938 2.202042,0.758332 4.175342,0.758332 1.973387,0 3.042941,-0.368394 4.175525,-0.758332 1.198472,-0.412721 2.556917,-0.88046 5.342574,-0.88046 2.785852,0 4.144382,0.467739 5.343048,0.88046 1.132486,0.389938 2.202128,0.758332 4.175707,0.758332 1.973387,0 3.043038,-0.368394 4.175525,-0.758332 1.198568,-0.412721 2.557013,-0.88046 5.342757,-0.88046 2.785668,0 4.144113,0.467739 5.342681,0.88046 1.132476,0.389938 2.202128,0.758332 4.175429,0.758332 1.973386,0 3.043038,-0.368394 4.175524,-0.758332 1.198472,-0.412721 2.556917,-0.88046 5.342671,-0.88046 2.785841,0 4.144285,0.467739 5.342853,0.88046 1.132391,0.389938 2.202043,0.758332 4.175526,0.758332 1.973299,0 3.042851,-0.368394 4.175423,-0.758332 1.19931,-0.412721 2.55711,-0.88046 5.343134,-0.88046 2.786034,0 4.144757,0.467739 5.343132,0.88046 1.132584,0.389938 2.20214,0.758332 4.175343,0.758332 1.974128,0 3.043689,-0.368394 4.176271,-0.758332 1.198377,-0.412721 2.557093,-0.88046 5.343133,-0.88046 2.78604,0 4.14383,0.467739 5.34314,0.88046 1.13165,0.389938 2.20212,0.758332 4.17534,0.758332 1.97321,0 3.04276,-0.368394 4.17533,-0.758332 1.19931,-0.412721 2.55711,-0.88046 5.34315,-0.88046 2.78602,0 4.14381,0.467739 5.34312,0.88046 1.13257,0.389938 2.20213,0.758332 4.17533,0.758332 1.97322,0 3.04277,-0.368394 4.17535,-0.758332 1.1993,-0.412721 2.55711,-0.88046 5.34313,-0.88046 2.78605,0 4.14477,0.467739 5.34313,0.88046 1.13258,0.389938 2.20214,0.758332 4.17534,0.758332 1.97413,0 3.04368,-0.368394 4.17629,-0.758332 1.19837,-0.412721 2.55709,-0.88046 5.34219,-0.88046 2.78603,0 4.14474,0.467739 5.34313,0.88046 1.13257,0.389938 2.20213,0.758332 4.17626,0.758332 1.97321,0 3.04276,-0.368394 4.17534,-0.758332 1.19931,-0.412721 2.55711,-0.88046 5.34314,-0.88046"
       style="fill:none;fill-opacity:1;fill-rule:nonzero;stroke:#000000;stroke-width:0.355638;stroke-dasharray:none;stroke-opacity:1"
       id="path5022-6-5"
       sodipodi:nodetypes="ccscssscssscscscssscscscscscscscscscscscc" />
    <path
       d="m -10.403938,22.547368 c 2.7856582,0 4.1441026,0.467739 5.3426699,0.880459 1.1323903,0.389938 2.2020319,0.758332 4.17534253,0.758332 1.97347337,0 3.04322227,-0.368394 4.17570877,-0.758332 1.1985567,-0.41272 2.5570011,-0.880459 5.3428527,-0.880459 2.7855611,0 4.1440051,0.467739 5.3425741,0.880459 1.1324,0.389938 2.202042,0.758332 4.175342,0.758332 1.973387,0 3.042941,-0.368394 4.175525,-0.758332 1.198472,-0.41272 2.556916,-0.880459 5.342574,-0.880459 2.785851,0 4.144382,0.467739 5.343047,0.880459 1.132487,0.389938 2.202128,0.758332 4.175708,0.758332 1.973386,0 3.043038,-0.368394 4.175525,-0.758332 1.198568,-0.41272 2.557012,-0.880459 5.342757,-0.880459 2.785668,0 4.144112,0.467739 5.342681,0.880459 1.132476,0.389938 2.202128,0.758332 4.175428,0.758332 1.973387,0 3.043038,-0.368394 4.175525,-0.758332 1.198472,-0.41272 2.556916,-0.880459 5.342671,-0.880459 2.78584,0 4.144285,0.467739 5.342853,0.880459 1.13239,0.389938 2.202042,0.758332 4.175526,0.758332 1.973299,0 3.042851,-0.368394 4.175423,-0.758332 1.19931,-0.41272 2.55711,-0.880459 5.343134,-0.880459 2.786033,0 4.144757,0.467739 5.343132,0.880459 1.132584,0.389938 2.202139,0.758332 4.175342,0.758332 1.974134,0 3.043684,-0.368394 4.176267,-0.758332 1.198387,-0.41272 2.55711,-0.880459 5.34313,-0.880459 2.78604,0 4.14383,0.467739 5.34314,0.880459 1.13165,0.389938 2.20212,0.758332 4.17534,0.758332 1.97321,0 3.04276,-0.368394 4.17533,-0.758332 1.19931,-0.41272 2.55712,-0.880459 5.34315,-0.880459 2.78602,0 4.14382,0.467739 5.34312,0.880459 1.13257,0.389938 2.20213,0.758332 4.17533,0.758332 1.97322,0 3.04277,-0.368394 4.17536,-0.758332 1.19929,-0.41272 2.55711,-0.880459 5.34312,-0.880459 2.78605,0 4.14477,0.467739 5.34313,0.880459 1.13258,0.389938 2.20214,0.758332 4.17534,0.758332 1.97413,0 3.04368,-0.368394 4.17629,-0.758332 1.19837,-0.41272 2.5571,-0.880459 5.34219,-0.880459 2.78603,0 4.14475,0.467739 5.34313,0.880459 1.13257,0.389938 2.20213,0.758332 4.17626,0.758332 1.97321,0 3.04276,-0.368394 4.17535,-0.758332 1.1993,-0.41272 2.55711,-0.880459 5.34313,-0.880459"
       style="fill:none;fill-opacity:1;fill-rule:nonzero;stroke:#000000;stroke-width:0.355638;stroke-dasharray:none;stroke-opacity:1"
       id="path5022-2-9"
       sodipodi:nodetypes="ccscssscssscscscssscscscscscscscscscscscc" />
    <path
       d="m -11.126739,26.797924 c 2.7856588,0 4.1441032,0.467739 5.3426706,0.880459 1.1323902,0.389938 2.2020318,0.758332 4.1753424,0.758332 1.97347338,0 3.0432224,-0.368394 4.1757088,-0.758332 1.1985571,-0.41272 2.5570011,-0.880459 5.3428528,-0.880459 2.7855614,0 4.1440054,0.467739 5.3425734,0.880459 1.132401,0.389938 2.202042,0.758332 4.175343,0.758332 1.973386,0 3.042941,-0.368394 4.175524,-0.758332 1.198473,-0.41272 2.556917,-0.880459 5.342574,-0.880459 2.785852,0 4.144382,0.467739 5.343048,0.880459 1.132486,0.389938 2.202128,0.758332 4.175708,0.758332 1.973386,0 3.043038,-0.368394 4.175524,-0.758332 1.198569,-0.41272 2.557013,-0.880459 5.342757,-0.880459 2.785669,0 4.144113,0.467739 5.342681,0.880459 1.132477,0.389938 2.202129,0.758332 4.175429,0.758332 1.973386,0 3.043038,-0.368394 4.175525,-0.758332 1.198472,-0.41272 2.556916,-0.880459 5.342671,-0.880459 2.78584,0 4.144284,0.467739 5.342853,0.880459 1.13239,0.389938 2.202042,0.758332 4.175525,0.758332 1.9733,0 3.042851,-0.368394 4.175424,-0.758332 1.19931,-0.41272 2.55711,-0.880459 5.343133,-0.880459 2.786034,0 4.144758,0.467739 5.343133,0.880459 1.132583,0.389938 2.202139,0.758332 4.175342,0.758332 1.974128,0 3.043687,-0.368394 4.17627,-0.758332 1.198387,-0.41272 2.557097,-0.880459 5.343147,-0.880459 2.78603,0 4.14383,0.467739 5.34313,0.880459 1.13166,0.389938 2.20213,0.758332 4.17535,0.758332 1.9732,0 3.04275,-0.368394 4.17533,-0.758332 1.1993,-0.41272 2.55711,-0.880459 5.34315,-0.880459 2.78601,0 4.14382,0.467739 5.34311,0.880459 1.13259,0.389938 2.20214,0.758332 4.17532,0.758332 1.97322,0 3.04277,-0.368394 4.17535,-0.758332 1.1993,-0.41272 2.55711,-0.880459 5.34313,-0.880459 2.78604,0 4.14477,0.467739 5.34313,0.880459 1.13259,0.389938 2.20215,0.758332 4.17534,0.758332 1.97413,0 3.04368,-0.368394 4.17629,-0.758332 1.19836,-0.41272 2.55709,-0.880459 5.34219,-0.880459 2.78603,0 4.14475,0.467739 5.34313,0.880459 1.13258,0.389938 2.20214,0.758332 4.17627,0.758332 1.9732,0 3.04275,-0.368394 4.17534,-0.758332 1.1993,-0.41272 2.55711,-0.880459 5.34314,-0.880459"
       style="fill:none;fill-opacity:1;fill-rule:nonzero;stroke:#000000;stroke-width:0.355638;stroke-dasharray:none;stroke-opacity:1"
       id="path5022-61-22"
       sodipodi:nodetypes="ccscssscssscscscssscscscscscscscscscscscc" />
    <path
       d="m -11.691899,28.923202 c 2.7856582,0 4.1441026,0.467739 5.3426699,0.880459 1.1323903,0.389938 2.2020319,0.758332 4.1753425,0.758332 1.97347338,0 3.04322137,-0.368394 4.1757088,-0.758332 1.1985571,-0.41272 2.5570019,-0.880459 5.3428536,-0.880459 2.7855612,0 4.1440052,0.467739 5.3425742,0.880459 1.1324,0.389938 2.202042,0.758332 4.175342,0.758332 1.973386,0 3.042941,-0.368394 4.175525,-0.758332 1.198472,-0.41272 2.556916,-0.880459 5.342574,-0.880459 2.785851,0 4.144381,0.467739 5.343047,0.880459 1.132487,0.389938 2.202128,0.758332 4.175708,0.758332 1.973386,0 3.043038,-0.368394 4.175524,-0.758332 1.198569,-0.41272 2.557013,-0.880459 5.342757,-0.880459 2.785669,0 4.144113,0.467739 5.342682,0.880459 1.132476,0.389938 2.202128,0.758332 4.175428,0.758332 1.973386,0 3.043038,-0.368394 4.175525,-0.758332 1.198472,-0.41272 2.556916,-0.880459 5.342671,-0.880459 2.78584,0 4.144285,0.467739 5.342853,0.880459 1.13239,0.389938 2.202042,0.758332 4.175526,0.758332 1.973299,0 3.04285,-0.368394 4.175423,-0.758332 1.19931,-0.41272 2.55711,-0.880459 5.343133,-0.880459 2.786034,0 4.144758,0.467739 5.343133,0.880459 1.132583,0.389938 2.202139,0.758332 4.175342,0.758332 1.974128,0 3.043684,-0.368394 4.176269,-0.758332 1.198387,-0.41272 2.557101,-0.880459 5.343128,-0.880459 2.78604,0 4.14383,0.467739 5.34314,0.880459 1.13165,0.389938 2.20213,0.758332 4.17534,0.758332 1.97321,0 3.04276,-0.368394 4.17534,-0.758332 1.1993,-0.41272 2.55711,-0.880459 5.34314,-0.880459 2.78602,0 4.14381,0.467739 5.34312,0.880459 1.13257,0.389938 2.20213,0.758332 4.17533,0.758332 1.97322,0 3.04277,-0.368394 4.17535,-0.758332 1.1993,-0.41272 2.55711,-0.880459 5.34313,-0.880459 2.78603,0 4.14476,0.467739 5.34313,0.880459 1.13258,0.389938 2.20215,0.758332 4.17534,0.758332 1.97413,0 3.04368,-0.368394 4.17628,-0.758332 1.19837,-0.41272 2.5571,-0.880459 5.3422,-0.880459 2.78602,0 4.14474,0.467739 5.34313,0.880459 1.13257,0.389938 2.20214,0.758332 4.17626,0.758332 1.97321,0 3.04276,-0.368394 4.17535,-0.758332 1.1993,-0.41272 2.55711,-0.880459 5.34313,-0.880459"
       style="fill:none;fill-opacity:1;fill-rule:nonzero;stroke:#000000;stroke-width:0.355638;stroke-dasharray:none;stroke-opacity:1"
       id="path5022-8-8"
       sodipodi:nodetypes="ccscssscssscscscssscscscscscscscscscscscc" />
    <path
       d="m -11.293511,31.04848 c 2.785658,0 4.1441026,0.467739 5.3426706,0.880459 1.1323901,0.389938 2.2020315,0.758332 4.1753424,0.758332 1.97347265,0 3.0432216,-0.368394 4.1757083,-0.758332 1.1985574,-0.41272 2.5570019,-0.880459 5.3428534,-0.880459 2.7855613,0 4.1440053,0.467739 5.3425743,0.880459 1.1324,0.389938 2.202042,0.758332 4.175342,0.758332 1.973387,0 3.042941,-0.368394 4.175525,-0.758332 1.198472,-0.41272 2.556916,-0.880459 5.342574,-0.880459 2.785851,0 4.144382,0.467739 5.343047,0.880459 1.132487,0.389938 2.202128,0.758332 4.175708,0.758332 1.973386,0 3.043038,-0.368394 4.175525,-0.758332 1.198568,-0.41272 2.557012,-0.880459 5.342757,-0.880459 2.785668,0 4.144112,0.467739 5.342681,0.880459 1.132476,0.389938 2.202128,0.758332 4.175428,0.758332 1.973387,0 3.043038,-0.368394 4.175525,-0.758332 1.198472,-0.41272 2.556916,-0.880459 5.342671,-0.880459 2.78584,0 4.144285,0.467739 5.342853,0.880459 1.13239,0.389938 2.202042,0.758332 4.175526,0.758332 1.973299,0 3.042851,-0.368394 4.175423,-0.758332 1.19931,-0.41272 2.55711,-0.880459 5.343134,-0.880459 2.786033,0 4.144757,0.467739 5.343132,0.880459 1.132584,0.389938 2.202139,0.758332 4.175343,0.758332 1.974128,0 3.043683,-0.368394 4.176267,-0.758332 1.198385,-0.41272 2.557101,-0.880459 5.343121,-0.880459 2.78604,0 4.14383,0.467739 5.34314,0.880459 1.13165,0.389938 2.20212,0.758332 4.17534,0.758332 1.97321,0 3.04276,-0.368394 4.17533,-0.758332 1.19931,-0.41272 2.55712,-0.880459 5.34315,-0.880459 2.78602,0 4.14382,0.467739 5.34313,0.880459 1.13257,0.389938 2.20212,0.758332 4.17533,0.758332 1.97322,0 3.04277,-0.368394 4.17534,-0.758332 1.19931,-0.41272 2.55711,-0.880459 5.34314,-0.880459 2.78603,0 4.14475,0.467739 5.34313,0.880459 1.13258,0.389938 2.20214,0.758332 4.17534,0.758332 1.97413,0 3.04368,-0.368394 4.17627,-0.758332 1.19838,-0.41272 2.5571,-0.880459 5.34221,-0.880459 2.78602,0 4.14474,0.467739 5.34313,0.880459 1.13257,0.389938 2.20213,0.758332 4.17626,0.758332 1.97321,0 3.04276,-0.368394 4.17534,-0.758332 1.19931,-0.41272 2.55711,-0.880459 5.34314,-0.880459"
       style="fill:none;fill-opacity:1;fill-rule:nonzero;stroke:#000000;stroke-width:0.355638;stroke-dasharray:none;stroke-opacity:1"
       id="path5022-97"
       sodipodi:nodetypes="ccscssscssscscscssscscscscscscscscscscscc" />
    <path
       d="m -12.300009,35.299035 c 2.7856589,0 4.1441033,0.467739 5.3426707,0.88046 1.1323902,0.389938 2.2020318,0.758332 4.1753425,0.758332 1.97347325,0 3.0432223,-0.368394 4.1757088,-0.758332 1.198557,-0.412721 2.5570014,-0.88046 5.3428531,-0.88046 2.7855607,0 4.1440049,0.467739 5.3425739,0.88046 1.1324,0.389938 2.202042,0.758332 4.175342,0.758332 1.973387,0 3.042941,-0.368394 4.175525,-0.758332 1.198472,-0.412721 2.556916,-0.88046 5.342574,-0.88046 2.785851,0 4.144382,0.467739 5.343047,0.88046 1.132487,0.389938 2.202128,0.758332 4.175708,0.758332 1.973386,0 3.043038,-0.368394 4.175525,-0.758332 1.198568,-0.412721 2.557012,-0.88046 5.342757,-0.88046 2.785668,0 4.144113,0.467739 5.342681,0.88046 1.132476,0.389938 2.202128,0.758332 4.175428,0.758332 1.973387,0 3.043038,-0.368394 4.175525,-0.758332 1.198472,-0.412721 2.556916,-0.88046 5.342671,-0.88046 2.78584,0 4.144285,0.467739 5.342853,0.88046 1.13239,0.389938 2.202042,0.758332 4.175526,0.758332 1.973299,0 3.042851,-0.368394 4.175423,-0.758332 1.19931,-0.412721 2.55711,-0.88046 5.343134,-0.88046 2.786033,0 4.144757,0.467739 5.343132,0.88046 1.132584,0.389938 2.202139,0.758332 4.175343,0.758332 1.974128,0 3.043683,-0.368394 4.176267,-0.758332 1.198385,-0.412721 2.557099,-0.88046 5.343129,-0.88046 2.78603,0 4.14382,0.467739 5.34313,0.88046 1.13165,0.389938 2.20213,0.758332 4.17534,0.758332 1.97321,0 3.04276,-0.368394 4.17534,-0.758332 1.1993,-0.412721 2.55711,-0.88046 5.34314,-0.88046 2.78602,0 4.14382,0.467739 5.34313,0.88046 1.13258,0.389938 2.20213,0.758332 4.17533,0.758332 1.97322,0 3.04277,-0.368394 4.17536,-0.758332 1.19929,-0.412721 2.5571,-0.88046 5.34312,-0.88046 2.78604,0 4.14477,0.467739 5.34313,0.88046 1.13258,0.389938 2.20215,0.758332 4.17534,0.758332 1.97413,0 3.04368,-0.368394 4.17629,-0.758332 1.19836,-0.412721 2.55709,-0.88046 5.34219,-0.88046 2.78602,0 4.14475,0.467739 5.34313,0.88046 1.13257,0.389938 2.20214,0.758332 4.17626,0.758332 1.97321,0 3.04276,-0.368394 4.17535,-0.758332 1.1993,-0.412721 2.5571,-0.88046 5.34313,-0.88046"
       style="fill:none;fill-opacity:1;fill-rule:nonzero;stroke:#000000;stroke-width:0.355638;stroke-dasharray:none;stroke-opacity:1"
       id="path5022-6-3"
       sodipodi:nodetypes="ccscssscssscscscssscscscscscscscscscscscc" />
    <path
       d="m -11.386381,33.173757 c 2.7856586,0 4.144103,0.467739 5.3426704,0.880459 1.1323903,0.389938 2.2020318,0.758332 4.1753425,0.758332 1.97347328,0 3.0432223,-0.368394 4.1757087,-0.758332 1.1985571,-0.41272 2.5570015,-0.880459 5.3428528,-0.880459 2.7855606,0 4.1440056,0.467739 5.3425736,0.880459 1.132401,0.389938 2.202043,0.758332 4.175343,0.758332 1.973386,0 3.042941,-0.368394 4.175525,-0.758332 1.198472,-0.41272 2.556916,-0.880459 5.342573,-0.880459 2.785852,0 4.144382,0.467739 5.343048,0.880459 1.132486,0.389938 2.202128,0.758332 4.175708,0.758332 1.973386,0 3.043038,-0.368394 4.175524,-0.758332 1.198569,-0.41272 2.557013,-0.880459 5.342757,-0.880459 2.785669,0 4.144113,0.467739 5.342682,0.880459 1.132476,0.389938 2.202128,0.758332 4.175428,0.758332 1.973386,0 3.043038,-0.368394 4.175525,-0.758332 1.198472,-0.41272 2.556916,-0.880459 5.342671,-0.880459 2.78584,0 4.144284,0.467739 5.342853,0.880459 1.13239,0.389938 2.202042,0.758332 4.175525,0.758332 1.9733,0 3.042851,-0.368394 4.175424,-0.758332 1.19931,-0.41272 2.55711,-0.880459 5.343133,-0.880459 2.786034,0 4.144758,0.467739 5.343133,0.880459 1.132583,0.389938 2.202139,0.758332 4.175342,0.758332 1.974128,0 3.043684,-0.368394 4.176268,-0.758332 1.198385,-0.41272 2.557101,-0.880459 5.343121,-0.880459 2.78603,0 4.14383,0.467739 5.34314,0.880459 1.13165,0.389938 2.20212,0.758332 4.17534,0.758332 1.97321,0 3.04276,-0.368394 4.17533,-0.758332 1.19931,-0.41272 2.55711,-0.880459 5.34315,-0.880459 2.78601,0 4.14382,0.467739 5.34313,0.880459 1.13257,0.389938 2.20212,0.758332 4.17533,0.758332 1.97322,0 3.04277,-0.368394 4.17535,-0.758332 1.1993,-0.41272 2.5571,-0.880459 5.34313,-0.880459 2.78603,0 4.14476,0.467739 5.34312,0.880459 1.13259,0.389938 2.20215,0.758332 4.17535,0.758332 1.97413,0 3.04368,-0.368394 4.17628,-0.758332 1.19837,-0.41272 2.55709,-0.880459 5.3422,-0.880459 2.78601,0 4.14474,0.467739 5.34312,0.880459 1.13258,0.389938 2.20214,0.758332 4.17627,0.758332 1.97321,0 3.04276,-0.368394 4.17534,-0.758332 1.19931,-0.41272 2.5571,-0.880459 5.34314,-0.880459"
       style="fill:none;fill-opacity:1;fill-rule:nonzero;stroke:#000000;stroke-width:0.355638;stroke-dasharray:none;stroke-opacity:1"
       id="path5022-2-6"
       sodipodi:nodetypes="ccscssscssscscscssscscscscscscscscscscscc" />
    <path
       d="m -12.109181,37.424313 c 2.7856583,0 4.1441027,0.467739 5.34267,0.880459 1.1323903,0.389938 2.2020319,0.758332 4.1753424,0.758332 1.97347341,0 3.04322242,-0.368394 4.1757089,-0.758332 1.1985571,-0.41272 2.5570014,-0.880459 5.3428531,-0.880459 2.7855607,0 4.1440056,0.467739 5.3425736,0.880459 1.132401,0.389938 2.202042,0.758332 4.175343,0.758332 1.973386,0 3.042941,-0.368394 4.175524,-0.758332 1.198472,-0.41272 2.556917,-0.880459 5.342574,-0.880459 2.785852,0 4.144382,0.467739 5.343048,0.880459 1.132486,0.389938 2.202128,0.758332 4.175707,0.758332 1.973387,0 3.043038,-0.368394 4.175525,-0.758332 1.198568,-0.41272 2.557013,-0.880459 5.342757,-0.880459 2.785668,0 4.144113,0.467739 5.342681,0.880459 1.132476,0.389938 2.202128,0.758332 4.175429,0.758332 1.973386,0 3.043038,-0.368394 4.175524,-0.758332 1.198472,-0.41272 2.556917,-0.880459 5.342671,-0.880459 2.785841,0 4.144285,0.467739 5.342853,0.880459 1.132391,0.389938 2.202043,0.758332 4.175526,0.758332 1.973299,0 3.042851,-0.368394 4.175423,-0.758332 1.199311,-0.41272 2.55711,-0.880459 5.343134,-0.880459 2.786034,0 4.144757,0.467739 5.343132,0.880459 1.132584,0.389938 2.20214,0.758332 4.175343,0.758332 1.974128,0 3.043684,-0.368394 4.176267,-0.758332 1.198385,-0.41272 2.557101,-0.880459 5.343132,-0.880459 2.78604,0 4.14383,0.467739 5.34314,0.880459 1.13165,0.389938 2.20212,0.758332 4.17534,0.758332 1.97321,0 3.04276,-0.368394 4.17533,-0.758332 1.19931,-0.41272 2.55711,-0.880459 5.34315,-0.880459 2.78602,0 4.14382,0.467739 5.34313,0.880459 1.13257,0.389938 2.20212,0.758332 4.17532,0.758332 1.97322,0 3.04277,-0.368394 4.17534,-0.758332 1.19931,-0.41272 2.5571,-0.880459 5.34314,-0.880459 2.78603,0 4.14475,0.467739 5.34313,0.880459 1.13258,0.389938 2.20214,0.758332 4.17534,0.758332 1.97413,0 3.04368,-0.368394 4.17627,-0.758332 1.19838,-0.41272 2.55709,-0.880459 5.34221,-0.880459 2.78602,0 4.14474,0.467739 5.34313,0.880459 1.13257,0.389938 2.20213,0.758332 4.17626,0.758332 1.97321,0 3.04276,-0.368394 4.17534,-0.758332 1.19931,-0.41272 2.5571,-0.880459 5.34314,-0.880459"
       style="fill:none;fill-opacity:1;fill-rule:nonzero;stroke:#000000;stroke-width:0.355638;stroke-dasharray:none;stroke-opacity:1"
       id="path5022-61-1"
       sodipodi:nodetypes="ccscssscssscscscssscscscscscscscscscscscc" />
    <path
       d="m -12.674342,39.549591 c 2.7856583,0 4.144103,0.467739 5.3426704,0.880459 1.1323903,0.389938 2.2020319,0.758332 4.1753425,0.758332 1.9734733,0 3.0432213,-0.368394 4.1757088,-0.758332 1.1985571,-0.41272 2.5570014,-0.880459 5.3428531,-0.880459 2.7855615,0 4.1440062,0.467739 5.3425742,0.880459 1.132401,0.389938 2.202042,0.758332 4.175343,0.758332 1.973386,0 3.042941,-0.368394 4.175524,-0.758332 1.198473,-0.41272 2.556917,-0.880459 5.342574,-0.880459 2.785852,0 4.144382,0.467739 5.343048,0.880459 1.132486,0.389938 2.202128,0.758332 4.175708,0.758332 1.973386,0 3.043038,-0.368394 4.175524,-0.758332 1.198569,-0.41272 2.557013,-0.880459 5.342757,-0.880459 2.785669,0 4.144113,0.467739 5.342681,0.880459 1.132477,0.389938 2.202128,0.758332 4.175429,0.758332 1.973386,0 3.043038,-0.368394 4.175524,-0.758332 1.198473,-0.41272 2.556917,-0.880459 5.342672,-0.880459 2.78584,0 4.144284,0.467739 5.342853,0.880459 1.13239,0.389938 2.202042,0.758332 4.175525,0.758332 1.9733,0 3.042851,-0.368394 4.175424,-0.758332 1.19931,-0.41272 2.55711,-0.880459 5.343133,-0.880459 2.786034,0 4.144758,0.467739 5.343133,0.880459 1.132583,0.389938 2.202139,0.758332 4.175342,0.758332 1.974128,0 3.043684,-0.368394 4.176267,-0.758332 1.198386,-0.41272 2.557101,-0.880459 5.343122,-0.880459 2.78604,0 4.14383,0.467739 5.34314,0.880459 1.13165,0.389938 2.20212,0.758332 4.17534,0.758332 1.97321,0 3.04276,-0.368394 4.17533,-0.758332 1.19931,-0.41272 2.55711,-0.880459 5.34315,-0.880459 2.78602,0 4.14382,0.467739 5.34313,0.880459 1.13257,0.389938 2.20212,0.758332 4.17533,0.758332 1.97322,0 3.04277,-0.368394 4.17534,-0.758332 1.19931,-0.41272 2.5571,-0.880459 5.34314,-0.880459 2.78603,0 4.14475,0.467739 5.34313,0.880459 1.13258,0.389938 2.20214,0.758332 4.17534,0.758332 1.97413,0 3.04368,-0.368394 4.17627,-0.758332 1.19838,-0.41272 2.55709,-0.880459 5.34221,-0.880459 2.78601,0 4.14474,0.467739 5.34313,0.880459 1.13257,0.389938 2.20213,0.758332 4.17626,0.758332 1.97321,0 3.04276,-0.368394 4.17534,-0.758332 1.19931,-0.41272 2.5571,-0.880459 5.34314,-0.880459"
       style="fill:none;fill-opacity:1;fill-rule:nonzero;stroke:#000000;stroke-width:0.355638;stroke-dasharray:none;stroke-opacity:1"
       id="path5022-8-2"
       sodipodi:nodetypes="ccscssscssscscscssscscscscscscscscscscscc" />
    <path
       d="m -12.018752,41.674868 c 2.7856581,0 4.1441027,0.467739 5.3426707,0.880459 1.1323901,0.389938 2.2020315,0.758332 4.1753424,0.758332 1.97347261,0 3.04322152,-0.368394 4.1757083,-0.758332 1.1985574,-0.41272 2.5570016,-0.880459 5.3428532,-0.880459 2.7855611,0 4.1440054,0.467739 5.3425734,0.880459 1.132401,0.389938 2.202042,0.758332 4.175343,0.758332 1.973386,0 3.042941,-0.368394 4.175524,-0.758332 1.198473,-0.41272 2.556917,-0.880459 5.342574,-0.880459 2.785852,0 4.144382,0.467739 5.343048,0.880459 1.132486,0.389938 2.202128,0.758332 4.175708,0.758332 1.973386,0 3.043038,-0.368394 4.175524,-0.758332 1.198568,-0.41272 2.557013,-0.880459 5.342757,-0.880459 2.785669,0 4.144113,0.467739 5.342681,0.880459 1.132477,0.389938 2.202128,0.758332 4.175429,0.758332 1.973386,0 3.043038,-0.368394 4.175524,-0.758332 1.198473,-0.41272 2.556917,-0.880459 5.342672,-0.880459 2.78584,0 4.144284,0.467739 5.342853,0.880459 1.13239,0.389938 2.202042,0.758332 4.175525,0.758332 1.9733,0 3.042851,-0.368394 4.175424,-0.758332 1.19931,-0.41272 2.55711,-0.880459 5.343133,-0.880459 2.786034,0 4.144758,0.467739 5.343133,0.880459 1.132583,0.389938 2.202139,0.758332 4.175342,0.758332 1.974128,0 3.043684,-0.368394 4.176271,-0.758332 1.198387,-0.41272 2.557101,-0.880459 5.343129,-0.880459 2.78604,0 4.14383,0.467739 5.34314,0.880459 1.13165,0.389938 2.20212,0.758332 4.17534,0.758332 1.97321,0 3.04276,-0.368394 4.17533,-0.758332 1.19931,-0.41272 2.55711,-0.880459 5.34315,-0.880459 2.78602,0 4.14382,0.467739 5.34313,0.880459 1.13257,0.389938 2.20212,0.758332 4.17533,0.758332 1.97322,0 3.04277,-0.368394 4.17534,-0.758332 1.19931,-0.41272 2.5571,-0.880459 5.34314,-0.880459 2.78603,0 4.14475,0.467739 5.34313,0.880459 1.13258,0.389938 2.20214,0.758332 4.17534,0.758332 1.97413,0 3.04368,-0.368394 4.17627,-0.758332 1.19838,-0.41272 2.55709,-0.880459 5.34221,-0.880459 2.78602,0 4.14474,0.467739 5.34313,0.880459 1.13257,0.389938 2.20213,0.758332 4.17626,0.758332 1.97321,0 3.04276,-0.368394 4.17534,-0.758332 1.19931,-0.41272 2.5571,-0.880459 5.34314,-0.880459"
       style="fill:none;fill-opacity:1;fill-rule:nonzero;stroke:#000000;stroke-width:0.355638;stroke-dasharray:none;stroke-opacity:1"
       id="path5022-93"
       sodipodi:nodetypes="ccscssscssscscscssscscscscscscscscscscscc" />
    <path
       d="m -13.025249,45.925423 c 2.785658,0 4.1441024,0.467739 5.3426697,0.88046 1.1323903,0.389938 2.2020319,0.758332 4.1753425,0.758332 1.9734733,0 3.04322236,-0.368394 4.17570882,-0.758332 1.19855708,-0.412721 2.55700148,-0.88046 5.34285368,-0.88046 2.78556,0 4.1440043,0.467739 5.3425723,0.88046 1.132401,0.389938 2.202042,0.758332 4.175343,0.758332 1.973386,0 3.042941,-0.368394 4.175524,-0.758332 1.198473,-0.412721 2.556917,-0.88046 5.342574,-0.88046 2.785852,0 4.144382,0.467739 5.343048,0.88046 1.132486,0.389938 2.202128,0.758332 4.175708,0.758332 1.973386,0 3.043038,-0.368394 4.175524,-0.758332 1.198569,-0.412721 2.557013,-0.88046 5.342757,-0.88046 2.785669,0 4.144113,0.467739 5.342681,0.88046 1.132477,0.389938 2.202128,0.758332 4.175429,0.758332 1.973386,0 3.043038,-0.368394 4.175524,-0.758332 1.198473,-0.412721 2.556917,-0.88046 5.342672,-0.88046 2.78584,0 4.144284,0.467739 5.342853,0.88046 1.13239,0.389938 2.202042,0.758332 4.175525,0.758332 1.9733,0 3.042851,-0.368394 4.175424,-0.758332 1.19931,-0.412721 2.55711,-0.88046 5.343133,-0.88046 2.786034,0 4.144758,0.467739 5.343133,0.88046 1.132583,0.389938 2.202139,0.758332 4.175342,0.758332 1.974128,0 3.043684,-0.368394 4.176271,-0.758332 1.198387,-0.412721 2.557091,-0.88046 5.343127,-0.88046 2.78604,0 4.14383,0.467739 5.34314,0.88046 1.13165,0.389938 2.20212,0.758332 4.17534,0.758332 1.97321,0 3.04276,-0.368394 4.17533,-0.758332 1.19931,-0.412721 2.55712,-0.88046 5.34315,-0.88046 2.78602,0 4.14382,0.467739 5.34313,0.88046 1.13257,0.389938 2.20212,0.758332 4.17533,0.758332 1.97322,0 3.04277,-0.368394 4.17535,-0.758332 1.1993,-0.412721 2.55711,-0.88046 5.34313,-0.88046 2.78604,0 4.14476,0.467739 5.34313,0.88046 1.13258,0.389938 2.20214,0.758332 4.17534,0.758332 1.97413,0 3.04368,-0.368394 4.17628,-0.758332 1.19837,-0.412721 2.5571,-0.88046 5.3422,-0.88046 2.78602,0 4.14474,0.467739 5.34313,0.88046 1.13257,0.389938 2.20213,0.758332 4.17626,0.758332 1.97321,0 3.04276,-0.368394 4.17534,-0.758332 1.19931,-0.412721 2.55711,-0.88046 5.34314,-0.88046"
       style="fill:none;fill-opacity:1;fill-rule:nonzero;stroke:#000000;stroke-width:0.355638;stroke-dasharray:none;stroke-opacity:1"
       id="path5022-6-1"
       sodipodi:nodetypes="ccscssscssscscscssscscscscscscscscscscscc" />
    <path
       d="m -12.111621,43.800146 c 2.7856577,0 4.1441021,0.467739 5.3426694,0.880459 1.1323903,0.389938 2.2020319,0.758332 4.1753425,0.758332 1.97347334,0 3.04322236,-0.368394 4.1757088,-0.758332 1.1985571,-0.41272 2.557002,-0.880459 5.3428526,-0.880459 2.7855612,0 4.1440057,0.467739 5.3425737,0.880459 1.132401,0.389938 2.202042,0.758332 4.175342,0.758332 1.973387,0 3.042941,-0.368394 4.175525,-0.758332 1.198472,-0.41272 2.556917,-0.880459 5.342574,-0.880459 2.785852,0 4.144382,0.467739 5.343048,0.880459 1.132486,0.389938 2.202128,0.758332 4.175707,0.758332 1.973387,0 3.043038,-0.368394 4.175525,-0.758332 1.198568,-0.41272 2.557013,-0.880459 5.342757,-0.880459 2.785668,0 4.144113,0.467739 5.342681,0.880459 1.132476,0.389938 2.202128,0.758332 4.175429,0.758332 1.973386,0 3.043038,-0.368394 4.175524,-0.758332 1.198472,-0.41272 2.556917,-0.880459 5.342671,-0.880459 2.785841,0 4.144285,0.467739 5.342853,0.880459 1.132391,0.389938 2.202042,0.758332 4.175526,0.758332 1.973299,0 3.042851,-0.368394 4.175423,-0.758332 1.19931,-0.41272 2.55711,-0.880459 5.343134,-0.880459 2.786034,0 4.144757,0.467739 5.343132,0.880459 1.132584,0.389938 2.20214,0.758332 4.175343,0.758332 1.974128,0 3.043684,-0.368394 4.176265,-0.758332 1.198387,-0.41272 2.557112,-0.880459 5.343125,-0.880459 2.78604,0 4.14384,0.467739 5.34314,0.880459 1.13165,0.389938 2.20213,0.758332 4.17534,0.758332 1.97321,0 3.04276,-0.368394 4.17534,-0.758332 1.1993,-0.41272 2.55711,-0.880459 5.34314,-0.880459 2.78602,0 4.14382,0.467739 5.34313,0.880459 1.13258,0.389938 2.20213,0.758332 4.17533,0.758332 1.97322,0 3.04277,-0.368394 4.17536,-0.758332 1.19929,-0.41272 2.5571,-0.880459 5.34312,-0.880459 2.78604,0 4.14477,0.467739 5.34313,0.880459 1.13259,0.389938 2.20215,0.758332 4.17534,0.758332 1.97413,0 3.04368,-0.368394 4.17629,-0.758332 1.19836,-0.41272 2.55709,-0.880459 5.34219,-0.880459 2.78602,0 4.14475,0.467739 5.34313,0.880459 1.13258,0.389938 2.20214,0.758332 4.17626,0.758332 1.97321,0 3.04276,-0.368394 4.17535,-0.758332 1.1993,-0.41272 2.5571,-0.880459 5.34313,-0.880459"
       style="fill:none;fill-opacity:1;fill-rule:nonzero;stroke:#000000;stroke-width:0.355638;stroke-dasharray:none;stroke-opacity:1"
       id="path5022-2-94"
       sodipodi:nodetypes="ccscssscssscscscssscscscscscscscscscscscc" />
    <path
       d="m -12.834422,48.050702 c 2.785659,0 4.1441027,0.467739 5.34267,0.880459 1.1323903,0.389938 2.2020319,0.758332 4.1753424,0.758332 1.9734734,0 3.04322249,-0.368394 4.17570895,-0.758332 1.19855705,-0.41272 2.55700145,-0.880459 5.34285265,-0.880459 2.7855611,0 4.144005,0.467739 5.342574,0.880459 1.1324,0.389938 2.202042,0.758332 4.175342,0.758332 1.973386,0 3.042941,-0.368394 4.175525,-0.758332 1.198472,-0.41272 2.556916,-0.880459 5.342574,-0.880459 2.785851,0 4.144382,0.467739 5.343047,0.880459 1.132487,0.389938 2.202128,0.758332 4.175708,0.758332 1.973386,0 3.043038,-0.368394 4.175524,-0.758332 1.198569,-0.41272 2.557013,-0.880459 5.342757,-0.880459 2.785669,0 4.144113,0.467739 5.342682,0.880459 1.132476,0.389938 2.202128,0.758332 4.175428,0.758332 1.973387,0 3.043038,-0.368394 4.175525,-0.758332 1.198472,-0.41272 2.556916,-0.880459 5.342671,-0.880459 2.78584,0 4.144285,0.467739 5.342853,0.880459 1.13239,0.389938 2.202042,0.758332 4.175526,0.758332 1.973299,0 3.042851,-0.368394 4.175423,-0.758332 1.19931,-0.41272 2.55711,-0.880459 5.343133,-0.880459 2.786034,0 4.144758,0.467739 5.343133,0.880459 1.132584,0.389938 2.202139,0.758332 4.175342,0.758332 1.974128,0 3.043684,-0.368394 4.176269,-0.758332 1.198387,-0.41272 2.557102,-0.880459 5.343142,-0.880459 2.78603,0 4.14383,0.467739 5.34314,0.880459 1.13165,0.389938 2.20212,0.758332 4.17534,0.758332 1.97321,0 3.04276,-0.368394 4.17533,-0.758332 1.19931,-0.41272 2.55711,-0.880459 5.34315,-0.880459 2.78601,0 4.14382,0.467739 5.34313,0.880459 1.13257,0.389938 2.20212,0.758332 4.17532,0.758332 1.97322,0 3.04277,-0.368394 4.17534,-0.758332 1.19931,-0.41272 2.5571,-0.880459 5.34314,-0.880459 2.78602,0 4.14475,0.467739 5.34313,0.880459 1.13258,0.389938 2.20214,0.758332 4.17534,0.758332 1.97413,0 3.04368,-0.368394 4.17627,-0.758332 1.19838,-0.41272 2.55709,-0.880459 5.34221,-0.880459 2.78601,0 4.14474,0.467739 5.34313,0.880459 1.13257,0.389938 2.20213,0.758332 4.17626,0.758332 1.97321,0 3.04276,-0.368394 4.17534,-0.758332 1.19931,-0.41272 2.5571,-0.880459 5.34314,-0.880459"
       style="fill:none;fill-opacity:1;fill-rule:nonzero;stroke:#000000;stroke-width:0.355638;stroke-dasharray:none;stroke-opacity:1"
       id="path5022-61-7"
       sodipodi:nodetypes="ccscssscssscscscssscscscscscscscscscscscc" />
    <path
       d="m -13.399582,50.17598 c 2.785658,0 4.1441021,0.467739 5.3426694,0.880459 1.1323903,0.389938 2.2020319,0.758332 4.1753425,0.758332 1.9734733,0 3.04322133,-0.368394 4.17570884,-0.758332 1.19855706,-0.41272 2.55700146,-0.880459 5.34285346,-0.880459 2.7855611,0 4.1440055,0.467739 5.3425738,0.880459 1.1324,0.389938 2.202042,0.758332 4.175342,0.758332 1.973387,0 3.042941,-0.368394 4.175525,-0.758332 1.198472,-0.41272 2.556917,-0.880459 5.342574,-0.880459 2.785851,0 4.144382,0.467739 5.343047,0.880459 1.132487,0.389938 2.202128,0.758332 4.175708,0.758332 1.973386,0 3.043038,-0.368394 4.175525,-0.758332 1.198568,-0.41272 2.557012,-0.880459 5.342757,-0.880459 2.785668,0 4.144113,0.467739 5.342681,0.880459 1.132476,0.389938 2.202128,0.758332 4.175428,0.758332 1.973387,0 3.043039,-0.368394 4.175525,-0.758332 1.198472,-0.41272 2.556917,-0.880459 5.342671,-0.880459 2.78584,0 4.144285,0.467739 5.342853,0.880459 1.132391,0.389938 2.202042,0.758332 4.175526,0.758332 1.973299,0 3.042851,-0.368394 4.175423,-0.758332 1.19931,-0.41272 2.55711,-0.880459 5.343134,-0.880459 2.786033,0 4.144757,0.467739 5.343132,0.880459 1.132584,0.389938 2.202139,0.758332 4.175343,0.758332 1.974128,0 3.043683,-0.368394 4.176267,-0.758332 1.198387,-0.41272 2.557102,-0.880459 5.343133,-0.880459 2.78603,0 4.14383,0.467739 5.34313,0.880459 1.13166,0.389938 2.20213,0.758332 4.17535,0.758332 1.9732,0 3.04276,-0.368394 4.17533,-0.758332 1.19931,-0.41272 2.55711,-0.880459 5.34315,-0.880459 2.78601,0 4.14382,0.467739 5.34312,0.880459 1.13258,0.389938 2.20213,0.758332 4.17534,0.758332 1.97321,0 3.04277,-0.368394 4.17534,-0.758332 1.19931,-0.41272 2.5571,-0.880459 5.34314,-0.880459 2.78602,0 4.14475,0.467739 5.34312,0.880459 1.13259,0.389938 2.20215,0.758332 4.17535,0.758332 1.97413,0 3.04368,-0.368394 4.17627,-0.758332 1.19838,-0.41272 2.55709,-0.880459 5.34221,-0.880459 2.78601,0 4.14474,0.467739 5.34312,0.880459 1.13258,0.389938 2.20214,0.758332 4.17627,0.758332 1.97321,0 3.04276,-0.368394 4.17534,-0.758332 1.19931,-0.41272 2.5571,-0.880459 5.34314,-0.880459"
       style="fill:none;fill-opacity:1;fill-rule:nonzero;stroke:#000000;stroke-width:0.355638;stroke-dasharray:none;stroke-opacity:1"
       id="path5022-8-84"
       sodipodi:nodetypes="ccscssscssscscscssscscscscscscscscscscscc" />
    <path
       d="m -14.001207,52.301257 c 2.785657,0 4.1441027,0.467739 5.3426703,0.880459 1.1323903,0.389938 2.2020319,0.758332 4.1753425,0.758332 1.9734733,0 3.0432213,-0.368394 4.1757087,-0.758332 1.19855722,-0.41272 2.5570017,-0.880459 5.3428532,-0.880459 2.7855611,0 4.1440055,0.467739 5.3425743,0.880459 1.1324,0.389938 2.202041,0.758332 4.175342,0.758332 1.973386,0 3.042941,-0.368394 4.175524,-0.758332 1.198473,-0.41272 2.556917,-0.880459 5.342574,-0.880459 2.785852,0 4.144382,0.467739 5.343048,0.880459 1.132486,0.389938 2.202128,0.758332 4.175708,0.758332 1.973386,0 3.043038,-0.368394 4.175524,-0.758332 1.198569,-0.41272 2.557013,-0.880459 5.342757,-0.880459 2.785669,0 4.144113,0.467739 5.342681,0.880459 1.132477,0.389938 2.202129,0.758332 4.175429,0.758332 1.973386,0 3.043038,-0.368394 4.175525,-0.758332 1.198472,-0.41272 2.556916,-0.880459 5.342671,-0.880459 2.78584,0 4.144284,0.467739 5.342853,0.880459 1.13239,0.389938 2.202042,0.758332 4.175525,0.758332 1.9733,0 3.042851,-0.368394 4.175424,-0.758332 1.19931,-0.41272 2.55711,-0.880459 5.343133,-0.880459 2.786034,0 4.144758,0.467739 5.343133,0.880459 1.132583,0.389938 2.202139,0.758332 4.175342,0.758332 1.974128,0 3.043684,-0.368394 4.176268,-0.758332 1.198385,-0.41272 2.5571,-0.880459 5.343127,-0.880459 2.78603,0 4.14382,0.467739 5.34313,0.880459 1.13165,0.389938 2.20212,0.758332 4.17534,0.758332 1.97321,0 3.04276,-0.368394 4.17534,-0.758332 1.19931,-0.41272 2.55712,-0.880459 5.34315,-0.880459 2.78602,0 4.14382,0.467739 5.34313,0.880459 1.13257,0.389938 2.20212,0.758332 4.17533,0.758332 1.97322,0 3.04277,-0.368394 4.17534,-0.758332 1.19931,-0.41272 2.55711,-0.880459 5.34314,-0.880459 2.78603,0 4.14475,0.467739 5.34313,0.880459 1.13258,0.389938 2.20214,0.758332 4.17534,0.758332 1.97413,0 3.04368,-0.368394 4.17628,-0.758332 1.19837,-0.41272 2.55709,-0.880459 5.3422,-0.880459 2.78602,0 4.14474,0.467739 5.34313,0.880459 1.13257,0.389938 2.20213,0.758332 4.17626,0.758332 1.97321,0 3.04276,-0.368394 4.17534,-0.758332 1.19931,-0.41272 2.55711,-0.880459 5.34314,-0.880459"
       style="fill:none;fill-opacity:1;fill-rule:nonzero;stroke:#000000;stroke-width:0.355638;stroke-dasharray:none;stroke-opacity:1"
       id="path5022-5"
       sodipodi:nodetypes="ccscssscssscscscssscscscscscscscscscscscc" />
    <path
       d="m -15.007705,56.551812 c 2.785658,0 4.144103,0.467739 5.3426703,0.88046 1.1323903,0.389938 2.2020319,0.758332 4.1753425,0.758332 1.9734733,0 3.0432223,-0.368394 4.1757088,-0.758332 1.19855702,-0.412721 2.5570018,-0.88046 5.3428535,-0.88046 2.7855607,0 4.1440051,0.467739 5.3425736,0.88046 1.1324003,0.389938 2.2020413,0.758332 4.1753423,0.758332 1.973386,0 3.042941,-0.368394 4.175524,-0.758332 1.198473,-0.412721 2.556917,-0.88046 5.342574,-0.88046 2.785852,0 4.144382,0.467739 5.343048,0.88046 1.132486,0.389938 2.202128,0.758332 4.175708,0.758332 1.973386,0 3.043038,-0.368394 4.175524,-0.758332 1.198569,-0.412721 2.557013,-0.88046 5.342757,-0.88046 2.785669,0 4.144113,0.467739 5.342681,0.88046 1.132477,0.389938 2.202129,0.758332 4.175429,0.758332 1.973386,0 3.043038,-0.368394 4.175525,-0.758332 1.198472,-0.412721 2.556916,-0.88046 5.342671,-0.88046 2.78584,0 4.144284,0.467739 5.342853,0.88046 1.13239,0.389938 2.202042,0.758332 4.175525,0.758332 1.9733,0 3.042851,-0.368394 4.175424,-0.758332 1.19931,-0.412721 2.55711,-0.88046 5.343133,-0.88046 2.786034,0 4.144758,0.467739 5.343133,0.88046 1.132583,0.389938 2.202139,0.758332 4.175342,0.758332 1.974128,0 3.043684,-0.368394 4.176268,-0.758332 1.198385,-0.412721 2.557098,-0.88046 5.343127,-0.88046 2.786028,0 4.143828,0.467739 5.343128,0.88046 1.13165,0.389938 2.20213,0.758332 4.17534,0.758332 1.97321,0 3.04276,-0.368394 4.17535,-0.758332 1.1993,-0.412721 2.55711,-0.88046 5.34315,-0.88046 2.78601,0 4.14382,0.467739 5.34312,0.88046 1.13258,0.389938 2.20213,0.758332 4.17533,0.758332 1.97322,0 3.04277,-0.368394 4.17536,-0.758332 1.19929,-0.412721 2.5571,-0.88046 5.34312,-0.88046 2.78604,0 4.14477,0.467739 5.34313,0.88046 1.13259,0.389938 2.20215,0.758332 4.17534,0.758332 1.97413,0 3.04368,-0.368394 4.17629,-0.758332 1.19836,-0.412721 2.55709,-0.88046 5.34219,-0.88046 2.78602,0 4.14475,0.467739 5.34313,0.88046 1.13258,0.389938 2.20214,0.758332 4.17627,0.758332 1.9732,0 3.04275,-0.368394 4.17534,-0.758332 1.1993,-0.412721 2.5571,-0.88046 5.34314,-0.88046"
       style="fill:none;fill-opacity:1;fill-rule:nonzero;stroke:#000000;stroke-width:0.355638;stroke-dasharray:none;stroke-opacity:1"
       id="path5022-6-0"
       sodipodi:nodetypes="ccscssscssscscscssscscscscscscscscscscscc" />
    <path
       d="m -14.094077,54.426535 c 2.785658,0 4.1441024,0.467739 5.34267,0.880459 1.1323903,0.389938 2.2020319,0.758332 4.1753425,0.758332 1.9734733,0 3.0432223,-0.368394 4.17570871,-0.758332 1.19855753,-0.41272 2.55700199,-0.880459 5.34285319,-0.880459 2.7855611,0 4.1440055,0.467739 5.3425736,0.880459 1.132401,0.389938 2.202042,0.758332 4.175343,0.758332 1.973386,0 3.042941,-0.368394 4.175524,-0.758332 1.198472,-0.41272 2.556917,-0.880459 5.342574,-0.880459 2.785852,0 4.144382,0.467739 5.343048,0.880459 1.132486,0.389938 2.202128,0.758332 4.175707,0.758332 1.973387,0 3.043038,-0.368394 4.175525,-0.758332 1.198568,-0.41272 2.557013,-0.880459 5.342757,-0.880459 2.785668,0 4.144113,0.467739 5.342681,0.880459 1.132476,0.389938 2.202128,0.758332 4.175429,0.758332 1.973386,0 3.043038,-0.368394 4.175524,-0.758332 1.198472,-0.41272 2.556917,-0.880459 5.342671,-0.880459 2.785841,0 4.144285,0.467739 5.342853,0.880459 1.132391,0.389938 2.202043,0.758332 4.175526,0.758332 1.973299,0 3.042851,-0.368394 4.175423,-0.758332 1.199311,-0.41272 2.55711,-0.880459 5.343134,-0.880459 2.786034,0 4.144757,0.467739 5.343132,0.880459 1.132584,0.389938 2.20214,0.758332 4.175343,0.758332 1.974128,0 3.043684,-0.368394 4.176267,-0.758332 1.198385,-0.41272 2.557106,-0.880459 5.343118,-0.880459 2.78603,0 4.14383,0.467739 5.34314,0.880459 1.13165,0.389938 2.20212,0.758332 4.17534,0.758332 1.97321,0 3.04276,-0.368394 4.17534,-0.758332 1.19931,-0.41272 2.55711,-0.880459 5.34315,-0.880459 2.78601,0 4.14382,0.467739 5.34313,0.880459 1.13257,0.389938 2.20212,0.758332 4.17533,0.758332 1.97322,0 3.04277,-0.368394 4.17535,-0.758332 1.1993,-0.41272 2.5571,-0.880459 5.34313,-0.880459 2.78603,0 4.14476,0.467739 5.34313,0.880459 1.13258,0.389938 2.20214,0.758332 4.17534,0.758332 1.97413,0 3.04368,-0.368394 4.17628,-0.758332 1.19837,-0.41272 2.55709,-0.880459 5.3422,-0.880459 2.78601,0 4.14474,0.467739 5.34313,0.880459 1.13257,0.389938 2.20213,0.758332 4.17626,0.758332 1.97321,0 3.04276,-0.368394 4.17534,-0.758332 1.19931,-0.41272 2.5571,-0.880459 5.34314,-0.880459"
       style="fill:none;fill-opacity:1;fill-rule:nonzero;stroke:#000000;stroke-width:0.355638;stroke-dasharray:none;stroke-opacity:1"
       id="path5022-2-3"
       sodipodi:nodetypes="ccscssscssscscscssscscscscscscscscscscscc" />
    <path
       d="m -14.816878,58.677091 c 2.785659,0 4.144103,0.467739 5.3426706,0.880459 1.1323903,0.389938 2.2020319,0.758332 4.1753425,0.758332 1.9734733,0 3.0432223,-0.368394 4.1757088,-0.758332 1.19855706,-0.41272 2.5570019,-0.880459 5.3428535,-0.880459 2.7855607,0 4.1440051,0.467739 5.3425736,0.880459 1.1324,0.389938 2.202042,0.758332 4.175342,0.758332 1.973387,0 3.042941,-0.368394 4.175525,-0.758332 1.198472,-0.41272 2.556916,-0.880459 5.342574,-0.880459 2.785851,0 4.144382,0.467739 5.343047,0.880459 1.132487,0.389938 2.202128,0.758332 4.175708,0.758332 1.973386,0 3.043038,-0.368394 4.175525,-0.758332 1.198568,-0.41272 2.557012,-0.880459 5.342757,-0.880459 2.785668,0 4.144112,0.467739 5.342681,0.880459 1.132476,0.389938 2.202128,0.758332 4.175428,0.758332 1.973387,0 3.043038,-0.368394 4.175525,-0.758332 1.198472,-0.41272 2.556916,-0.880459 5.342671,-0.880459 2.78584,0 4.144285,0.467739 5.342853,0.880459 1.13239,0.389938 2.202042,0.758332 4.175526,0.758332 1.973299,0 3.042851,-0.368394 4.175423,-0.758332 1.19931,-0.41272 2.55711,-0.880459 5.343134,-0.880459 2.786033,0 4.144757,0.467739 5.343132,0.880459 1.132584,0.389938 2.202139,0.758332 4.175342,0.758332 1.974129,0 3.043684,-0.368394 4.176268,-0.758332 1.198385,-0.41272 2.557101,-0.880459 5.343135,-0.880459 2.786033,0 4.143823,0.467739 5.343133,0.880459 1.13165,0.389938 2.20212,0.758332 4.17534,0.758332 1.97321,0 3.04276,-0.368394 4.17534,-0.758332 1.19931,-0.41272 2.55711,-0.880459 5.34315,-0.880459 2.78602,0 4.14382,0.467739 5.34313,0.880459 1.13257,0.389938 2.20212,0.758332 4.17532,0.758332 1.97322,0 3.04277,-0.368394 4.17534,-0.758332 1.19931,-0.41272 2.5571,-0.880459 5.34314,-0.880459 2.78603,0 4.14475,0.467739 5.34313,0.880459 1.13258,0.389938 2.20214,0.758332 4.17534,0.758332 1.97413,0 3.04368,-0.368394 4.17627,-0.758332 1.19838,-0.41272 2.55709,-0.880459 5.34221,-0.880459 2.78602,0 4.14474,0.467739 5.34313,0.880459 1.13257,0.389938 2.20213,0.758332 4.17626,0.758332 1.97321,0 3.04276,-0.368394 4.17534,-0.758332 1.19931,-0.41272 2.5571,-0.880459 5.34314,-0.880459"
       style="fill:none;fill-opacity:1;fill-rule:nonzero;stroke:#000000;stroke-width:0.355638;stroke-dasharray:none;stroke-opacity:1"
       id="path5022-61-6"
       sodipodi:nodetypes="ccscssscssscscscssscscscscscscscscscscscc" />
    <path
       d="m -15.382037,60.802368 c 2.785658,0 4.144102,0.467739 5.34267,0.880459 1.1323901,0.389938 2.2020317,0.758332 4.1753423,0.758332 1.9734733,0 3.0432213,-0.368394 4.1757088,-0.758332 1.19855706,-0.41272 2.55700104,-0.880459 5.3428527,-0.880459 2.7855616,0 4.1440059,0.467739 5.3425743,0.880459 1.1324009,0.389938 2.2020419,0.758332 4.1753419,0.758332 1.973387,0 3.042941,-0.368394 4.175525,-0.758332 1.198472,-0.41272 2.556917,-0.880459 5.342574,-0.880459 2.785852,0 4.144382,0.467739 5.343047,0.880459 1.132487,0.389938 2.202128,0.758332 4.175708,0.758332 1.973386,0 3.043038,-0.368394 4.175525,-0.758332 1.198568,-0.41272 2.557013,-0.880459 5.342757,-0.880459 2.785668,0 4.144113,0.467739 5.342681,0.880459 1.132476,0.389938 2.202128,0.758332 4.175428,0.758332 1.973387,0 3.043039,-0.368394 4.175525,-0.758332 1.198472,-0.41272 2.556917,-0.880459 5.342671,-0.880459 2.785841,0 4.144285,0.467739 5.342853,0.880459 1.132391,0.389938 2.202042,0.758332 4.175526,0.758332 1.973299,0 3.042851,-0.368394 4.175423,-0.758332 1.19931,-0.41272 2.55711,-0.880459 5.343134,-0.880459 2.786034,0 4.144757,0.467739 5.343132,0.880459 1.132584,0.389938 2.20214,0.758332 4.175343,0.758332 1.974128,0 3.043683,-0.368394 4.176267,-0.758332 1.198385,-0.41272 2.557101,-0.880459 5.343124,-0.880459 2.786034,0 4.143824,0.467739 5.343134,0.880459 1.13165,0.389938 2.20212,0.758332 4.17534,0.758332 1.97321,0 3.04276,-0.368394 4.17533,-0.758332 1.19932,-0.41272 2.55712,-0.880459 5.34316,-0.880459 2.78602,0 4.14382,0.467739 5.34313,0.880459 1.13257,0.389938 2.20212,0.758332 4.17533,0.758332 1.97322,0 3.04277,-0.368394 4.17534,-0.758332 1.19931,-0.41272 2.5571,-0.880459 5.34314,-0.880459 2.78603,0 4.14475,0.467739 5.34313,0.880459 1.13258,0.389938 2.20214,0.758332 4.17534,0.758332 1.97413,0 3.04368,-0.368394 4.17627,-0.758332 1.19838,-0.41272 2.55709,-0.880459 5.34221,-0.880459 2.78602,0 4.14474,0.467739 5.34313,0.880459 1.13257,0.389938 2.20213,0.758332 4.17626,0.758332 1.97321,0 3.04276,-0.368394 4.17534,-0.758332 1.19931,-0.41272 2.5571,-0.880459 5.34314,-0.880459"
       style="fill:none;fill-opacity:1;fill-rule:nonzero;stroke:#000000;stroke-width:0.355638;stroke-dasharray:none;stroke-opacity:1"
       id="path5022-8-1"
       sodipodi:nodetypes="ccscssscssscscscssscscscscscscscscscscscc" />
    <path
       d="m -15.879708,62.927646 c 2.785659,0 4.144103,0.467739 5.342672,0.880459 1.1323893,0.389938 2.2020311,0.758332 4.1753417,0.758332 1.9734723,0 3.0432213,-0.368394 4.1757078,-0.758332 1.19855808,-0.41272 2.55700247,-0.880459 5.3428541,-0.880459 2.7855611,0 4.1440055,0.467739 5.3425739,0.880459 1.1324005,0.389938 2.2020425,0.758332 4.1753425,0.758332 1.973387,0 3.042941,-0.368394 4.175525,-0.758332 1.198472,-0.41272 2.556916,-0.880459 5.342574,-0.880459 2.785851,0 4.144382,0.467739 5.343047,0.880459 1.132487,0.389938 2.202128,0.758332 4.175708,0.758332 1.973386,0 3.043038,-0.368394 4.175525,-0.758332 1.198568,-0.41272 2.557012,-0.880459 5.342757,-0.880459 2.785668,0 4.144113,0.467739 5.342681,0.880459 1.132476,0.389938 2.202128,0.758332 4.175428,0.758332 1.973387,0 3.043039,-0.368394 4.175525,-0.758332 1.198472,-0.41272 2.556917,-0.880459 5.342671,-0.880459 2.78584,0 4.144285,0.467739 5.342853,0.880459 1.13239,0.389938 2.202042,0.758332 4.175526,0.758332 1.973299,0 3.042851,-0.368394 4.175423,-0.758332 1.19931,-0.41272 2.55711,-0.880459 5.343134,-0.880459 2.786033,0 4.144759,0.467739 5.343136,0.880459 1.132583,0.389938 2.202133,0.758332 4.175342,0.758332 1.974129,0 3.043679,-0.368394 4.176262,-0.758332 1.198387,-0.41272 2.557102,-0.880459 5.343128,-0.880459 2.786041,0 4.143831,0.467739 5.343141,0.880459 1.13165,0.389938 2.20212,0.758332 4.17534,0.758332 1.97321,0 3.04276,-0.368394 4.17533,-0.758332 1.19931,-0.41272 2.55711,-0.880459 5.34315,-0.880459 2.78602,0 4.14382,0.467739 5.34313,0.880459 1.13257,0.389938 2.20212,0.758332 4.17533,0.758332 1.97322,0 3.04277,-0.368394 4.17534,-0.758332 1.19931,-0.41272 2.5571,-0.880459 5.34314,-0.880459 2.78603,0 4.14475,0.467739 5.34313,0.880459 1.13258,0.389938 2.20214,0.758332 4.17534,0.758332 1.97413,0 3.04368,-0.368394 4.17627,-0.758332 1.19838,-0.41272 2.5571,-0.880459 5.34221,-0.880459 2.78602,0 4.14474,0.467739 5.34313,0.880459 1.13257,0.389938 2.20213,0.758332 4.17626,0.758332 1.97321,0 3.04276,-0.368394 4.17534,-0.758332 1.19931,-0.41272 2.5571,-0.880459 5.34314,-0.880459"
       style="fill:none;fill-opacity:1;fill-rule:nonzero;stroke:#000000;stroke-width:0.355638;stroke-dasharray:none;stroke-opacity:1"
       id="path5022-0"
       sodipodi:nodetypes="ccscssscssscscscssscscscscscscscscscscscc" />
    <path
       d="m -16.886206,67.178201 c 2.78566,0 4.144104,0.467739 5.342672,0.88046 1.13239,0.389938 2.2020311,0.758332 4.1753417,0.758332 1.9734733,0 3.0432223,-0.368394 4.1757088,-0.758332 1.1985571,-0.412721 2.55700148,-0.88046 5.3428531,-0.88046 2.7855612,0 4.1440055,0.467739 5.3425739,0.88046 1.1324005,0.389938 2.2020421,0.758332 4.1753425,0.758332 1.973387,0 3.042941,-0.368394 4.175525,-0.758332 1.198472,-0.412721 2.556917,-0.88046 5.342574,-0.88046 2.785851,0 4.144382,0.467739 5.343047,0.88046 1.132487,0.389938 2.202128,0.758332 4.175708,0.758332 1.973386,0 3.043038,-0.368394 4.175525,-0.758332 1.198568,-0.412721 2.557012,-0.88046 5.342757,-0.88046 2.785668,0 4.144113,0.467739 5.342681,0.88046 1.132476,0.389938 2.202128,0.758332 4.175428,0.758332 1.973387,0 3.043039,-0.368394 4.175525,-0.758332 1.198472,-0.412721 2.556917,-0.88046 5.342671,-0.88046 2.78584,0 4.144285,0.467739 5.342853,0.88046 1.13239,0.389938 2.202042,0.758332 4.175526,0.758332 1.973299,0 3.042851,-0.368394 4.175423,-0.758332 1.19931,-0.412721 2.55711,-0.88046 5.343134,-0.88046 2.786033,0 4.144757,0.467739 5.343136,0.88046 1.132583,0.389938 2.202133,0.758332 4.175342,0.758332 1.974129,0 3.043679,-0.368394 4.176262,-0.758332 1.198387,-0.412721 2.557102,-0.88046 5.343128,-0.88046 2.786039,0 4.143829,0.467739 5.343139,0.88046 1.13165,0.389938 2.20212,0.758332 4.17534,0.758332 1.97321,0 3.04276,-0.368394 4.17533,-0.758332 1.19931,-0.412721 2.55712,-0.88046 5.34315,-0.88046 2.78602,0 4.14382,0.467739 5.34313,0.88046 1.13257,0.389938 2.20212,0.758332 4.17533,0.758332 1.97322,0 3.04277,-0.368394 4.17535,-0.758332 1.1993,-0.412721 2.55711,-0.88046 5.34313,-0.88046 2.78604,0 4.14476,0.467739 5.34313,0.88046 1.13258,0.389938 2.20214,0.758332 4.17534,0.758332 1.97413,0 3.04368,-0.368394 4.17629,-0.758332 1.19836,-0.412721 2.55709,-0.88046 5.34219,-0.88046 2.78602,0 4.14474,0.467739 5.34313,0.88046 1.13257,0.389938 2.20213,0.758332 4.17626,0.758332 1.97321,0 3.04276,-0.368394 4.17535,-0.758332 1.1993,-0.412721 2.5571,-0.88046 5.34313,-0.88046"
       style="fill:none;fill-opacity:1;fill-rule:nonzero;stroke:#000000;stroke-width:0.355638;stroke-dasharray:none;stroke-opacity:1"
       id="path5022-6-6"
       sodipodi:nodetypes="ccscssscssscscscssscscscscscscscscscscscc" />
    <path
       d="m -15.972578,65.052923 c 2.78566,0 4.144104,0.467739 5.342671,0.880459 1.1323902,0.389938 2.2020318,0.758332 4.1753424,0.758332 1.9734733,0 3.0432223,-0.368394 4.1757088,-0.758332 1.1985571,-0.41272 2.55700149,-0.880459 5.3428532,-0.880459 2.7855611,0 4.1440054,0.467739 5.3425738,0.880459 1.1324005,0.389938 2.2020418,0.758332 4.1753428,0.758332 1.973386,0 3.042941,-0.368394 4.175525,-0.758332 1.198472,-0.41272 2.556916,-0.880459 5.342573,-0.880459 2.785852,0 4.144382,0.467739 5.343048,0.880459 1.132486,0.389938 2.202128,0.758332 4.175708,0.758332 1.973386,0 3.043038,-0.368394 4.175524,-0.758332 1.198569,-0.41272 2.557013,-0.880459 5.342757,-0.880459 2.785669,0 4.144113,0.467739 5.342682,0.880459 1.132476,0.389938 2.202128,0.758332 4.175428,0.758332 1.973386,0 3.043038,-0.368394 4.175525,-0.758332 1.198472,-0.41272 2.556916,-0.880459 5.342671,-0.880459 2.78584,0 4.144285,0.467739 5.342853,0.880459 1.13239,0.389938 2.202042,0.758332 4.175526,0.758332 1.973299,0 3.04285,-0.368394 4.175423,-0.758332 1.19931,-0.41272 2.55711,-0.880459 5.343133,-0.880459 2.786034,0 4.144755,0.467739 5.343132,0.880459 1.132582,0.389938 2.202143,0.758332 4.175341,0.758332 1.974129,0 3.04369,-0.368394 4.176273,-0.758332 1.198377,-0.41272 2.557102,-0.880459 5.343118,-0.880459 2.786036,0 4.143826,0.467739 5.343136,0.880459 1.13166,0.389938 2.20213,0.758332 4.17535,0.758332 1.9732,0 3.04275,-0.368394 4.17533,-0.758332 1.19931,-0.41272 2.55711,-0.880459 5.34315,-0.880459 2.78601,0 4.14382,0.467739 5.34312,0.880459 1.13258,0.389938 2.20213,0.758332 4.17534,0.758332 1.97321,0 3.04276,-0.368394 4.17535,-0.758332 1.1993,-0.41272 2.5571,-0.880459 5.34313,-0.880459 2.78603,0 4.14476,0.467739 5.34312,0.880459 1.13259,0.389938 2.20215,0.758332 4.17535,0.758332 1.97412,0 3.04368,-0.368394 4.17628,-0.758332 1.19837,-0.41272 2.55709,-0.880459 5.3422,-0.880459 2.78601,0 4.14474,0.467739 5.34312,0.880459 1.13258,0.389938 2.20214,0.758332 4.17627,0.758332 1.9732,0 3.04276,-0.368394 4.17534,-0.758332 1.19931,-0.41272 2.5571,-0.880459 5.34314,-0.880459"
       style="fill:none;fill-opacity:1;fill-rule:nonzero;stroke:#000000;stroke-width:0.355638;stroke-dasharray:none;stroke-opacity:1"
       id="path5022-2-32"
       sodipodi:nodetypes="ccscssscssscscscssscscscscscscscscscscscc" />
    <path
       d="m -16.695378,69.303479 c 2.785659,0 4.144104,0.467739 5.342671,0.880459 1.13239,0.389938 2.2020314,0.758332 4.1753421,0.758332 1.9734732,0 3.0432223,-0.368394 4.1757087,-0.758332 1.1985571,-0.41272 2.55700151,-0.880459 5.3428532,-0.880459 2.7855611,0 4.1440055,0.467739 5.3425738,0.880459 1.1324006,0.389938 2.2020421,0.758332 4.1753432,0.758332 1.973386,0 3.042941,-0.368394 4.175524,-0.758332 1.198472,-0.41272 2.556917,-0.880459 5.342574,-0.880459 2.785852,0 4.144382,0.467739 5.343048,0.880459 1.132486,0.389938 2.202128,0.758332 4.175707,0.758332 1.973387,0 3.043039,-0.368394 4.175525,-0.758332 1.198568,-0.41272 2.557013,-0.880459 5.342757,-0.880459 2.785669,0 4.144113,0.467739 5.342681,0.880459 1.132477,0.389938 2.202128,0.758332 4.175429,0.758332 1.973386,0 3.043038,-0.368394 4.175524,-0.758332 1.198473,-0.41272 2.556917,-0.880459 5.342671,-0.880459 2.785841,0 4.144285,0.467739 5.342854,0.880459 1.13239,0.389938 2.202042,0.758332 4.175525,0.758332 1.9733,0 3.042851,-0.368394 4.175423,-0.758332 1.199311,-0.41272 2.55711,-0.880459 5.343134,-0.880459 2.786034,0 4.144757,0.467739 5.343134,0.880459 1.132583,0.389938 2.202134,0.758332 4.175342,0.758332 1.974129,0 3.04368,-0.368394 4.176262,-0.758332 1.198387,-0.41272 2.557102,-0.880459 5.343139,-0.880459 2.786033,0 4.143833,0.467739 5.343143,0.880459 1.13165,0.389938 2.20212,0.758332 4.17534,0.758332 1.97321,0 3.04276,-0.368394 4.17533,-0.758332 1.19931,-0.41272 2.55711,-0.880459 5.34315,-0.880459 2.78602,0 4.14382,0.467739 5.34313,0.880459 1.13257,0.389938 2.20212,0.758332 4.17532,0.758332 1.97322,0 3.04277,-0.368394 4.17534,-0.758332 1.19931,-0.41272 2.5571,-0.880459 5.34314,-0.880459 2.78603,0 4.14475,0.467739 5.34313,0.880459 1.13258,0.389938 2.20214,0.758332 4.17534,0.758332 1.97413,0 3.04368,-0.368394 4.17627,-0.758332 1.19838,-0.41272 2.55709,-0.880459 5.34221,-0.880459 2.78601,0 4.14474,0.467739 5.34313,0.880459 1.13257,0.389938 2.20213,0.758332 4.17626,0.758332 1.97321,0 3.04276,-0.368394 4.17534,-0.758332 1.19931,-0.41272 2.5571,-0.880459 5.34314,-0.880459"
       style="fill:none;fill-opacity:1;fill-rule:nonzero;stroke:#000000;stroke-width:0.355638;stroke-dasharray:none;stroke-opacity:1"
       id="path5022-61-0"
       sodipodi:nodetypes="ccscssscssscscscssscscscscscscscscscscscc" />
    <path
       d="m -17.260539,71.428757 c 2.785659,0 4.144104,0.467739 5.342671,0.880459 1.13239,0.389938 2.2020318,0.758332 4.1753422,0.758332 1.9734733,0 3.0432213,-0.368394 4.1757088,-0.758332 1.1985571,-0.41272 2.5570015,-0.880459 5.3428532,-0.880459 2.7855621,0 4.1440065,0.467739 5.3425748,0.880459 1.1324006,0.389938 2.2020422,0.758332 4.175343,0.758332 1.973386,0 3.042941,-0.368394 4.175524,-0.758332 1.198473,-0.41272 2.556917,-0.880459 5.342574,-0.880459 2.785852,0 4.144382,0.467739 5.343048,0.880459 1.132486,0.389938 2.202128,0.758332 4.175708,0.758332 1.973386,0 3.043038,-0.368394 4.175524,-0.758332 1.198569,-0.41272 2.557013,-0.880459 5.342757,-0.880459 2.785669,0 4.144113,0.467739 5.342681,0.880459 1.132477,0.389938 2.202129,0.758332 4.175429,0.758332 1.973386,0 3.043038,-0.368394 4.175525,-0.758332 1.198472,-0.41272 2.556916,-0.880459 5.342671,-0.880459 2.78584,0 4.144284,0.467739 5.342853,0.880459 1.13239,0.389938 2.202042,0.758332 4.175525,0.758332 1.9733,0 3.042851,-0.368394 4.175424,-0.758332 1.19931,-0.41272 2.55711,-0.880459 5.343133,-0.880459 2.786034,0 4.144758,0.467739 5.343133,0.880459 1.132583,0.389938 2.202134,0.758332 4.175342,0.758332 1.974129,0 3.04368,-0.368394 4.176262,-0.758332 1.198388,-0.41272 2.557102,-0.880459 5.343129,-0.880459 2.786037,0 4.143834,0.467739 5.343134,0.880459 1.13166,0.389938 2.20213,0.758332 4.17535,0.758332 1.97321,0 3.04276,-0.368394 4.17533,-0.758332 1.19931,-0.41272 2.55711,-0.880459 5.34315,-0.880459 2.78601,0 4.14382,0.467739 5.34313,0.880459 1.13257,0.389938 2.20212,0.758332 4.17533,0.758332 1.97322,0 3.04277,-0.368394 4.17534,-0.758332 1.19931,-0.41272 2.5571,-0.880459 5.34314,-0.880459 2.78602,0 4.14475,0.467739 5.34313,0.880459 1.13258,0.389938 2.20214,0.758332 4.17534,0.758332 1.97413,0 3.04368,-0.368394 4.17627,-0.758332 1.19838,-0.41272 2.55709,-0.880459 5.34221,-0.880459 2.78601,0 4.14474,0.467739 5.34313,0.880459 1.13257,0.389938 2.20213,0.758332 4.17626,0.758332 1.97321,0 3.04276,-0.368394 4.17534,-0.758332 1.19931,-0.41272 2.5571,-0.880459 5.34314,-0.880459"
       style="fill:none;fill-opacity:1;fill-rule:nonzero;stroke:#000000;stroke-width:0.355638;stroke-dasharray:none;stroke-opacity:1"
       id="path5022-8-6"
       sodipodi:nodetypes="ccscssscssscscscssscscscscscscscscscscscc" />
  </g>
</svg>
