<svg xmlns="http://www.w3.org/2000/svg" viewBox="0 0 172.508 72.496">
  <path fill="none" stroke="#617366" stroke-width=".06" d="M-.72 1.102c1.133.187 2.203.364 4.176.364 1.974 0 3.044-.177 4.177-.364C8.832.904 10.191.68 12.977.68c2.787 0 4.145.224 5.344.422 1.133.187 2.203.364 4.177.364 1.973 0 3.043-.177 4.176-.364C27.873.904 29.232.68 32.018.68c2.786 0 4.145.224 5.344.422 1.133.187 2.203.364 4.177.364 1.974 0 3.044-.177 4.177-.364C46.914.904 48.273.68 51.06.68c2.786 0 4.145.224 5.344.422 1.132.187 2.202.364 4.176.364 1.974 0 3.044-.177 4.177-.364C65.955.904 67.314.68 70.1.68s4.145.224 5.344.422c1.132.187 2.202.364 4.176.364 1.974 0 3.044-.177 4.177-.364 1.2-.198 2.558-.422 5.344-.422 2.787 0 4.146.224 5.345.422 1.133.187 2.202.364 4.176.364 1.975 0 3.044-.177 4.177-.364 1.199-.198 2.558-.422 5.345-.422 2.786 0 4.145.224 5.344.422 1.132.187 2.203.364 4.177.364 1.973 0 3.043-.177 4.176-.364 1.2-.198 2.558-.422 5.344-.422 2.787 0 4.145.224 5.345.422 1.133.187 2.202.364 4.176.364 1.974 0 3.044-.177 4.177-.364 1.2-.198 2.557-.422 5.344-.422 2.787 0 4.146.224 5.344.422 1.133.187 2.203.364 4.177.364 1.974 0 3.044-.177 4.177-.364 1.199-.198 2.558-.422 5.344-.422 2.786 0 4.145.224 5.344.422M2.45 3.506c1.974 0 3.044-.177 4.176-.364 1.2-.198 2.558-.423 5.345-.423 2.786 0 4.145.225 5.343.423 1.133.187 2.203.364 4.177.364 1.974 0 3.043-.177 4.176-.364 1.2-.198 2.558-.423 5.344-.423 2.787 0 4.146.225 5.345.423 1.132.187 2.202.364 4.176.364 1.974 0 3.044-.177 4.177-.364 1.199-.198 2.557-.423 5.344-.423 2.786 0 4.145.225 5.344.423 1.133.187 2.203.364 4.176.364 1.974 0 3.044-.177 4.177-.364 1.199-.198 2.557-.423 5.344-.423 2.786 0 4.145.225 5.344.423 1.133.187 2.203.364 4.177.364 1.973 0 3.043-.177 4.176-.364 1.2-.198 2.558-.423 5.344-.423 2.787 0 4.146.225 5.345.423 1.133.187 2.203.364 4.176.364 1.975 0 3.045-.177 4.178-.364 1.198-.198 2.557-.423 5.344-.423 2.787 0 4.145.225 5.344.423 1.132.187 2.203.364 4.177.364 1.974 0 3.043-.177 4.176-.364 1.2-.198 2.558-.423 5.345-.423 2.786 0 4.144.225 5.344.423 1.133.187 2.203.364 4.176.364 1.974 0 3.044-.177 4.177-.364 1.2-.198 2.558-.423 5.344-.423 2.787 0 4.146.225 5.345.423 1.133.187 2.202.364 4.176.364 1.975 0 3.044-.177 4.177-.364 1.199-.198 2.558-.423 5.344-.423 2.787 0 4.146.225 5.344.423M-.813 2.122c1.133.187 2.203.364 4.176.364 1.974 0 3.044-.177 4.177-.364 1.2-.198 2.558-.423 5.344-.423 2.787 0 4.145.225 5.344.423 1.133.187 2.203.364 4.177.364 1.973 0 3.043-.177 4.176-.364 1.199-.198 2.558-.423 5.344-.423 2.787 0 4.145.225 5.344.423 1.133.187 2.203.364 4.177.364 1.974 0 3.044-.177 4.177-.364 1.199-.198 2.557-.423 5.344-.423 2.786 0 4.145.225 5.344.423 1.132.187 2.202.364 4.176.364 1.974 0 3.044-.177 4.177-.364 1.199-.198 2.557-.423 5.344-.423 2.786 0 4.145.225 5.344.423 1.133.187 2.202.364 4.176.364 1.974 0 3.044-.177 4.177-.364 1.2-.198 2.558-.423 5.344-.423 2.787 0 4.146.225 5.345.423 1.133.187 2.202.364 4.176.364 1.975 0 3.045-.177 4.177-.364 1.2-.198 2.558-.423 5.345-.423s4.145.225 5.344.423c1.132.187 2.203.364 4.177.364 1.973 0 3.043-.177 4.176-.364 1.2-.198 2.558-.423 5.344-.423 2.787 0 4.145.225 5.345.423 1.133.187 2.203.364 4.176.364 1.974 0 3.044-.177 4.177-.364 1.2-.198 2.557-.423 5.344-.423 2.787 0 4.146.225 5.345.423 1.132.187 2.202.364 4.176.364 1.975 0 3.044-.177 4.177-.364 1.199-.198 2.558-.423 5.344-.423 2.786 0 4.145.225 5.344.423M2.64 4.525c1.974 0 3.044-.176 4.177-.363 1.2-.198 2.558-.423 5.344-.423 2.787 0 4.145.225 5.344.423 1.133.187 2.203.363 4.177.363 1.974 0 3.043-.176 4.176-.363 1.199-.198 2.558-.423 5.344-.423 2.787 0 4.145.225 5.344.423 1.133.187 2.203.363 4.177.363 1.974 0 3.044-.176 4.177-.363 1.199-.198 2.557-.423 5.344-.423 2.786 0 4.145.225 5.344.423 1.133.187 2.202.363 4.176.363 1.974 0 3.044-.176 4.177-.363 1.199-.198 2.557-.423 5.344-.423 2.786 0 4.145.225 5.344.423 1.133.187 2.202.363 4.176.363 1.974 0 3.044-.176 4.177-.363 1.2-.198 2.558-.423 5.344-.423 2.787 0 4.146.225 5.345.423 1.133.187 2.202.363 4.176.363 1.975 0 3.045-.176 4.177-.363 1.2-.198 2.558-.423 5.345-.423s4.145.225 5.344.423c1.132.187 2.203.363 4.177.363 1.973 0 3.043-.176 4.176-.363 1.2-.198 2.558-.423 5.345-.423 2.786 0 4.144.225 5.344.423 1.133.187 2.203.363 4.176.363 1.974 0 3.044-.176 4.177-.363 1.2-.198 2.557-.423 5.344-.423 2.787 0 4.146.225 5.345.423 1.132.187 2.202.363 4.176.363 1.975 0 3.044-.176 4.177-.363 1.199-.198 2.558-.423 5.344-.423 2.786 0 4.145.225 5.344.423M2.075 5.545c1.974 0 3.044-.177 4.177-.364 1.199-.198 2.558-.422 5.344-.422 2.786 0 4.145.224 5.344.422 1.133.187 2.203.364 4.176.364 1.974 0 3.044-.177 4.177-.364 1.199-.198 2.557-.422 5.344-.422 2.786 0 4.145.224 5.344.422 1.133.187 2.203.364 4.177.364 1.974 0 3.044-.177 4.176-.364 1.2-.198 2.558-.422 5.344-.422 2.787 0 4.146.224 5.344.422 1.133.187 2.203.364 4.177.364 1.974 0 3.044-.177 4.176-.364 1.2-.198 2.558-.422 5.344-.422 2.787 0 4.146.224 5.345.422 1.132.187 2.202.364 4.176.364 1.974 0 3.044-.177 4.177-.364 1.2-.198 2.557-.422 5.344-.422 2.787 0 4.146.224 5.344.422 1.133.187 2.203.364 4.177.364 1.974 0 3.044-.177 4.177-.364 1.199-.198 2.558-.422 5.345-.422 2.786 0 4.144.224 5.344.422 1.132.187 2.203.364 4.176.364 1.974 0 3.044-.177 4.177-.364 1.2-.198 2.557-.422 5.344-.422 2.787 0 4.145.224 5.345.422 1.132.187 2.202.364 4.176.364 1.974 0 3.044-.177 4.176-.364 1.2-.198 2.558-.422 5.345-.422s4.146.224 5.344.422c1.133.187 2.203.364 4.177.364 1.974 0 3.044-.177 4.177-.364 1.199-.198 2.558-.422 5.343-.422 2.787 0 4.146.224 5.345.422M2.7 6.565c1.974 0 3.044-.177 4.177-.364 1.199-.198 2.558-.422 5.344-.422 2.787 0 4.145.224 5.344.422 1.133.187 2.203.364 4.177.364 1.973 0 3.043-.177 4.176-.364 1.199-.198 2.558-.422 5.344-.422 2.786 0 4.145.224 5.344.422 1.133.187 2.203.364 4.177.364 1.974 0 3.044-.177 4.177-.364 1.198-.198 2.557-.422 5.344-.422 2.786 0 4.145.224 5.344.422 1.132.187 2.202.364 4.176.364 1.974 0 3.044-.177 4.177-.364 1.198-.198 2.557-.422 5.344-.422 2.786 0 4.145.224 5.344.422 1.132.187 2.202.364 4.176.364 1.974 0 3.044-.177 4.177-.364 1.2-.198 2.558-.422 5.344-.422 2.787 0 4.146.224 5.345.422 1.133.187 2.202.364 4.176.364 1.975 0 3.044-.177 4.177-.364 1.199-.198 2.558-.422 5.345-.422 2.786 0 4.145.224 5.344.422 1.132.187 2.203.364 4.177.364 1.973 0 3.043-.177 4.176-.364 1.2-.198 2.558-.422 5.344-.422 2.787 0 4.145.224 5.345.422 1.133.187 2.202.364 4.176.364 1.974 0 3.044-.177 4.177-.364 1.2-.198 2.557-.422 5.344-.422 2.787 0 4.146.224 5.344.422 1.133.187 2.203.364 4.177.364 1.974 0 3.044-.177 4.177-.364 1.199-.198 2.558-.422 5.344-.422 2.786 0 4.145.224 5.344.422M1.694 8.605c1.974 0 3.044-.177 4.176-.364 1.2-.198 2.558-.423 5.345-.423 2.786 0 4.145.225 5.343.423 1.133.187 2.203.364 4.177.364 1.974 0 3.043-.177 4.176-.364 1.2-.198 2.558-.423 5.344-.423 2.787 0 4.146.225 5.345.423 1.132.187 2.202.364 4.176.364 1.974 0 3.044-.177 4.177-.364 1.199-.198 2.557-.423 5.344-.423 2.786 0 4.145.225 5.344.423 1.133.187 2.203.364 4.176.364 1.974 0 3.044-.177 4.177-.364 1.199-.198 2.557-.423 5.344-.423 2.786 0 4.145.225 5.344.423 1.133.187 2.203.364 4.177.364 1.973 0 3.043-.177 4.176-.364 1.2-.198 2.558-.423 5.344-.423 2.787 0 4.146.225 5.345.423 1.133.187 2.203.364 4.176.364 1.975 0 3.045-.177 4.178-.364 1.198-.198 2.557-.423 5.344-.423 2.787 0 4.145.225 5.344.423 1.132.187 2.203.364 4.177.364 1.974 0 3.043-.177 4.176-.364 1.2-.198 2.558-.423 5.345-.423 2.786 0 4.144.225 5.344.423 1.133.187 2.203.364 4.176.364 1.974 0 3.044-.177 4.177-.364 1.2-.198 2.558-.423 5.344-.423 2.787 0 4.146.225 5.345.423 1.133.187 2.202.364 4.176.364 1.975 0 3.044-.177 4.177-.364 1.199-.198 2.558-.423 5.344-.423 2.787 0 4.146.225 5.344.423M2.607 7.585c1.974 0 3.044-.177 4.177-.364 1.2-.198 2.558-.422 5.344-.422 2.787 0 4.145.224 5.344.422 1.133.187 2.203.364 4.177.364 1.973 0 3.043-.177 4.176-.364 1.199-.198 2.558-.422 5.344-.422 2.787 0 4.145.224 5.344.422 1.133.187 2.203.364 4.177.364 1.974 0 3.044-.177 4.177-.364 1.199-.198 2.557-.422 5.344-.422 2.786 0 4.145.224 5.344.422 1.132.187 2.202.364 4.176.364 1.974 0 3.044-.177 4.177-.364 1.199-.198 2.557-.422 5.344-.422 2.786 0 4.145.224 5.344.422 1.133.187 2.202.364 4.176.364 1.974 0 3.044-.177 4.177-.364 1.2-.198 2.558-.422 5.344-.422 2.787 0 4.146.224 5.345.422 1.133.187 2.202.364 4.176.364 1.975 0 3.045-.177 4.177-.364 1.2-.198 2.558-.422 5.345-.422s4.145.224 5.344.422c1.132.187 2.203.364 4.177.364 1.973 0 3.043-.177 4.176-.364 1.2-.198 2.558-.422 5.344-.422 2.787 0 4.145.224 5.345.422 1.133.187 2.203.364 4.176.364 1.974 0 3.044-.177 4.177-.364 1.2-.198 2.557-.422 5.344-.422 2.787 0 4.146.224 5.345.422 1.132.187 2.202.364 4.176.364 1.975 0 3.044-.177 4.177-.364 1.199-.198 2.558-.422 5.344-.422 2.786 0 4.145.224 5.344.422M1.884 9.625c1.974 0 3.044-.177 4.177-.364 1.2-.198 2.558-.423 5.344-.423 2.787 0 4.145.225 5.344.423 1.133.187 2.203.364 4.177.364 1.974 0 3.043-.177 4.176-.364 1.199-.198 2.558-.423 5.344-.423 2.787 0 4.145.225 5.344.423 1.133.187 2.203.364 4.177.364 1.974 0 3.044-.177 4.177-.364 1.199-.198 2.557-.423 5.344-.423 2.786 0 4.145.225 5.344.423 1.133.187 2.202.364 4.176.364 1.974 0 3.044-.177 4.177-.364 1.199-.198 2.557-.423 5.344-.423 2.786 0 4.145.225 5.344.423 1.133.187 2.202.364 4.176.364 1.974 0 3.044-.177 4.177-.364 1.2-.198 2.558-.423 5.344-.423 2.787 0 4.146.225 5.345.423 1.133.187 2.202.364 4.176.364 1.975 0 3.045-.177 4.177-.364 1.2-.198 2.558-.423 5.345-.423s4.145.225 5.344.423c1.132.187 2.203.364 4.177.364 1.973 0 3.043-.177 4.176-.364 1.2-.198 2.558-.423 5.345-.423 2.786 0 4.144.225 5.344.423 1.133.187 2.203.364 4.176.364 1.974 0 3.044-.177 4.177-.364 1.2-.198 2.557-.423 5.344-.423 2.787 0 4.146.225 5.345.423 1.132.187 2.202.364 4.176.364 1.975 0 3.044-.177 4.177-.364 1.199-.198 2.558-.423 5.344-.423 2.786 0 4.145.225 5.344.423M1.32 10.644c1.973 0 3.043-.176 4.176-.364 1.199-.198 2.558-.422 5.344-.422 2.786 0 4.145.224 5.344.422 1.133.188 2.203.364 4.176.364 1.974 0 3.044-.176 4.177-.364 1.199-.198 2.557-.422 5.344-.422 2.786 0 4.145.224 5.344.422 1.133.188 2.203.364 4.177.364 1.974 0 3.044-.176 4.176-.364 1.2-.198 2.558-.422 5.344-.422 2.787 0 4.146.224 5.344.422 1.133.188 2.203.364 4.177.364 1.974 0 3.044-.176 4.176-.364 1.2-.198 2.558-.422 5.344-.422 2.787 0 4.146.224 5.345.422 1.132.188 2.202.364 4.176.364 1.974 0 3.044-.176 4.177-.364 1.2-.198 2.557-.422 5.344-.422 2.787 0 4.146.224 5.344.422 1.133.188 2.203.364 4.177.364 1.974 0 3.044-.176 4.177-.364 1.199-.198 2.558-.422 5.345-.422 2.786 0 4.144.224 5.344.422 1.132.188 2.203.364 4.176.364 1.974 0 3.044-.176 4.177-.364 1.2-.198 2.557-.422 5.344-.422 2.787 0 4.145.224 5.345.422 1.133.188 2.202.364 4.176.364 1.974 0 3.044-.176 4.176-.364 1.2-.198 2.558-.422 5.345-.422s4.146.224 5.344.422c1.133.188 2.203.364 4.177.364 1.974 0 3.044-.176 4.177-.364 1.199-.198 2.558-.422 5.343-.422 2.787 0 4.146.224 5.345.422M1.302 11.664c1.974 0 3.044-.177 4.177-.364 1.199-.198 2.558-.422 5.344-.422 2.786 0 4.145.224 5.344.422 1.133.187 2.203.364 4.176.364 1.974 0 3.044-.177 4.177-.364 1.199-.198 2.557-.422 5.344-.422 2.786 0 4.145.224 5.344.422 1.133.187 2.203.364 4.177.364 1.974 0 3.044-.177 4.176-.364 1.2-.198 2.558-.422 5.345-.422 2.786 0 4.145.224 5.344.422 1.132.187 2.202.364 4.176.364 1.974 0 3.044-.177 4.177-.364 1.198-.198 2.557-.422 5.343-.422 2.787 0 4.146.224 5.345.422 1.132.187 2.202.364 4.176.364 1.974 0 3.044-.177 4.177-.364 1.2-.198 2.557-.422 5.344-.422 2.787 0 4.146.224 5.345.422 1.132.187 2.202.364 4.176.364 1.975 0 3.044-.177 4.177-.364 1.199-.198 2.558-.422 5.345-.422 2.786 0 4.144.224 5.344.422 1.132.187 2.203.364 4.176.364 1.974 0 3.044-.177 4.177-.364 1.2-.198 2.558-.422 5.344-.422 2.787 0 4.145.224 5.345.422 1.133.187 2.202.364 4.176.364 1.974 0 3.044-.177 4.176-.364 1.2-.198 2.558-.422 5.345-.422s4.146.224 5.344.422c1.133.187 2.203.364 4.177.364 1.974 0 3.044-.177 4.177-.364 1.199-.198 2.558-.422 5.343-.422 2.787 0 4.146.224 5.345.422 1.133.187 2.203.364 4.177.364M.296 13.704c1.973 0 3.043-.177 4.176-.364 1.2-.198 2.558-.423 5.344-.423 2.787 0 4.145.225 5.344.423 1.133.187 2.203.364 4.177.364 1.974 0 3.043-.177 4.176-.364 1.199-.198 2.558-.423 5.344-.423 2.787 0 4.145.225 5.344.423 1.133.187 2.203.364 4.177.364 1.974 0 3.044-.177 4.177-.364 1.199-.198 2.557-.423 5.344-.423 2.786 0 4.145.225 5.344.423 1.133.187 2.202.364 4.176.364 1.974 0 3.044-.177 4.177-.364 1.199-.198 2.557-.423 5.344-.423 2.786 0 4.145.225 5.344.423 1.133.187 2.202.364 4.176.364 1.974 0 3.044-.177 4.177-.364 1.2-.198 2.558-.423 5.344-.423 2.787 0 4.146.225 5.345.423 1.133.187 2.202.364 4.176.364 1.975 0 3.045-.177 4.177-.364 1.2-.198 2.558-.423 5.345-.423s4.145.225 5.344.423c1.132.187 2.203.364 4.177.364 1.973 0 3.043-.177 4.176-.364 1.2-.198 2.558-.423 5.345-.423 2.786 0 4.144.225 5.344.423 1.133.187 2.203.364 4.176.364 1.974 0 3.044-.177 4.177-.364 1.2-.198 2.557-.423 5.344-.423 2.787 0 4.146.225 5.345.423 1.132.187 2.202.364 4.176.364 1.975 0 3.044-.177 4.177-.364 1.199-.198 2.558-.423 5.344-.423 2.786 0 4.146.225 5.344.423 1.133.187 2.203.364 4.177.364M1.21 12.684c1.973 0 3.043-.177 4.176-.364 1.199-.198 2.558-.422 5.344-.422 2.786 0 4.145.224 5.344.422 1.133.187 2.203.364 4.176.364 1.974 0 3.044-.177 4.177-.364 1.199-.198 2.558-.422 5.344-.422 2.786 0 4.145.224 5.344.422 1.133.187 2.203.364 4.177.364 1.974 0 3.044-.177 4.177-.364 1.198-.198 2.557-.422 5.344-.422 2.786 0 4.145.224 5.344.422 1.132.187 2.202.364 4.176.364 1.974 0 3.044-.177 4.177-.364 1.198-.198 2.557-.422 5.344-.422 2.786 0 4.145.224 5.344.422 1.132.187 2.202.364 4.176.364 1.974 0 3.044-.177 4.177-.364 1.2-.198 2.557-.422 5.344-.422 2.787 0 4.146.224 5.345.422 1.133.187 2.202.364 4.176.364 1.975 0 3.044-.177 4.177-.364 1.199-.198 2.558-.422 5.345-.422 2.786 0 4.145.224 5.344.422 1.132.187 2.203.364 4.177.364 1.973 0 3.043-.177 4.176-.364 1.2-.198 2.558-.422 5.344-.422 2.787 0 4.145.224 5.345.422 1.133.187 2.202.364 4.176.364 1.974 0 3.044-.177 4.177-.364 1.2-.198 2.557-.422 5.344-.422 2.787 0 4.146.224 5.344.422 1.133.187 2.203.364 4.177.364 1.974 0 3.044-.177 4.177-.364 1.199-.198 2.558-.422 5.344-.422 2.786 0 4.145.224 5.344.422 1.133.187 2.203.364 4.177.364M.486 14.724c1.974 0 3.044-.177 4.177-.364 1.199-.198 2.558-.423 5.344-.423 2.787 0 4.145.225 5.344.423 1.133.187 2.203.364 4.177.364 1.973 0 3.043-.177 4.176-.364 1.199-.198 2.558-.423 5.344-.423 2.786 0 4.145.225 5.344.423 1.133.187 2.203.364 4.177.364 1.974 0 3.044-.177 4.177-.364 1.198-.198 2.557-.423 5.344-.423 2.786 0 4.145.225 5.344.423 1.132.187 2.202.364 4.176.364 1.974 0 3.044-.177 4.177-.364 1.198-.198 2.557-.423 5.344-.423 2.786 0 4.145.225 5.344.423 1.132.187 2.202.364 4.176.364 1.974 0 3.044-.177 4.177-.364 1.2-.198 2.558-.423 5.344-.423 2.787 0 4.146.225 5.345.423 1.133.187 2.202.364 4.176.364 1.975 0 3.044-.177 4.177-.364 1.199-.198 2.558-.423 5.345-.423s4.145.225 5.344.423c1.132.187 2.203.364 4.177.364 1.973 0 3.043-.177 4.176-.364 1.2-.198 2.558-.423 5.344-.423 2.787 0 4.145.225 5.345.423 1.133.187 2.203.364 4.176.364 1.974 0 3.044-.177 4.177-.364 1.2-.198 2.557-.423 5.344-.423 2.787 0 4.146.225 5.344.423 1.133.187 2.203.364 4.177.364 1.974 0 3.044-.177 4.177-.364 1.199-.198 2.558-.423 5.344-.423 2.786 0 4.145.225 5.344.423 1.133.187 2.203.364 4.177.364M-.079 15.743c1.974 0 3.044-.176 4.177-.363 1.199-.198 2.557-.423 5.344-.423 2.786 0 4.145.225 5.344.423 1.133.187 2.202.363 4.176.363 1.974 0 3.044-.176 4.177-.363 1.199-.198 2.557-.423 5.344-.423 2.786 0 4.145.225 5.344.423 1.133.187 2.203.363 4.177.363 1.974 0 3.044-.176 4.176-.363 1.2-.198 2.558-.423 5.344-.423 2.787 0 4.145.225 5.344.423 1.133.187 2.203.363 4.177.363 1.974 0 3.044-.176 4.176-.363 1.2-.198 2.558-.423 5.344-.423 2.787 0 4.146.225 5.344.423 1.133.187 2.203.363 4.177.363 1.974 0 3.044-.176 4.176-.363 1.2-.198 2.558-.423 5.345-.423s4.146.225 5.344.423c1.133.187 2.203.363 4.177.363 1.974 0 3.044-.176 4.177-.363 1.199-.198 2.558-.423 5.344-.423 2.787 0 4.145.225 5.345.423 1.132.187 2.203.363 4.176.363 1.974 0 3.044-.176 4.177-.363 1.2-.198 2.557-.423 5.344-.423 2.787 0 4.145.225 5.345.423 1.132.187 2.202.363 4.176.363 1.974 0 3.043-.176 4.176-.363 1.2-.198 2.558-.423 5.345-.423 2.786 0 4.145.225 5.344.423 1.133.187 2.203.363 4.176.363 1.975 0 3.045-.176 4.178-.363 1.198-.198 2.558-.423 5.343-.423 2.787 0 4.146.225 5.345.423 1.133.187 2.202.363 4.177.363M.32 16.763c1.974 0 3.044-.176 4.176-.364 1.2-.198 2.558-.422 5.344-.422 2.787 0 4.145.224 5.344.422 1.133.188 2.203.364 4.177.364 1.974 0 3.043-.176 4.176-.364 1.199-.198 2.558-.422 5.344-.422 2.787 0 4.146.224 5.344.422 1.133.188 2.203.364 4.177.364 1.974 0 3.044-.176 4.177-.364 1.199-.198 2.557-.422 5.344-.422 2.786 0 4.145.224 5.344.422 1.133.188 2.203.364 4.176.364 1.974 0 3.044-.176 4.177-.364 1.199-.198 2.557-.422 5.344-.422 2.786 0 4.145.224 5.344.422 1.133.188 2.203.364 4.177.364 1.973 0 3.043-.176 4.176-.364 1.2-.198 2.558-.422 5.344-.422 2.787 0 4.146.224 5.345.422 1.133.188 2.203.364 4.176.364 1.975 0 3.045-.176 4.178-.364 1.198-.198 2.557-.422 5.344-.422 2.787 0 4.145.224 5.344.422 1.132.188 2.203.364 4.177.364 1.973 0 3.043-.176 4.176-.364 1.2-.198 2.558-.422 5.345-.422 2.786 0 4.144.224 5.344.422 1.133.188 2.203.364 4.176.364 1.974 0 3.044-.176 4.177-.364 1.2-.198 2.557-.422 5.344-.422 2.787 0 4.146.224 5.345.422 1.132.188 2.202.364 4.176.364 1.975 0 3.044-.176 4.177-.364 1.199-.198 2.558-.422 5.344-.422 2.787 0 4.146.224 5.344.422 1.133.188 2.203.364 4.178.364M-.687 18.803c1.974 0 3.044-.177 4.177-.364 1.198-.198 2.557-.422 5.344-.422 2.786 0 4.145.224 5.344.422 1.132.187 2.202.364 4.176.364 1.974 0 3.044-.177 4.177-.364 1.198-.198 2.557-.422 5.343-.422 2.787 0 4.146.224 5.345.422 1.133.187 2.202.364 4.176.364 1.974 0 3.044-.177 4.177-.364 1.199-.198 2.558-.422 5.344-.422 2.786 0 4.145.224 5.344.422 1.133.187 2.203.364 4.177.364 1.973 0 3.043-.177 4.176-.364 1.199-.198 2.558-.422 5.344-.422 2.787 0 4.145.224 5.344.422 1.133.187 2.203.364 4.177.364 1.974 0 3.043-.177 4.176-.364 1.2-.198 2.558-.422 5.345-.422 2.786 0 4.145.224 5.344.422 1.133.187 2.203.364 4.176.364 1.975 0 3.045-.177 4.178-.364 1.198-.198 2.557-.422 5.344-.422 2.787 0 4.145.224 5.345.422 1.132.187 2.202.364 4.176.364 1.974 0 3.044-.177 4.176-.364 1.2-.198 2.558-.422 5.345-.422s4.145.224 5.344.422c1.133.187 2.203.364 4.177.364 1.973 0 3.043-.177 4.176-.364 1.2-.198 2.558-.422 5.344-.422 2.787 0 4.146.224 5.345.422 1.133.187 2.203.364 4.176.364 1.975 0 3.045-.177 4.178-.364 1.198-.198 2.557-.422 5.343-.422 2.787 0 4.146.224 5.344.422 1.133.187 2.203.364 4.178.364M.227 17.783c1.974 0 3.044-.177 4.176-.364 1.2-.198 2.558-.422 5.345-.422 2.786 0 4.145.224 5.343.422 1.133.187 2.203.364 4.177.364 1.974 0 3.044-.177 4.176-.364 1.2-.198 2.558-.422 5.344-.422 2.787 0 4.146.224 5.345.422 1.132.187 2.202.364 4.176.364 1.974 0 3.044-.177 4.177-.364 1.199-.198 2.558-.422 5.344-.422 2.786 0 4.145.224 5.344.422 1.133.187 2.203.364 4.176.364 1.974 0 3.044-.177 4.177-.364 1.199-.198 2.557-.422 5.344-.422 2.786 0 4.145.224 5.344.422 1.133.187 2.203.364 4.177.364 1.973 0 3.043-.177 4.176-.364 1.2-.198 2.558-.422 5.345-.422 2.786 0 4.145.224 5.344.422 1.133.187 2.203.364 4.176.364 1.975 0 3.045-.177 4.178-.364 1.198-.198 2.557-.422 5.344-.422 2.787 0 4.145.224 5.345.422 1.131.187 2.202.364 4.176.364 1.974 0 3.043-.177 4.176-.364 1.2-.198 2.558-.422 5.345-.422 2.786 0 4.145.224 5.344.422 1.133.187 2.203.364 4.176.364 1.974 0 3.044-.177 4.177-.364 1.2-.198 2.558-.422 5.344-.422 2.787 0 4.146.224 5.345.422 1.133.187 2.202.364 4.176.364 1.975 0 3.045-.177 4.177-.364 1.2-.198 2.558-.422 5.344-.422 2.787 0 4.146.224 5.344.422 1.133.187 2.203.364 4.178.364M-.496 19.823c1.974 0 3.044-.177 4.176-.364 1.2-.198 2.558-.423 5.345-.423 2.786 0 4.145.225 5.343.423 1.133.187 2.203.364 4.177.364 1.974 0 3.044-.177 4.176-.364 1.2-.198 2.558-.423 5.344-.423 2.787 0 4.146.225 5.345.423 1.132.187 2.202.364 4.176.364 1.974 0 3.044-.177 4.177-.364 1.199-.198 2.558-.423 5.344-.423 2.786 0 4.145.225 5.344.423 1.133.187 2.203.364 4.176.364 1.974 0 3.044-.177 4.177-.364 1.199-.198 2.558-.423 5.344-.423 2.786 0 4.145.225 5.344.423 1.133.187 2.203.364 4.177.364 1.973 0 3.043-.177 4.176-.364 1.2-.198 2.558-.423 5.345-.423 2.786 0 4.145.225 5.344.423 1.133.187 2.203.364 4.176.364 1.975 0 3.045-.177 4.178-.364 1.198-.198 2.557-.423 5.344-.423 2.787 0 4.145.225 5.345.423 1.131.187 2.202.364 4.176.364 1.974 0 3.043-.177 4.176-.364 1.2-.198 2.558-.423 5.345-.423 2.786 0 4.145.225 5.344.423 1.133.187 2.203.364 4.177.364 1.973 0 3.043-.177 4.176-.364 1.2-.198 2.558-.423 5.344-.423 2.787 0 4.146.225 5.345.423 1.133.187 2.202.364 4.176.364 1.975 0 3.045-.177 4.177-.364 1.2-.198 2.558-.423 5.344-.423 2.787 0 4.146.225 5.344.423 1.133.187 2.203.364 4.178.364m-167.764.656c1.199-.198 2.558-.423 5.344-.423 2.787 0 4.145.225 5.344.423 1.133.187 2.203.364 4.177.364 1.973 0 3.043-.177 4.176-.364 1.199-.198 2.558-.423 5.344-.423 2.787 0 4.145.225 5.344.423 1.133.187 2.203.364 4.177.364 1.974 0 3.044-.177 4.177-.364 1.198-.198 2.557-.423 5.344-.423 2.786 0 4.145.225 5.344.423 1.132.187 2.202.364 4.176.364 1.974 0 3.044-.177 4.177-.364 1.198-.198 2.557-.423 5.344-.423 2.786 0 4.145.225 5.344.423 1.132.187 2.202.364 4.176.364 1.974 0 3.044-.177 4.177-.364 1.2-.198 2.558-.423 5.344-.423 2.787 0 4.146.225 5.345.423 1.133.187 2.202.364 4.176.364 1.975 0 3.044-.177 4.177-.364 1.199-.198 2.558-.423 5.345-.423s4.145.225 5.344.423c1.132.187 2.203.364 4.177.364 1.973 0 3.043-.177 4.176-.364 1.2-.198 2.558-.423 5.344-.423 2.787 0 4.145.225 5.345.423 1.133.187 2.203.364 4.176.364 1.974 0 3.044-.177 4.177-.364 1.2-.198 2.557-.423 5.344-.423 2.787 0 4.146.225 5.344.423 1.133.187 2.203.364 4.177.364 1.974 0 3.044-.177 4.177-.364 1.199-.198 2.558-.423 5.344-.423 2.786 0 4.145.225 5.344.423 1.133.187 2.203.364 4.177.364M-.406 21.862c1.974 0 3.044-.176 4.177-.363 1.199-.199 2.558-.423 5.344-.423 2.786 0 4.145.224 5.344.423 1.133.187 2.203.363 4.176.363 1.974 0 3.044-.176 4.177-.363 1.199-.199 2.557-.423 5.344-.423 2.786 0 4.145.224 5.344.423 1.133.187 2.203.363 4.177.363 1.974 0 3.044-.176 4.176-.363 1.2-.199 2.558-.423 5.344-.423 2.787 0 4.146.224 5.344.423 1.133.187 2.203.363 4.177.363 1.974 0 3.044-.176 4.176-.363 1.2-.199 2.558-.423 5.344-.423 2.787 0 4.146.224 5.345.423 1.132.187 2.202.363 4.176.363 1.974 0 3.044-.176 4.177-.363 1.2-.199 2.557-.423 5.344-.423 2.787 0 4.146.224 5.344.423 1.133.187 2.203.363 4.177.363 1.974 0 3.044-.176 4.177-.363 1.199-.199 2.558-.423 5.345-.423 2.786 0 4.144.224 5.344.423 1.132.187 2.203.363 4.176.363 1.974 0 3.044-.176 4.177-.363 1.2-.199 2.557-.423 5.344-.423 2.787 0 4.145.224 5.345.423 1.132.187 2.202.363 4.176.363 1.974 0 3.043-.176 4.176-.363 1.2-.199 2.558-.423 5.345-.423 2.786 0 4.146.224 5.344.423 1.133.187 2.203.363 4.177.363 1.974 0 3.044-.176 4.177-.363 1.199-.199 2.558-.423 5.343-.423 2.787 0 4.146.224 5.345.423 1.133.187 2.203.363 4.177.363M2.764 23.538c1.199-.198 2.558-.422 5.344-.422 2.787 0 4.145.224 5.344.422 1.133.187 2.203.364 4.177.364 1.973 0 3.043-.177 4.176-.364 1.199-.198 2.558-.422 5.344-.422 2.787 0 4.145.224 5.344.422 1.133.187 2.203.364 4.177.364 1.974 0 3.044-.177 4.177-.364 1.198-.198 2.557-.422 5.344-.422 2.786 0 4.145.224 5.344.422 1.132.187 2.202.364 4.176.364 1.974 0 3.044-.177 4.177-.364 1.198-.198 2.557-.422 5.344-.422 2.786 0 4.145.224 5.344.422 1.132.187 2.202.364 4.176.364 1.974 0 3.044-.177 4.177-.364 1.2-.198 2.558-.422 5.344-.422 2.787 0 4.146.224 5.345.422 1.133.187 2.202.364 4.176.364 1.975 0 3.044-.177 4.177-.364 1.199-.198 2.558-.422 5.345-.422s4.145.224 5.344.422c1.132.187 2.203.364 4.177.364 1.973 0 3.043-.177 4.176-.364 1.2-.198 2.558-.422 5.344-.422 2.787 0 4.145.224 5.345.422 1.133.187 2.203.364 4.176.364 1.974 0 3.044-.177 4.177-.364 1.2-.198 2.557-.422 5.344-.422 2.787 0 4.146.224 5.344.422 1.133.187 2.203.364 4.177.364 1.974 0 3.044-.177 4.177-.364 1.199-.198 2.558-.422 5.344-.422 2.786 0 4.145.224 5.344.422 1.133.187 2.203.364 4.177.364M-.499 22.882c1.974 0 3.044-.177 4.177-.364 1.199-.198 2.558-.422 5.344-.422 2.786 0 4.145.224 5.344.422 1.133.187 2.203.364 4.176.364 1.974 0 3.044-.177 4.177-.364 1.199-.198 2.557-.422 5.344-.422 2.786 0 4.145.224 5.344.422 1.133.187 2.203.364 4.177.364 1.974 0 3.044-.177 4.176-.364 1.2-.198 2.558-.422 5.345-.422 2.786 0 4.145.224 5.344.422 1.132.187 2.202.364 4.176.364 1.974 0 3.044-.177 4.177-.364 1.198-.198 2.557-.422 5.344-.422 2.786 0 4.145.224 5.344.422 1.132.187 2.202.364 4.176.364 1.974 0 3.044-.177 4.177-.364 1.2-.198 2.557-.422 5.344-.422 2.787 0 4.146.224 5.345.422 1.132.187 2.202.364 4.176.364 1.975 0 3.044-.177 4.177-.364 1.199-.198 2.558-.422 5.345-.422 2.786 0 4.144.224 5.344.422 1.132.187 2.203.364 4.176.364 1.974 0 3.044-.177 4.177-.364 1.2-.198 2.558-.422 5.344-.422 2.787 0 4.145.224 5.345.422 1.133.187 2.202.364 4.176.364 1.974 0 3.044-.177 4.176-.364 1.2-.198 2.558-.422 5.345-.422s4.146.224 5.344.422c1.133.187 2.203.364 4.177.364 1.974 0 3.044-.177 4.177-.364 1.199-.198 2.558-.422 5.343-.422 2.787 0 4.146.224 5.345.422 1.133.187 2.203.364 4.177.364M2.955 24.558c1.199-.198 2.558-.423 5.344-.423 2.786 0 4.145.225 5.344.423 1.133.187 2.203.364 4.176.364 1.974 0 3.044-.177 4.177-.364 1.199-.198 2.558-.423 5.344-.423 2.786 0 4.145.225 5.344.423 1.133.187 2.203.364 4.177.364 1.974 0 3.044-.177 4.176-.364 1.2-.198 2.558-.423 5.345-.423 2.786 0 4.145.225 5.344.423 1.132.187 2.202.364 4.176.364 1.974 0 3.044-.177 4.177-.364 1.198-.198 2.557-.423 5.344-.423 2.786 0 4.145.225 5.344.423 1.132.187 2.202.364 4.176.364 1.974 0 3.044-.177 4.177-.364 1.2-.198 2.557-.423 5.344-.423 2.787 0 4.146.225 5.345.423 1.132.187 2.202.364 4.176.364 1.975 0 3.044-.177 4.177-.364 1.199-.198 2.558-.423 5.345-.423 2.786 0 4.145.225 5.344.423 1.132.187 2.203.364 4.176.364 1.974 0 3.044-.177 4.177-.364 1.2-.198 2.558-.423 5.344-.423 2.787 0 4.145.225 5.345.423 1.133.187 2.202.364 4.176.364 1.974 0 3.044-.177 4.176-.364 1.2-.198 2.558-.423 5.345-.423s4.146.225 5.344.423c1.133.187 2.203.364 4.177.364 1.974 0 3.044-.177 4.177-.364 1.199-.198 2.558-.423 5.344-.423 2.786 0 4.145.225 5.344.423 1.133.187 2.203.364 4.177.364M2.39 25.578c1.199-.198 2.557-.423 5.344-.423 2.786 0 4.145.225 5.344.423 1.132.187 2.202.364 4.176.364 1.974 0 3.044-.177 4.177-.364 1.198-.198 2.557-.423 5.344-.423 2.786 0 4.145.225 5.344.423 1.133.187 2.203.364 4.177.364 1.974 0 3.043-.177 4.176-.364 1.2-.198 2.558-.423 5.344-.423 2.787 0 4.145.225 5.344.423 1.133.187 2.203.364 4.177.364 1.974 0 3.043-.177 4.176-.364 1.199-.198 2.558-.423 5.344-.423 2.787 0 4.146.225 5.344.423 1.133.187 2.203.364 4.177.364 1.974 0 3.044-.177 4.176-.364 1.2-.198 2.558-.423 5.345-.423s4.146.225 5.344.423c1.133.187 2.203.364 4.177.364 1.974 0 3.044-.177 4.177-.364 1.199-.198 2.558-.423 5.344-.423 2.787 0 4.145.225 5.345.423 1.132.187 2.202.364 4.176.364 1.974 0 3.044-.177 4.177-.364 1.2-.198 2.557-.423 5.344-.423 2.787 0 4.145.225 5.344.423 1.133.187 2.203.364 4.177.364 1.973 0 3.043-.177 4.176-.364 1.2-.198 2.558-.423 5.345-.423 2.786 0 4.145.225 5.344.423 1.133.187 2.203.364 4.176.364 1.975 0 3.045-.177 4.178-.364 1.198-.198 2.557-.423 5.343-.423 2.787 0 4.146.225 5.345.423 1.133.187 2.202.364 4.177.364m-167.8.656c1.199-.198 2.558-.423 5.344-.423 2.786 0 4.145.225 5.344.423 1.133.187 2.203.364 4.176.364 1.974 0 3.044-.177 4.177-.364 1.199-.198 2.557-.423 5.344-.423 2.786 0 4.145.225 5.344.423 1.133.187 2.203.364 4.177.364 1.974 0 3.044-.177 4.176-.364 1.2-.198 2.558-.423 5.344-.423 2.787 0 4.146.225 5.344.423 1.133.187 2.203.364 4.177.364 1.974 0 3.044-.177 4.176-.364 1.2-.198 2.558-.423 5.344-.423 2.787 0 4.146.225 5.345.423 1.132.187 2.202.364 4.176.364 1.974 0 3.044-.177 4.177-.364 1.2-.198 2.557-.423 5.344-.423 2.787 0 4.146.225 5.344.423 1.133.187 2.203.364 4.177.364 1.974 0 3.044-.177 4.177-.364 1.199-.198 2.558-.423 5.345-.423 2.786 0 4.144.225 5.344.423 1.132.187 2.203.364 4.176.364 1.974 0 3.044-.177 4.177-.364 1.2-.198 2.558-.423 5.344-.423 2.787 0 4.145.225 5.345.423 1.133.187 2.202.364 4.176.364 1.974 0 3.044-.177 4.176-.364 1.2-.198 2.558-.423 5.345-.423s4.146.225 5.344.423c1.133.187 2.203.364 4.177.364 1.974 0 3.044-.177 4.177-.364 1.199-.198 2.558-.423 5.343-.423 2.787 0 4.146.225 5.345.423 1.133.187 2.203.364 4.177.364M.781 28.637c1.199-.198 2.558-.422 5.344-.422 2.787 0 4.145.224 5.344.422 1.133.187 2.203.364 4.177.364 1.973 0 3.043-.177 4.176-.364 1.199-.198 2.558-.422 5.344-.422 2.787 0 4.145.224 5.344.422 1.133.187 2.203.364 4.177.364 1.974 0 3.044-.177 4.177-.364 1.199-.198 2.557-.422 5.344-.422 2.786 0 4.145.224 5.344.422 1.132.187 2.202.364 4.176.364 1.974 0 3.044-.177 4.177-.364 1.198-.198 2.557-.422 5.344-.422 2.786 0 4.145.224 5.344.422 1.133.187 2.202.364 4.176.364 1.974 0 3.044-.177 4.177-.364 1.2-.198 2.558-.422 5.344-.422 2.787 0 4.146.224 5.345.422 1.133.187 2.202.364 4.176.364 1.975 0 3.045-.177 4.177-.364 1.2-.198 2.558-.422 5.345-.422s4.145.224 5.344.422c1.132.187 2.203.364 4.177.364 1.973 0 3.043-.177 4.176-.364 1.2-.198 2.558-.422 5.344-.422 2.787 0 4.145.224 5.345.422 1.133.187 2.203.364 4.176.364 1.974 0 3.044-.177 4.177-.364 1.2-.198 2.557-.422 5.344-.422 2.787 0 4.146.224 5.345.422 1.132.187 2.202.364 4.176.364 1.975 0 3.044-.177 4.177-.364 1.199-.198 2.558-.422 5.344-.422 2.786 0 4.145.224 5.344.422 1.133.187 2.203.364 4.177.364 1.974 0 3.044-.177 4.177-.364M1.695 27.617c1.199-.198 2.558-.422 5.344-.422 2.786 0 4.145.224 5.344.422 1.133.188 2.203.364 4.176.364 1.974 0 3.044-.176 4.177-.364 1.199-.198 2.558-.422 5.344-.422 2.786 0 4.145.224 5.344.422 1.133.188 2.203.364 4.177.364 1.974 0 3.044-.176 4.177-.364 1.198-.198 2.557-.422 5.344-.422 2.786 0 4.145.224 5.344.422 1.132.188 2.202.364 4.176.364 1.974 0 3.044-.176 4.177-.364 1.198-.198 2.557-.422 5.344-.422 2.786 0 4.145.224 5.344.422 1.132.188 2.202.364 4.176.364 1.974 0 3.044-.176 4.177-.364 1.2-.198 2.557-.422 5.344-.422 2.787 0 4.146.224 5.345.422 1.132.188 2.202.364 4.176.364 1.975 0 3.044-.176 4.177-.364 1.199-.198 2.558-.422 5.345-.422 2.786 0 4.145.224 5.344.422 1.132.188 2.203.364 4.177.364 1.973 0 3.043-.176 4.176-.364 1.2-.198 2.558-.422 5.344-.422 2.787 0 4.145.224 5.345.422 1.133.188 2.202.364 4.176.364 1.974 0 3.044-.176 4.176-.364 1.2-.198 2.558-.422 5.345-.422s4.146.224 5.344.422c1.133.188 2.203.364 4.177.364 1.974 0 3.044-.176 4.177-.364 1.199-.198 2.558-.422 5.344-.422 2.786 0 4.145.224 5.344.422 1.133.188 2.203.364 4.177.364M.972 29.657c1.199-.198 2.558-.422 5.344-.422 2.786 0 4.145.224 5.344.422 1.133.187 2.203.364 4.176.364 1.974 0 3.044-.177 4.177-.364 1.199-.198 2.558-.422 5.344-.422 2.786 0 4.145.224 5.344.422 1.133.187 2.203.364 4.177.364 1.974 0 3.044-.177 4.177-.364 1.198-.198 2.557-.422 5.344-.422 2.786 0 4.145.224 5.344.422 1.132.187 2.202.364 4.176.364 1.974 0 3.044-.177 4.177-.364 1.198-.198 2.557-.422 5.344-.422 2.786 0 4.145.224 5.344.422 1.132.187 2.202.364 4.176.364 1.974 0 3.044-.177 4.177-.364 1.2-.198 2.557-.422 5.344-.422 2.787 0 4.146.224 5.345.422 1.132.187 2.202.364 4.176.364 1.975 0 3.044-.177 4.177-.364 1.199-.198 2.558-.422 5.345-.422 2.786 0 4.145.224 5.344.422 1.132.187 2.203.364 4.177.364 1.973 0 3.043-.177 4.176-.364 1.2-.198 2.558-.422 5.344-.422 2.787 0 4.145.224 5.345.422 1.133.187 2.202.364 4.176.364 1.974 0 3.044-.177 4.177-.364 1.2-.198 2.557-.422 5.344-.422 2.787 0 4.146.224 5.344.422 1.133.187 2.203.364 4.177.364 1.974 0 3.044-.177 4.177-.364 1.199-.198 2.558-.422 5.344-.422 2.786 0 4.145.224 5.344.422 1.133.187 2.203.364 4.177.364 1.974 0 3.044-.177 4.177-.364M.407 30.677c1.199-.198 2.557-.423 5.344-.423 2.786 0 4.145.225 5.344.423 1.132.187 2.202.364 4.176.364 1.974 0 3.044-.177 4.177-.364 1.198-.198 2.557-.423 5.344-.423 2.786 0 4.145.225 5.344.423 1.133.187 2.203.364 4.177.364 1.974 0 3.043-.177 4.176-.364 1.2-.198 2.558-.423 5.344-.423 2.787 0 4.145.225 5.344.423 1.133.187 2.203.364 4.177.364 1.974 0 3.044-.177 4.176-.364 1.2-.198 2.558-.423 5.344-.423 2.787 0 4.146.225 5.344.423 1.133.187 2.203.364 4.177.364 1.974 0 3.044-.177 4.176-.364 1.2-.198 2.558-.423 5.345-.423s4.146.225 5.344.423c1.133.187 2.203.364 4.177.364 1.974 0 3.044-.177 4.177-.364 1.199-.198 2.558-.423 5.344-.423 2.787 0 4.145.225 5.345.423 1.132.187 2.203.364 4.176.364 1.974 0 3.044-.177 4.177-.364 1.2-.198 2.557-.423 5.344-.423 2.787 0 4.145.225 5.344.423 1.133.187 2.203.364 4.177.364 1.974 0 3.043-.177 4.176-.364 1.2-.198 2.558-.423 5.345-.423 2.786 0 4.145.225 5.344.423 1.133.187 2.203.364 4.176.364 1.975 0 3.045-.177 4.178-.364 1.198-.198 2.557-.423 5.343-.423 2.787 0 4.146.225 5.345.423 1.133.187 2.202.364 4.177.364 1.974 0 3.044-.177 4.176-.364M-.091 31.697c1.199-.198 2.558-.423 5.344-.423 2.786 0 4.145.225 5.344.423 1.133.187 2.203.364 4.176.364 1.974 0 3.044-.177 4.177-.364 1.199-.198 2.557-.423 5.344-.423 2.786 0 4.145.225 5.344.423 1.133.187 2.203.364 4.177.364 1.974 0 3.044-.177 4.176-.364 1.2-.198 2.558-.423 5.345-.423 2.786 0 4.145.225 5.344.423 1.132.187 2.202.364 4.176.364 1.974 0 3.044-.177 4.177-.364 1.198-.198 2.557-.423 5.343-.423 2.787 0 4.146.225 5.345.423 1.132.187 2.202.364 4.176.364 1.974 0 3.044-.177 4.177-.364 1.2-.198 2.557-.423 5.344-.423 2.787 0 4.146.225 5.345.423 1.132.187 2.202.364 4.176.364 1.975 0 3.044-.177 4.177-.364 1.199-.198 2.558-.423 5.345-.423 2.786 0 4.144.225 5.344.423 1.132.187 2.203.364 4.176.364 1.974 0 3.044-.177 4.177-.364 1.2-.198 2.558-.423 5.344-.423 2.787 0 4.145.225 5.345.423 1.133.187 2.202.364 4.176.364 1.974 0 3.044-.177 4.176-.364 1.2-.198 2.558-.423 5.345-.423s4.146.225 5.344.423c1.133.187 2.203.364 4.177.364 1.974 0 3.044-.177 4.177-.364 1.199-.198 2.558-.423 5.343-.423 2.787 0 4.146.225 5.345.423 1.133.187 2.203.364 4.177.364 1.974 0 3.044-.177 4.177-.364M4.246 33.314c2.787 0 4.145.224 5.344.422 1.133.187 2.203.364 4.177.364 1.974 0 3.043-.177 4.176-.364 1.199-.198 2.558-.422 5.344-.422 2.787 0 4.145.224 5.344.422 1.133.187 2.203.364 4.177.364 1.974 0 3.044-.177 4.177-.364 1.199-.198 2.557-.422 5.344-.422 2.786 0 4.145.224 5.344.422 1.133.187 2.202.364 4.176.364 1.974 0 3.044-.177 4.177-.364 1.199-.198 2.557-.422 5.344-.422 2.786 0 4.145.224 5.344.422 1.133.187 2.202.364 4.176.364 1.974 0 3.044-.177 4.177-.364 1.2-.198 2.558-.422 5.344-.422 2.787 0 4.146.224 5.345.422 1.133.187 2.202.364 4.176.364 1.975 0 3.045-.177 4.177-.364 1.2-.198 2.558-.422 5.345-.422s4.145.224 5.344.422c1.132.187 2.203.364 4.177.364 1.973 0 3.043-.177 4.176-.364 1.2-.198 2.558-.422 5.345-.422 2.786 0 4.144.224 5.344.422 1.133.187 2.203.364 4.176.364 1.974 0 3.044-.177 4.177-.364 1.2-.198 2.557-.422 5.344-.422 2.787 0 4.146.224 5.345.422 1.132.187 2.202.364 4.176.364 1.975 0 3.044-.177 4.177-.364 1.199-.198 2.558-.422 5.344-.422 2.786 0 4.145.224 5.344.422 1.133.187 2.203.364 4.177.364 1.974 0 3.044-.177 4.177-.364M-.184 32.717c1.199-.199 2.558-.423 5.344-.423 2.786 0 4.145.224 5.344.423 1.133.187 2.203.363 4.176.363 1.974 0 3.044-.176 4.177-.363 1.199-.199 2.558-.423 5.344-.423 2.786 0 4.145.224 5.344.423 1.133.187 2.203.363 4.177.363 1.974 0 3.044-.176 4.177-.363 1.198-.199 2.557-.423 5.344-.423 2.786 0 4.145.224 5.344.423 1.132.187 2.202.363 4.176.363 1.974 0 3.044-.176 4.177-.363 1.198-.199 2.557-.423 5.344-.423 2.786 0 4.145.224 5.344.423 1.132.187 2.202.363 4.176.363 1.974 0 3.044-.176 4.177-.363 1.2-.199 2.557-.423 5.344-.423 2.787 0 4.146.224 5.345.423 1.133.187 2.202.363 4.176.363 1.975 0 3.044-.176 4.177-.363 1.199-.199 2.558-.423 5.345-.423 2.786 0 4.145.224 5.344.423 1.132.187 2.203.363 4.177.363 1.973 0 3.043-.176 4.176-.363 1.2-.199 2.558-.423 5.344-.423 2.787 0 4.145.224 5.345.423 1.133.187 2.202.363 4.176.363 1.974 0 3.044-.176 4.177-.363 1.2-.199 2.557-.423 5.344-.423 2.787 0 4.146.224 5.344.423 1.133.187 2.203.363 4.177.363 1.974 0 3.044-.176 4.177-.363 1.199-.199 2.558-.423 5.344-.423 2.786 0 4.145.224 5.344.423 1.133.187 2.203.363 4.177.363 1.974 0 3.044-.176 4.177-.363M-.907 34.756c1.199-.198 2.558-.422 5.344-.422 2.787 0 4.145.224 5.344.422 1.133.187 2.203.364 4.177.364 1.973 0 3.043-.177 4.176-.364 1.199-.198 2.558-.422 5.344-.422 2.786 0 4.145.224 5.344.422 1.133.187 2.203.364 4.177.364 1.974 0 3.044-.177 4.177-.364 1.198-.198 2.557-.422 5.344-.422 2.786 0 4.145.224 5.344.422 1.132.187 2.202.364 4.176.364 1.974 0 3.044-.177 4.177-.364 1.198-.198 2.557-.422 5.344-.422 2.786 0 4.145.224 5.344.422 1.132.187 2.202.364 4.176.364 1.974 0 3.044-.177 4.177-.364 1.2-.198 2.558-.422 5.344-.422 2.787 0 4.146.224 5.345.422 1.133.187 2.202.364 4.176.364 1.975 0 3.044-.177 4.177-.364 1.199-.198 2.558-.422 5.345-.422 2.786 0 4.145.224 5.344.422 1.132.187 2.203.364 4.177.364 1.973 0 3.043-.177 4.176-.364 1.2-.198 2.558-.422 5.344-.422 2.787 0 4.145.224 5.345.422 1.133.187 2.203.364 4.176.364 1.974 0 3.044-.177 4.177-.364 1.2-.198 2.557-.422 5.344-.422 2.787 0 4.146.224 5.344.422 1.133.187 2.203.364 4.177.364 1.974 0 3.044-.177 4.177-.364 1.199-.198 2.558-.422 5.344-.422 2.786 0 4.145.224 5.344.422 1.133.187 2.203.364 4.177.364 1.974 0 3.044-.177 4.177-.364m-166.596.598c2.786 0 4.145.224 5.344.422 1.133.187 2.202.364 4.176.364 1.974 0 3.044-.177 4.177-.364 1.199-.198 2.557-.422 5.344-.422 2.786 0 4.145.224 5.344.422 1.133.187 2.203.364 4.177.364 1.974 0 3.044-.177 4.176-.364 1.2-.198 2.558-.422 5.344-.422 2.787 0 4.145.224 5.344.422 1.133.187 2.203.364 4.177.364 1.974 0 3.044-.177 4.176-.364 1.2-.198 2.558-.422 5.344-.422 2.787 0 4.146.224 5.344.422 1.133.187 2.203.364 4.177.364 1.974 0 3.044-.177 4.176-.364 1.2-.198 2.558-.422 5.345-.422s4.146.224 5.344.422c1.133.187 2.203.364 4.177.364 1.974 0 3.044-.177 4.177-.364 1.199-.198 2.558-.422 5.344-.422 2.787 0 4.145.224 5.345.422 1.132.187 2.203.364 4.176.364 1.974 0 3.044-.177 4.177-.364 1.2-.198 2.557-.422 5.344-.422 2.787 0 4.145.224 5.345.422 1.132.187 2.202.364 4.176.364 1.974 0 3.043-.177 4.176-.364 1.2-.198 2.558-.422 5.345-.422 2.786 0 4.145.224 5.344.422 1.133.187 2.203.364 4.177.364 1.974 0 3.044-.177 4.177-.364 1.198-.198 2.558-.422 5.343-.422 2.787 0 4.146.224 5.345.422 1.133.187 2.202.364 4.177.364 1.974 0 3.044-.177 4.176-.364M4.127 36.33c2.786 0 4.145.224 5.344.422 1.132.187 2.202.364 4.176.364 1.974 0 3.044-.177 4.177-.364 1.198-.198 2.557-.423 5.343-.423 2.787 0 4.146.225 5.345.423 1.133.187 2.202.364 4.176.364 1.974 0 3.044-.177 4.177-.364 1.199-.198 2.558-.423 5.344-.423 2.786 0 4.145.225 5.344.423 1.133.187 2.203.364 4.177.364 1.973 0 3.043-.177 4.176-.364 1.199-.198 2.558-.423 5.344-.423 2.787 0 4.145.225 5.344.423 1.133.187 2.203.364 4.177.364 1.974 0 3.043-.177 4.176-.364 1.2-.198 2.558-.423 5.345-.423 2.786 0 4.145.225 5.344.423 1.133.187 2.203.364 4.176.364 1.975 0 3.045-.177 4.178-.364 1.198-.198 2.557-.423 5.344-.423 2.787 0 4.145.225 5.345.423 1.132.187 2.202.364 4.176.364 1.974 0 3.044-.177 4.176-.364 1.2-.198 2.558-.423 5.345-.423s4.145.225 5.344.423c1.133.187 2.203.364 4.177.364 1.973 0 3.043-.177 4.176-.364 1.2-.198 2.558-.423 5.344-.423 2.787 0 4.146.225 5.345.423 1.133.187 2.203.364 4.176.364 1.975 0 3.045-.177 4.178-.364 1.198-.198 2.557-.423 5.343-.423 2.787 0 4.146.225 5.344.423 1.133.187 2.203.364 4.178.364M3.12 38.369c2.786 0 4.145.224 5.344.422 1.133.187 2.202.364 4.176.364 1.974 0 3.044-.177 4.177-.364 1.199-.198 2.557-.422 5.344-.422 2.786 0 4.145.224 5.344.422 1.133.187 2.203.364 4.177.364 1.974 0 3.044-.177 4.176-.364 1.2-.198 2.558-.422 5.344-.422 2.787 0 4.145.224 5.344.422 1.133.187 2.203.364 4.177.364 1.974 0 3.044-.177 4.176-.364 1.2-.198 2.558-.422 5.344-.422 2.787 0 4.146.224 5.344.422 1.133.187 2.203.364 4.177.364 1.974 0 3.044-.177 4.176-.364 1.2-.198 2.558-.422 5.345-.422s4.146.224 5.344.422c1.133.187 2.203.364 4.177.364 1.974 0 3.044-.177 4.177-.364 1.199-.198 2.558-.422 5.344-.422 2.787 0 4.145.224 5.345.422 1.132.187 2.203.364 4.176.364 1.974 0 3.044-.177 4.177-.364 1.2-.198 2.557-.422 5.344-.422 2.787 0 4.145.224 5.345.422 1.132.187 2.202.364 4.176.364 1.974 0 3.043-.177 4.176-.364 1.2-.198 2.558-.422 5.345-.422 2.786 0 4.145.224 5.344.422 1.133.187 2.203.364 4.177.364 1.974 0 3.044-.177 4.177-.364 1.198-.198 2.558-.422 5.343-.422 2.787 0 4.146.224 5.345.422 1.133.187 2.202.364 4.177.364M4.034 37.349c2.786 0 4.145.224 5.344.422 1.132.188 2.202.364 4.176.364 1.974 0 3.044-.176 4.177-.364 1.198-.198 2.557-.422 5.343-.422 2.787 0 4.146.224 5.345.422 1.133.188 2.203.364 4.177.364 1.973 0 3.043-.176 4.176-.364 1.199-.198 2.558-.422 5.344-.422 2.787 0 4.145.224 5.344.422 1.133.188 2.203.364 4.177.364 1.974 0 3.043-.176 4.176-.364 1.199-.198 2.558-.422 5.344-.422 2.787 0 4.145.224 5.344.422 1.133.188 2.203.364 4.177.364 1.974 0 3.043-.176 4.176-.364 1.2-.198 2.558-.422 5.345-.422 2.786 0 4.146.224 5.344.422 1.133.188 2.203.364 4.177.364 1.974 0 3.044-.176 4.177-.364 1.199-.198 2.558-.422 5.344-.422 2.787 0 4.145.224 5.345.422 1.132.188 2.202.364 4.176.364 1.974 0 3.044-.176 4.176-.364 1.2-.198 2.558-.422 5.345-.422s4.145.224 5.344.422c1.133.188 2.203.364 4.177.364 1.973 0 3.043-.176 4.176-.364 1.2-.198 2.558-.422 5.345-.422 2.786 0 4.145.224 5.344.422 1.133.188 2.203.364 4.176.364 1.975 0 3.045-.176 4.178-.364 1.198-.198 2.557-.422 5.343-.422 2.787 0 4.146.224 5.345.422 1.132.188 2.202.364 4.177.364M3.31 39.389c2.787 0 4.146.224 5.345.422 1.132.187 2.202.364 4.176.364 1.974 0 3.044-.177 4.177-.364 1.198-.198 2.557-.422 5.344-.422 2.786 0 4.145.224 5.344.422 1.133.187 2.203.364 4.177.364 1.973 0 3.043-.177 4.176-.364 1.199-.198 2.558-.422 5.344-.422 2.787 0 4.145.224 5.344.422 1.133.187 2.203.364 4.177.364 1.974 0 3.043-.177 4.176-.364 1.199-.198 2.558-.422 5.344-.422 2.787 0 4.145.224 5.344.422 1.133.187 2.203.364 4.177.364 1.974 0 3.043-.177 4.176-.364 1.2-.198 2.558-.422 5.345-.422s4.146.224 5.344.422c1.133.187 2.203.364 4.177.364 1.974 0 3.044-.177 4.177-.364 1.199-.198 2.558-.422 5.344-.422 2.787 0 4.145.224 5.345.422 1.132.187 2.202.364 4.176.364 1.974 0 3.044-.177 4.177-.364 1.2-.198 2.557-.422 5.344-.422 2.787 0 4.145.224 5.344.422 1.133.187 2.203.364 4.177.364 1.973 0 3.043-.177 4.176-.364 1.2-.198 2.558-.422 5.345-.422 2.786 0 4.145.224 5.344.422 1.133.187 2.203.364 4.176.364 1.975 0 3.045-.177 4.178-.364 1.198-.198 2.557-.422 5.343-.422 2.787 0 4.146.224 5.345.422 1.132.187 2.202.364 4.177.364m-162.419.233c2.786 0 4.145.225 5.343.423 1.133.187 2.203.364 4.177.364 1.974 0 3.043-.177 4.176-.364 1.2-.198 2.558-.423 5.344-.423 2.787 0 4.146.225 5.345.423 1.132.187 2.202.364 4.176.364 1.974 0 3.044-.177 4.177-.364 1.199-.198 2.557-.423 5.344-.423 2.786 0 4.145.225 5.344.423 1.133.187 2.203.364 4.176.364 1.974 0 3.044-.177 4.177-.364 1.199-.198 2.557-.423 5.344-.423 2.786 0 4.145.225 5.344.423 1.133.187 2.203.364 4.177.364 1.973 0 3.043-.177 4.176-.364 1.2-.198 2.558-.423 5.344-.423 2.787 0 4.146.225 5.345.423 1.133.187 2.203.364 4.176.364 1.975 0 3.045-.177 4.178-.364 1.198-.198 2.557-.423 5.344-.423 2.787 0 4.145.225 5.345.423 1.131.187 2.202.364 4.176.364 1.974 0 3.043-.177 4.176-.364 1.2-.198 2.558-.423 5.345-.423 2.786 0 4.145.225 5.344.423 1.133.187 2.203.364 4.176.364 1.974 0 3.044-.177 4.177-.364 1.2-.198 2.558-.423 5.344-.423 2.787 0 4.146.225 5.345.423 1.133.187 2.202.364 4.176.364 1.975 0 3.045-.177 4.177-.364 1.2-.198 2.558-.423 5.344-.423 2.787 0 4.146.225 5.344.423 1.133.187 2.203.364 4.178.364m-161.23.233c2.787 0 4.146.225 5.345.423 1.132.187 2.202.364 4.176.364 1.974 0 3.044-.177 4.177-.364 1.198-.198 2.557-.423 5.343-.423 2.787 0 4.146.225 5.345.423 1.133.187 2.202.364 4.176.364 1.974 0 3.044-.177 4.177-.364 1.199-.198 2.558-.423 5.344-.423 2.786 0 4.145.225 5.344.423 1.133.187 2.203.364 4.177.364 1.973 0 3.043-.177 4.176-.364 1.199-.198 2.558-.423 5.344-.423 2.787 0 4.145.225 5.344.423 1.133.187 2.203.364 4.177.364 1.974 0 3.043-.177 4.176-.364 1.2-.198 2.558-.423 5.345-.423 2.786 0 4.145.225 5.344.423 1.133.187 2.203.364 4.176.364 1.975 0 3.045-.177 4.178-.364 1.198-.198 2.557-.423 5.344-.423 2.787 0 4.145.225 5.345.423 1.132.187 2.202.364 4.176.364 1.974 0 3.044-.177 4.176-.364 1.2-.198 2.558-.423 5.345-.423s4.145.225 5.344.423c1.133.187 2.203.364 4.177.364 1.973 0 3.043-.177 4.176-.364 1.2-.198 2.558-.423 5.344-.423 2.787 0 4.146.225 5.345.423 1.133.187 2.203.364 4.176.364 1.975 0 3.045-.177 4.178-.364 1.198-.198 2.557-.423 5.343-.423 2.787 0 4.146.225 5.345.423 1.132.187 2.202.364 4.177.364M2.364 43.468c2.786 0 4.145.224 5.344.422 1.133.188 2.202.364 4.176.364 1.974 0 3.044-.176 4.177-.364 1.199-.198 2.557-.422 5.344-.422 2.786 0 4.145.224 5.344.422 1.133.188 2.203.364 4.177.364 1.974 0 3.044-.176 4.176-.364 1.2-.198 2.558-.422 5.344-.422 2.787 0 4.145.224 5.344.422 1.133.188 2.203.364 4.177.364 1.974 0 3.044-.176 4.176-.364 1.2-.198 2.558-.422 5.344-.422 2.787 0 4.146.224 5.344.422 1.133.188 2.203.364 4.177.364 1.974 0 3.044-.176 4.176-.364 1.2-.198 2.558-.422 5.345-.422s4.146.224 5.344.422c1.133.188 2.203.364 4.177.364 1.974 0 3.044-.176 4.177-.364 1.199-.198 2.558-.422 5.344-.422 2.787 0 4.145.224 5.345.422 1.132.188 2.203.364 4.176.364 1.974 0 3.044-.176 4.177-.364 1.2-.198 2.557-.422 5.344-.422 2.787 0 4.145.224 5.345.422 1.132.188 2.202.364 4.176.364 1.974 0 3.043-.176 4.176-.364 1.2-.198 2.558-.422 5.345-.422 2.786 0 4.145.224 5.344.422 1.133.188 2.203.364 4.177.364 1.974 0 3.044-.176 4.177-.364 1.198-.198 2.558-.422 5.343-.422 2.787 0 4.146.224 5.345.422 1.133.188 2.202.364 4.177.364 1.974 0 3.044-.176 4.176-.364M3.278 42.448c2.786 0 4.145.225 5.344.423 1.132.187 2.202.363 4.176.363 1.974 0 3.044-.176 4.177-.363 1.198-.198 2.557-.423 5.343-.423 2.787 0 4.146.225 5.345.423 1.133.187 2.203.363 4.177.363 1.973 0 3.043-.176 4.176-.363 1.199-.198 2.558-.423 5.344-.423 2.787 0 4.145.225 5.344.423 1.133.187 2.203.363 4.177.363 1.974 0 3.043-.176 4.176-.363 1.199-.198 2.558-.423 5.344-.423 2.787 0 4.145.225 5.344.423 1.133.187 2.203.363 4.177.363 1.974 0 3.043-.176 4.176-.363 1.2-.198 2.558-.423 5.345-.423 2.786 0 4.146.225 5.344.423 1.133.187 2.203.363 4.177.363 1.974 0 3.044-.176 4.177-.363 1.199-.198 2.558-.423 5.344-.423 2.787 0 4.145.225 5.345.423 1.132.187 2.202.363 4.176.363 1.974 0 3.044-.176 4.176-.363 1.2-.198 2.558-.423 5.345-.423s4.145.225 5.344.423c1.133.187 2.203.363 4.177.363 1.973 0 3.043-.176 4.176-.363 1.2-.198 2.558-.423 5.345-.423 2.786 0 4.145.225 5.344.423 1.133.187 2.203.363 4.176.363 1.975 0 3.045-.176 4.178-.363 1.198-.198 2.557-.423 5.343-.423 2.787 0 4.146.225 5.345.423 1.132.187 2.202.363 4.177.363M2.555 44.488c2.786 0 4.145.224 5.344.422 1.132.187 2.202.364 4.176.364 1.974 0 3.044-.177 4.177-.364 1.198-.198 2.557-.422 5.344-.422 2.786 0 4.145.224 5.344.422 1.133.187 2.203.364 4.177.364 1.973 0 3.043-.177 4.176-.364 1.199-.198 2.558-.422 5.344-.422 2.787 0 4.145.224 5.344.422 1.133.187 2.203.364 4.177.364 1.974 0 3.043-.177 4.176-.364 1.199-.198 2.558-.422 5.344-.422 2.787 0 4.145.224 5.344.422 1.133.187 2.203.364 4.177.364 1.974 0 3.043-.177 4.176-.364 1.2-.198 2.558-.422 5.345-.422s4.146.224 5.344.422c1.133.187 2.203.364 4.177.364 1.974 0 3.044-.177 4.177-.364 1.199-.198 2.558-.422 5.344-.422 2.787 0 4.145.224 5.345.422 1.132.187 2.202.364 4.176.364 1.974 0 3.044-.177 4.177-.364 1.2-.198 2.557-.422 5.344-.422 2.787 0 4.145.224 5.344.422 1.133.187 2.203.364 4.177.364 1.973 0 3.043-.177 4.176-.364 1.2-.198 2.558-.422 5.345-.422 2.786 0 4.145.224 5.344.422 1.133.187 2.203.364 4.176.364 1.975 0 3.045-.177 4.178-.364 1.198-.198 2.557-.422 5.343-.422 2.787 0 4.146.224 5.345.422 1.132.187 2.202.364 4.177.364 1.974 0 3.043-.177 4.176-.364M1.99 45.508c2.786 0 4.145.224 5.343.422 1.133.187 2.203.364 4.177.364 1.974 0 3.043-.177 4.176-.364 1.2-.198 2.558-.422 5.344-.422 2.787 0 4.146.224 5.345.422 1.132.187 2.202.364 4.176.364 1.974 0 3.044-.177 4.177-.364 1.199-.198 2.557-.422 5.344-.422 2.786 0 4.145.224 5.344.422 1.133.187 2.203.364 4.176.364 1.974 0 3.044-.177 4.177-.364 1.199-.198 2.557-.422 5.344-.422 2.786 0 4.145.224 5.344.422 1.133.187 2.203.364 4.177.364 1.973 0 3.043-.177 4.176-.364 1.2-.198 2.558-.422 5.344-.422 2.787 0 4.146.224 5.345.422 1.133.187 2.203.364 4.176.364 1.975 0 3.045-.177 4.178-.364 1.198-.198 2.557-.422 5.344-.422 2.787 0 4.145.224 5.345.422 1.131.187 2.202.364 4.176.364 1.974 0 3.043-.177 4.176-.364 1.2-.198 2.558-.422 5.345-.422 2.786 0 4.145.224 5.344.422 1.133.187 2.203.364 4.176.364 1.974 0 3.044-.177 4.177-.364 1.2-.198 2.558-.422 5.344-.422 2.787 0 4.146.224 5.345.422 1.133.187 2.202.364 4.176.364 1.975 0 3.045-.177 4.177-.364 1.2-.198 2.558-.422 5.344-.422 2.787 0 4.146.224 5.344.422 1.133.187 2.203.364 4.178.364 1.973 0 3.043-.177 4.176-.364m-166.047.597c2.786 0 4.145.225 5.343.423 1.133.187 2.203.364 4.177.364 1.974 0 3.044-.177 4.176-.364 1.2-.198 2.558-.423 5.344-.423 2.787 0 4.146.225 5.345.423 1.132.187 2.202.364 4.176.364 1.974 0 3.044-.177 4.177-.364 1.199-.198 2.558-.423 5.344-.423 2.786 0 4.145.225 5.344.423 1.133.187 2.203.364 4.176.364 1.974 0 3.044-.177 4.177-.364 1.199-.198 2.558-.423 5.344-.423 2.786 0 4.145.225 5.344.423 1.133.187 2.203.364 4.177.364 1.973 0 3.043-.177 4.176-.364 1.2-.198 2.558-.423 5.345-.423 2.786 0 4.145.225 5.344.423 1.133.187 2.203.364 4.176.364 1.975 0 3.045-.177 4.178-.364 1.198-.198 2.557-.423 5.344-.423 2.787 0 4.145.225 5.345.423 1.132.187 2.202.364 4.176.364 1.974 0 3.043-.177 4.176-.364 1.2-.198 2.558-.423 5.345-.423 2.786 0 4.145.225 5.344.423 1.133.187 2.203.364 4.177.364 1.973 0 3.043-.177 4.176-.364 1.2-.198 2.558-.423 5.344-.423 2.787 0 4.146.225 5.345.423 1.133.187 2.202.364 4.176.364 1.975 0 3.045-.177 4.177-.364 1.2-.198 2.558-.423 5.344-.423 2.787 0 4.146.225 5.344.423 1.133.187 2.203.364 4.178.364 1.973 0 3.043-.177 4.176-.364M.966 48.567c2.786 0 4.145.224 5.344.422 1.132.188 2.202.364 4.176.364 1.974 0 3.044-.176 4.177-.364 1.198-.198 2.557-.422 5.344-.422 2.786 0 4.145.224 5.344.422 1.133.188 2.203.364 4.177.364 1.973 0 3.043-.176 4.176-.364 1.199-.198 2.558-.422 5.344-.422 2.787 0 4.145.224 5.344.422 1.133.188 2.203.364 4.177.364 1.974 0 3.043-.176 4.176-.364 1.199-.198 2.558-.422 5.344-.422 2.787 0 4.146.224 5.344.422 1.133.188 2.203.364 4.177.364 1.974 0 3.044-.176 4.176-.364 1.2-.198 2.558-.422 5.345-.422s4.146.224 5.344.422c1.133.188 2.203.364 4.177.364 1.974 0 3.044-.176 4.177-.364 1.199-.198 2.558-.422 5.344-.422 2.787 0 4.145.224 5.345.422 1.132.188 2.202.364 4.176.364 1.974 0 3.044-.176 4.177-.364 1.2-.198 2.557-.422 5.344-.422 2.787 0 4.145.224 5.344.422 1.133.188 2.203.364 4.177.364 1.973 0 3.043-.176 4.176-.364 1.2-.198 2.558-.422 5.345-.422 2.786 0 4.145.224 5.344.422 1.133.188 2.203.364 4.176.364 1.975 0 3.045-.176 4.178-.364 1.198-.198 2.557-.422 5.343-.422 2.787 0 4.146.224 5.345.422 1.133.188 2.202.364 4.177.364 1.974 0 3.043-.176 4.176-.364M1.88 47.547c2.786 0 4.145.225 5.344.423 1.132.187 2.202.364 4.176.364 1.974 0 3.044-.177 4.176-.364 1.2-.198 2.558-.423 5.344-.423 2.787 0 4.146.225 5.345.423 1.133.187 2.202.364 4.176.364 1.974 0 3.044-.177 4.177-.364 1.199-.198 2.558-.423 5.344-.423 2.786 0 4.145.225 5.344.423 1.133.187 2.203.364 4.177.364 1.973 0 3.043-.177 4.176-.364 1.199-.198 2.558-.423 5.344-.423 2.787 0 4.145.225 5.344.423 1.133.187 2.203.364 4.177.364 1.974 0 3.043-.177 4.176-.364 1.2-.198 2.558-.423 5.345-.423 2.786 0 4.145.225 5.344.423 1.133.187 2.203.364 4.176.364 1.975 0 3.045-.177 4.178-.364 1.198-.198 2.557-.423 5.344-.423 2.787 0 4.145.225 5.345.423 1.132.187 2.202.364 4.176.364 1.974 0 3.044-.177 4.176-.364 1.2-.198 2.558-.423 5.345-.423s4.145.225 5.344.423c1.133.187 2.203.364 4.177.364 1.973 0 3.043-.177 4.176-.364 1.2-.198 2.558-.423 5.344-.423 2.787 0 4.146.225 5.345.423 1.133.187 2.203.364 4.176.364 1.975 0 3.045-.177 4.178-.364 1.198-.198 2.557-.423 5.343-.423 2.787 0 4.146.225 5.344.423 1.133.187 2.203.364 4.178.364 1.973 0 3.043-.177 4.176-.364M1.157 49.587c2.786 0 4.145.224 5.344.422 1.132.187 2.202.364 4.176.364 1.974 0 3.044-.177 4.177-.364 1.198-.198 2.557-.422 5.343-.422 2.787 0 4.146.224 5.345.422 1.133.187 2.202.364 4.176.364 1.974 0 3.044-.177 4.177-.364 1.199-.198 2.558-.422 5.344-.422 2.786 0 4.145.224 5.344.422 1.133.187 2.203.364 4.177.364 1.973 0 3.043-.177 4.176-.364 1.199-.198 2.558-.422 5.344-.422 2.787 0 4.145.224 5.344.422 1.133.187 2.203.364 4.177.364 1.974 0 3.043-.177 4.176-.364 1.2-.198 2.558-.422 5.345-.422 2.786 0 4.145.224 5.344.422 1.133.187 2.203.364 4.176.364 1.975 0 3.045-.177 4.178-.364 1.198-.198 2.558-.422 5.344-.422 2.787 0 4.145.224 5.345.422 1.132.187 2.202.364 4.176.364 1.974 0 3.044-.177 4.176-.364 1.2-.198 2.558-.422 5.345-.422s4.145.224 5.344.422c1.133.187 2.203.364 4.177.364 1.973 0 3.043-.177 4.176-.364 1.2-.198 2.558-.422 5.344-.422 2.787 0 4.146.224 5.345.422 1.133.187 2.203.364 4.176.364 1.975 0 3.045-.177 4.178-.364 1.198-.198 2.557-.422 5.343-.422 2.787 0 4.146.224 5.345.422 1.132.187 2.202.364 4.177.364 1.973 0 3.043-.177 4.176-.364M.591 50.607c2.787 0 4.145.224 5.344.422 1.133.187 2.203.364 4.177.364 1.974 0 3.043-.177 4.176-.364 1.199-.198 2.558-.422 5.344-.422 2.787 0 4.146.224 5.344.422 1.133.187 2.203.364 4.177.364 1.974 0 3.044-.177 4.177-.364 1.199-.198 2.557-.422 5.344-.422 2.786 0 4.145.224 5.344.422 1.133.187 2.202.364 4.176.364 1.974 0 3.044-.177 4.177-.364 1.199-.198 2.557-.422 5.344-.422 2.786 0 4.145.224 5.344.422 1.133.187 2.203.364 4.176.364 1.974 0 3.044-.177 4.177-.364 1.2-.198 2.558-.422 5.344-.422 2.787 0 4.146.224 5.345.422 1.133.187 2.202.364 4.176.364 1.975 0 3.045-.177 4.177-.364 1.2-.198 2.558-.422 5.345-.422s4.145.224 5.344.422c1.132.187 2.203.364 4.177.364 1.973 0 3.043-.177 4.176-.364 1.2-.198 2.558-.422 5.345-.422 2.786 0 4.144.224 5.344.422 1.133.187 2.203.364 4.176.364 1.974 0 3.044-.177 4.177-.364 1.2-.198 2.557-.422 5.344-.422 2.787 0 4.146.224 5.345.422 1.132.187 2.202.364 4.176.364 1.975 0 3.044-.177 4.177-.364 1.199-.198 2.558-.422 5.344-.422 2.786 0 4.146.224 5.344.422 1.133.187 2.203.364 4.177.364 1.974 0 3.044-.177 4.177-.364M.99 51.626c2.786 0 4.145.225 5.344.423 1.132.187 2.202.364 4.176.364 1.974 0 3.044-.177 4.177-.364 1.198-.198 2.557-.423 5.344-.423 2.786 0 4.145.225 5.344.423 1.133.187 2.203.364 4.177.364 1.974 0 3.043-.177 4.176-.364 1.2-.198 2.558-.423 5.344-.423 2.787 0 4.145.225 5.344.423 1.133.187 2.203.364 4.177.364 1.974 0 3.044-.177 4.176-.364 1.199-.198 2.558-.423 5.344-.423 2.787 0 4.146.225 5.344.423 1.133.187 2.203.364 4.177.364 1.974 0 3.044-.177 4.176-.364 1.2-.198 2.558-.423 5.345-.423s4.146.225 5.344.423c1.133.187 2.203.364 4.177.364 1.974 0 3.044-.177 4.177-.364 1.199-.198 2.558-.423 5.344-.423 2.787 0 4.145.225 5.345.423 1.132.187 2.203.364 4.176.364 1.974 0 3.044-.177 4.177-.364 1.2-.198 2.557-.423 5.344-.423 2.787 0 4.145.225 5.344.423 1.133.187 2.203.364 4.177.364 1.974 0 3.043-.177 4.176-.364 1.2-.198 2.558-.423 5.345-.423 2.786 0 4.145.225 5.344.423 1.133.187 2.203.364 4.176.364 1.975 0 3.045-.177 4.178-.364 1.198-.198 2.557-.423 5.343-.423 2.787 0 4.146.225 5.345.423 1.133.187 2.202.364 4.177.364 1.974 0 3.043-.177 4.176-.364M-.017 53.666c2.786 0 4.145.225 5.344.423 1.133.187 2.203.363 4.176.363 1.974 0 3.044-.176 4.177-.363 1.199-.198 2.558-.423 5.344-.423 2.786 0 4.145.225 5.344.423 1.133.187 2.203.363 4.177.363 1.974 0 3.044-.176 4.176-.363 1.2-.198 2.558-.423 5.345-.423 2.786 0 4.145.225 5.344.423 1.132.187 2.202.363 4.176.363 1.974 0 3.044-.176 4.177-.363 1.198-.198 2.557-.423 5.344-.423 2.786 0 4.145.225 5.344.423 1.132.187 2.202.363 4.176.363 1.974 0 3.044-.176 4.177-.363 1.2-.198 2.557-.423 5.344-.423 2.787 0 4.146.225 5.345.423 1.132.187 2.202.363 4.176.363 1.975 0 3.044-.176 4.177-.363 1.199-.198 2.558-.423 5.345-.423 2.786 0 4.144.225 5.344.423 1.132.187 2.203.363 4.176.363 1.974 0 3.044-.176 4.177-.363 1.2-.198 2.558-.423 5.344-.423 2.787 0 4.145.225 5.345.423 1.133.187 2.202.363 4.176.363 1.974 0 3.044-.176 4.176-.363 1.2-.198 2.558-.423 5.345-.423s4.146.225 5.344.423c1.133.187 2.203.363 4.177.363 1.974 0 3.044-.176 4.177-.363 1.199-.198 2.558-.423 5.344-.423 2.786 0 4.145.225 5.344.423 1.133.187 2.203.363 4.177.363 1.974 0 3.044-.176 4.177-.363M.897 52.646c2.786 0 4.145.225 5.344.423 1.133.187 2.202.364 4.176.364 1.974 0 3.044-.177 4.177-.364 1.199-.198 2.557-.423 5.344-.423 2.786 0 4.145.225 5.344.423 1.133.187 2.203.364 4.177.364 1.974 0 3.044-.177 4.176-.364 1.2-.198 2.558-.423 5.344-.423 2.787 0 4.146.225 5.344.423 1.133.187 2.203.364 4.177.364 1.974 0 3.044-.177 4.176-.364 1.2-.198 2.558-.423 5.344-.423 2.787 0 4.146.225 5.345.423 1.132.187 2.202.364 4.176.364 1.974 0 3.044-.177 4.177-.364 1.2-.198 2.557-.423 5.344-.423 2.787 0 4.146.225 5.344.423 1.133.187 2.203.364 4.177.364 1.974 0 3.044-.177 4.177-.364 1.199-.198 2.558-.423 5.344-.423 2.787 0 4.145.225 5.345.423 1.132.187 2.203.364 4.176.364 1.974 0 3.044-.177 4.177-.364 1.2-.198 2.557-.423 5.344-.423 2.787 0 4.145.225 5.345.423 1.132.187 2.202.364 4.176.364 1.974 0 3.043-.177 4.176-.364 1.2-.198 2.558-.423 5.345-.423 2.786 0 4.146.225 5.344.423 1.133.187 2.203.364 4.177.364 1.974 0 3.044-.177 4.177-.364 1.199-.198 2.558-.423 5.343-.423 2.787 0 4.146.225 5.345.423 1.133.187 2.202.364 4.177.364 1.974 0 3.044-.177 4.176-.364M.174 54.686c2.786 0 4.145.224 5.344.422 1.133.188 2.203.364 4.176.364 1.974 0 3.044-.176 4.177-.364 1.199-.198 2.557-.422 5.344-.422 2.786 0 4.145.224 5.344.422 1.133.188 2.203.364 4.177.364 1.974 0 3.044-.176 4.176-.364 1.2-.198 2.558-.422 5.344-.422 2.787 0 4.146.224 5.344.422 1.133.188 2.203.364 4.177.364 1.974 0 3.044-.176 4.176-.364 1.2-.198 2.558-.422 5.344-.422 2.787 0 4.146.224 5.345.422 1.132.188 2.202.364 4.176.364 1.974 0 3.044-.176 4.177-.364 1.2-.198 2.557-.422 5.344-.422 2.787 0 4.146.224 5.344.422 1.133.188 2.203.364 4.177.364 1.974 0 3.044-.176 4.177-.364 1.199-.198 2.558-.422 5.345-.422 2.786 0 4.144.224 5.344.422 1.132.188 2.203.364 4.176.364 1.974 0 3.044-.176 4.177-.364 1.2-.198 2.557-.422 5.344-.422 2.787 0 4.145.224 5.345.422 1.132.188 2.202.364 4.176.364 1.974 0 3.043-.176 4.176-.364 1.2-.198 2.558-.422 5.345-.422 2.786 0 4.146.224 5.344.422 1.133.188 2.203.364 4.177.364 1.974 0 3.044-.176 4.177-.364 1.199-.198 2.558-.422 5.343-.422 2.787 0 4.146.224 5.345.422 1.133.188 2.203.364 4.177.364 1.974 0 3.044-.176 4.176-.364m-166.595.598c2.786 0 4.145.224 5.344.422 1.132.187 2.202.364 4.176.364 1.974 0 3.044-.177 4.177-.364 1.198-.198 2.557-.422 5.343-.422 2.787 0 4.146.224 5.345.422 1.133.187 2.202.364 4.177.364 1.973 0 3.043-.177 4.176-.364 1.199-.198 2.558-.422 5.344-.422 2.786 0 4.145.224 5.344.422 1.133.187 2.203.364 4.177.364 1.973 0 3.043-.177 4.176-.364 1.199-.198 2.558-.422 5.344-.422 2.787 0 4.145.224 5.344.422 1.133.187 2.203.364 4.177.364 1.974 0 3.043-.177 4.176-.364 1.2-.198 2.558-.422 5.345-.422 2.786 0 4.145.224 5.344.422 1.133.187 2.203.364 4.177.364 1.974 0 3.044-.177 4.177-.364 1.198-.198 2.558-.422 5.344-.422 2.787 0 4.145.224 5.345.422 1.132.187 2.202.364 4.176.364 1.974 0 3.044-.177 4.176-.364 1.2-.198 2.558-.422 5.345-.422s4.145.224 5.344.422c1.133.187 2.203.364 4.177.364 1.973 0 3.043-.177 4.176-.364 1.2-.198 2.558-.422 5.344-.422 2.787 0 4.146.224 5.345.422 1.133.187 2.203.364 4.176.364 1.975 0 3.045-.177 4.178-.364 1.198-.198 2.557-.422 5.343-.422 2.787 0 4.146.224 5.345.422 1.132.187 2.202.364 4.177.364 1.974 0 3.043-.177 4.176-.364M.264 56.726c2.787 0 4.146.224 5.344.422 1.133.187 2.203.364 4.177.364 1.974 0 3.043-.177 4.176-.364 1.2-.198 2.558-.422 5.344-.422 2.787 0 4.146.224 5.345.422 1.132.187 2.202.364 4.176.364 1.974 0 3.044-.177 4.177-.364 1.199-.198 2.557-.422 5.344-.422 2.786 0 4.145.224 5.344.422 1.133.187 2.203.364 4.176.364 1.974 0 3.044-.177 4.177-.364 1.199-.198 2.557-.422 5.344-.422 2.786 0 4.145.224 5.344.422 1.133.187 2.203.364 4.177.364 1.973 0 3.043-.177 4.176-.364 1.2-.198 2.558-.422 5.344-.422 2.787 0 4.146.224 5.345.422 1.133.187 2.203.364 4.176.364 1.975 0 3.045-.177 4.178-.364 1.198-.198 2.557-.422 5.344-.422 2.787 0 4.145.224 5.344.422 1.132.187 2.203.364 4.177.364 1.974 0 3.043-.177 4.176-.364 1.2-.198 2.558-.422 5.345-.422 2.786 0 4.144.224 5.344.422 1.133.187 2.203.364 4.176.364 1.974 0 3.044-.177 4.177-.364 1.2-.198 2.558-.422 5.344-.422 2.787 0 4.146.224 5.345.422 1.133.187 2.202.364 4.176.364 1.975 0 3.044-.177 4.177-.364 1.199-.198 2.558-.422 5.344-.422 2.787 0 4.146.224 5.344.422 1.133.187 2.203.364 4.178.364 1.973 0 3.043-.177 4.176-.364M-.742 58.765c2.786 0 4.145.225 5.344.423 1.132.187 2.202.364 4.176.364 1.974 0 3.044-.177 4.177-.364 1.198-.198 2.557-.423 5.343-.423 2.787 0 4.146.225 5.345.423 1.133.187 2.202.364 4.177.364 1.973 0 3.043-.177 4.176-.364 1.199-.198 2.558-.423 5.344-.423 2.786 0 4.145.225 5.344.423 1.133.187 2.203.364 4.177.364 1.973 0 3.043-.177 4.176-.364 1.199-.198 2.558-.423 5.344-.423 2.787 0 4.145.225 5.344.423 1.133.187 2.203.364 4.177.364 1.974 0 3.043-.177 4.176-.364 1.2-.198 2.558-.423 5.345-.423 2.786 0 4.145.225 5.344.423 1.133.187 2.203.364 4.177.364 1.974 0 3.044-.177 4.177-.364 1.198-.198 2.558-.423 5.344-.423 2.787 0 4.145.225 5.345.423 1.132.187 2.202.364 4.176.364 1.974 0 3.044-.177 4.176-.364 1.2-.198 2.558-.423 5.345-.423s4.145.225 5.344.423c1.133.187 2.203.364 4.177.364 1.973 0 3.043-.177 4.176-.364 1.2-.198 2.558-.423 5.345-.423 2.786 0 4.145.225 5.344.423 1.133.187 2.203.364 4.176.364 1.975 0 3.045-.177 4.178-.364 1.198-.198 2.557-.423 5.343-.423 2.787 0 4.146.225 5.345.423 1.132.187 2.202.364 4.177.364 1.974 0 3.043-.177 4.176-.364M.172 57.745c2.786 0 4.145.225 5.343.423 1.133.187 2.203.364 4.177.364 1.974 0 3.044-.177 4.176-.364 1.2-.198 2.558-.423 5.344-.423 2.787 0 4.146.225 5.345.423 1.132.187 2.202.364 4.176.364 1.974 0 3.044-.177 4.177-.364 1.199-.198 2.558-.423 5.344-.423 2.786 0 4.145.225 5.344.423 1.133.187 2.203.364 4.176.364 1.974 0 3.044-.177 4.177-.364 1.199-.198 2.558-.423 5.344-.423 2.786 0 4.145.225 5.344.423 1.133.187 2.203.364 4.177.364 1.973 0 3.043-.177 4.176-.364 1.2-.198 2.558-.423 5.345-.423 2.786 0 4.145.225 5.344.423 1.133.187 2.203.364 4.176.364 1.975 0 3.045-.177 4.178-.364 1.198-.198 2.557-.423 5.344-.423 2.787 0 4.145.225 5.345.423 1.131.187 2.202.364 4.176.364 1.974 0 3.043-.177 4.176-.364 1.2-.198 2.558-.423 5.345-.423 2.786 0 4.145.225 5.344.423 1.133.187 2.203.364 4.177.364 1.973 0 3.043-.177 4.176-.364 1.2-.198 2.558-.423 5.344-.423 2.787 0 4.146.225 5.345.423 1.133.187 2.202.364 4.176.364 1.975 0 3.045-.177 4.177-.364 1.2-.198 2.558-.423 5.344-.423 2.787 0 4.146.225 5.344.423 1.133.187 2.203.364 4.178.364 1.973 0 3.043-.177 4.176-.364M-.551 59.785c2.786 0 4.145.224 5.344.423 1.132.187 2.202.363 4.176.363 1.974 0 3.044-.176 4.176-.363 1.2-.199 2.558-.423 5.344-.423 2.787 0 4.146.224 5.345.423 1.132.187 2.202.363 4.176.363 1.974 0 3.044-.176 4.177-.363 1.199-.199 2.558-.423 5.344-.423 2.786 0 4.145.224 5.344.423 1.133.187 2.203.363 4.176.363 1.974 0 3.044-.176 4.177-.363 1.199-.199 2.558-.423 5.344-.423 2.786 0 4.145.224 5.344.423 1.133.187 2.203.363 4.177.363 1.973 0 3.043-.176 4.176-.363 1.2-.199 2.558-.423 5.345-.423 2.786 0 4.145.224 5.344.423 1.133.187 2.203.363 4.176.363 1.975 0 3.045-.176 4.178-.363 1.198-.199 2.557-.423 5.344-.423 2.787 0 4.145.224 5.345.423 1.132.187 2.202.363 4.176.363 1.974 0 3.043-.176 4.176-.363 1.2-.199 2.558-.423 5.345-.423 2.786 0 4.145.224 5.344.423 1.133.187 2.203.363 4.177.363 1.973 0 3.043-.176 4.176-.363 1.2-.199 2.558-.423 5.344-.423 2.787 0 4.146.224 5.345.423 1.133.187 2.202.363 4.176.363 1.975 0 3.045-.176 4.177-.363 1.2-.199 2.558-.423 5.344-.423 2.787 0 4.146.224 5.344.423 1.133.187 2.203.363 4.178.363 1.973 0 3.043-.176 4.176-.363M4.227 61.227c1.133.187 2.203.364 4.177.364 1.973 0 3.043-.177 4.176-.364 1.199-.198 2.558-.422 5.344-.422 2.787 0 4.145.224 5.344.422 1.133.187 2.203.364 4.177.364 1.974 0 3.044-.177 4.177-.364 1.199-.198 2.557-.422 5.344-.422 2.786 0 4.145.224 5.344.422 1.132.187 2.202.364 4.176.364 1.974 0 3.044-.177 4.177-.364 1.198-.198 2.557-.422 5.344-.422 2.786 0 4.145.224 5.344.422 1.133.187 2.202.364 4.176.364 1.974 0 3.044-.177 4.177-.364 1.2-.198 2.558-.422 5.344-.422 2.787 0 4.146.224 5.345.422 1.133.187 2.202.364 4.176.364 1.975 0 3.045-.177 4.177-.364 1.2-.198 2.558-.422 5.345-.422s4.145.224 5.344.422c1.132.187 2.203.364 4.177.364 1.973 0 3.043-.177 4.176-.364 1.2-.198 2.558-.422 5.344-.422 2.787 0 4.145.224 5.345.422 1.133.187 2.203.364 4.176.364 1.974 0 3.044-.177 4.177-.364 1.2-.198 2.557-.422 5.344-.422 2.787 0 4.146.224 5.345.422 1.132.187 2.202.364 4.176.364 1.974 0 3.044-.177 4.177-.364 1.199-.198 2.558-.422 5.344-.422 2.786 0 4.145.224 5.344.422 1.133.187 2.203.364 4.177.364 1.974 0 3.044-.177 4.177-.364M3.625 62.247c1.133.187 2.203.364 4.177.364 1.974 0 3.043-.177 4.176-.364 1.2-.198 2.558-.422 5.344-.422 2.787 0 4.146.224 5.345.422 1.132.187 2.202.364 4.176.364 1.974 0 3.044-.177 4.177-.364 1.199-.198 2.558-.422 5.344-.422 2.786 0 4.145.224 5.344.422 1.133.187 2.203.364 4.176.364 1.974 0 3.044-.177 4.177-.364 1.199-.198 2.557-.422 5.344-.422 2.786 0 4.145.224 5.344.422 1.133.187 2.203.364 4.177.364 1.973 0 3.043-.177 4.176-.364 1.2-.198 2.558-.422 5.345-.422 2.786 0 4.145.224 5.344.422 1.133.187 2.203.364 4.176.364 1.975 0 3.045-.177 4.178-.364 1.198-.198 2.557-.422 5.344-.422 2.787 0 4.145.224 5.344.422 1.132.187 2.203.364 4.177.364 1.974 0 3.043-.177 4.176-.364 1.2-.198 2.558-.422 5.345-.422 2.786 0 4.145.224 5.344.422 1.133.187 2.203.364 4.176.364 1.974 0 3.044-.177 4.177-.364 1.2-.198 2.558-.422 5.344-.422 2.787 0 4.146.224 5.345.422 1.133.187 2.202.364 4.176.364 1.975 0 3.045-.177 4.177-.364 1.2-.198 2.558-.422 5.344-.422 2.787 0 4.146.224 5.344.422 1.133.187 2.203.364 4.178.364 1.973 0 3.043-.177 4.176-.364 1.2-.198 2.558-.422 5.344-.422M2.619 64.287c1.132.187 2.202.364 4.176.364 1.974 0 3.044-.177 4.177-.364 1.198-.198 2.557-.423 5.343-.423 2.787 0 4.146.225 5.345.423 1.133.187 2.203.364 4.177.364 1.973 0 3.043-.177 4.176-.364 1.199-.198 2.558-.423 5.344-.423 2.787 0 4.145.225 5.344.423 1.133.187 2.203.364 4.177.364 1.973 0 3.043-.177 4.176-.364 1.199-.198 2.558-.423 5.344-.423 2.787 0 4.145.225 5.344.423 1.133.187 2.203.364 4.177.364 1.974 0 3.043-.177 4.176-.364 1.2-.198 2.558-.423 5.345-.423 2.786 0 4.146.225 5.344.423 1.133.187 2.203.364 4.177.364 1.974 0 3.044-.177 4.177-.364 1.199-.198 2.558-.423 5.344-.423 2.787 0 4.145.225 5.345.423 1.132.187 2.202.364 4.176.364 1.974 0 3.044-.177 4.176-.364 1.2-.198 2.558-.423 5.345-.423s4.145.225 5.344.423c1.133.187 2.203.364 4.177.364 1.973 0 3.043-.177 4.176-.364 1.2-.198 2.558-.423 5.345-.423 2.786 0 4.145.225 5.344.423 1.133.187 2.203.364 4.176.364 1.975 0 3.045-.177 4.178-.364 1.198-.198 2.557-.423 5.343-.423 2.787 0 4.146.225 5.345.423 1.132.187 2.202.364 4.177.364 1.974 0 3.043-.177 4.176-.364 1.2-.198 2.558-.423 5.345-.423M3.533 63.267c1.132.187 2.202.364 4.176.364 1.974 0 3.044-.177 4.176-.364 1.2-.198 2.558-.423 5.344-.423 2.787 0 4.146.225 5.345.423 1.132.187 2.202.364 4.176.364 1.974 0 3.044-.177 4.177-.364 1.199-.198 2.558-.423 5.344-.423 2.786 0 4.145.225 5.344.423 1.133.187 2.203.364 4.176.364 1.974 0 3.044-.177 4.177-.364 1.199-.198 2.558-.423 5.344-.423 2.787 0 4.145.225 5.344.423 1.133.187 2.203.364 4.177.364 1.974 0 3.043-.177 4.176-.364 1.2-.198 2.558-.423 5.345-.423 2.786 0 4.145.225 5.344.423 1.133.187 2.203.364 4.176.364 1.975 0 3.045-.177 4.178-.364 1.198-.198 2.557-.423 5.344-.423 2.787 0 4.145.225 5.345.423 1.132.187 2.202.364 4.176.364 1.974 0 3.043-.177 4.176-.364 1.2-.198 2.558-.423 5.345-.423 2.786 0 4.145.225 5.344.423 1.133.187 2.203.364 4.177.364 1.973 0 3.043-.177 4.176-.364 1.2-.198 2.558-.423 5.344-.423 2.787 0 4.146.225 5.345.423 1.133.187 2.203.364 4.176.364 1.975 0 3.045-.177 4.178-.364 1.198-.198 2.557-.423 5.343-.423 2.787 0 4.146.225 5.344.423 1.133.187 2.203.364 4.178.364 1.973 0 3.043-.177 4.176-.364 1.2-.198 2.558-.423 5.345-.423M2.81 65.307c1.132.187 2.202.364 4.176.364 1.974 0 3.044-.177 4.176-.364 1.2-.198 2.558-.423 5.344-.423 2.787 0 4.146.225 5.345.423 1.132.187 2.202.364 4.176.364 1.974 0 3.044-.177 4.177-.364 1.199-.198 2.558-.423 5.344-.423 2.786 0 4.145.225 5.344.423 1.133.187 2.203.364 4.177.364 1.973 0 3.043-.177 4.176-.364 1.199-.198 2.558-.423 5.344-.423 2.787 0 4.145.225 5.344.423 1.133.187 2.203.364 4.177.364 1.974 0 3.043-.177 4.176-.364 1.2-.198 2.558-.423 5.345-.423 2.786 0 4.145.225 5.344.423 1.133.187 2.203.364 4.176.364 1.975 0 3.045-.177 4.178-.364 1.198-.198 2.557-.423 5.344-.423 2.787 0 4.145.225 5.345.423 1.132.187 2.202.364 4.176.364 1.974 0 3.044-.177 4.176-.364 1.2-.198 2.558-.423 5.345-.423s4.145.225 5.344.423c1.133.187 2.203.364 4.177.364 1.973 0 3.043-.177 4.176-.364 1.2-.198 2.558-.423 5.344-.423 2.787 0 4.146.225 5.345.423 1.133.187 2.203.364 4.176.364 1.975 0 3.045-.177 4.178-.364 1.198-.198 2.557-.423 5.343-.423 2.787 0 4.146.225 5.344.423 1.133.187 2.203.364 4.178.364 1.973 0 3.043-.177 4.176-.364 1.2-.198 2.558-.423 5.345-.423M2.244 66.326c1.133.188 2.203.364 4.177.364 1.974 0 3.043-.176 4.176-.364 1.199-.198 2.558-.422 5.344-.422 2.787 0 4.145.224 5.344.422 1.133.188 2.203.364 4.177.364 1.974 0 3.044-.176 4.177-.364 1.199-.198 2.557-.422 5.344-.422 2.786 0 4.145.224 5.344.422 1.133.188 2.202.364 4.176.364 1.974 0 3.044-.176 4.177-.364 1.199-.198 2.557-.422 5.344-.422 2.786 0 4.145.224 5.344.422 1.133.188 2.202.364 4.176.364 1.974 0 3.044-.176 4.177-.364 1.2-.198 2.558-.422 5.344-.422 2.787 0 4.146.224 5.345.422 1.133.188 2.202.364 4.176.364 1.975 0 3.045-.176 4.177-.364 1.2-.198 2.558-.422 5.345-.422s4.145.224 5.344.422c1.132.188 2.203.364 4.177.364 1.973 0 3.043-.176 4.176-.364 1.2-.198 2.558-.422 5.345-.422 2.786 0 4.144.224 5.344.422 1.133.188 2.203.364 4.176.364 1.974 0 3.044-.176 4.177-.364 1.2-.198 2.557-.422 5.344-.422 2.787 0 4.146.224 5.345.422 1.132.188 2.202.364 4.176.364 1.975 0 3.044-.176 4.177-.364 1.199-.198 2.558-.422 5.344-.422 2.786 0 4.146.224 5.344.422 1.133.188 2.203.364 4.177.364 1.974 0 3.044-.176 4.177-.364 1.2-.198 2.558-.422 5.344-.422M1.746 67.346c1.133.187 2.203.364 4.177.364 1.974 0 3.044-.177 4.176-.364 1.2-.198 2.558-.422 5.344-.422 2.787 0 4.146.224 5.345.422 1.132.187 2.202.364 4.176.364 1.974 0 3.044-.177 4.177-.364 1.199-.198 2.558-.422 5.344-.422 2.786 0 4.145.224 5.344.422 1.133.187 2.203.364 4.176.364 1.974 0 3.044-.177 4.177-.364 1.199-.198 2.558-.422 5.344-.422 2.786 0 4.145.224 5.344.422 1.133.187 2.203.364 4.177.364 1.973 0 3.043-.177 4.176-.364 1.2-.198 2.558-.422 5.345-.422 2.786 0 4.145.224 5.344.422 1.133.187 2.203.364 4.176.364 1.975 0 3.045-.177 4.178-.364 1.198-.198 2.557-.422 5.344-.422 2.787 0 4.145.224 5.345.422 1.131.187 2.202.364 4.176.364 1.974 0 3.043-.177 4.176-.364 1.2-.198 2.558-.422 5.345-.422 2.786 0 4.145.224 5.344.422 1.133.187 2.203.364 4.177.364 1.973 0 3.043-.177 4.176-.364 1.2-.198 2.558-.422 5.344-.422 2.787 0 4.146.224 5.345.422 1.133.187 2.202.364 4.176.364 1.975 0 3.045-.177 4.177-.364 1.2-.198 2.558-.422 5.344-.422 2.787 0 4.146.224 5.344.422 1.133.187 2.203.364 4.178.364 1.973 0 3.043-.177 4.176-.364 1.2-.198 2.558-.422 5.344-.422M.74 69.386c1.132.187 2.202.364 4.176.364 1.974 0 3.044-.177 4.177-.364 1.198-.198 2.557-.423 5.344-.423 2.786 0 4.145.225 5.344.423 1.133.187 2.203.364 4.177.364 1.973 0 3.043-.177 4.176-.364 1.199-.198 2.558-.423 5.344-.423 2.787 0 4.145.225 5.344.423 1.133.187 2.203.364 4.177.364 1.974 0 3.043-.177 4.176-.364 1.199-.198 2.558-.423 5.344-.423 2.787 0 4.145.225 5.344.423 1.133.187 2.203.364 4.177.364 1.974 0 3.044-.177 4.176-.364 1.2-.198 2.558-.423 5.345-.423s4.146.225 5.344.423c1.133.187 2.203.364 4.177.364 1.974 0 3.044-.177 4.177-.364 1.199-.198 2.558-.423 5.344-.423 2.787 0 4.145.225 5.345.423 1.132.187 2.202.364 4.176.364 1.974 0 3.044-.177 4.177-.364 1.2-.198 2.557-.423 5.344-.423 2.787 0 4.145.225 5.344.423 1.133.187 2.203.364 4.177.364 1.973 0 3.043-.177 4.176-.364 1.2-.198 2.558-.423 5.345-.423 2.786 0 4.145.225 5.344.423 1.133.187 2.203.364 4.176.364 1.975 0 3.045-.177 4.178-.364 1.198-.198 2.557-.423 5.343-.423 2.787 0 4.146.225 5.345.423 1.132.187 2.202.364 4.177.364 1.974 0 3.043-.177 4.176-.364 1.2-.198 2.558-.423 5.345-.423M1.654 68.366c1.132.187 2.202.364 4.176.364 1.974 0 3.044-.177 4.176-.364 1.2-.198 2.558-.422 5.344-.422 2.787 0 4.146.224 5.345.422 1.132.187 2.202.364 4.176.364 1.974 0 3.044-.177 4.177-.364 1.199-.198 2.558-.422 5.344-.422 2.786 0 4.145.224 5.344.422 1.133.187 2.203.364 4.177.364 1.973 0 3.043-.177 4.176-.364 1.199-.198 2.558-.422 5.344-.422 2.787 0 4.145.224 5.344.422 1.133.187 2.203.364 4.177.364 1.974 0 3.043-.177 4.176-.364 1.2-.198 2.558-.422 5.345-.422 2.786 0 4.145.224 5.344.422 1.133.187 2.203.364 4.176.364 1.975 0 3.045-.177 4.178-.364 1.198-.198 2.557-.422 5.344-.422 2.787 0 4.145.224 5.345.422 1.132.187 2.202.364 4.176.364 1.974 0 3.044-.177 4.176-.364 1.2-.198 2.558-.422 5.345-.422s4.145.224 5.344.422c1.133.187 2.203.364 4.177.364 1.973 0 3.043-.177 4.176-.364 1.2-.198 2.558-.422 5.344-.422 2.787 0 4.146.224 5.345.422 1.133.187 2.203.364 4.176.364 1.975 0 3.045-.177 4.178-.364 1.198-.198 2.557-.422 5.343-.422 2.787 0 4.146.224 5.344.422 1.133.187 2.203.364 4.178.364 1.973 0 3.043-.177 4.176-.364 1.2-.198 2.558-.422 5.345-.422M.93 70.406c1.133.187 2.203.364 4.177.364 1.974 0 3.044-.177 4.177-.364 1.198-.198 2.557-.423 5.343-.423 2.787 0 4.146.225 5.345.423 1.133.187 2.202.364 4.176.364 1.974 0 3.044-.177 4.177-.364 1.199-.198 2.558-.423 5.344-.423 2.786 0 4.145.225 5.344.423 1.133.187 2.203.364 4.177.364 1.973 0 3.043-.177 4.176-.364 1.199-.198 2.558-.423 5.344-.423 2.787 0 4.145.225 5.344.423 1.133.187 2.203.364 4.177.364 1.974 0 3.043-.177 4.176-.364 1.2-.198 2.558-.423 5.345-.423 2.786 0 4.145.225 5.344.423 1.133.187 2.203.364 4.176.364 1.975 0 3.045-.177 4.178-.364 1.198-.198 2.557-.423 5.344-.423 2.787 0 4.145.225 5.345.423 1.132.187 2.202.364 4.176.364 1.974 0 3.044-.177 4.176-.364 1.2-.198 2.558-.423 5.345-.423s4.145.225 5.344.423c1.133.187 2.203.364 4.177.364 1.973 0 3.043-.177 4.176-.364 1.2-.198 2.558-.423 5.344-.423 2.787 0 4.146.225 5.345.423 1.133.187 2.203.364 4.176.364 1.975 0 3.045-.177 4.178-.364 1.198-.198 2.557-.423 5.343-.423 2.787 0 4.146.225 5.345.423 1.132.187 2.202.364 4.177.364 1.973 0 3.043-.177 4.176-.364 1.2-.198 2.558-.423 5.345-.423M.365 71.426c1.133.187 2.203.363 4.177.363 1.974 0 3.043-.176 4.176-.363 1.199-.198 2.558-.423 5.344-.423 2.787 0 4.145.225 5.344.423 1.133.187 2.203.363 4.177.363 1.974 0 3.044-.176 4.177-.363 1.199-.198 2.557-.423 5.344-.423 2.786 0 4.145.225 5.344.423 1.133.187 2.202.363 4.176.363 1.974 0 3.044-.176 4.177-.363 1.199-.198 2.557-.423 5.344-.423 2.786 0 4.145.225 5.344.423 1.133.187 2.203.363 4.176.363 1.974 0 3.044-.176 4.177-.363 1.2-.198 2.558-.423 5.344-.423 2.787 0 4.146.225 5.345.423 1.133.187 2.202.363 4.176.363 1.975 0 3.045-.176 4.177-.363 1.2-.198 2.558-.423 5.345-.423s4.145.225 5.344.423c1.132.187 2.203.363 4.177.363 1.973 0 3.043-.176 4.176-.363 1.2-.198 2.558-.423 5.345-.423 2.786 0 4.144.225 5.344.423 1.133.187 2.203.363 4.176.363 1.974 0 3.044-.176 4.177-.363 1.2-.198 2.557-.423 5.344-.423 2.787 0 4.146.225 5.345.423 1.132.187 2.202.363 4.176.363 1.975 0 3.044-.176 4.177-.363 1.199-.198 2.558-.423 5.344-.423 2.786 0 4.146.225 5.344.423 1.133.187 2.203.363 4.178.363 1.973 0 3.043-.176 4.176-.363 1.2-.198 2.558-.423 5.344-.423"/>
</svg>
