<svg xmlns="http://www.w3.org/2000/svg" viewBox="0 0 1203 1389">
  <path fill="none" stroke="#651f1f" stroke-width="2" d="M392.8 395.61q.39.77.78 1.39a.46.45-47 0 0 .78-.03q4.13-7.51 8.66-14.7c2.1-3.32 6.27-8.43 8.19-12.78 2.04-4.59 1.13-10.48 1.43-14.41q.7-9.03 1.18-18.08c.6-11.5-.01-19.97-2.17-29.53q-.39-1.72.07-2.48c1.94-3.25 10.53-22.07 5.94-24.44q-5.88-3.03-12.21.15c-3.88 1.95-4.96 3.51-5.43 8.04-.46 4.44-1.11 8.54-.66 13.03.36 3.49-2.12 5.78-3.09 8.03-4.99 11.62-5.07 25.83-7.58 40.02-1.25 7.08-1.81 12.25-3.83 21.1-1.94 8.5 4.15 17.18 7.94 24.69m102.69-11.47q-.04 1.01-1.02 1.22c-5.97 1.31-12.91 2.38-15.51 8.96q-.19.47.24.75 1.75 1.13 3.8 1.71 13.68 3.89 27.22 8.23 3.58 1.14 10.48.54.32-.03.49-.3 4.97-8.1-1.67-14.46-.36-.35-.3-.85.24-2.08-.26-4.09a1.29 1.28-80.5 0 0-.56-.79c-4.4-2.8-6.77-7.64-9.53-11.92-2.77-4.32-8.95-2.91-11.93.01-2.3 2.25-1.35 8.18-1.45 10.99m-264.61 30.58-1.81-2.4a.82.82 0 0 0-1.47.41l-.25 2.37" vector-effect="non-scaling-stroke"/>
  <path fill="#080808" d="M422.61 865.65c-.887 2.993-1.323 6.693-1.31 11.1.02 6.833.053 13.667.1 20.5.07 9.4-.77 21.3-.44 32 .02.627.31 1.67.87 3.13.88 2.31.76 3.95.59 6.28-.19 2.82-2.15 4.56-2.25 7.83-.22 7.24.13 14.64-2.49 21.51-4.81 12.63-9.01 24.82-14.2 37.98-4.08 10.37-5.87 18.09-6.82 29.27-1.4 16.33-5.51 35.57-6.95 46.75-1.08 8.34-.56 16.27.64 25.6a1997.381 1997.381 0 0 0 5.2 37.89c.367 2.493.117 6.07-.75 10.73a3226.294 3226.294 0 0 0-6.08 33.77c-.81 4.63-1.79 8.06-4.67 12.11-2.69 3.81-7.48 10.1-6.65 14.73.79 4.38 1.32 8.51 2.57 12.8.54 1.88.2 3.66.64 5.43 1.3 5.2 1.5 11.093.6 17.68-.22 1.63.45 5.17 1.1 7.25 3.48 11.21 3.85 18.47 4.1 31.53.03 1.7-.61 2.53-2.15 3.01a185.188 185.188 0 0 1-31.75 6.79c-5.13.63-7.35-1.84-10.88-4.24-3.08-2.1-15.4-.73-19.24-.57a7.052 7.052 0 0 0-4.23 1.64c-6.72 5.62-12 9.2-20.8 10.32-5.71.73-11.54 1.71-17.25 2.22-6.51.59-13.66.09-20.49-.08-6.63-.16-12.39-.77-18.65-1.58-6.84-.88-13.75-3.47-20.32-5.57-3.13-1.01-6.14-2.58-9.26-3.91a1.78 1.78 0 0 1-1.02-2.11c.513-1.88 1.283-3.863 2.31-5.95 2.88-5.83 14.5-7.2 20.07-8.31 2.027-.407 4.953-1.607 8.78-3.6 8.507-4.427 16.22-9.07 23.14-13.93 4.65-3.26 9.11-7.37 12.28-12.26 5.93-9.15 8.19-19.16 10.19-29.35.44-2.24 1.41-4.3 1.74-6.42a143.04 143.04 0 0 0 1.77-20.87c.25-22.48 1-45.3-.67-67.73-.74-9.87.41-20.31-1.9-29.97-1.7-7.11-1.88-14.22-2.07-21.48-.09-3.05.35-9.26 1.68-11.1 2.9-4.02 4.49-6.27 4.27-11.75-.27-6.66-.42-13.48-1.83-20.02-1.04-4.77-2.14-10.14-1.98-14.84a67.722 67.722 0 0 0-1.16-14.96c-.687-3.6-1.063-6.44-1.13-8.52-.12-3.85-.01-7.67-.34-11.48-1.21-13.73-.59-27.25-.86-40.98-.06-3.04-.02-6.08.12-9.12.33-7.29.05-13.9.05-20.89.01-7.52-1.5-14.33-1.86-21.66-.24-4.927-.8-9.82-1.68-14.68-.37-2.03.1-4.18-.45-6.36-.38-1.507-.607-2.843-.68-4.01-.14-2.24-1.02-4.18-1.04-6.3a843.238 843.238 0 0 1-.07-15.9c0-.673-.12-1.32-.36-1.94a1.223 1.223 0 0 1-.02-.87 6.666 6.666 0 0 0-.04-4.38 1.225 1.225 0 0 1-.01-.79 8.11 8.11 0 0 0 .24-4.37 2.01 2.01 0 0 1 .06-1.05c1.447-4.3.157-7.237-3.87-8.81-.253-.1-.337-.28-.25-.54.7-1.97-.4-3.02-.18-4.69.11-.87.45-1.55.49-2.43.3-6.293.4-12.587.3-18.88-.087-5.393-.623-9.317-1.61-11.77-.97-2.42-3.4-4.58-4.01-7.71-1.3-6.69.86-15.05 3.42-21.25 1.38-3.33.78-5.63 1.29-8.89 1.44-9.1 2.85-18.29 5.47-27.14 1.253-4.22 1.847-7.137 1.78-8.75-.21-5.31.51-10.23.19-15.73-.17-2.92.27-6.59.34-8.68.39-10.85.53-21.19 1.66-32.4.9-8.98 1.32-17.82 2.5-26.88 1.9-14.693 2.88-29.46 2.94-44.3.02-4.44-.18-8.693-.6-12.76a1.84 1.84 0 0 0-2.71-1.42c-2.53 1.39-5.17 2.59-7.59 4.18-7.22 4.72-17.77 11.06-26.33 9.35-4.207-.84-7.97-2.747-11.29-5.72a155.71 155.71 0 0 1-19.11-20.55c-2.113-2.727-3.867-4.9-5.26-6.52-2.46-2.87-4.59-5.7-7.63-8.08a202.25 202.25 0 0 1-18.94-16.89c-2.76-2.78-6.9-4.1-10.13-7.66-3.13-3.44-7.35-6.08-10.47-8.99-2.94-2.75-2.48-6.81-.98-10.93a359.839 359.839 0 0 1 7.51-18.88c3.16-7.31 5.51-14.19 8.09-21.4a33.95 33.95 0 0 0 1.36-4.93.925.925 0 0 0-.72-1.09c-1.1-.21-2.06-.37-3.02-1.09a38.672 38.672 0 0 0-8.84-5.03c-2.62-1.06-8.86-4.65-8.74-7.85a28.146 28.146 0 0 1 3.26-12.26c.193-.373.253-.927.18-1.66-.047-.453-.197-.983-.45-1.59-2.36-5.673-4.267-10.833-5.72-15.48-1.17-3.75-.86-6.33.56-10.42 1.17-3.36 1.08-6.67 2.33-9.99.362-.95.1-2.028-.66-2.71-5.267-4.753-6.943-10.777-5.03-18.07 1-3.79 2.98-8.23 2.75-12.14-.2-3.42-2.44-6.99-4.3-9.82-2.37-3.6-7.08.54-8.99 2.45a463.77 463.77 0 0 0-13.82 14.47c-4.7 5.14-10.01 9.61-14.73 14.8-4.56 5-10.173 9.483-16.84 13.45-3.17 1.89-5.13 2.05-8.48.13a61.304 61.304 0 0 1-7.54-5.1c-2.38-1.87-4.02-4.57-6.19-6.86a.865.865 0 0 1-.18-.87c.68-1.907 1.343-3.303 1.99-4.19a231.086 231.086 0 0 1 17.91-21.59c1.1-1.17 2.66-4.03 2.28-5.83-.45-2.17-2.85-4.46-5.22-3.32-.306.156-.56.4-.73.7a2.53 2.53 0 0 1-1.36 1.16c-.467.173-.69.013-.67-.48.113-3.32 1.047-6.11 2.8-8.37 9.23-11.91 22.42-20.05 32.05-31.57a2.11 2.11 0 0 0-.08-2.79l-8.56-9.13a1.9 1.9 0 0 1-.28-2.21l1.37-2.47a2.19 2.19 0 0 0-.25-2.49 19.95 19.95 0 0 0-6.07-4.83.895.895 0 0 0-1.29.64c-.61 3.35-.96 7.11-3.94 9.33-4.12 3.07-9.98 2.47-13.57-1.15-3.42-3.46-7.697-8.597-12.83-15.41-2.42-3.207-7.25-8.383-14.49-15.53-3.24-3.2-2.18-6.67-3.08-10.53a1.09 1.09 0 0 0-1.07-.84c-2.75.03-6.19.41-8.47-1.08-5.47-3.57-1.35-10.75 1.69-14.54a2.625 2.625 0 0 0-.28-3.59c-5.9-5.36-2.7-8.76-.04-14.25a2.25 2.25 0 0 0-.58-2.71 362.554 362.554 0 0 1-14.13-12.47 53.722 53.722 0 0 1-7.25-8.29 1.675 1.675 0 0 1-.23-1.47c1.113-3.613 3.277-6.533 6.49-8.76 2.48-1.71 5.14-.38 7.37 1.63 2.71 2.44 5.41 4.68 7.99 7.37 4.38 4.573 8.423 8.173 12.13 10.8 5.587 3.96 9.083 6.617 10.49 7.97 8.087 7.82 14.727 14.097 19.92 18.83 1.13 1.03 2.9 2.11 4.23 3.45 3.37 3.4 7.34 6.4 10.66 9.45 4.47 4.11 9.46 7.61 13.66 11.68 6.807 6.613 12.253 11.37 16.34 14.27 3.6 2.547 6.197 4.627 7.79 6.24.433.433 1.26.7 2.48.8.36.033.65.19.87.47.547.72.973 1.497 1.28 2.33 2.88 7.78 8.5 6.44 13.65 11.11 4.33 3.93 10.19 10.56 15.76 12.23 2.767.827 4.463 1.427 5.09 1.8 2.84 1.693 4.973 3.947 6.4 6.76 1.3 2.58 2.2 7.24 4.91 9.8 4.58 4.32 9.2 9.11 13.5 13.13a3764.058 3764.058 0 0 1 27.57 26.04c.933.893 2.3 1.777 4.1 2.65 2.48 1.2 7.65 1.19 10.12-.09 6.66-3.44 11.26-6.7 16.92-12.56a73.7 73.7 0 0 1 10.1-8.73c3.18-2.28 7.66-4.5 11.39-7.05a1.89 1.89 0 0 1 .9-.31c4.6-.37 10.72-4.61 14.4-7.32 2.12-1.56 4.55-1.86 6.53-3.45 6.28-5.08 12.55-9.24 18.13-13.99 1.287-1.093 3.15-2.997 5.59-5.71 2.43-2.7 5.22-4.95 7.32-7.78a268.518 268.518 0 0 0 11.01-15.98c1.56-2.45 6.29-4.24 7.22-7.65a295.298 295.298 0 0 1 3.96-13.24 8.87 8.87 0 0 0 .44-3 815.51 815.51 0 0 0-1.95-38.71c-.32-4.373-.76-7.43-1.32-9.17-.72-2.23-3.45-3.55-4.76-4.93-4.32-4.57-9.43-8.69-9.67-13.91a270.56 270.56 0 0 0-1.37-17.23c-.187-1.667.01-3.253.59-4.76.12-.32.33-.573.63-.76 2.17-1.35 6.29-3.83 3.29-6.81-1.4-1.4-2.48-2.28-3.24-2.64-10.22-4.89-21.68-11.08-28.17-20.08-2.79-3.86-4.12-9.19-6.25-13.87a.71.71 0 0 1 .84-.98 357.436 357.436 0 0 1 36.11 12.47c1.209.49 2.529-.392 2.53-1.69.01-4.66 3.74-4.56 4.78-7.4 1.52-4.14 3.003-8.297 4.45-12.47 2.83-8.18 5.07-18.14 8.11-26.72 4.94-13.93 29.25-16.8 41.2-14.81 2.113.353 5.773 2.197 10.98 5.53 4.013 2.573 8.2 3.287 12.56 2.14.033-.007 1.613-.72 4.74-2.14 7.02-3.2 15.42 2.09 19.66 7.62 1.42 1.84 2.87 2.25 4.76.89.273-.2.55-.2.83 0 .26.187.31.423.15.71-1.22 2.24-1.23 3.74-.4 6.31 4.12 12.75 3.62 25.56 6.58 38.45 1.32 5.733 2.3 11.817 2.94 18.25.287 2.853 1.373 5.403 3.26 7.65 1.35 1.61 3.14 1.81 5.01 2.67 3.796 1.455 15.656 1.675 17.324 5.07.06.21.165.405.31.57-2.963 1.713-13.064 3.444-16.167 4.333-.307.087-3.215 1.002-3.442 1.228-1.443.579-2.865 1.309-4.745 1.549-6.98.88-6.79 21.54-7.11 26.43-.4 6.12-5.57 7.42-6.97 12.84a58.816 58.816 0 0 0-1.86 13.56c-.05 2.08-1.25 4.85-1.41 7.46-.16 2.567-.537 5.1-1.13 7.6-.747 3.153-1.07 5.207-.97 6.16.6 5.58 6.15 9.52 11.56 8.07a1.45 1.45 0 0 1 1.64.69c2.38 4.207 5.503 7.653 9.37 10.34 1.333.933 3.927 2.147 7.78 3.64a56.6 56.6 0 0 1 11.92 6.37c5.23 3.64 11.09 5.28 17 7.12.067.02 1.333.25 3.8.69 2.24.4 3.67 1.95 5.63 2.6 4.9 1.6 9.6 3.07 14.5 5.06 2.25.91 4.8 1.43 6.82 2.18 12.93 4.84 25.49 10.32 38.31 15.39 3.573 1.42 7.263 4.33 11.07 8.73 2.53 2.93 1.78 14.47 1.59 20-.107 3.1.793 6.32 2.7 9.66 1.22 2.13 1.62 6.46 3.44 9.99.95 1.84.83 3.88 1.65 5.84.513 1.22.867 2.45 1.06 3.69.45 2.86 1.7 6.44 2.66 9.07 1.95 5.38 1.5 11.44 5.81 15.97.59.612 1.619.376 1.87-.43 1.18-3.8 2.28-7.35 4.76-10.53 3.25-4.16 7.7-5.79 9.86-9.76 12.11-22.25 23.84-45.09 40.07-64.72 3.32-4.01 12.74-6.35 17.65-7.67 3.313-.887 6.157-1.747 8.53-2.58 7.03-2.47 12.94-2.58 18.94-5.42 5.2-2.46 8.62-7.51 8.1-13.11-.58-6.09-1.66-18.07 1.29-23.25 1.69-2.97 3.48-5.87 3.98-9.22 1.25-8.39-1.79-14.76-5.57-22.56-2.413-4.987-3.793-8.387-4.14-10.2-1.84-9.64 3.35-14.35 9.25-21 2.32-2.62.87-4.41-1.38-6.41-5.55-4.93-11.33-12.53-11.22-19.9.28-18.08 27.67-18.48 39.49-19.76.86-.1 1.497-.777 1.91-2.03a105.152 105.152 0 0 1 15.64-30.2c7.59-10.22 17.71-19.27 29.64-23.99 3.03-1.2 7.09-2.09 10.59-3.32 3.93-1.38 15.47 3.91 19.6 5.52 2.11.82 7.6-.12 9.84 2.15 9.273 9.42 16.067 19.463 20.38 30.13 5.47 13.51 7.06 27.82 6.17 42.29-.153 2.48.91 4.29 3.19 5.43 9.45 4.73 23.97 10.39 27.36 21.27 2.53 8.1-.94 15.19-8.72 18.34-8.28 3.35-16.7 6.07-25.05 9.23-2.047.773-2.567 2.18-1.56 4.22 2.34 4.76 5.67 8.66 8.64 12.99 2.94 4.29 3.52 8.34 5.51 12.87 2.61 5.97 4.88 12.26 8.13 17.65 2.253 3.733 4.06 6.353 5.42 7.86 5.12 5.65 7.45 12.91 9.24 20.16 1.133 4.587 1.163 9.58.09 14.98-.433 2.167.303 4.02 2.21 5.56a57.683 57.683 0 0 1 10.47 11.04c6.62 9.13 6.83 18.21 8.09 28.9 1.64 13.88 1.03 29.33 5.58 42.63a34.995 34.995 0 0 1 1.88 11.87c-.133 9.92-.273 19.837-.42 29.75-.04 2.37-.6 5.39-1.65 8.14-.9 2.367-1.313 4.32-1.24 5.86a642 642 0 0 1 .62 18.25c.013.527.193 1.497.54 2.91.073.313.273.473.6.48 1.527.033 2.57-.597 3.13-1.89 2.21-5.11 4.72-10.93 9.23-14.04 4.01-2.76 8.13-4.21 10.36-9.38 3.21-7.39 5.11-15.56 8.08-22.59.58-1.367.247-2.337-1-2.91-2.71-1.25-3.99-2.56-5.56-5.38-2.51-4.53-6.22-7.69-9.65-11.45-5.13-5.6.83-10.07 1.38-15.64.28-2.887.653-5.877 1.12-8.97a2.05 2.05 0 0 0-.92-2.05l-.56-.36c-.373-.24-.34-.35.1-.33 4.81.23 7.16-9.2 11.49-10.81 1.067-.4 2.107-.843 3.12-1.33 2.37-1.14 4.08-3.6 6.17-5.28.953-.773 2.357-1.47 4.21-2.09 3.973-1.333 7.343-3.643 10.11-6.93 9.56-11.353 19.123-22.703 28.69-34.05 3.55-4.22 7.28-8.09 8.42-13.71 1-4.92 3.693-8.593 8.08-11.02 1.247-.693 2.5-1.387 3.76-2.08 3.59-2 6.7-5.78 9.59-8.69 5.21-5.24 12.16-9.78 16.68-14.73 10.01-10.95 19.8-22.01 30.06-32.83 12.987-13.693 21.897-23.4 26.73-29.12 7.807-9.233 13.833-15.873 18.08-19.92 8.89-8.47 16.2-18.28 25.1-26.66 4.17-3.92 10.75 3.86 12.48 7.07.16.307.183.623.07.95a8.735 8.735 0 0 1-1.55 2.74 1020.883 1020.883 0 0 1-18.09 21.11c-.667.76-.737 1.57-.21 2.43 2.95 4.82 6.04 8.28 1.51 13.85a1.4 1.4 0 0 0-.32.99c.26 4.4 3.97 5.94 4.92 10.02 1.29 5.53-4.69 9-9.53 8.68a.79.79 0 0 0-.83.68c-.78 5.18.09 7.62-3.39 12.29a752.061 752.061 0 0 0-19.05 26.79c-5.06 7.44-9.89 13.26-18.69 6.88-1.87-1.36-1.81-5.85-2.57-7.96a1.57 1.57 0 0 0-2.64-.52l-5.16 5.65a.966.966 0 0 0-.25.76c.31 2.84 2.6 6.52.3 9.38a4366.35 4366.35 0 0 1-6.4 7.96 1.42 1.42 0 0 0 .15 1.94c10.29 9.36 22.45 16.73 33.26 25.58 3.83 3.14 5.77 6.06 5.93 10.82a.45.45 0 0 1-.65.42c-3.327-1.707-5.657-.89-6.99 2.45-.12.3-.123.607-.01.92.753 2.08 1.583 3.51 2.49 4.29 3.73 3.19 7.31 6.02 11.09 9.58 3.98 3.75 10.91 7.94 11.28 14.16.27 4.53-3.77 8.94-6.83 12.02-3.84 3.87-5.03 5.76-9.98 6.02-1.993.1-3.66-.34-5-1.32-17.64-12.88-34.91-27.18-51.09-41.68-.993-.887-2.19-1.493-3.59-1.82a.8.8 0 0 0-.85.28c-3.61 4.15-5.92 9.79-3.81 15.17 3.38 8.62 8.53 17.29 1.37 25.93a1.327 1.327 0 0 0-.31.81c-.04.76-.06 1.523-.06 2.29 0 2.27 1.69 4.11 1.35 6.24-.227 1.46-.853 3.423-1.88 5.89-2.68 6.46-4.07 13.29-4.89 20.17a2.936 2.936 0 0 0 .31 1.71c2.89 5.55 14.46 18.21 7.84 23.12a114.147 114.147 0 0 1-12.43 8.02c-3.793 2.113-8.363 2.777-13.71 1.99-1.4-.207-2.753.477-4.06 2.05-7.97 9.63-15.13 19.84-22.81 29.68a739.796 739.796 0 0 0-7.62 9.95c-8.76 11.64-18.707 22.583-29.84 32.83-3.92 3.6-3.79 11.94-4.91 17.16-2.78 12.97-3.81 25.71-10.36 38.15-.16.3-.17.607-.03.92 1.087 2.327 2.09 4.067 3.01 5.22 3.72 4.68 8.82 10.67 15.3 17.97 7.07 7.96 11.71 18.16 16.76 27.44 1.96 3.6 5.35 4.72 6.3 10.35.92 5.47 4.25 11.32 5.64 14.83 2.133 5.393 4.15 9.77 6.05 13.13 3.013 5.34 4.887 8.897 5.62 10.67 1.76 4.31 4.39 8.62 6.04 12.48 3.61 8.45 6.66 16.84 11.5 24.93a136.651 136.651 0 0 1 7.74 14.99c3.361 5.254 8.009 6.326.52 10.47-11.1 5.46-21.89 11.38-33.37 16.04-7.32 2.97-14.14 4.46-21.75 5.28a1.62 1.62 0 0 0-1.43 1.42 2023.499 2023.499 0 0 0-4.1 38.64c-1.424 15.42-.921 12.621-2.4 21.34a1226.27 1226.27 0 0 0-3.06 25.15c-.45 4.05-1.35 8.16-1.74 12.04-1.08 10.91-3.46 23.39-4.58 32.46-.9 7.34-1.62 14.32-2.93 21.96-2.32 13.61-4.32 29.17-1.36 41.4 1.12 4.64 2.13 9.07 2.66 13.93 1.54 13.91 3.46 28.01 3.91 42 .31 9.79-.98 20.52-1.82 30.77-.56 6.88-2.1 13.64-3.25 20.54-1.35 8.17-1.366 13.085-5.148 21.743-.96 1.393-2.575 8.304-3.442 9.757-1.83 3.09-2.28 6.75-3.42 10.21a1692.893 1692.893 0 0 0-6.82 21.12c-3.5 11.1-7.92 20.73-13.16 32.58-2.68 6.06-4.96 12.24-7.78 18.25a254.494 254.494 0 0 0-9.69 23.72 15.03 15.03 0 0 0-.86 5.48c.007.313.113.587.32.82.293.34.64.613 1.04.82.327.173.47.443.43.81-.207 1.827-1.147 3.06-2.82 3.7a1.17 1.17 0 0 0-.72.7c-.987 2.42-1.563 5.153-1.73 8.2-.58 10.46-.42 21.64-2.23 31.92-.91 5.15-3.62 9.86-5.81 14.59-.62 1.34-.893 4.17-.82 8.49.31 18.87-.12 37.33-4.98 55.69-1.46 5.51-3.68 10.03-6.55 14.79-.927 1.547-2.32 2.343-4.18 2.39-16.15.41-32.35.06-48.51.05-2.38 0-4.12-.227-5.22-.68-7.68-3.18-5.66-10.31-3.52-16.47 7.08-20.41 12.74-35.25 19.29-51.77 4.413-11.133 7.427-19.88 9.04-26.24 2.9-11.467 4.853-18.803 5.86-22.01 3.11-9.84 10.06-17.35 12.85-27.5 3.87-14.07 3.84-29.2 4.54-43.77.76-16.03 2.76-32.31 3.94-48.5.96-13.27 2.77-26.78 3.96-40.21 2.05-23.2 3.8-46.43 7.08-69.49 1.81-12.7 1.85-24.36-.65-37-1.28-6.467-2.5-13.647-3.66-21.54-.687-4.687-.993-8.767-.92-12.24.15-6.99.72-14.19.17-20.99-1.31-16.42-4.33-32.63-8.7-48.28-1.93-6.9-1.48-13.8-3.14-20.65-.57-2.4-1.27-4.73-1.67-7.14a2188.024 2188.024 0 0 0-7.42-41.9 2.11 2.11 0 0 0-2.11-1.72c-5.02.08-10.34 1.04-14.95 1.11-4.37.07-8.88-.26-12.94.73-9.02 2.19-15.93 7.24-23.14 12.8-2.43 1.88-4.72 2.62-7.55 3.39-5.86 1.58-13.25 12.72-17.32 17.27-8.25 9.21-16.21 18.65-24.47 27.85-4.12 4.587-8.44 9.66-12.96 15.22a724.477 724.477 0 0 1-36.09 41.04c-4.033 4.253-7.097 7.7-9.19 10.34-6.8 8.57-10.66 17.15-15.42 26.11-7.49 14.1-8.08 26.95-5.62 42.15 1.42 8.74 1.09 17.34 1.59 26.07.13 2.35-.22 4.9-.14 7.38.007.34.103.65.29.93 2.21 3.44-.72 6.49-1.06 9.97-.34 3.5-.36 6.96-1.09 10.36-3.82 17.78-8.19 33.33-15.66 52.21a1668.482 1668.482 0 0 1-21.27 51.26 103.283 103.283 0 0 0-2.81 7.18c-.77 2.23-2.09 4.12-2.95 6.04a275.45 275.45 0 0 0-13.22 35.68c-1.573 5.347-2.5 9.627-2.78 12.84-1.09 12.56 4.77 24.8 11 35.4 4.64 7.9 12.75 21.71 10.16 31.04-2.04 7.33-8.31 13.18-11.09 20.35-2.88 7.43-3.11 15.36-3.72 23.22-.12 1.47 1.2 3.18 2.54 4.15 3.707 2.687 6.567 5.9 8.58 9.64 2.32 4.3.37 11.13-.09 16.06-.033.387-.243.593-.63.62-.99.06-2.12-.29-2.98-.28-25.32.16-50.643.22-75.97.18-4.013-.01-6.947-.483-8.8-1.43-3.993-2.027-5.953-5.687-5.88-10.98a1.475 1.475 0 0 0-1.2-1.48c-2.1-.4-4.13-.69-6.04-1.75-4.427-2.46-8.53-5.203-12.31-8.23a2.54 2.54 0 0 1-.95-1.83 377.536 377.536 0 0 1-.72-24.96c.01-3.35-6.46-2.08-7.58-5.48-2.36-7.19-4.14-14.66-6.72-21.51-4.6-12.173-7.45-20.253-8.55-24.24a292.369 292.369 0 0 0-5.41-17.48c-1.6-4.65-4.19-9.08-6.37-13.66-2.37-4.97-3-9.03-6.71-13.66-3.95-4.94-3.23-11.53-5.24-15.46a480.209 480.209 0 0 1-9.67-20.12c-1.43-3.16-4.05-5.52-3.41-10.11.85-6.09-1.04-11.76-2.43-17.52-.78-3.233-1.5-6.75-2.16-10.55-2.15-12.45-5.44-26.76-9.77-39.87a56.934 56.934 0 0 1-1.96-7.81c-1.18-6.7-4.16-14.47-5.51-19.33a3723.475 3723.475 0 0 1-4.64-16.89c-2.26-8.29-6.3-19.61-6.7-29.28-.24-5.75-.71-10.14-.53-15.66.1-3.12-.43-6.04-.28-9.12.18-3.76-.1-7.497-.84-11.21a1419.666 1419.666 0 0 0-6.01-28.47c-2.06-9.32-3.71-19.22-5.68-28a1622.902 1622.902 0 0 1-4.28-19.57 827.134 827.134 0 0 1-4.95-25.18c-.3-1.667-1.023-3.333-2.17-5-.3-.433-.527-.397-.68.11zM1061 358.06c.41 2.62 2.62 11.64 6.08 8.27 5.38-5.23 2.95-14.12-1.78-18.67-4.187-4.033-9.127-5.093-14.82-3.18-5.08 1.71 2.77 12.45 7.02 12.56 1.127.027 2.067.123 2.82.29.387.093.613.337.68.73zm-884.48-.02 2.99-.02c.347-.007.52-.183.52-.53l-.01-2c0-.347-.173-.52-.52-.52h-2.53a1.87 1.87 0 0 1-.99-.28c-1.473-.887-2.953-.94-4.44-.16-.293.153-.6.233-.92.24-3.06.04-5.573 1.48-7.54 4.32-5.32 7.68-3.43 14.95 2.48 21.31a1.77 1.77 0 0 0 2.37.21c2.51-1.89 3.05-5.99 3.39-8.96a1.455 1.455 0 0 0-.75-1.44 1.9 1.9 0 0 1-.9-.98c-.147-.347-.08-.65.2-.91 2.04-1.853 3.113-4.17 3.22-6.95a3.455 3.455 0 0 1 3.43-3.33zm824.72 35.14a1.495 1.495 0 0 0-.13 1.98c4.22 5.4 5.13 8.6 1.59 14.86-6.25 11.01-15.02 24.63-16.49 35.81a.84.84 0 0 0 1.27.82c4.27-2.65 7.67-6.9 11.09-9.78a79.445 79.445 0 0 0 11.46-11.92c3.88-4.97 5.47-9.12 4.71-15.19-1.04-8.31-5.33-12.94-7.87-20.24a.97.97 0 0 0-1.6-.36zm-769.44 5.63c-1.13-1.52-3.31-4.19-5.02-5a2.202 2.202 0 0 1-.77-.6 11.695 11.695 0 0 0-4.33-3.36c-2.027-.92-2.8-.167-2.32 2.26.077.398.307.75.64.98 1.75 1.22 4.69 3.07 5.15 5.32.06.28.17.54.33.78.993 1.48 2.34 2.513 4.04 3.1.033.013.057 0 .07-.04a.812.812 0 0 0 .04-.32.214.214 0 0 1 .12-.22 5.244 5.244 0 0 0 2.1-2.04c.167-.3.15-.587-.05-.86zm-4.45 16.29-1.68 1.55a1.28 1.28 0 0 0-.43.83c-.247 2-.33 4.01-.25 6.03.16 4.27 3.86 6.21 6.35 9.08.74.853 1.507 1.683 2.3 2.49 1.34 1.36 2.22 3.05 3.49 4.52 2.16 2.53 3.39 5.36 5.83 7.71.86.83 1.56.83 2.7.67.32-.04.5-.22.54-.54.08-.62.293-1.657.64-3.11.247-1.047.27-3.113.07-6.2-.02-.32-.14-.6-.36-.84a23.364 23.364 0 0 1-3.46-4.99c-1.233-2.407-2.247-4.127-3.04-5.16a448.91 448.91 0 0 1-9.17-12.42l-1.81-2.4c-.449-.594-1.394-.33-1.47.41zm458.89 3.6c-1.16 3.15-2.12 6.3-3.85 9.05-2.3 3.68-5.337 8.023-9.11 13.03-.56.733-1.083 1.313-1.57 1.74a.89.89 0 0 1-.93.14c-3.287-1.447-5.413-.537-6.38 2.73-1.79 6.09-4.2 12.25-6.66 17.9a278.113 278.113 0 0 1-10.4 21.3c-1.39 2.57-3.33 6.95-3.11 9.16.533 5.527 2.38 15.11 5.54 28.75.707 3.053 1.123 8.13 1.25 15.23.04 1.9.45 4.55 1.06 5.95a440.347 440.347 0 0 0 12 25.29c4.28 8.34 8.113 14.827 11.5 19.46 4.18 5.73 6.7 10.43 10.26 14.9 6.43 8.06 11.37 20.57 19.11 26.39 13.24 9.94 36 .32 48.16-8.1 3.7-2.56.5-10.29.2-14.07-.32-3.98-1.04-7.84-1.09-11.76-.15-10.92-1-21.85-1.1-32.72-.087-8.953-.437-19.73-1.05-32.33-.54-11.253-2.953-21.687-7.24-31.3-1.447-3.247-4.177-7.827-8.19-13.74a376.204 376.204 0 0 1-12.24-19.28c-.72-1.22-2.08-2.65-3.1-3.22-8.093-4.513-14.18-10.833-18.26-18.96-1.91-3.8-3-9.22-4.9-13.72-1.02-2.42.86-6.35.32-9.39-.427-2.4-.98-4.773-1.66-7.12a1 1 0 0 0-1.69-.41c-1.46 1.54-3.41 4.53-5.82 4.41a1.07 1.07 0 0 0-1.05.69zM576 658.43c1.92-3.63 3.94-7.52 5.61-11.27 3.2-7.19-1.99-8.38-3.74-13.84a264.196 264.196 0 0 0-2.82-8.3c-.573-1.607-.913-4.197-1.02-7.77-.227-7.673-.21-12.47.05-14.39 1.75-13.13 3.42-22.15.74-32.89-2.53-10.11-4.22-18.37-3.85-28.28.11-3 .71-6.46.98-9.74.18-2.36 1.25-4.54 1.46-6.45.613-5.5 1.243-11 1.89-16.5.72-6.08-2.6-11.19-5.93-17.1a15.14 15.14 0 0 0-3.35-4.11.82.82 0 0 0-1.35.51c-.39 2.85-1.33 5.38-1.09 8.3.26 3.313.387 5.78.38 7.4-.3 48.88-.367 85.297-.2 109.25.04 6.78 1.41 14.49 1.56 21.36.17 7.46.08 15.08 1.08 22.43.7 5.13 1.26 9.7 3.02 14.61.14.393.377.617.71.67a.94.94 0 0 0 1.07-.7c1.09-4.56 2.5-8.87 4.8-13.19zm25.75 429.16c.707 2.64.887 4.7.54 6.18-1.187 5.007-.787 10.203 1.2 15.59.173.473.43.523.77.15 1.25-1.35 1.24-4.52 1.54-6.28.88-5.14.69-10.69 1.11-15.93.22-2.61-.26-3.7-1.15-6.05-1.09-2.87-.5-5.47.6-8.81.707-2.173 1.153-4.57 1.34-7.19.64-9.207 1.117-16.533 1.43-21.98.48-8.24 2.06-16.89 3.8-23.78 2.193-8.64 4.373-17.283 6.54-25.93a381.576 381.576 0 0 1 5.82-20.62 283.693 283.693 0 0 0 4.99-17.94c2.86-11.74 2.38-22.37 2-35-.42-13.75 2.24-24.44 8.22-37 1.34-2.8 2.59-5.64 3.75-8.52 4.27-10.52 8.77-20.97 12.75-31.59 2.09-5.58 4.92-11.59 6.77-16.5a462.429 462.429 0 0 1 7.37-18.41c3.31-7.79 6.99-17.5 10.97-26.05 1.44-3.08-.49-5.1-2.77-7.02a704.312 704.312 0 0 0-11.01-9.09 1.53 1.53 0 0 1-.38-1.93c4.76-8.61 12.34-16.79 19.23-23.73 11.45-11.52 18.56-21.7 22.82-36.37 1.72-5.9 3.3-10.03 6.51-14.28 4-5.31 9.86-11.73 11.93-18.02.3-.913.127-1.587-.52-2.02a1.615 1.615 0 0 0-1.37-.21c-9.55 2.85-17.44 5.28-28.28 3.31-3.78-.68-9.43-8.54-11.1-11.1-2.58-3.96-5.87-7.81-9.05-11.24-7.393-7.98-14.72-16.02-21.98-24.12-.873-.98-1.757-1.677-2.65-2.09a1.38 1.38 0 0 0-1.96 1.24c-.06 3.6.47 7.66.57 10.33.54 15.333.853 30.673.94 46.02a29.67 29.67 0 0 0 .49 5.23c1.35 7.22 2.88 9.9-3.29 15.62a1.26 1.26 0 0 1-.84.35c-2.133.047-4.26.167-6.38.36-3.71.33-7.16 1.74-10.77 2.85-1.067.327-1.66.897-1.78 1.71-1.473 9.82-3.547 17.997-6.22 24.53-1.48 3.62-4.187 6.747-8.12 9.38-1.8 1.21-3.54 1.19-5.62 1.16-1.287-.02-3.067 1.017-5.34 3.11-2.107 1.94-4.217 3.207-6.33 3.8-4.08 1.14-7.23-4.51-10.17-.16-2.8 4.14-8.76-.73-11.8-2.45-1.387-.787-3.14-.88-5.26-.28a.855.855 0 0 0-.61.67c-.28 1.38-.353 3.217-.22 5.51.44 8.02.78 15.46 1.62 23.97a359.74 359.74 0 0 1 1.44 21.32 1.2 1.2 0 0 1-.7 1.14l-2.14.99a2.705 2.705 0 0 0-1.55 2.81c.52 3.813.987 7.593 1.4 11.34.99 8.86 2.43 17.67 3.41 26.54.56 5.01 1.87 9.74 2.32 14.84.68 7.52 1.427 15.033 2.24 22.54.173 1.627.73 4.67 1.67 9.13.94 4.47.61 9.02 1.69 13.38.63 2.54-.49 4.81.09 7.48.56 2.62 1.29 4.61.89 7.39a73.953 73.953 0 0 0-.6 15.36c.21 3.15 1.89 5.42 1.43 8.67-.49 3.38-1.76 6.57-1.87 9.85-.25 7.32-.47 14.21.56 21.62 3.09 22.24 5.94 44.57 9.53 66.73 2.44 15.04 3.8 30.27 6.9 45.19.39 1.87 2.13 2.41 2.64 4.3z"/>
  <path fill="#080808" d="M153.43 265.66a.21.21 0 0 1-.29 0l-2.51-2.56a.81.63 45.6 0 1-.12-1.02l.02-.01a.81.63 45.6 0 1 1.01.14l2.51 2.56a.21.21 0 0 1 0 .29l-.62.6Z"/>
  <path fill="#da2631" d="M379.364 462.671c2.02-8.85 5.413-51.534 9.539-82.805 6.408-27.362 7.795-32.336 20.747-63.566-.45-4.49-2.166-8.954-1.706-13.394.47-4.53-.255-13.177 3.625-15.127 4.22-2.12 15.779.409 19.699 2.429 4.59 2.37-1.338 16.847-3.278 20.097-.306.507-5.216 5.875-4.956 7.022 2.16 9.56 4.644 17.426 7.788 31.436 6.332 31.823 7.285 81.359-1.748 118.917-10.719 7.854-22.19 20.11-28.22 31.047-.173.302-.6.318-.78.03-3.886-10.47-21.937-29.723-20.71-36.086z"/>
  <path fill="#080808" d="M985.59 340.6a.49.49 0 0 1-.93-.08q-.18-.78 1.01-1.37.65-.33.38.34l-.46 1.11Z"/>
  <path fill="#da2631" d="M497.944 396.656c.1-2.81-.66-17.502 1.64-19.752 2.98-2.92 8.97 4.432 11.74 8.752 5.745 7.893 17.626 33.026 17.626 33.026-12.645-1.701-51.676-9.907-51.676-9.907s13.68-9.59 19.65-10.9c.653-.14.993-.546 1.02-1.22z"/>
  <path fill="#c23636" d="M230.88 414.72q-2.57-1.22-3.53.38l.25-2.37a.82.82 0 0 1 1.47-.41l1.81 2.4Z"/>
</svg>
