<?xml version="1.0" encoding="UTF-8" standalone="no"?>
<svg
   version="1.1"
   viewBox="0 0 880 820"
   id="svg54280"
   sodipodi:docname="getsbi-party.svg"
   width="880"
   height="820"
   inkscape:version="1.2.2 (1:1.2.2+202212051552+b0a8486541)"
   xmlns:inkscape="http://www.inkscape.org/namespaces/inkscape"
   xmlns:sodipodi="http://sodipodi.sourceforge.net/DTD/sodipodi-0.dtd"
   xmlns="http://www.w3.org/2000/svg"
   xmlns:svg="http://www.w3.org/2000/svg">
  <sodipodi:namedview
     id="namedview78760"
     pagecolor="#ffffff"
     bordercolor="#000000"
     borderopacity="0.25"
     inkscape:showpageshadow="2"
     inkscape:pageopacity="0.0"
     inkscape:pagecheckerboard="0"
     inkscape:deskcolor="#d1d1d1"
     showgrid="false"
     inkscape:zoom="0.35355339"
     inkscape:cx="-9.8994949"
     inkscape:cy="569.92806"
     inkscape:window-width="1526"
     inkscape:window-height="836"
     inkscape:window-x="0"
     inkscape:window-y="0"
     inkscape:window-maximized="1"
     inkscape:current-layer="svg54280" />
  <defs
     id="defs54284" />
  <g
     id="g20072"
     transform="matrix(1.989093,0,0,1.989093,456.87801,-98.714402)">
    <path
       id="path49054"
       d="m 190.00012,324.02366 c -0.0805,-1.3e-4 -0.15316,0.0494 -0.1836,0.12501 l -32.59179,81.67187 c -0.13678,0.0394 -0.21573,0.0308 -0.23633,-0.0253 -11.08192,-27.79924 -22.23551,-55.75448 -32.55275,-81.541 -0.0337,-0.0843 -0.0743,-0.14206 -0.12304,-0.17579 -0.0768,-0.0543 -0.15584,-0.0671 -0.23829,-0.0371 l -10.3535,0.002 c -0.18175,-0.0393 -0.34596,-0.0395 -0.49024,-0.004 -0.10118,0.0244 -0.1353,0.0862 -0.10157,0.18554 12.33597,32.35559 26.56351,67.40503 37.90429,95.90628 0.48901,1.22532 0.66323,2.06338 0.66604,3.30271 0.014,5.27791 -0.006,10.50531 0.23826,15.78322 0.004,0.0865 0.0653,0.16019 0.15041,0.18164 3.32332,-0.003 6.83231,0.009 10.22265,0.0174 0.13223,0 0.2399,-0.10603 0.24023,-0.23826 -0.004,-5.48588 -0.008,-10.971 -0.0138,-16.45314 0,-0.80377 0.16146,-1.44999 0.44531,-2.15821 12.89218,-34.62213 27.49391,-65.95498 38.21287,-96.35352 0.0337,-0.0993 0,-0.15907 -0.1035,-0.17968 -0.24732,-0.0506 -0.47572,-0.0506 -0.68554,0 z"
       sodipodi:nodetypes="cccccccccccccccccccccc"
       style="fill:#5a15e2;fill-opacity:1;stroke-width:0.281039" />
    <path
       id="path48968"
       d="m -87.53508,188.84493 c -2.55558,0.002 -5.17437,0.19835 -7.85547,0.5918 -0.24357,-0.0506 -0.36524,0.0325 -0.36524,0.24609 -0.006,29.26546 -0.006,58.53801 0.002,87.82032 l -6.51367,0.0117 c -0.0974,0 -0.16354,0.0469 -0.19727,0.13868 -0.0225,0.0618 -0.0182,0.11308 0.0137,0.15429 l -0.0312,10.375 c -8e-5,0.0529 0.0428,0.0958 0.0957,0.0957 l 6.31641,-0.008 c 0.17731,-10e-4 0.32175,0.1434 0.32227,0.32227 l -0.008,15.60937 c 0,0.12741 0.062,0.19141 0.18749,0.19141 l 10.40821,0.0176 c 0.0918,0 0.13672,-0.0469 0.13672,-0.14062 l 0.002,-15.5957 c 1.2e-4,-0.16145 0.12542,-0.29448 0.28516,-0.30274 5.1149,-0.31664 10.06657,-1.38809 14.85547,-3.21484 0.15896,-0.0603 0.33892,-0.0222 0.46094,0.0976 l 19.05468,18.89649 c 0.18696,0.18541 0.43857,0.28872 0.69922,0.28711 l 14.17383,-0.0391 c 0.0974,0 0.12317,-0.0448 0.0801,-0.13281 -0.0937,-0.19485 -0.23241,-0.35071 -0.41602,-0.46875 -0.11429,0.0993 -0.30011,0.061 -0.56054,-0.11328 0.26043,0.17424 0.44625,0.21258 0.56054,0.11328 l -23.53906,-24.125 c -0.0281,-0.10305 0.0402,-0.21399 0.20508,-0.33203 9.77171,-7.00348 16.93761,-17.21624 19.67773,-28.93555 0.53398,-2.26704 0.90735,-4.56574 1.11719,-6.89648 2.59399,-29.24768 -19.61396,-54.19473 -49.16797,-54.66406 z m 2.54296,10.9961 c 1.93917,0.0337 3.87286,0.29185 5.80079,0.77148 21.10878,5.25261 34.55055,26.33069 29.07031,47.66992 -4.07225,15.85618 -17.89454,27.88035 -34.38868,29.27149 -0.21387,0.0177 -0.39745,-0.15063 -0.39843,-0.36524 l -0.13477,-31.52343 0.0508,-45.82422 c -1.17757,-0.33595 -0.90874,-0.28068 0,0 z"
       sodipodi:nodetypes="ccccccccccccccccccccccccccccccccccccccc"
       style="fill:#5a15e2;fill-opacity:1;stroke-width:0.281039" />
    <path
       id="path48976"
       d="m -121.05284,188.93661 c -18.72019,0.11419 -36.93137,10.83275 -46.94335,26.42774 -13.85238,21.57531 -12.04671,49.47736 4.77343,68.88867 9.90379,11.42983 23.02254,18.45419 38.20704,19.85938 4.4329,0.41031 8.87233,0.43371 13.31835,0.0684 0.0412,-0.004 0.0669,-0.025 0.0781,-0.0625 0.0337,-0.0993 0.0337,-0.1058 0,-0.0215 l 0.0566,-44.02734 c 2.6e-4,-0.0698 -0.0548,-0.12661 -0.12305,-0.12695 l -27.54492,0.002 c -0.0993,0 -0.14617,0.0511 -0.13867,0.15039 0.002,0.0262 0.008,0.054 0.0195,0.084 l -0.002,10.41211 c -1.9e-4,0.081 0.0655,0.14667 0.14649,0.14648 l 16.31445,0.0215 c 0.17854,5.7e-4 0.32283,0.14569 0.32227,0.32422 l 0.004,22.24414 c 0,0.0319 -0.0128,0.0575 -0.0371,0.0781 -0.0281,0.0262 -0.0452,0.0646 -0.0508,0.11328 -9.05505,-0.46933 -17.87939,-3.94939 -24.95312,-9.35937 -10.14736,-7.76228 -16.23864,-18.04559 -18.27149,-30.85157 -1.6525,-10.4134 0.13175,-20.17146 5.35157,-29.27148 3.77153,-6.57255 8.66766,-12.0109 14.6875,-16.31641 5.95801,-4.0151 12.48488,-6.55494 19.58203,-7.61914 3.03521,-0.45247 5.92015,-0.59629 9.53711,-0.74805 0.0993,-0.004 0.15704,-0.053 0.17578,-0.15039 -0.0737,-3.26169 -0.0499,-6.67048 -0.0566,-9.98633 0,-0.0993 -0.0471,-0.15046 -0.14453,-0.15234 -1.47674,-0.0392 -3.03052,-0.13294 -4.3086,-0.12695 z"
       sodipodi:nodetypes="cccsccccccccccccccccccccccccc"
       style="fill:#5a15e2;fill-opacity:1;stroke-width:0.281039" />
    <path
       id="path48978"
       d="m -25.71583,188.96232 c -0.1349,0 -0.17121,0.14513 -0.10938,0.43554 0.015,33.6459 0.0384,56.99327 0.0684,70.03906 0,0.23795 -0.0533,0.39381 -0.1582,0.46876 -2.18836,0.015 -4.36538,0.015 -6.53125,0 -0.0731,0 -0.12432,0.017 -0.1543,0.0508 -0.0393,0.0468 -0.0499,0.10881 -0.0293,0.1875 0.012,2.48107 -0.0347,7.18748 -0.0156,10.46289 0.002,0.0768 0.0745,0.13432 0.21875,0.16992 0.2889,-0.52642 0,0 0,0 l 6.71679,0.0781 c -0.0225,13.89079 8.5e-4,24.91028 0.0684,33.05664 0.002,0.20423 0.41695,0.61364 0.683,0.51059 16.97006,0.0441 30.43379,-0.0441 43.86269,-0.15543 0.31508,-0.0389 0.46671,-0.24256 0.47348,-0.48354 -0.0275,-3.25062 -0.0115,-6.50166 -0.0116,-9.75241 -0.0151,-0.23657 -0.003,-0.48859 -0.27319,-0.58014 l -34.05469,-0.006 c -1.09632,0.44019 0,0 0,0 l -0.004,-11.78711 v -10.68945 c -1.71091,-0.27846 0,0 0,0 0,0 0.0845,-0.21484 0.28125,-0.21484 7.21707,0.004 14.43544,0.001 21.65625,-0.01 0.0974,0 0.1551,-0.047 0.17383,-0.14063 0.0393,-0.19298 0.0393,-0.34876 -0.002,-0.4668 l 0.008,-9.98046 c 0.015,-0.0431 0.0212,-0.0837 0.0156,-0.12305 -0.015,-0.10118 -0.0747,-0.15235 -0.17773,-0.15235 l -21.89063,0.0254 -0.0566,-13.17188 -0.002,-47.01562 c 13.31925,-0.22276 23.82099,0.0292 34.75727,-0.14623 0.0918,-0.007 0.19969,-0.14859 0.19781,-0.23852 0.0444,-3.78412 0.0504,-6.421 0.0364,-10.26495 -0.11348,-0.0997 -0.31947,-0.104 -0.62625,-0.1081 -15.67038,-0.0214 -31.68539,-0.006 -45.12109,0.002 z"
       sodipodi:nodetypes="cccccccccccccccccccccccccccccccccccccc"
       style="fill:#5a15e2;fill-opacity:1;stroke-width:0.281039" />
    <path
       id="path48984"
       d="m 69.54857,188.91693 c -0.12607,0.0344 -0.2617,0.0496 -0.34961,0.16016 0,0 -16.91977,47.5597 -25.27538,70.8418 l -10.73829,0.0391 c -0.0294,3.53641 0.0332,7.23055 -0.0156,10.64648 0.03,0.0918 0.094,0.13868 0.1914,0.13868 l 6.69922,0.0605 -11.75586,33.01758 c -0.0693,0.0918 -0.11634,0.21997 -0.14257,0.38672 -0.0112,0.0787 0.023,0.11914 0.10351,0.11914 l 11.29688,0.004 c 0.10679,0 0.17924,-0.0491 0.21484,-0.14844 l 11.63477,-33.11719 c 0.0674,-0.19041 0.24724,-0.31786 0.44922,-0.31836 l 39.11133,-0.002 c 0.13114,0 0.22065,0.0619 0.26561,0.18554 l 11.91602,33.26563 c 0.0281,0.0806 0.0858,0.12312 0.17382,0.125 3.76626,0.0168 7.53269,0.019 11.3008,0.008 0.0392,-0.0155 0.0273,-0.012 0.0762,-0.0312 0.0225,-0.009 0.0291,-0.0244 0.0214,-0.0469 l -11.89064,-33.24218 c -0.0637,-0.17612 -0.003,-0.26367 0.18554,-0.26367 l 6.38478,0.002 c 0.0975,2.8e-4 0.17703,-0.0782 0.17773,-0.17578 l -0.0174,-10.49805 c 0,-0.0974 -0.047,-0.15728 -0.14063,-0.18164 -0.0693,-0.0169 -0.13552,-0.002 -0.19923,0.0449 l -10.35547,-0.0117 C 90.68899,237.05421 82.49753,214.16556 74.2987,191.26099 c -0.3185,-0.89182 -1.32524,-2.33763 -1.32524,-2.33763 z m 45.08009,115.41211 c -0.33851,0.13436 -0.36746,0.15277 0.0253,0.0117 0.0149,-0.007 0.0129,-0.0117 -0.004,-0.0117 -0.007,2e-5 -0.0143,-2e-5 -0.0214,0 z M 71.33373,215.19232 c 0.0261,-0.009 0.0561,0.044 0.0899,0.16016 l 15.76366,44.21289 c 0.0624,0.17682 -0.0663,0.36241 -0.25195,0.36328 H 55.33183 c 5.04557,-14.8257 10.28534,-29.64859 15.71875,-44.46679 0.0653,-0.17924 0.21485,-0.40643 0.2832,-0.26954 z"
       sodipodi:nodetypes="ccccccccccccccccccccccccccccccccccscccccccc"
       style="fill:#5a15e2;fill-opacity:1;stroke-width:0.281039" />
    <path
       id="path48996"
       d="m 163.32453,189.29235 -64.83009,0.0547 v 0 l -0.28905,0.18359 0.0898,10.33399 0.13476,0.14258 27.59447,0.004 1.04071,104.31057 9.22811,0.1167 -0.006,-104.23242 0.21485,-0.2129 h 26.84179 c 0.11652,8e-5 0.21101,-0.0944 0.21092,-0.21093 l 0.006,-10.25586 c 0,-0.12982 -0.10652,-0.23452 -0.23633,-0.23438 z"
       sodipodi:nodetypes="cccccccccccccscc"
       style="fill:#5a15e2;fill-opacity:1;stroke-width:0.281039" />
    <path
       id="path48940"
       d="m -3.78775,64.04478 c -0.0543,-0.006 -0.11834,0.0179 -0.19141,0.0703 -3.67411,2.67361 -7.33666,5.33082 -10.98828,7.9707 -0.0777,0.0573 -0.11929,0.15094 -0.10938,0.2461 l 3.45703,32.76953 c 0.0118,0.11866 -0.0469,0.23372 -0.15039,0.29492 l -1.69922,0.98633 -1.79296,-16.89844 c 0.0225,-0.18736 0.0118,-0.3325 -0.0312,-0.43554 -0.0394,-0.0993 -0.10327,-0.11644 -0.18946,-0.0527 l -10.09179,7.38281 3.76562,15.14649 -1.49219,0.99218 c -0.12461,0.0812 -0.29211,0.0154 -0.32812,-0.1289 l -2.23633,-9.07227 c -0.0225,-0.0862 -0.0693,-0.10324 -0.13867,-0.0508 l -10.09766,7.32813 c -0.0599,0.045 -0.0749,0.1006 -0.0449,0.16992 l 25.72656,59.94726 c 0.0622,0.14417 0.20149,0.23934 0.35742,0.24415 l 0.62891,0.0273 c 0.16301,0.006 0.22489,-0.0692 0.18555,-0.22656 l -6.99219,-28.38867 c -0.0581,-0.23795 0.0358,-0.35954 0.28125,-0.36329 l 1.32031,-0.0215 c 0.23045,-0.006 0.3734,0.1033 0.42774,0.32813 l 7.00586,28.41015 c 0.0337,0.13678 0.11689,0.22847 0.24804,0.27344 l 0.11719,0.0391 c 0.11804,0.0412 0.17132,5.6e-4 0.1582,-0.12305 l -3.02741,-28.60741 c -0.0225,-0.20609 0.0714,-0.31062 0.28125,-0.3125 l 1.41406,-0.006 c 0.18736,0 0.28986,0.0938 0.3086,0.27929 l 3.00781,28.51953 c 0.0112,0.11804 0.0753,0.17782 0.19336,0.17969 l 1.42969,0.0117 c 0.0731,0.002 0.1136,-0.0323 0.12109,-0.10351 l 3.00391,-28.54297 c 0.0206,-0.19673 0.13147,-0.29907 0.33007,-0.30469 l 1.42383,-0.0449 c 0.18549,-0.006 0.26866,0.084 0.24805,0.26758 l -3.01563,28.59373 c -0.006,0.0594 0.0357,0.11361 0.0957,0.125 l 0.0859,0.0176 c 0.17611,0.0319 0.28495,-0.0386 0.32617,-0.21094 2.36635,-9.56614 4.72634,-19.13385 7.08789,-28.70117 -1.39493,-1.01488 -1.4227,-0.47809 0,0 0.40095,-0.12366 0.75953,-0.12992 1.07617,-0.0156 0.10492,0.0375 0.14537,0.11001 0.11914,0.2168 L 1.2786,170.78881 c -0.0244,0.11054 0.0204,0.1704 0.13281,0.18164 0.27542,0.0309 0.53852,0.004 0.84766,0.0351 0.2417,0.0225 0.4017,-0.0543 0.47852,-0.23047 4.50036,-10.46773 8.99322,-20.94078 13.48047,-31.41601 3.93463,-8.34713 8.17187,-19.02734 12.25781,-28.54102 0.0393,-0.0918 0.0181,-0.16856 -0.0625,-0.22851 l -10.12109,-7.34375 c -0.0525,-0.0974 -0.12296,-0.16996 -0.2129,-0.2168 -0.0881,-0.045 -0.14564,-0.0194 -0.17187,0.0762 -0.83749,3.09517 -1.66358,6.18983 -2.48047,9.28125 -0.045,0.17425 -0.13455,0.25108 -0.26758,0.23047 l -0.91992,-0.6914 c -0.0954,-0.0697 -0.13867,-0.19109 -0.10937,-0.30665 l 3.74609,-15.1992 c 0.0171,-0.068 -0.008,-0.13925 -0.0644,-0.17969 L 8.23959,89.31224 7.78451,88.92161 c -0.0675,-0.0581 -0.10586,-0.0431 -0.11523,0.0449 -0.60517,5.61702 -1.19645,11.24519 -1.77539,16.88282 -0.009,0.10117 -0.0861,0.15039 -0.22852,0.15039 l -1.53906,-1.09571 c -0.0843,-0.0599 -0.12062,-0.14109 -0.10938,-0.24414 L 7.42904,72.33565 c 0.0112,-0.10117 -0.025,-0.18223 -0.10742,-0.24218 L -3.60221,64.1755 c -0.0487,-0.0768 -0.1106,-0.11962 -0.18554,-0.13086 z m 5.10547,50.66601 c 0.17271,-0.001 0.31367,0.13783 0.31445,0.31055 l 0.0312,22.66016 c 2.8e-4,0.17348 -0.14098,0.31389 -0.31446,0.3125 l -1.90429,-0.0117 c -0.17119,-8.5e-4 -0.30978,-0.13936 -0.31055,-0.31055 l -0.002,-8.25781 c 2.8e-4,-0.17045 -0.13622,-0.3096 -0.30665,-0.3125 l -4.6289,-0.0762 c -0.175,-0.004 -0.31871,0.13747 -0.31836,0.31251 l 0.0352,8.33593 c 2.9e-4,0.17272 -0.13978,0.31281 -0.3125,0.3125 l -1.91601,0.002 c -0.17271,2.8e-4 -0.3128,-0.13978 -0.3125,-0.3125 v -22.64843 c 8.4e-4,-0.17196 0.14054,-0.31086 0.3125,-0.31055 l 1.80664,0.008 c 0.16892,0.002 0.30573,0.13773 0.30859,0.30664 l 0.13477,11.37305 c 0.003,0.17119 0.14325,0.30804 0.31445,0.30664 l 4.58399,-0.0703 c 0.17042,-0.003 0.30696,-0.14206 0.30664,-0.3125 l -0.006,-11.29102 c -2.8e-4,-0.17195 0.13859,-0.31172 0.31054,-0.3125 z m -14.00586,0.002 c 0.30914,0 0.465,0.15375 0.46875,0.46289 l 0.0137,1.52344 c 0.002,0.30727 -0.45508,0.46094 -0.45508,0.46094 l -3.45117,-0.002 c 0,0 -0.13086,0.0429 -0.13086,0.13281 l -0.0156,20.61133 c 1.10945,0.57085 1.30224,0.55877 0,0 l -2.31836,0.0723 c -0.0899,-0.0244 -0.13476,-0.14806 -0.13476,-0.36914 0.004,-6.76179 0.004,-13.52337 -0.002,-20.28516 0,-0.0956 -0.14063,-0.1543 -0.14063,-0.1543 0,0 -1.92108,0.0354 -3.68554,0.006 -0.1555,-0.003 -0.23454,-0.0808 -0.23828,-0.23633 l -0.0449,-1.96094 c -0.004,-0.17237 0.0796,-0.25781 0.25195,-0.25781 z m 27.96875,0.0273 c 0.0727,5.6e-4 0.13126,0.0601 0.13085,0.13281 l -0.0234,2.15039 c 0,0.0862 -0.0447,0.12899 -0.13087,0.13086 -2.19209,0.0534 -4.4602,-0.18529 -6.69726,0.0508 -0.10305,0.0112 -0.1543,0.0709 -0.1543,0.17578 l 0.0371,9.11133 c 0.002,0.10492 0.0552,0.15617 0.16016,0.15429 l 4,-0.0371 c 0.1986,-0.002 0.29687,0.0984 0.29687,0.29883 l 0.004,1.92382 c 0.002,0.15932 -0.12779,0.28895 -0.28711,0.28711 l -4.01172,-0.0234 c -0.0874,4e-5 -0.1586,0.0713 -0.16015,0.16016 l -0.008,6.03125 c -0.002,0.16862 0.0814,0.25391 0.25,0.25391 l 6.54102,-0.006 c 0.10084,5.6e-4 0.18215,0.0828 0.18164,0.1836 l -0.0137,2.08203 c -5.6e-4,0.1037 -0.0834,0.18753 -0.18555,0.1875 l -9.18749,-0.0117 c -0.0169,-6.44141 -0.019,-12.87007 -0.006,-19.28711 0,-0.93586 -0.20859,-2.57094 0.008,-3.91993 z m 11.69531,4.68359 c -0.0375,0.0122 -0.0684,0.0473 -0.0918,0.10351 L 4.89584,170.88071 c -0.0162,0.0383 0.0112,0.0809 0.0527,0.082 l 1.91211,0.0137 c 0.10323,-10e-5 0.19958,-0.0505 0.25782,-0.13477 10.01102,-14.63117 20.02788,-29.25833 30.04297,-43.88672 0.0392,-0.0586 0.0255,-0.13774 -0.0313,-0.17968 l -9.87695,-7.16409 c -0.045,-0.0731 -0.0939,-0.1244 -0.14453,-0.15625 -0.0515,-0.0319 -0.0953,-0.0434 -0.13281,-0.0312 z m -61.5918,0.0117 c -0.0262,-0.007 -0.0541,-0.002 -0.0762,0.0137 l -10.13086,7.34765 c -0.0397,0.0293 -0.0484,0.085 -0.0195,0.125 l 30.11719,43.99414 c 0.0164,0.0239 0.0433,0.0384 0.0723,0.0391 l 2,0.0195 c 0.0657,0.002 0.11163,-0.0644 0.0859,-0.125 l -21.98828,-51.36524 c -0.0118,-0.0246 -0.034,-0.0426 -0.0606,-0.0488 z"
       sodipodi:nodetypes="ccccccccccccccccccccccccccccccccccccccccccccccccccccccccccccccccccccccccccccccccccccccccccccccccccccccccccccccccscsccccccccccccccccccccccccccccccccccccccsccccccccccsc"
       style="fill:#5a15e2;fill-opacity:1;stroke-width:0.281039" />
    <path
       id="path48976-6"
       d="m -161.9874,323.91428 c -18.72019,0.11419 -36.93137,10.83275 -46.94335,26.42774 -13.85238,21.57531 -12.04671,49.47736 4.77343,68.88867 9.90379,11.42983 23.02254,18.45419 38.20704,19.85938 4.4329,0.41031 8.87233,0.43371 13.31835,0.0684 0.0412,-0.004 0.0669,-0.025 0.0781,-0.0625 0.0337,-0.0993 0.0337,-0.1058 0,-0.0215 l 0.0566,-44.02734 c 2.6e-4,-0.0698 -0.0548,-0.12661 -0.12305,-0.12695 l -27.54492,0.002 c -0.0993,0 -0.14617,0.0511 -0.13867,0.15039 0.002,0.0262 0.008,0.054 0.0195,0.084 l -0.002,10.41211 c -1.9e-4,0.081 0.0655,0.14667 0.14649,0.14648 l 16.31445,0.0215 c 0.17854,5.7e-4 0.32283,0.14569 0.32227,0.32422 l 0.004,22.24414 c 0,0.0319 -0.0128,0.0575 -0.0371,0.0781 -0.0281,0.0262 -0.0452,0.0646 -0.0508,0.11328 -9.05505,-0.46933 -17.87939,-3.94939 -24.95312,-9.35937 -10.14736,-7.76228 -16.23864,-18.04559 -18.27149,-30.85157 -1.6525,-10.4134 0.13175,-20.17146 5.35157,-29.27148 3.77153,-6.57255 8.66766,-12.0109 14.6875,-16.31641 5.95801,-4.0151 12.48488,-6.55494 19.58203,-7.61914 3.03521,-0.45247 5.92015,-0.59629 9.53711,-0.74805 0.0993,-0.004 0.15704,-0.053 0.17578,-0.15039 -0.0737,-3.26169 -0.0499,-6.67048 -0.0566,-9.98633 0,-0.0993 -0.0471,-0.15046 -0.14453,-0.15234 -1.47674,-0.0392 -3.03052,-0.13294 -4.3086,-0.12695 z"
       sodipodi:nodetypes="cccsccccccccccccccccccccccccc"
       style="fill:#5a15e2;fill-opacity:1;stroke-width:0.281039" />
    <path
       id="path48984-7"
       d="m -103.23385,323.89459 c -0.12607,0.0344 -0.2617,0.0496 -0.34961,0.16016 0,0 -16.91977,47.5597 -25.27538,70.8418 l -10.73829,0.0391 c -0.0294,3.53641 0.0332,7.23055 -0.0156,10.64648 0.03,0.0918 0.094,0.13868 0.1914,0.13868 l 6.69922,0.0605 -11.75586,33.01758 c -0.0693,0.0918 -0.11634,0.21997 -0.14257,0.38672 -0.0112,0.0787 0.023,0.11914 0.10351,0.11914 l 11.29688,0.004 c 0.10679,0 0.17924,-0.0491 0.21484,-0.14844 l 11.63477,-33.11719 c 0.0674,-0.19041 0.24724,-0.31786 0.44922,-0.31836 l 39.11133,-0.002 c 0.13114,0 0.22065,0.0619 0.26561,0.18554 l 11.91602,33.26563 c 0.0281,0.0806 0.0858,0.12312 0.17382,0.125 3.76626,0.0168 7.53269,0.019 11.3008,0.008 0.0392,-0.0155 0.0273,-0.012 0.0762,-0.0312 0.0225,-0.009 0.0291,-0.0244 0.0214,-0.0469 l -11.89064,-33.24218 c -0.0637,-0.17612 -0.003,-0.26367 0.18554,-0.26367 l 6.38478,0.002 c 0.0975,2.8e-4 0.17703,-0.0782 0.17773,-0.17578 l -0.0174,-10.49805 c 0,-0.0974 -0.047,-0.15728 -0.14063,-0.18164 -0.0693,-0.0169 -0.13552,-0.002 -0.19923,0.0449 l -10.35547,-0.0117 c -8.18197,-22.87084 -16.37343,-45.75949 -24.57226,-68.66406 -0.3185,-0.89182 -1.32524,-2.33763 -1.32524,-2.33763 z m 45.08009,115.41211 c -0.33851,0.13436 -0.36746,0.15277 0.0253,0.0117 0.0149,-0.007 0.0129,-0.0117 -0.004,-0.0117 -0.007,2e-5 -0.0143,-2e-5 -0.0214,0 z m -43.29493,-89.13672 c 0.0261,-0.009 0.0561,0.044 0.0899,0.16016 l 15.76366,44.21289 c 0.0624,0.17682 -0.0663,0.36241 -0.25195,0.36328 h -31.60351 c 5.04557,-14.8257 10.28534,-29.64859 15.71875,-44.46679 0.0653,-0.17924 0.21485,-0.40643 0.2832,-0.26954 z"
       sodipodi:nodetypes="ccccccccccccccccccccccccccccccccccscccccccc"
       style="fill:#5a15e2;fill-opacity:1;stroke-width:0.281039" />
    <path
       id="path48996-5"
       d="m -1.3964,324.27001 -64.83009,0.0547 v 0 l -0.28905,0.18359 0.0898,10.33399 0.13476,0.14258 27.59447,0.004 1.04071,104.31057 9.22811,0.1167 -0.006,-104.23242 0.21485,-0.2129 h 26.84179 c 0.11652,8e-5 0.21101,-0.0944 0.21092,-0.21093 l 0.006,-10.25586 c 0,-0.12982 -0.10652,-0.23452 -0.23633,-0.23438 z"
       sodipodi:nodetypes="cccccccccccccscc"
       style="fill:#5a15e2;fill-opacity:1;stroke-width:0.281039" />
    <path
       id="path49064"
       d="m 24.64772,324.1697 c -13.04298,0.0675 -24.03125,10.90164 -22.78906,24.27343 0.61829,8.22601 6.4803,14.32587 13.10156,18.64257 5.11115,3.04084 10.27823,6.00116 15.49805,8.88089 8.91453,4.92093 17.70546,12.17892 19.04883,22.72069 0.5246,4.11253 0.15326,8.17629 -1.11328,12.19141 -3.79121,10.71876 -14.13353,18.31876 -25.56055,17.79883 -5.10553,-0.23421 -9.87796,-1.85626 -14.31836,-4.86526 -5.0362,-3.71808 -8.28232,-8.93841 -9.91797,-14.9414 -0.38783,-1.42767 -0.75706,-2.85341 -1.10742,-4.27732 -0.009,-0.0442 -0.0539,-0.0723 -0.0996,-0.0625 l -9.9707,1.93945 c -0.0899,0.0188 -0.12624,0.0721 -0.10938,0.16017 0.30071,1.76492 0.54171,3.66089 0.94922,5.26562 1.30776,5.14672 3.61702,9.80598 6.92578,13.97654 15.54704,19.16966 45.61979,17.75027 59.23047,-2.74021 3.73406,-5.68261 5.75515,-11.95966 6.06056,-18.83008 0.28666,-6.42174 -0.85239,-12.74677 -4.00001,-18.39846 -2.50312,-4.49656 -5.72814,-8.41728 -9.67578,-11.75976 0.21873,1.18967 0.17824,0.93232 0,0 -3.02398,-2.54621 -5.91599,-4.59304 -8.67578,-6.14061 -4.60529,-2.58182 -9.20057,-5.17722 -13.78711,-7.78711 -4.32523,-2.95349 -8.9085,-5.52778 -11.0293,-10.0547 -2.68392,-7.66393 3.28317,-15.08113 11.01172,-15.24413 4.67647,-0.0984 8.80242,2.36968 10.98046,6.52344 0.76443,1.45859 1.28735,3.55163 1.91407,5.29688 0.0337,0.0918 0.0977,0.1281 0.1914,0.10935 l 10.13086,-1.87498 c 0.0881,-0.0169 0.12429,-0.0682 0.10743,-0.15625 -0.71946,-3.66475 -1.37287,-6.73938 -3.30079,-9.84766 -4.387,-6.91636 -11.69696,-10.83818 -19.69531,-10.79883 z"
       sodipodi:nodetypes="ccccccccccccccccccccccccccccccc"
       style="fill:#5a15e2;fill-opacity:1;stroke-width:0.281039" />
    <path
       id="path49048"
       d="m 71.85089,323.84186 c 0.31814,13.52966 0.007,27.47557 -0.10351,36.55469 -2.49604,0.0261 -5.01617,0.0507 -7.5039,0.0782 -0.0787,0.0245 -0.11719,0.0777 -0.11719,0.16014 l 0.004,10.45118 c 0,0.11236 0.0908,0.20359 0.20314,0.20314 h 7.24023 c 0.13892,0 0.25142,0.11303 0.25195,0.25195 l 0.0312,24.84375 -0.006,42.92578 c 0,0.0578 0.0457,0.1052 0.10351,0.10545 2.39821,-0.009 4.79078,-0.0135 7.17776,-0.0118 12.50617,0.0169 24.36401,-6.08686 31.78906,-16.09178 12.1352,-16.40424 9.66681,-39.14975 -5.2676,-52.82229 -2.84785,-2.55554 -5.9875,-4.66226 -9.41991,-6.32225 -0.12928,-0.0824 -0.13358,-0.189 -0.0138,-0.31642 11.76704,-12.5146 7.23944,-32.78555 -8.99611,-38.82225 -6.17673,-1.16825 -8.57953,-1.23849 -15.37305,-1.1875 z m 10.72461,11.32227 c 0.66418,0.25581 1.36433,0.5351 2.04299,0.80078 7.36316,3.75186 9.49989,12.7472 4.39061,19.30665 -3.18839,2.9889 -4.28919,3.5844 -6.69407,4.45376 0.0732,-9.17215 -0.29042,-15.383 0.10823,-24.55533 0.0523,-0.0196 0.1091,-0.004 0.15224,-0.006 z m -0.30858,36.34962 c 20.15327,2.65862 31.64225,24.11119 21.67383,42.21287 -4.63152,8.0349 -12.42552,13.2892 -21.66602,14.3965 l -0.008,-56.60937 c 0,0 -0.0829,-1.48071 6e-5,0 z"
       sodipodi:nodetypes="ccccccccccccccccccccccccccccccc"
       style="fill:#5a15e2;fill-opacity:1;stroke-width:0.281039" />
  </g>
</svg>
