<svg xmlns="http://www.w3.org/2000/svg" viewBox="0 0 182.563 297">
  <path d="M117.38 14.328a10.87 10.87 0 0 1 1.466 3.7c.037.19.092.378.164.562.266.68.163 1.747.161 2.48-.002 1.194.095 2.824-.132 4.282-.033.212-.219.363-.23.593a117.278 117.278 0 0 0-.118 4.717l.093 3.766c-.161 1.095-.277 2.815.255 3.838.142.275.283.552.42.831.015.203-.035.315-.15.335-.03.005-.046.022-.047.053 0 .019-.003.039-.004.06 0 .006-.003.011-.008.017-2.648 2.73-5.51 4.954-8.82 7.633a34.084 34.084 0 0 1-2.001 1.51c-.841.578-1.26 1.08-1.598 1.973-.248.651.304 1.705 1.123 1.296.42-.21.969-.755 1.434-1.007a5.05 5.05 0 0 1 1.91-.585c1.623-.165 1.84 1.387 1.714 2.619-.112 1.098-.25 2.193-.35 3.293a6.417 6.417 0 0 1-.789 2.563c-.352.63-1.856.432-2.307-.056a13.285 13.285 0 0 0-1.796-1.65c-.5-.374-1.366.294-1.974.24-.618-.056-1.033-.496-1.612-.638-1.03-.251-1.385.295-2.187.628-.352.145-.71.227-.998.484-.866.775-1.069 1.833-1.408 2.838-.186.55-.336 1.129-.45 1.734-.183.986-.422 1.95-.501 2.927a69.82 69.82 0 0 0-.205 3.958c-.022.882.178 1.751.178 2.586 0 1.659.35 3.216.496 4.84.137 1.538.546 3.016.775 4.5.226 1.459.61 2.94.887 4.34.242 1.216.628 2.382.775 3.63.126 1.061.469 2.088.624 3.16.218 1.516.42 2.55.637 3.833.256 1.52.166 3.121.211 4.675.02.71.01 1.526-.03 2.448-.055 1.354.096 2.536-.222 3.906a.913.913 0 0 0 .066.612c.027.057.072.09.134.099.792.102 1.12-.105 1.716-.41.606-.31 1.29-.408 1.932-.67a23.677 23.677 0 0 1 2.72-.925c1.088-.293 2.156-.777 3.147-1.112.483-.164.95-.333 1.397-.506a.464.464 0 0 0 .297-.467 40.449 40.449 0 0 1-.093-2.187c-.113-7.281-.112-12.15.002-14.605.113-2.461.235-4.034.364-4.719.27-1.43.36-2.77.44-4.213.056-1.066.722-2.9.703-4.553-.014-1.23.544-2.2.627-3.03.148-1.505.584-3.144.822-4.436.17-.917.378-1.826.622-2.728.15-.556.213-1.22.345-1.68.459-1.588.732-2.897 1.164-4.288.22-.711.337-1.46.627-2.141.154-.355.29-.649.353-1.052.124-.806.513-1.412.692-2.199.166-.726.571-1.348.775-2.012.164-.534.362-1.054.594-1.56.188-.409.211-.77.293-1.197a.605.605 0 0 1 .34-.454c.675-.333 1.101.132 1.638.452 1.305.53 2.537 1.303 3.696 2.317a9.98 9.98 0 0 0 2.296 1.45c1.62.75 3.493 1.56 5.621 2.432l3.234 1.486 5.133 2.334c.168.104.338.202.51.297.585.317 1.122.786 1.66 1.176a5.19 5.19 0 0 1 1.608 1.871c.244.477.242 1.027.322 1.563.135.901.073 1.775.08 2.672.003.935-.115 2.175.038 3.297.099 1.335.343 2.735.45 3.975.18 2.091.458 4.706.832 7.846.271 2.272.188 4.913.48 7.46.227 1.965.163 3.95.183 5.924.016 1.77-.248 3.6-.364 5.277a28.136 28.136 0 0 1-.837 5.119 24.142 24.142 0 0 1-.984 3.593c-.56 1.924-1.217 3.394-3.125 4.175-1.187-.09-2.188.121-3.003.632-1.143.714-1.92 1.565-2.879 2.266-.44.324-.829.719-1.294 1.03-.382.258-.695.49-.937.7a7.325 7.325 0 0 1-.948.703c-.67.368-1.596 1.058-1.065 1.881.254.397.502.727.662 1.19.254.728.684 1.482.938 2.082 1.116 2.643 2.257 5.328 3.611 7.86.554 1.06 1.054 2.038 1.41 3.223.266.878.682 1.862.83 2.755.033.205.067.388.102.548.173.597.43 1.166.558 1.713.076.324.141.631.196.922l1.598 5.893c.728 2.172 1.038 4.473 1.505 6.699.242 1.149.287 2.278.496 3.433.072.395.122.793.147 1.195.058.92.312 1.796.349 2.726a7.56 7.56 0 0 0 .312 2.02l.155 1.428.535 3.338.594 2.606a6.92 6.92 0 0 0 .401 1.553 979.838 979.838 0 0 1 1.56 3.848l1.065 2.886 2.176 6.25 1.658 4.544c.379 1.04.771 2.067 1.178 3.082.322.803.546 1.719.848 2.565.183.514.113 1.11.432 1.643.568.953.508 2.172.764 3.125.222.825.401 1.607.538 2.346l.206 3.04c-.012.538-.014 1.08-.005 1.623.005.544.25.994.242 1.561-.13.133-.21.245-.24.335-.616.3-.901-.321-1.192-.722-.385-.576-.748-1.2-1.133-1.736-1.226-1.7-2.56-3.328-3.716-5.08-1.222-1.855-2.543-3.395-3.868-5.061a1.794 1.794 0 0 0-.756-.553.367.367 0 0 0-.478.206c-.12.3.065.645.127.875a11.495 11.495 0 0 0 1.262 2.96c.519.863.848 1.758 1.352 2.6.459 1.01 1.038 1.885 1.563 2.867.672 1.256 1.573 2.408 2.358 3.606 1.74 2.474 2.89 4.839 4.099 7.718l1.118 3.471c.441 1.021.529 1.97.842 2.949.306.953.51 1.65.603 2.66l.602 2.423c.035.972-.023 1.968.363 2.854.138.317.226.62.263.908.145 1.133.252 2.232.587 3.36.343 1.154.233 2.216.517 3.33.438 1.71.605 3.465.94 5.197.3 1.56.486 3.098.757 4.646.225 1.276.448 3.107.812 4.64.077.322.199.907.364 1.752.155.79.42 1.556.57 2.329.163.84.38 1.655.65 2.443.05.578.15 1.054.299 1.426.417 1.04.695 1.934.833 2.683a29.81 29.81 0 0 0 1.376 3.312c.37.752.722 1.649 1.16 2.443.188.355.227.722.114 1.099-.275.93-1.557.839-2.034 1.588-.508.8.306 1.655.798 2.184 2.64 3.272 6.232 7.48 4.19 11.555-.451.901-.912 1.893-1.454 2.66-.584.823-1.254 1.926-2.441 1.747l-2.897-.141-3.161-.106c-.904-.268-1.925-.352-3.063-.254l-.684-.2c-.525-.896-.856-1.917-.992-3.063l-.649-2.826-1.336-7.794a.284.284 0 0 0-.09-.16c-.366-.334-.865-.417-1.57-.498a.646.646 0 0 1-.369-.167.297.297 0 0 0-.145-.072l-1.897-.37c-.281-.21-.46-.457-.538-.74-.388-1.42-.866-2.844-.992-4.314-.027-.506-.075-.858-.143-1.056a15.193 15.193 0 0 1-.6-2.193c-.063-1.183-.293-1.741-.582-2.675-.081-.262-.141-.645-.18-1.149a5.962 5.962 0 0 0-.531-1.997l-.4-2.238a930.52 930.52 0 0 1-2.027-7.977c-.504-2.025-1.428-3.572-2.172-5.32l-2.379-5.052-2.214-5.267a47.923 47.923 0 0 1-1.263-3.553 48.965 48.965 0 0 0-.657-1.957c-.184-.515-.283-.984-.378-1.501-.06-.32-.248-.585-.327-.919a.125.125 0 0 0-.112-.102c-.11-.016-.162-.096-.157-.243.033-1.05-.384-1.927-.676-2.903l-.969-3.238c-.962-3.38-1.67-5.74-2.125-7.082-.42-1.24-1.145-2.577-1.978-3.782-2.567-3.708-5.132-7.175-7.538-11.164a16.61 16.61 0 0 1-.682-1.218c-.914-1.87-1.848-3.73-2.801-5.58a57.532 57.532 0 0 1-.36-.709l-1.486-2.853c-.942-1.57-1.873-3.124-2.794-4.665-.616-1.03-1.22-.136-1.655.536-.343.531-.865 1.214-1.565 2.05-.33.394-.606.844-.827 1.35a22.092 22.092 0 0 0-.932 3.234c-.292 1.427-.726 2.772-.872 4.143-.077.738-.298 1.428-.414 2.166a28.217 28.217 0 0 1-.537 4.624c-.226.965-.242 1.936-.538 2.862-.17.527-.325 1.057-.467 1.592-.349 1.31-.779 2.427-1.246 3.654l-.74 1.733-2.406 5.67c-.703 1.235.244 3.098.608 4.344a886.61 886.61 0 0 0 2.191 7.404l.99 3.361c.452 1.678 1.128 3.373 1.43 5.08l.83 3.309 1.502 5.73.93 2.879.57 2.07c.385 1.023.593 2.099.93 3.096.124.365.236.733.337 1.105.205.765.587 1.532.74 2.367.098.537.2.965.308 1.284.339 1.002.59 2.07.914 3.022a69.389 69.389 0 0 1 1.22 4.012c.03.106.081.222.158.347.313.52.056 1.017.54 1.571.052.27.178.534.378.793l.294.6c.562 1.004 1.014 1.718 1.356 2.143 1.914 2.383 3.644 4.806 5.206 7.435l.62 1.011.674 1.064 1.013 1.518c.518.771 1.121 1.398 1.81 1.881l2 1.546c1.213.797 2.257 1.335 3.133 1.612.405.13.986.217 1.503.382.587.186 1.189.327 1.806.422.466.274.815.606 1.046.998.324.761 1.33 2.578-.012 2.822-.593.016-1.124-.164-1.7-.118-2.434.192-4.108.053-6.195-.023-1.784-.064-3.99.169-5.804-.08-.466-.063-.998-.349-1.596-.857l-1.922-1.548-1-.713a29.503 29.503 0 0 0-3.126-2.53 7.176 7.176 0 0 0-.947-.494c-.895-.327-1.616-.133-2.162.583-.372.488-.297 1.052-.182 1.617l.269 1.75c-.062.691.438 1.71-.484 2.129-.758.232-2.612.546-3.14-.225-.504-.732-.4-1.817-.562-2.67-.247-1.3-.826-2.754-1.407-3.893-.321-.634-.916-1.271-1.24-1.839-1.08-1.89-1.958-5.035-.91-7.104.277-.546.548-1.053.635-1.668.21-1.46.159-2.815-.155-4.064-.545-2.175-1.4-4.538-2.563-7.09-.505-1.023-.984-2.102-1.548-3.055-.722-1.217-1.402-2.32-2.315-3.522a48.806 48.806 0 0 1-1.668-2.336c-.188-.28-.392-.442-.612-.485-.279-.053-.554.005-.827.175a.374.374 0 0 0-.176.337l.048 1.009a.35.35 0 0 0 .047.16c.183.324.275.561.275.714a76.722 76.722 0 0 0 .062 3.36c.017.429.137.834.219 1.256.055.29.083.606.083.945.001 1.666.004 3.332.008 4.997.001.157.04.332.114.523.02.051.059.072.114.062a.127.127 0 0 1 .113.029c.032.027.048.075.048.143.004 1.71.01 3.402.018 5.076l-.022 4.444c-.058-.003-.083-.053-.075-.15.001-.019-.006-.022-.022-.008a.126.126 0 0 1-.083.03c-.058-.003-.089.026-.093.084-.143 2.175-.106 4.34-.135 6.519-.016 1.115-.194 2.198-.351 3.29-.147.567-.169 1.316-.715 1.653l-.077.031a.233.233 0 0 1-.175.002 7.428 7.428 0 0 1-1.91-1.046.303.303 0 0 0-.2-.064c-.94.031-.875 1.552-.765 2.139.097.515.03.76-.253 1.15a.26.26 0 0 0-.049.175c.069.717.037 1.196-.095 1.437-.19.35-.438.975-.914.957-1.228-.046-2.406.043-3.671-.04-.84-.056-1.657.037-2.482-.026-1.065-.08-2.177.043-3.256.016-1.659-.038-2.658.446-2.833-1.782-.297-.763-.765-1.087-1.404-.972-1.428.253-2.224 2.342-3.663 2.37-1.548.034-3.17-.077-4.625-.042-1.546.036-2.548.038-3.008.005a166.006 166.006 0 0 0-10.17-.4 10.505 10.505 0 0 1-1.122-.07 14.055 14.055 0 0 0-2.947-.128c-.959.058-.812-1.048-.478-1.568.19-.295.346-.608.465-.937l.062-.116c.712-1.109 1.565-1.566 2.841-1.523l5.49-.544c1.835-.332 3.823-1.469 5.326-2.558.835-.5 1.562-1.048 2.472-1.437.49-.21.44-1.358.678-1.835.358-.724.88-1.214 1.11-2.005.153-.523.562-1.139.589-1.65l.767-2.728c.071-.971.3-1.912.688-2.822l.556-3.516.932-5.531.345-2.722c-.002-.4.073-1.294.222-2.681.05-.456.07-1.285.06-2.486-.02-3.063-.908-6.001-1.005-9.039-.027-.84-.048-1.68-.062-2.52-.054-3.251-.368-6.296-.176-9.739.03-.562-.037-1.083-.084-1.637-.056-.676.146-1.176.196-1.815.127-1.652.395-3.28.804-4.884.112-.436.174-.978.035-1.338-.198-.518-1.378-.17-1.641.03-.355.276-.65.555-1.062.739a23.65 23.65 0 0 1-1.836.726c-.961.025-1.825.293-2.79.229-1.026 0-2.056-.157-3.09-.471a2.677 2.677 0 0 0-.937-.38l-1.75-.976a21.995 21.995 0 0 1-4.006-3.51c-.44-.491-.882-.982-1.325-1.473l-.252-.31-2.051-2.493a103.644 103.644 0 0 0-1.79-2.416c-.31-.406-.653-1.024-1.008-1.515a61.917 61.917 0 0 1-1.298-1.87c-.833-1.25-1.826-2.517-2.679-3.829l-1.172-1.807a93.07 93.07 0 0 1-3.777-6.157c-1.541-2.168-2.722-4.029-3.544-5.581-.662-1.25-1.223-2.224-1.683-2.921l-3.724-5.704c-1.455-2.482-3.11-4.708-4.963-6.677-3.28-3.485-7.076-6.835-9.734-10.89a26.432 26.432 0 0 0-1.655-2.282 21.13 21.13 0 0 0-1.925-2.051c-.974-.906-1.976-1.597-3.007-2.073-.387-.18-1.27-.46-2.648-.843l-3.202-.74c-1.29-.546-1.184-1.702-1.724-2.76a.18.18 0 0 1 .029-.206c.5-.53 1.16-.868 1.984-1.017l1.257-.329 7.338-1.898c1.046-.103 2.02-.434 3.076-.146.712.271 1.238.55 1.58.837 1.039.873 2.507 2.232 4.403 4.076.658.64 1.569 1.168 2.731 1.58 1.075.383 1.82-.16 1.94-1.254.104-.932-.464-1.393-.574-2.228-.125-.934-.24-1.866-.345-2.796.56-.241.926-.37 1.097-.387 1.108-.107 1.981-.35 2.69.43l.659 2.712c.347 1.09.803 2.155 1.368 3.195l1.49 1.94.598.845c1.34 1.908 1.833 3.917 1.476 6.027-.164.969-.262 1.63-.294 1.986-.144 1.077-.246 3.076.36 4.016.85 1.319 1.815 2.466 2.797 3.696l.65.76 1.708 2.002a40.379 40.379 0 0 0 4.496 4.42l.192.164c.228.338.507.617.84.835.615.53 1.096 1.027 1.816 1.511.283.189.632.44 1.046.754 1.486 1.123 3.287 2.264 5.405 3.42.664.362 1.314.757 1.95 1.184 1.288.957 2.46 2.128 3.513 3.513.496.652 1.494.794 1.548-.316.023-.48.036-.958.039-1.438.002-.466.114-1.108.1-1.666-.056-2.117.239-4.273.336-6.389.186-.927.29-1.867.315-2.82.014-.531.262-1.106.136-1.703-.086-.407-.129-.688-.128-.843a45.2 45.2 0 0 1 .047-1.85l.292-4.428.144-1.14.166-2.857c.004-.504 0-1.023-.013-1.557a5.671 5.671 0 0 0-.213-1.386 55.504 55.504 0 0 1-.363-1.36l-.155-1.615a7.85 7.85 0 0 0-.327-1.707c-.188-.622-.1-1.317-.192-1.949-.349-2.412-.846-4.957-.566-7.396a24.391 24.391 0 0 1 1.473-6.455l.538-1.32.403-.871 1.91-3.54a47.615 47.615 0 0 1 3.772-5.346c.38-.465.942-.85.306-1.494-.697-.707-1.362-1.445-1.798-2.348-.35-.728-.445-1.666-.54-2.491l-.126-.711c-.184-.886-.812-1.004-1.056-1.73-.3-.891.734-3.121-.362-3.658a.25.25 0 0 0-.192-.016c-.25.08-.519.224-.804.432-1.235.9-4.1 2.954-8.596 6.165a87.211 87.211 0 0 1-3.351 2.29c-1.071.691-2.172 1.51-3.1 2.057a99.882 99.882 0 0 1-7.057 3.79l-1.207.526-2.042.895c-.545.182-.913.29-1.104.325-.545.103-1.13-.01-1.755-.337-1.062-.852-1.78-1.888-1.908-3.235-.184-1.914.073-3.878.172-5.796.027-.515.11-1.171.25-1.968.165-.942.247-1.893.244-2.854l.217-2.067.934-8.541.705-6.916c.188-1.214.378-2.42.57-3.617.122-.761.071-1.604.294-2.356.137-.466.265-.931.385-1.396a22.91 22.91 0 0 1 .669-3.346c.197-.709.263-1.399.49-2.135.641-2.069 1.075-4.157 1.935-6.348.525-1.445 1.248-2.964 2.284-4.14a37.833 37.833 0 0 1 2.046-2.148c1.414-1.372 3.278-2.631 4.91-3.952.489-.396.892-.94 1.4-1.38.362-.316.889.122 1.073.448a8.47 8.47 0 0 0 1.304 1.75c3.208 3.312 7.574 5.762 9.289 10.224.141.364.116.963.298 1.441.333.864.475 1.813.854 2.64.297.646.345 1.107.496 1.69.144.556.485 1.075.719 1.63.416.987 1.186 1.919 1.802 2.796.918 1.31 2.06 2.459 3.56 2.906.545.163.948.353 1.535.343.414-.005.745.049 1.144-.108.618-.243 1.153-.322 1.643-.83a7.447 7.447 0 0 0 1.571-2.435c.064-.16.124-.467.182-.922.07-.542.37-.932.398-1.445.06-1.133.015-2.206-.276-3.307-.125-.474-.164-.976-.31-1.414a21.546 21.546 0 0 0-1.745-3.917c-1.43-2.51-3.634-4.51-5.031-7.05-.424-.772-.847-1.544-1.269-2.317-.349-.637-.368-1.7-1.08-2.024-.209-.093-.224-.212-.047-.356l.565-.463a.537.537 0 0 1 .634-.035c.465.3.903.548 1.313.742 1.097.515 2.172 1.067 3.264 1.592.379.182.71.147.996-.105 2.542-2.237 4.634-4.207 6.451-6.863a61.1 61.1 0 0 0 .77-1.345c.52-.92 1.047-1.435 1.99-2.08a46.337 46.337 0 0 0 2.542-1.876c.787-.62 1.663-1.152 2.48-1.76a36.642 36.642 0 0 0 6.385-5.115c.451-.452.679-.92.684-1.406.003-.24-.062-.688-.194-1.347-.04-1.042-.325-5.203.915-5.366.199-.026.483.062.852.264.415.226.844.41 1.288.552.744.238 1.037 1.05 1.897.96a.4.4 0 0 0 .345-.294c.277-1.017-1.67-2.793-2.406-3.283-.692-.461-1.856.058-2.643.141-.497.053-1 .131-1.51.234-2.424.492-5.71.359-4.921-3.24.222-1.02-.46-1.423-.967-2.112-.271-.37-.287-.897-.43-1.323-.067-.204-.208-.43-.422-.674-.487-.56-.401-1.308-.483-1.804-.15-.943-1.116-.632-1.724-.498-.89.045-1.5-.359-1.829-1.213.221-.546.417-1.092.587-1.639.13-.409.236-.977.32-1.704a32.8 32.8 0 0 1 .368-2.308c.238-1.245-1.04-2.105-1.385-3.252-.128-.43-.158-1.01-.09-1.742.169-1.774.342-3.548.52-5.32.07-.685-.211-.99-.864-1.206a3.714 3.714 0 0 1-1.067-.554c-1.04-.746-1.3-1.393-1.626-2.617-.14-1.352.686-1.852 1.876-2.352 1.776-.748 3.107-1.275 4.492-2.365a41.208 41.208 0 0 0 2-1.684c.48-.445.972-.877 1.477-1.294.56-.463 1.217-.79 1.85-1.174.706-.426 1.479-.624 2.222-.967 1.026-.218 2.03-.423 3.015-.616.199-.038.465-.14.8-.306a2.515 2.515 0 0 1 1.42-.236.345.345 0 0 1 .176.068c.447.328.999.5 1.655.519 1.565.044 3.163.322 4.657.967.984.423 1.742.826 2.274 1.208 1.78 1.279 3.37 3.068 4.771 5.367zM53.748 104.14l-.245.827a7.011 7.011 0 0 0-.523 2.12l-.67 3.237c-.11.988-.178 1.848-.43 2.847-.205.817-.35 1.643-.432 2.478a12.529 12.529 0 0 1-.285 1.761c-.252 1-.687 2.178-.45 3.168a.18.18 0 0 0 .233.13c.975-.332 1.821-.944 2.736-1.417 1.718-.887 3.2-1.832 4.789-2.78l2.305-1.457 4.533-2.818a.386.386 0 0 0 .147-.492c-.339-.73-.994-1.254-1.666-2.02-.332-.38-.685-.749-1.06-1.105-2.293-2.18-4.544-4.456-6.491-6.955a7.156 7.156 0 0 0-.792-.842c-.05-.046-.098-.045-.146.002-.715.709-1.08 2.059-1.459 2.989a1.625 1.625 0 0 0-.094.327zm39.378 22.703c-.26-.58-.682-1.21-.823-1.816-.206-.873-.638-1.712-.841-2.623-.271-1.207-.659-2.272-.775-3.489-.11-1.158-.419-2.394-.488-3.427a25.278 25.278 0 0 1-.024-3.095.365.365 0 0 0-.486-.365l-2.423.857a.318.318 0 0 0-.211.317c.131 2.217.213 4.497.668 6.678l.426 2.065c.347 1.697 1.077 3.154 1.579 4.888.244.845.544 1.414 1.517 1.09.538-.178 1.5-.426 1.856-.87a.202.202 0 0 0 .025-.21zm23.903-.998c-.515.261-.87.29-1.412.358a4.99 4.99 0 0 0-1.058.26 7.612 7.612 0 0 1-3.167.42c-.45-.033-.882-.044-1.298-.033a.211.211 0 0 0-.147.355c.628.66 1.763 1.658 2.71 1.674.633.01 1.265.027 1.897.05.83.03 1.764-.114 2.663-.07.535.027.942-.163 1.465-.246 1.104-.174 2.123-.52 3.239-.65.856-.104 1.517-.543 2.383-.586a.167.167 0 0 0 .128-.261l-2.313-3.315a.332.332 0 0 0-.471-.076 5.158 5.158 0 0 1-1.947.917c-.583.135-.982.529-1.546.724a9.086 9.086 0 0 0-1.126.479z"/>
  <path d="M41.158 14.638q.833.118 1.682.432c.843.31 2.193.804 3.255 1.363l6.077 3.53c2.454 1.837 4.444 3.555 6.251 5.959 1.397 2.017 2.708 3.764 4.03 6.09l.908 2.01q.006.34.393.608.419.292.841.597.082.058.08.16l-.012.483c-.618.693-.548 1.648-.934 2.487-.585 1.273-1.083 2.584-1.852 3.71-1.584 2.319-3.54 4.663-5.779 6.377-.631.485-1.216.985-1.917 1.378-1.525.856-2.806 1.765-4.592 2.427q-.143.054-.914.448c-.603.31-1.226.236-1.827.432q-.908.296-1.817.362a.395.395 0 0 0-.314.198q-.27.463.229.542c1.178.192 2.262-.314 3.43-.577q.514-.117 1.033-.4c1.023-.553 2.178-.922 3.181-1.52.835-.498 1.664-.92 2.445-1.519.872-.668 1.81-1.24 2.57-1.97 2.486-2.383 5.084-5.333 6.415-8.545.261-.636.542-1.157.691-1.858.119-.566.5-2.838 1.548-1.624l1.65 1.599 1.537 1.776.511.777c.167 1.056-.056 1.86.721 2.772.486.858 1.585 1.376 2.445 1.715q.236.178.798.296.849.686 1.95.816.1.012.173.08.628.58.409 1.334l-.955 1.548c-.707.844.566 1.7 1.102 2.241q.066.066.074.16.029.32-.128.53c-.897.953-.04 1.375.58 1.939q.055.052.07.128.074.368-.063.717a.384.4 50.3 0 0-.023.201q.097.643.391 1.05.666.92.938 1.864.015.664-.454 1.18-.515.51-.77.664-2.521 1.5-5.018 3.036-1.13.693-1.556 1.259-.65.856-.755 1.933c-.262 2.714-.072 5.76 1.383 8.28.25.434.347.829.513 1.284q.035.093.002.188c-.143.426.386 1.265.537 1.72q.277.841.525 1.296 1.135 2.097 1.648 2.877c1.108 1.684 2.887 3.594 3.997 5.392.945 1.528 1.827 3.175 2.117 4.97q.363 2.225.41 3.199c.017.333-.202.785-.233 1.188-.093 1.193-.489 2.59-1.401 3.446-1.463 1.371-3.92.848-5.327-.277-2.013-1.61-2.68-3.262-3.718-5.378-.347-.707-.358-1.445-.703-2.104q-.405-.77-.529-1.625-.072-.483-.248-.905c-.285-.68-.376-1.447-.633-2.047-.59-1.368-1.194-2.29-2.288-3.507-.702-.78-1.33-1.61-2.1-2.294q-1.606-1.423-3.255-2.797-.88-.73-1.54-1.497c-.674-.783-1.383-1.529-1.792-2.352-.157-.314-.23-.409-.07-.765q.521-1.15.603-2.14.1-1.224.048-4.59c-.008-.572-.195-.975-.777-1.062a.196.194 25.5 0 0-.172.06q-.242.258-.331.581c-.328 1.164-1.091 2.445-2.443 2.371-1.88-.1-2.397-2.057-2.778-3.5a.35.355-8 0 0-.345-.262c-.823.013-1.608.419-2.25.436q-1.295.039-2.169-1.09-.467-.471-.459-1.054c.033-.963.074-1.78.42-2.583.258-.596 1.012-.618 1.182-1.232q.112-.407-.157-.709c-.523-.589-1.019-1.14-1.455-1.819-.614-.953-1.648-2.133-1.695-3.293q-.004-.101-.095-.146l-.273-.133q-.102-.05-.132-.161l-.371-1.445q-.411-1.352-.407-2.647.006-2.522.606-4.97c.349-1.42 1.023-2.767 1.734-4.028.918-1.554 2.528-2.788 4.03-3.718q2.841-1.57 5.759-2.851.856-.378 1.736-.674c.495-.167.782-.388 1.013-.826a.3.304 36.8 0 0-.049-.346q-.2-.208-.513-.369-1.414-.724-2.82-1.464c-.299-.157-.648-.182-.965-.358-.51-.281-.789-.328-1.31-.432q-.746-.142-1.736-.735c-.28-.168-.589-.191-.916-.484q-.382-.34-.899-.442-.097-.02-.167-.089-.941-.937.401-1.745c.34-.304.372-1.056-.244-1.157-1.092-.176-1.772-.511-2.752-1.01q-1.014-.491-1.82-1.19c-.964-.961.897-1.65 1.465-2a.318.318 0 0 0-.002-.54c-.835-.514-1.959-.802-2.59-1.068l-2.968-1.247c-.529-.297-2.594-1.693-2.265-2.505q.26-.432.653-.6c.922-.338 1.701-.22 2.652-.221z"/>
  <path fill="#da2631" d="M128.57 75.75c-.22-.023-.965-.16-1.655-.306-1.96-.414-2.63-.498-4.566-.573l-1.806-.071-.031-.342c-.039-.428.214-.967.877-1.867.913-1.237 1.106-1.306 1.957-.7.29.208.603.377.694.377.09 0 .43-.21.754-.466a10.92 10.92 0 0 1 1.264-.834l.674-.37.599.7c1.295 1.516 2.512 3.497 2.616 4.256.025.19-.031.217-.473.227a8.804 8.804 0 0 1-.903-.031zm-15.342 213.985c-.863-.184-1.093-.587-1.274-2.23-.11-.99-.187-1.354-.489-2.285-.482-1.492-.97-2.498-1.708-3.516-.827-1.142-1.366-2.351-1.716-3.851-.15-.641-.171-.853-.174-1.766-.004-1.203.032-1.366.547-2.48.415-.9.496-1.193.586-2.115.04-.412.095-.748.122-.748.187 0 1.15.27 1.303.365.432.27 1.231 1.182 2.746 3.132.463.598 1.051 1.308 1.306 1.578 2.861 3.042 8.455 5.57 14.026 6.34 1.186.163 2.55.26 2.598.182.02-.032.432.25.917.626 1.72 1.335 3.046 2.03 4.65 2.435.412.104.97.252 1.238.33.269.077.695.175.946.219.749.128 1.252.565 1.656 1.439.634 1.372.649 2.097.05 2.346-.156.064-.328.065-.906.006-.551-.057-1.005-.058-1.993-.003-.759.042-1.653.053-2.195.027-.504-.025-2.661-.065-4.794-.09-3.733-.043-3.892-.05-4.277-.176-.48-.157-.797-.373-2.195-1.501a40.55 40.55 0 0 0-1.496-1.161c-.235-.165-.634-.48-.886-.703-1.368-1.205-2.668-2.186-3.327-2.512-1.003-.495-1.778-.443-2.38.16-.506.506-.566.854-.365 2.134.216 1.375.34 2.727.27 2.966-.08.281-.219.469-.424.575-.433.224-1.84.389-2.362.277zM37.942 167.522c-1.154-.439-1.442-.65-3.375-2.477-3.184-3.01-6.402-4.258-11.338-5.382-1.575-.36-6.34-.458-6.945-.143-.116.06-.438-.026-1.051-.396-1.037-.625-2.696-1.182-5.338-1.792-.875-.202-1.777-.514-2.004-.692-.328-.259-1.155-2.02-1.155-2.46 0-.348 1.716-.94 5.872-2.026 5.746-1.5 7.074-1.656 8.381-.985.478.245 1.97 1.481 3.363 2.787 2.737 2.566 4.005 3.38 5.268 3.38 1.32 0 1.732-1.002 1.148-2.793a12.924 12.924 0 0 1-.47-2.326l-.115-1.232.591-.195c.326-.107 1.002-.204 1.504-.215 1.202-.028 1.43.232 1.905 2.172.561 2.295 1.242 3.725 2.685 5.64 1.955 2.595 2.509 3.897 2.509 5.894 0 1.269-.326 3.6-.5 3.573a13.734 13.734 0 0 1-.935-.332zM110.51 59.206a2.294 2.294 0 0 1-.628-.198c-.142-.07-.21-.13-.624-.547a21.419 21.419 0 0 0-.701-.681c-.312-.278-.773-.645-.872-.693-.1-.05-.402-.065-.563-.03a9.257 9.257 0 0 0-.508.151c-.79.253-.912.241-1.716-.16-.606-.303-.804-.363-1.199-.363-.368 0-.592.075-1.098.368a5.56 5.56 0 0 1-.92.436c-.322.12-.46.19-.634.324-.084.064-.143.097-.143.08 0-.02-.039-.035-.119-.044-.32-.038-.532-.198-.647-.489a1.012 1.012 0 0 0-.08-.173c-.01-.007.009-.09.04-.184.106-.332.09-.695-.068-1.554-.067-.358-.098-1.031-.098-2.108 0-1.548.117-2.42.404-3.019.11-.227.299-.415.469-.464.213-.062.47.006.93.247.37.194.754.362 1.112.487.435.152.495.187.923.538.448.367.642.464.966.481.187.01.201.007.41-.076.346-.138.538-.16.887-.1.288.048.9.226.924.267.01.019.074.089.141.155a.639.639 0 0 0 .546.209c.271-.015.37-.074 1.24-.735a3.5 3.5 0 0 1 .687-.437 4.966 4.966 0 0 1 1.525-.474c.652-.094 1.082.01 1.411.343a1.4 1.4 0 0 1 .369.613c.115.339.147.578.145 1.073-.001.375-.017.573-.122 1.51-.066.595-.155 1.415-.197 1.825-.105 1.017-.144 1.252-.295 1.767-.16.55-.466 1.224-.638 1.41-.107.114-.28.2-.497.246-.177.037-.54.037-.762 0z"/>
</svg>
