<svg xmlns="http://www.w3.org/2000/svg" viewBox="0 0 512 512">
  <path d="M128.5 0h187.26c29.16 2.22 49.86 24.56 49.87 53.59q0 .55.52.74 30.45 11 60.93 21.89 21.79 7.78 30.93 27.53 8.15 17.59 2.98 36.4-.69 2.53-1.38 5.15-.13.48.26.8 13.2 11.05 26.36 22.14 13.16 11.1 17.87 25.99c5.31 16.77 1.69 34.62-9.34 48.44a.83.83 0 0 0-.07.95c7.74 13.35 16.15 25.22 17.31 41.26v5.71q-2.71 28.87-26.86 42.8-59.1 34.1-118.19 68.23-1.72.99-2.86 2.79-7.26 11.46-19.03 18.16-2.36 1.35-3.89 3.19-15.04 18.08-19.6 23.29c-3.32 3.8-12.22 11.93-17.68 11.72-5.15-.2-8.63-6.57-6.19-10.86q1-1.76 4.75-4.16c6.25-3.98 10.71-9.55 15.68-16.01q.34-.45-.21-.47-9.09-.44-17.64-3.57-30.1-11.03-60.3-22-.56-.21-.62.39-.95 9.54-3.42 18.81-.14.53.28.89 10.03 8.47 20.13 16.87c6.89 5.72 11.87 8.62 20.07 10.2 7.61 1.47 8.82 11.97 1.38 14.43-4.12 1.36-11.26-1.28-15.23-2.95q-.47-.2-.9.05c-4.36 2.54-9.1 5.42-13.34 7.12q-18.03 7.24-36.88.96a.67.65 29.5 0 0-.69.18Q175.59 509.29 124 512h-8.35C52.25 508.73 3.8 460.45 0 397.13V386.5c2.64-46.21 29.81-85.58 71.78-104.16q3.1-1.38 6.16-2.81.46-.22.46-.72.04-112.91-.04-225.81C78.35 24.19 99.77 2.08 128.5 0Zm237.05 319c-.03 28.95-23.1 52.33-52.3 52.4q-37.37.09-74.67.09a.18.18 0 0 0-.18.2l1.63 15.77a.48.47 6.9 0 0 .32.4q33.14 12.06 66.17 24.05c15.83 5.74 33.77.35 43.23-13.12q3.2-4.56 8.15-18.18 42.93-117.94 85.85-235.88 3.43-9.43 4.01-13.47c1.9-13.28-4.05-27.25-14.75-35.01q-4.48-3.26-16.25-7.56-25.2-9.21-50.67-18.46a.35.34 9.7 0 0-.46.32q.02 9.85-.1 19.89c-.13 10.38-14.9 10.28-14.9-.44q.01-18.75-.04-37.5c-.04-16.75-11.1-31.64-26.97-36.01q-5.47-1.5-19.87-1.5-81.62.03-163.25 0-14.55 0-19.86 1.47C103.45 21.22 93.4 36.17 93.4 54.25V274.3q0 .54.53.45 6.03-1.01 12.1-1.72c52.97-6.21 101.54 22.12 123.67 70.26q1.5 3.27 4.82 12.7.17.5.71.5 34.01-.05 68.03-.01 14.63.02 19.87-1.39c16.63-4.5 27.5-19.39 27.5-36.84q0-98.62.05-197.25c0-10.42 15.01-10.25 15.01.14q-.05 98.93-.14 197.86Zm88.17-157.8-68.26 187.56q-.57 1.57.5.29 47.79-56.97 96.09-114.51c13.84-16.49 12.45-39.67-4.02-53.57q-11.86-10-23.7-19.93-.42-.36-.61.16Zm-68.07 212.27q42.83-24.66 83.91-48.44 11-6.36 12.52-7.5c11.82-8.85 17.32-24.31 13.88-38.55-1.85-7.67-7.27-16.03-11.66-23.3a.24.24 0 0 0-.39-.03l-98.56 117.46q-.87 1.03.3.36Zm-273.41-86.15c-13.01.93-26 4.33-37.74 10.08a.38.38 0 0 0-.16.53l14.64 25.35a.66.66 0 0 0 .83.27q10.63-4.7 22.18-5.98.51-.05.51-.57v-29.43a.25.24 87.9 0 0-.26-.25Zm38.68 36.11 14.73-25.51a.39.37-62.8 0 0-.16-.53q-17.91-8.6-37.77-10.08a.2.2 0 0 0-.22.2v29.5a.59.58 3.3 0 0 .52.58q11.65 1.24 22.33 6.03a.45.45 0 0 0 .57-.19Zm-117.34 10 25.36 14.65a.48.47 32.9 0 0 .62-.13q6.93-9.51 16.42-16.42a.43.43 0 0 0 .12-.57l-14.68-25.44q-.25-.43-.66-.15-16.2 11.13-27.35 27.32-.31.46.17.74ZM178.7 305.3l-14.81 25.67a.44.44 0 0 0 .13.57q9.44 6.84 16.3 16.26.36.5.89.19l25.27-14.57a.46.46 0 0 0 .15-.66q-11.24-16.33-27.59-27.53a.24.23 33.1 0 0-.34.07Zm1.14 86.69A59.84 59.84 0 0 0 120 332.15a59.84 59.84 0 0 0-59.84 59.84A59.84 59.84 0 0 0 120 451.83a59.84 59.84 0 0 0 59.84-59.84Zm-154.6-45.17q-8.41 17.66-9.92 37.19a.44.43-88.1 0 0 .43.47h29.26q.52 0 .58-.51 1.26-11.67 6.04-22.37a.4.4 0 0 0-.16-.51l-25.24-14.57q-.66-.38-.99.3Zm163.08 14.7q4.82 10.73 6.09 22.44a.58.58 0 0 0 .58.52h29.26a.43.43 0 0 0 .43-.47q-1.53-19.65-10.01-37.39a.51.51 0 0 0-.71-.22l-25.52 14.76a.29.28-27.1 0 0-.12.36ZM25.24 437.16q.33.7 1 .31l25.16-14.53a.51.49-27.5 0 0 .21-.63q-4.78-10.67-6.01-22.29-.06-.54-.59-.54H15.76q-.48 0-.44.48 1.51 19.54 9.92 37.2Zm163.14-14.78a.42.42 0 0 0 .17.54l25.53 14.72a.39.38-62.2 0 0 .54-.17q8.57-17.91 10.07-37.76a.21.21 0 0 0-.21-.23H195q-.53 0-.58.52-1.29 11.66-6.04 22.38ZM58.96 435.9l-25.53 14.73a.37.37 0 0 0-.12.53q11.22 16.32 27.54 27.52a.37.36 32 0 0 .51-.11l14.73-25.53a.46.45 32.9 0 0-.13-.59q-9.5-6.93-16.41-16.43a.45.45 0 0 0-.59-.12Zm147.36 14.6-25.13-14.53a.65.65 0 0 0-.84.18q-6.82 9.34-16.15 16.17-.51.37-.19.92l14.59 25.25a.43.43 0 0 0 .62.14q16.15-11.12 27.3-27.25a.61.61 0 0 0-.2-.88Zm24.15-11.65q-4.08 9.49-9.69 18.17a.37.37 0 0 0 .24.56q13.97 2.71 26.22-4.19.53-.31.06-.7l-16.55-13.91a.18.17-57.8 0 0-.28.07Zm-155.65 47.9q17.68 8.39 37.21 9.93a.44.44 0 0 0 .47-.44v-29.25q0-.53-.53-.59-11.64-1.25-22.31-6.03a.46.46 0 0 0-.59.19l-14.55 25.21q-.38.66.3.98Zm75.58-26.37q-10.72 4.74-22.38 6.03-.52.06-.52.58v29.31a.37.37 0 0 0 .4.37q19.76-1.5 37.58-10.06a.39.39 0 0 0 .17-.54l-14.74-25.53a.4.4 0 0 0-.51-.16Z"/>
  <path d="M123.66 51.87c-2.93-.04-6.23.35-8.76-.84-5.28-2.46-5.63-10.92-.11-13.39q1.73-.77 5.52-.77 10.51.01 21.02-.03 4.88-.02 6.75.65c4.83 1.75 6.15 7.94 2.89 11.72-2.93 3.4-7.1 2.56-11.16 2.65q-.52.01-.53.53-.06 8.7-.03 17.35c.02 6.08-4.04 11.01-10.18 8.68-4.17-1.59-4.82-5.02-4.81-9.41q.03-8.27-.02-16.55-.01-.58-.58-.59Zm27.08 129.56 65.03-94.5a7.59 7.59 0 0 1 12.5 0l65.02 94.5a7.59 7.59 0 0 1 0 8.6l-65.02 94.51a7.59 7.59 0 0 1-12.5 0l-65.03-94.51a7.59 7.59 0 0 1 0-8.6Zm15.38 4.11a.33.33 0 0 0 0 .38l55.63 80.84a.33.33 0 0 0 .54 0l55.63-80.84a.33.33 0 0 0 0-.38l-55.63-80.83a.33.33 0 0 0-.54 0l-55.63 80.83Zm245.31-50.22q-2.74 7.31-5.34 14.66-1.58 4.44-3.09 6c-5.39 5.54-14.87-.56-12.18-7.94q3.26-8.94 6.5-17.85.19-.52-.32-.73c-2.6-1.04-5.79-1.74-7.69-3.53-3.57-3.38-3-9.13 1.08-11.72 2.52-1.61 4.81-1.38 7.74-.31q11.81 4.29 23.61 8.61c8.57 3.13 6.67 14.93-2.11 14.7-2.27-.06-5.04-1.43-7.47-2.23q-.53-.18-.73.34Zm-91.06 184.26q1.69-.01 5.33.02c9.82.09 10.15 14.87.05 14.92q-12.3.06-24.6.06-4.61 0-6.56-1.24c-2.99-1.88-4.08-5.69-2.78-8.97 2.25-5.71 7.5-4.52 12.41-4.84q.51-.04.51-.55.05-9.41.07-18.72c.03-9.99 14.66-10.3 14.78-.26q.11 9.52.23 19.04.01.55.56.54ZM132.21 427.49a35.5 23.26 90 0 1-23.26-35.5 35.5 23.26 90 0 1 23.26-35.5 35.5 23.26 90 0 1 23.26 35.5 35.5 23.26 90 0 1-23.26 35.5Zm-5.57-49.29c-3.8 9.81-3.68 23.33 2.53 32.08q.79 1.1 2.45 1.93.47.23.97.08c3.54-1.12 6.18-8.35 6.87-11.58 1.84-8.64 1.2-22.42-6.05-28.76a1.31 1.29 62.7 0 0-.94-.31c-2.77.24-5.02 4.46-5.83 6.56Z"/>
  <rect width="14.98" height="65.68" x="-7.49" y="-32.84" rx="7.3" transform="rotate(.1 -224547.594 52994.042)"/>
</svg>
