<?xml version="1.0" standalone="no"?>
<!DOCTYPE svg PUBLIC "-//W3C//DTD SVG 1.1//EN" "http://www.w3.org/Graphics/SVG/1.1/DTD/svg11.dtd" >
<svg xmlns="http://www.w3.org/2000/svg" xmlns:xlink="http://www.w3.org/1999/xlink" version="1.1">
<metadata></metadata>
<defs>
<font id="fanmoneydollarsregular" horiz-adv-x="2238" >
<font-face units-per-em="2048" ascent="1536" descent="-512" />
<missing-glyph horiz-adv-x="500" />
<glyph horiz-adv-x="1024" />
<glyph horiz-adv-x="1024" />
<glyph unicode="&#xd;" horiz-adv-x="1024" />
<glyph unicode="!" horiz-adv-x="1387" d="M438 1456h240q359 0 490 -210l150 -150v-20q-32 -104 -330 -600l-10 -30q280 -265 280 -290q0 -115 -390 -160h-280q-352 0 -510 240l-40 40v130q0 76 320 130q0 76 -270 530q-90 154 -90 190h10l-10 10v70q88 120 440 120zM28 1346v-10q0 -38 340 -640l10 -60h320 q0 76 320 590l40 90q0 100 -500 120q-374 0 -530 -90zM968 1256l-30 -30h-750l-10 -30h750v-10l-6 -10h-734l10 -30h700v-10l-20 -20h-660l10 -30h640l-16 -20h-604v-10l20 -20h573l-21 -30h-542l10 -30h514l-14 -20h-480l10 -30h451l-6 -10l-15 -20h-400v-10l20 -20h367 l-14 -20h-353l30 -30h310l-18 -30h-282v-10l20 -20h250l-8 -20h-232v-10l20 -20h194l-6 -10l-228 10q-76 169 -330 610q123 60 410 60h140q280 0 350 -70v-10l-10 -10v-10l-150 10h-340l-200 -20v-10h680zM58 376q0 -97 460 -120q470 23 470 150q-126 110 -480 110 q-450 -21 -450 -140zM468 456h90q214 0 360 -60v-10q-83 -40 -160 -40h-290l-240 -10l-110 40v10q116 70 350 70z" />
<glyph unicode="&#x22;" horiz-adv-x="2530" d="M0 1427h910l240 -240v-150q0 -50 -150 -230h-680q-220 204 -320 360v260zM1320 1427h910l240 -240v-150q0 -56 -150 -230h-680q-212 200 -320 360v260zM30 1407v-160q113 -158 150 -180h580q120 184 120 210v130h-850zM1350 1407v-160l150 -180h580q120 179 120 210v130 h-850zM80 1347h750v-50l-10 -30h-590l-50 -10v-10h629l-17 -30h-622v-30h600l-14 -20h-586q-90 80 -90 130v50zM1400 1347h750v-50l-10 -30h-590l-50 -10v-10h630l-22 -30h-618v-30h600l-15 -20h-585l-90 110v70zM190 1137h540v-10h-540v10zM1510 1137h547l-7 -10h-540v10z " />
<glyph unicode="#" horiz-adv-x="4214" d="M1278 1443h622l266 -267l-33 -44h632l278 311h621l267 -267l-34 -44q65 22 322 -266v-145l-22 -22h-244q44 -11 266 -233v-144l-22 -22h-977l-266 -300h-710l-178 177v89l22 34h-643l-267 -300h-699l-186 181l-2 85l22 34h-111q-22 0 -111 88.5t-89 110.5v233h178 q-178 145 -178 167v233h1010q0 22 266 311zM1012 1110h-977v-111h844l33 -22q-32 -66 -222 -267h-655v-111h511l33 -22l-233 -289h555l266 311h1166l22 -22v-11l-233 -278h544l288 311h966v111h-844l-22 22v11q178 227 222 256h644v111h-522l-22 22v11l233 277h-544 l-288 -310h-1144l-22 22v11l233 277h-544zM1323 1354h377q-11 -37 -100 -111h-177l-34 -33h189l-33 -34h-189l-33 -33h222v-22h-233l-34 -34h278l22 -22l-244 -11h-78l-33 -33h211l-23 -22h-210l-34 -34h219l-31 -33h-387v33q0 38 -34 78q125 0 167 56q51 84 222 255z M3087 1354h378l-89 -111h-189l-33 -33h189l-34 -34h-188l-23 -22v-11h200l22 -22h-244l-33 -34h277l23 -22l-222 -11h-100l-34 -33h211l-22 -22h-211l-33 -34h222l-31 -33h-391v22l11 11l-33 78q144 0 211 133zM1500 999h1154l23 -22v-12l-211 -255h-1154q-23 0 -23 33z M945 910l134 -11h255l-22 -22h-267l11 -34h226l-27 -33h-199l-33 -33h211l-17 -22h-205l-33 -34h233l22 -22v-11h-278l-33 -33h211l-20 -23h-202l-33 -33h200l-32 -33h-35l-377 -11q0 59 -34 89q151 0 189 77zM2721 910l133 -11h244l-22 -22h-223l-25 -34h220l-32 -33h-205 l-32 -33h222l-22 -22h-214l-32 -33l243 -1l22 -22v-11h-285l-29 -33h237l-24 -23h-230l-33 -33h230l-31 -32l-412 -12l-44 89q141 0 200 88q45 79 144 178zM623 533h400l-22 -23h-322v-11l44 -22h256l-31 -33h-225l-11 -33h211l-22 -23h-211q0 -33 -22 -33h-178zM2419 533 h380l-22 -23h-322v-11l44 -22h255l-31 -33h-224v-33h200l-22 -23h-189l-44 -33h-178q0 22 133 155z" />
<glyph unicode="$" horiz-adv-x="3471" d="M1309 1630h566q44 -44 44 -88l411 -34q56 34 111 34h111l177 11q59 0 211 -189q69 -39 322 -366l33 -67l-11 -11h-433v-11q160 -14 355 -200q267 -256 267 -322v-11q0 -293 -1132 -344h-200v-133h-644q-89 89 -89 111q0 59 -366 78q-98 -56 -155 -56h-322q-90 0 -333 333 l-133 200v111l78 11h321q42 0 489 -178q164 -55 333 -77v111q0 25 -333 66q-602 133 -755 256q-233 223 -233 288v111q0 229 977 289h333v77zM1342 1608v-55l-22 -23q-1079 -9 -1277 -222l-22 -66q0 -224 1310 -422l11 -11v-377l-22 -34q-356 56 -677 222q-118 45 -311 45 h-33l-167 -11q216 -333 244 -333h134q131 0 299 66h45q488 -44 488 -66v-133h510v111l23 22q1309 39 1309 322v11q0 236 -1332 432l-11 56v244q0 40 34 67q219 -12 754 -233l322 -11l33 11v11l-233 288h-233q-82 0 -222 -44q-444 37 -444 67l-11 66h-499zM1397 1542h389 l22 -67q-22 0 -22 -56h-300v-33h300v-22h-300v-33h300v-34h-289v-33h289v-22h-289v-33h289v-34h-289v-33h289v-22h-289v-34h290l10 -14v-19h-300l-33 -33h377q850 -119 1143 -244l111 -89h-710l-133 22v11h721v11l-144 23h-677l-133 11v11h755v11l-167 22h-1187l-23 22v11 h1055v11l-222 23h-788l-167 11v11h855v11l-200 22h-721l-322 22v11h1054v34h-1221l-111 11v11h711v11l-167 22h-588l-189 22v11h677v12l-88 22h-666l-78 11v11h721l-33 33h-666l-66 -11q-89 35 -89 100q0 101 643 178h45l-56 -111q34 0 34 -23l-11 -11h-200l-156 -22v-11 h389l22 -22h-466l-78 -22v-11h577l489 -111q42 0 77 66v278l-11 66zM1253 1486h56l33 -33v-267q0 -22 -33 -22q-511 69 -511 211q115 111 455 111zM2441 1453h288l67 -78v-11h-145l-155 -22l-189 66v11zM2529 1331h289l22 -23v-11h-211l-100 23v11zM2141 1142v-78 q251 -33 555 -111h11v11q-437 178 -566 178zM1408 776h411l-22 -22h-389v22zM1408 742l100 -22h278v-33h-289v-33h289v-23h-289v-33h289v-33h-289v-33h289v-23h-289v-33h289v-33h-289v-33h290v-23h-290v-33h311l-33 -33h-278l-11 -34h300v-22h-211l-167 -11v22q0 58 -33 100 q33 7 33 89v277zM1875 742q510 -88 510 -222v-11q-69 -133 -522 -133l-11 11v322zM2374 654h744v-23h-689l-55 12v11zM243 598h244l367 -133v-11l-167 -11h-333l-22 22v11h366v11l-200 22h-133l-33 -22q-28 10 -89 111zM2429 598h666q-7 -33 -88 -33h-555l-23 22v11z M2441 532h543v-12l-77 -11h-422l33 -33h278v-11l-267 -33v-11l-144 -11q56 48 56 122zM376 410h300v-12l-56 -11h-244v23z" />
<glyph unicode="%" horiz-adv-x="4978" d="M1166 1624q773 0 1021 -366l145 -133l743 499h599l267 -266v-11l-644 -433l244 11h233q767 0 1021 -344l167 -188l11 -56v-33q0 -248 -832 -333h-411q-698 0 -966 299q-144 134 -144 189h-11l-744 -499h-665l-178 177v111q251 151 644 433l-167 -11h-377 q-803 0 -1066 411q-55 25 -55 111v99q0 262 921 333h244zM34 1291v-33q0 -232 944 -299h100q701 0 965 244l22 66v34q0 241 -943 299h-78q-696 0 -988 -244zM1111 259h488l1987 1343h-466q-38 0 -455 -288zM1011 1569h78q199 0 199 -111v-355q0 -122 -210 -122h-67 q-153 0 -200 77v433q47 78 200 78zM3386 1536v-11q-213 -134 -255 -134l-11 -11v-11h22v-11l-111 -33v-11h22q0 -23 -100 -45l-11 -11v-11l11 -11l-100 -33l11 -11v-12l-111 -44v-11h23v-11q-100 -18 -100 -45l11 -11q-111 -36 -111 -55l11 -11q-89 -23 -89 -45l11 -11 q-111 -33 -111 -55l11 -11l-100 -34l11 -11v-11l-110 -44v-11h22v-11q-100 -19 -100 -45l11 -11l-111 -44l11 -11v-11q-89 -23 -89 -45l11 -11q-111 -30 -111 -55l11 -12l-99 -33l11 -11v-11l-111 -44v-11h22v-12q-100 -18 -100 -44l11 -11l-11 -11h-289v11l1809 1210h278z M756 1525v-12l-11 -99v-12h-23l-177 -22v-11h200v-22h-267l-111 -22v-11h378v-34h-455l-45 -22v-11h500v-22h-522l-22 -22v-11h544v-34h-489q-95 0 -166 100v11q0 170 666 256zM1333 1525h11q363 0 632 -178l12 -11v-11h-12l-66 22h-466v-33h566v-11l-22 -23h-544v-33h555 l-23 -22h-532v-33h488q0 -34 -122 -34h-366v-33h344v-11l-78 -11h-266v-34h122v-11l-233 -22l11 11v455l-11 11v12zM1433 1402v-33h388v11l-155 22h-233zM1100 1180v-166h11q98 0 144 55v200q-155 0 -155 -89zM312 1125h433v-22h-356l-77 11v11zM534 1069h199l23 -22h-89 l-133 11v11zM2642 592v-22q0 -231 822 -300l210 -11q727 0 977 244l33 78q0 270 -965 322h-67q-586 0 -943 -200q-67 -67 -67 -111zM3619 870h67q173 0 210 -78v-422q-52 -88 -210 -88h-67q-153 0 -200 77v400q0 111 200 111zM3375 825l-22 -66h11v-35h-45v-21h45v-33h-178 l-144 -22v-11h322v-23h-378l-77 -22v-11h454v-33h-510l-33 -33h543v-23h-510l-66 -11q-89 46 -89 100q0 144 644 244h33zM3942 825q295 0 609 -144l56 -44v-23h-555v-33h566v-11l-22 -22h-544v-33h521l-22 -23h-499v-33h422v-11l-134 -22h-288v-33h244v-12l-111 -11h-133 q0 -33 -56 -33h-54l10 11v466zM4052 737l-11 -12v-22h233v11zM4052 670v-33h499v11l-111 22h-388zM3719 515v-200h11q84 0 133 55v200h-22q-122 -17 -122 -55zM2842 459h520v-33h-387l-133 22v11zM3031 393h333v-23h-200l-133 11v12z" />
<glyph unicode="&#x26;" horiz-adv-x="3896" d="M1760 1469h244q666 0 832 -274q152 -127 152 -183q0 -33 -61 -81h700l213 -213q61 -48 61 -91q0 -28 -284 -71l-172 -61v-10q172 -23 192 -71l213 -234l-771 -182h-213q-262 0 -558 91q-387 -91 -720 -91h-345q-901 0 -1218 476q-22 0 -30 92v81q0 223 933 345 q-71 74 -71 142v51q0 231 903 284zM888 1185q0 -46 142 -173v-30q-1005 -130 -1005 -335v-20q0 -200 650 -325q261 -41 548 -41q464 0 893 112q292 -112 720 -112l700 173v10l-173 30l-243 -30q-159 0 -325 102v20q31 35 508 233q115 41 324 71v31l-50 10h-812l-51 -10v-11 q0 -20 91 -20q82 -29 82 -51v-30q0 -64 -274 -152l-599 365v10q0 27 335 71q365 105 365 163v10q0 166 -842 193q-984 -47 -984 -264zM1659 1388l-51 -82l10 -10v-30h-101l-173 -20v-11h295v-20h-355l-102 -20v-10h477l20 -21v-10h-548q-61 -6 -61 -30h660l20 -20h-700 l-10 -11q-91 48 -91 112q115 110 578 172zM1872 1388h71q284 -31 284 -132q0 -120 -345 -163q-213 122 -213 213q47 82 203 82zM2207 1377h10q237 -12 436 -111v-10l-30 -10l-163 20h-182q0 39 -71 111zM2288 1246l10 -11h315v-10l-71 -10h-213l30 -30h112v-10l-274 -61h-10 v10q57 0 101 122zM1060 1073h721l71 -20v-10h-741l-51 10v20zM1973 1053l-10 -10v-71h-10l-61 20h-791l20 -30l-40 -11v11l10 50h791q0 21 -30 21v10h30v-10zM1192 962h781l21 -21v-10h-710l-92 20v11zM1162 911q431 -320 720 -447v-20q0 -41 -233 -41q-347 0 -710 305 q-41 43 -41 81v20q0 61 264 102zM898 901q-46 -49 -61 -102l10 -30h-101l-173 -21v-10h284v-30h-365l-122 -20v-11h518l20 -20h-578l-71 -20v-10h659l51 -10v-21h-761l-20 -20v-10h842l20 -20h-852l-51 -11q-71 67 -71 112q0 73 345 172q366 82 477 82zM1284 901h781l20 -21 h-781zM1355 850h771q54 0 71 -41l-51 10h-731q-52 0 -60 31zM2420 789q0 -18 203 -122l142 51l-81 71v51zM2937 850h335v-10q-224 -71 -264 -102q-66 -46 -172 -81h-10v10q121 51 121 152zM2227 799q65 -26 71 -51h-10l-30 21h-802l-20 20h751zM2308 748q61 -23 61 -40h-771 q-75 0 -81 30h751zM2410 688q61 -24 61 -41l-51 10h-761l-51 10v10h761zM1172 566q273 -132 426 -132h10v10l-274 183q-162 -28 -162 -61zM2491 637q61 -24 61 -41h-741q-111 0 -111 31h750zM2765 627v-10l-20 -31v-51l30 -40v-10h-832l-30 30h761v10l-71 21h-741l-51 10v10 h771l-10 10v10h10l41 -10zM198 515h883q61 -6 61 -30h-832q-112 0 -112 30zM1192 464q211 -111 508 -111v-10l-437 -21h-101l-355 10v11h568v10l-71 20h-629l-203 20v10h791v11l-71 20h-822l-50 10v10h832zM1943 454h883l50 -10v-10h-933v20zM2897 424h10l193 -31v-10 q-92 -6 -92 -20l-101 10h-507l-183 20v10h690l-10 11v10zM1933 414l51 -11v-10l-71 -10zM2481 343h426v-11l-102 -10h-20l-304 10v11z" />
<glyph unicode="'" horiz-adv-x="1168" d="M0 1430h923l244 -243v-183l-132 -203h-720l-203 213l-112 153v263zM30 1410v-132q0 -53 153 -213h578l132 183v162h-863zM81 1349h761v-71l-20 -20h-629l-21 -20v-11h640l-21 -20h-619v-30h599v-21l-51 -10h-527l-112 132v71z" />
<glyph unicode="(" horiz-adv-x="1881" d="M1614 1454q21 0 264 -264v-51q0 -26 -223 -81q-183 -111 -183 -305v-446q0 -132 71 -132t193 -142l142 -142v-41l-30 -30h-102q-432 0 -1177 264q-189 71 -456 355q-112 112 -112 213v101q0 503 1562 701h51zM31 804v-81q0 -356 1208 -599l365 -40v51q-345 77 -345 213 q-61 115 -61 223v375q0 260 183 355q34 36 223 81v51q-575 -58 -1015 -203q-301 -97 -497 -294q-61 -92 -61 -132zM1320 1342h10v-10q-28 0 -122 -112l-111 -20v-10h91l-30 -31h-163l-132 -20v-10h305l-20 -20h-345l-102 -21v-10h447v-30h-508l-91 -21v-10h599v-20h-630 l-71 -20v-10h701v-31h-741q-61 -6 -61 -30h802v-21h-832l-31 -30h863v-31h-893l-31 -30h924v-20h-944l-10 -31h954v-30h-975v-31h975v-20h-975v-30h975v-31h-944l-51 -10q-71 81 -71 152v21q0 358 1238 578zM184 571h964v-20h-944zM255 520h893v-30h-832q-53 0 -61 30z M346 459h812v-20h-761l-51 10v10zM447 408h731v-30h-609l-122 20v10zM600 348h598v-21h-527l-71 10v11zM762 297h457v-31h-274l-183 21v10zM995 236h244l20 -20h-142l-122 10v10zM1269 185h41v-10h-41v10z" />
<glyph unicode=")" horiz-adv-x="1877" d="M16 1450h31q493 0 1248 -295q143 -68 456 -385q122 -147 122 -234v-40q0 -456 -1522 -680h-183l-172 183v142q13 23 223 81q183 118 183 284v375q0 213 -173 213q-48 8 -213 183q-17 0 -20 51v101zM26 1429v-51q145 -19 315 -131q91 -187 91 -315v-365q0 -288 -243 -386 l-163 -40v-61q291 0 1045 213q448 174 528 385v112q0 313 -984 558q-474 81 -589 81zM311 1338h20q333 -18 933 -264l132 -91l-51 10h-801l8 -30h875l30 -31h-899l6 -30h923l21 -21h-944l5 -30h949l20 -20l-10 -11h-954v-30h974v-20h-974v-31h974v-10l-20 -20h-954v-31h954 v-20h-954v-30h924v-21l-51 -10h-873v-30h873l-20 -20h-853v-31h802q-6 -30 -81 -30h-721v-31h711v-10l-51 -10h-660v-31h599v-10l-122 -20h-482l-5 -30h457v-11l-71 -10h-386l-10 -30h304v-10l-203 -21h-111l-10 -30h81v-10l-315 -51q183 148 183 325v477q0 67 -51 213h345 v10l-172 20h-193v20h101v11q-113 0 -192 81h-10v10zM473 1155l10 -30h517v10l-131 20h-396zM497 1105l6 -11l15 -20h645v10l-102 21h-564zM524 1044l10 -31h781v10l-81 21h-710z" />
<glyph unicode="*" horiz-adv-x="2702" d="M1193 1460h112q40 0 294 -193h30l792 20q40 0 284 -253v-11q0 -40 -254 -91l244 -233v-31l-71 -10h-81l-690 31q-123 -66 -285 -203h-213q-88 0 -243 162l-91 41l-771 -31h-21l-223 193v91l183 51l-183 193v71q0 30 122 40q363 -30 680 -30h60q51 0 274 183zM858 1236 l-791 31v-20q204 -41 456 -132v-21q0 -41 -446 -152v-10h41l730 31q93 -22 264 -183q49 -31 132 -31q111 0 223 132l152 82l710 -31h61v10q-436 117 -436 152v11q0 24 426 142h20v10l-30 10l-761 -31q-98 48 -264 183l-81 20q-127 0 -304 -162q-52 -41 -102 -41zM1284 1378 q58 0 122 -81l31 -10v-20h-183l-30 -31h273l21 -20h-325l-30 -30h345l142 -10l132 10h121l92 10h10v-10q-88 0 -122 -92l-426 11h-41l-629 -11l-203 11q0 58 -81 71v10h162l214 -10q73 12 304 202h101zM1071 1135v-10h579v10l-41 20h-497zM584 1074h1319v-30h-1278l20 -31 v-10h-152v10q46 0 91 61zM879 1013h710v-10l-71 -10h-568l-71 10v10zM1792 1013h192v-10h-192v10zM990 963h497q-6 -31 -81 -31h-335q-74 0 -81 31zM1061 902h345l-20 -21h-274l-51 10v11zM1122 851h223q-10 -31 -61 -31h-101q-53 0 -61 31z" />
<glyph unicode="+" horiz-adv-x="3453" d="M1295 1234h628l236 -235v-88h1059l236 -236v-147l-20 -20h-1275v-314h-707l-157 157v157h-1118l-177 177v226h1295v323zM1315 1215v-304l-20 -20h-1266v-118h1266l20 -19v-305h579v305l19 19h1276v118h-1276l-19 20v304h-579zM1374 1156h451l10 -10h10l-10 -49l10 -10 v-10l-10 -9h-373l-10 -30h393v-20h-393v-29h393v-29h-393v-30h393v-19h-393v-30h393v-29h-393v-30h394v-19h-384l-20 -20v-10h403v-30l-461 1q-16 0 -40 68l-49 10q79 46 79 98v236zM1374 714h471v-19h-442v-10l39 -20h401v-29h-391v-30h390v-19h-390v-30h388v-29h-388v-20 h-78v206z" />
<glyph unicode="," horiz-adv-x="1233" d="M324 538h216q391 0 539 -226q157 -129 157 -196q0 -151 -687 -275h-157l-166 29l-157 157v108l98 20v29q-28 0 -167 157v89q0 82 324 108zM29 430v-20l363 -108l20 -39q0 -82 -294 -137v-10l157 -20q183 0 598 157q94 61 98 88v20q0 131 -500 157h-49q-322 -4 -393 -88z M353 459h128q335 0 441 -98q-45 -49 -88 -49h-373l-29 29h451v10l-216 20h-255l-265 49v20zM461 283h334v-10l-69 -10h-265v20zM461 243l10 -10h177v-9l-226 -49q39 44 39 68z" />
<glyph unicode="-" d="M2004 737l240 -238v-159h-2086l-159 159v238h2005zM29 717v-119h1946v119h-1946z" />
<glyph unicode="." horiz-adv-x="1198" d="M375 529h186q352 0 481 -206l157 -157v-30q0 -62 -235 -118l-187 -19h-245q-318 0 -442 196q-88 55 -88 118v59q0 130 373 157zM31 362q96 -108 432 -108q408 17 471 118v29q-44 93 -481 108q-297 0 -422 -108v-39zM404 450h118q298 -10 343 -69l-58 -19h-363l-157 -20 v-10h402v-9l-118 -10h-216q-112 0 -265 59q73 78 314 78z" />
<glyph unicode="/" horiz-adv-x="3041" d="M2806 1423l236 -236v-10l-2139 -1177h-746l-157 196v49l2139 1178h667zM88 265v-10h550q34 0 1511 824l569 324h-549q-61 -11 -1884 -1040zM2149 1344h353v-10q-127 -78 -265 -78v-10h89v-10l-177 -29v-10h88q0 -26 -176 -39l-10 -10h-10v-10h98v-10l-186 -29v-10h88 q0 -29 -177 -39l-9 -10h-10v-10h98v-10l-187 -29v-10h89q0 -29 -177 -39l-10 -10v-10h89v-10q-177 -9 -177 -39h78q-6 -29 -78 -29h-69l-39 -20v-10h88v-10l-49 -9h-88l-39 -20v-10h88v-10l-196 -39v-10h88v-10l-177 -29v-10h89q0 -26 -177 -39l-10 -10h-9v-10h98v-9 l-187 -30v-10h89q0 -29 -177 -39l-10 -10h-10v-10h98v-9l-186 -30v-10h88q0 -29 -176 -39l-10 -10h-10v-10h98v-9q-176 -10 -176 -40h78l-20 -19h-353v10z" />
<glyph unicode="0" horiz-adv-x="2998" d="M1257 1437h210q574 0 998 -230l239 -219q220 -204 220 -339v-70q0 -456 -1058 -569l-190 -10h-299q-555 0 -988 220q-116 82 -249 229q-140 126 -140 359q0 423 669 569q297 60 588 60zM30 818q0 -369 718 -509q307 -50 579 -50q909 0 1267 360q70 122 70 229 q0 405 -858 539l-459 30q-867 0 -1227 -329q-90 -110 -90 -270zM1098 1357q-50 -50 -50 -120h-50l-200 -20v-10h250v-30h-359l-100 -20v-9h459v-20h-509l-80 -20v-10h589v-30h-629q-60 -7 -60 -30h689v-20h-699q-60 -6 -60 -30h759v-30h-799l-10 -30h809v-20h-818l-20 -20 v-10h838v-30h-858l-10 -30h868v-20h-868l-10 -30h878v-30h-878v-30h878v-19h-878v-10l20 -20h858v-30h-868l10 -10v-10h-10q-61 29 -100 199l10 10v80q0 143 269 289q356 150 629 150zM1297 1357h90q180 0 180 -110v-858q-42 -80 -210 -80h-80q-179 0 -179 110v798 q0 140 199 140zM1577 1357q488 -46 748 -160l170 -119v-10h-789v-30h838v-20h-838v-30h858l20 -20l-10 -10h-868v-30h898v-20h-898v-30h898v-30h-898v-30h898v-20h-898v-30h888v-10l-20 -20h-868v-30h868v-19h-868v-30h838q-10 -30 -59 -30h-779v-30h789v-10l-50 -10h-739 v-30h709q-6 -30 -80 -30h-629v-30h609v-10l-70 -10h-539v-30h469v-10l-169 -20h-300v-30h260v-10l-150 -10h-110q0 -30 -50 -30h-59q29 51 29 100v818q0 46 -49 110zM1646 1267v-10h130v10h-130zM1656 1237l30 -30h419v10l-169 20h-280zM1696 1177l10 -29h619v9l-130 20 h-499zM1706 1128v-30h739v10l-90 20h-649zM1367 998v-659h40q140 0 140 90v659h-50q-130 0 -130 -90zM190 599h858v-20h-838zM249 549h799v-30h-719q-73 0 -80 30zM359 489h689v-20h-639l-50 10v10zM489 439h559v-30h-389l-170 20v10zM698 379h340l20 -20h-210l-150 10v10z " />
<glyph unicode="1" horiz-adv-x="2040" d="M1237 1427h350l239 -240v-898q188 -209 210 -209l10 -50v-10l-20 -20h-1607l-180 180v129q0 24 300 60v479h-329l-210 170v129q0 40 379 70q386 70 858 210zM30 1147v-19l20 -20l499 20l10 -10v-749q0 -40 -300 -70v-30l50 -10h1427l50 10q0 38 -209 70l-20 60v1008h-220 q-121 0 -579 -140q-435 -90 -728 -120zM1247 1347h260v-80h-80l-120 -10v-10h200v-20h-240l-129 -20v-10h369v-30h-469l-110 -20v-9h579v-20h-639l-170 -20v-10h809v-30h-888q0 109 -50 109v10q85 0 678 170zM619 1048l79 -20h809v-20h-818l9 -30h809v-30h-809v-30h809v-20 h-809v-30h809v-30h-809v-30h809v-20h-809v-30h809v-30h-809v-30h809v-19h-809v-30h809v-30h-809v-30h809v-20h-809v-30h809v-30h-809v-30h809v-20h-809v-30h809v-30h-809v-30h809v-20h-809v-30h-99q20 39 20 110v619z" />
<glyph unicode="2" horiz-adv-x="2947" d="M1488 1436q763 0 1127 -230q290 -284 290 -339q0 -160 -399 -269v-10h149l50 -10l240 -260q-206 -319 -280 -319h-2504l-160 160v259q59 55 519 160q789 240 938 379l60 120l-70 10h-140q-93 0 -189 -40v-10l30 -120v-20q-79 -120 -350 -120h-249q-237 0 -349 110 l-160 170v99q0 215 978 280h469zM71 1156v-19q34 -84 409 -100q373 16 399 100v39l-30 90q28 90 260 90h89q350 0 350 -209v-10q0 -283 -539 -420q-484 -169 -978 -299v-160h2355q111 0 199 180l80 120l-100 10h-79q-167 0 -200 -60q-53 -70 -210 -70h-1476l-20 20v10 q0 28 519 130q1247 239 1456 379q80 69 80 120q0 268 -1237 319h-90q-969 0 -1227 -220zM1498 1356h30q920 -50 1037 -229h-888v-30h898v-10l-20 -20h-868v-30h839l-20 -20h-819v-30h749q0 -30 -110 -30h-649v-30h619v-10l-100 -10h-519l-20 -20v-10h449v-10l-199 -20h-280 l-10 -30h240v-10l-120 -10h-139l-30 -30h40v-10l-659 -129h-10v10q481 134 609 299q60 125 60 210l-10 69l10 -10h638v10l-209 20h-449v20h249v10q-282 0 -289 40q-21 40 -50 40v10zM819 1326l-20 -60v-30h-10l-199 -20v-10h209l20 -20v-10h-359l-100 -20v-9h449v-10 l-70 -10h-329l-189 -10q-48 0 -100 49q206 129 509 150l89 10l100 10v-10zM1647 1176l10 -29h829v9l-130 20h-709zM1957 468v-10h30q269 10 279 70h-10zM2356 508h209v-10q-44 -100 -129 -100l-10 -10v-10h50q0 -14 -120 -40v-10h80v-10h-2355v60l449 120l-10 -50l30 -50 v-10h-30v-10h1487q269 0 349 120v10zM330 338v-10h340v30h-200z" />
<glyph unicode="3" horiz-adv-x="2809" d="M1026 1433h358q929 0 1164 -358q150 -128 150 -179q0 -93 -259 -170v-10q53 0 358 -328l10 -50v-10q0 -273 -1293 -328h-389q-621 0 -935 189q-189 183 -189 229v80q0 106 289 129h248l110 -10h10v10q-24 0 -120 109l-10 10q-29 0 -29 60h-10q-258 0 -448 279v99 q0 203 985 249zM61 1164q88 -99 408 -99q348 20 348 69l-60 130v20q51 69 259 69h90q248 -17 248 -129q20 -45 20 -129q0 -170 -179 -170q0 -23 -378 -29h-199l-100 -10l30 -40h398q478 0 478 -219l30 -129q0 -180 -338 -180h-100q-269 0 -269 100l50 109q-89 80 -388 80 q-320 0 -388 -99v-20q0 -79 368 -170q349 -59 736 -59q1057 0 1394 249l20 59v10q0 202 -1006 279v30q65 20 428 49q468 85 468 209v10q0 74 -328 169q-317 90 -916 90q-1124 -33 -1124 -249zM1334 1353h20q744 0 1015 -209v-10q-10 -29 -59 -29h-806v-30h766v-10l-70 -10 h-686v-30h577v-10q-119 -20 -299 -20h-278v-30h159v-10q-199 0 -199 -59v-30l10 -30l-70 -20v-10q848 -57 985 -159q40 0 90 -70l-20 -20h-916l10 -30h886l-20 -19h-856v-30h786v-10l-139 -20h-637v-30h597v-10l-119 -10h-478v-30h309v-10l-488 -40q100 76 100 180l-40 199 h318v10l-179 19h-129l-20 20h169v30h-159l-140 70l-99 20v10q199 23 199 189v79l-10 100h428v10l-448 20zM737 1343q-38 -45 -39 -89l10 -40h-130l-139 -20v-10h288l20 -20h-378l-109 -30l-140 40q0 84 617 169zM1444 1214l30 -30h726v10l-159 20h-597zM1474 1164l10 -30 h865v10l-119 20h-756zM300 1134h318v-10h-318v10zM1026 1035v-30l40 -70q278 0 278 130v20h-109q-209 -8 -209 -50zM1504 667l29 -30h717v10l-199 20h-547zM1543 617v-10l20 -20h886v10l-129 20h-777zM777 577v-10q24 0 219 -209l10 -10h129q228 0 279 100v10q0 99 -50 99 l-229 20h-358zM349 547h140q238 -7 238 -49l-39 -50h-379l-99 -20q-129 46 -129 70q104 49 268 49zM240 418h458v-20h-359l-99 10v10zM459 368h239l19 -20v-10l-258 20v10z" />
<glyph unicode="4" horiz-adv-x="2968" d="M2311 1424q258 -244 258 -269v-487h100q44 0 298 -269v-60l-19 -30l-299 -10h-60v-9q24 0 239 -229v-30l-30 -30h-1522l-189 229h10l-10 10v20l10 10l-10 29h-607l-299 10l-179 180v159q0 64 149 99q1675 677 1732 677h428zM32 678v-90l20 -20h1244l20 -20v-169 q0 -37 -199 -80v-29l49 -10h1374l19 20v10q0 26 -149 39q-109 30 -109 100v109l30 30h318l50 10v60l-100 10h-278l-20 20v726l-50 10h-139q-329 0 -478 -99zM2251 1344v-79h-70l-249 -20v-10h319v-30h-398l-80 -20v-10h478v-20h-527l-80 -20v-10h607v-29h-677l-79 -20v-10 h756v-20h-786l-100 -20v10q-20 60 -79 60q-856 -329 -946 -379l-10 -59l20 -40h-139l-119 10q12 27 905 368q839 348 926 348h328zM1306 1036l10 -10v-358l-20 -20h-886l-20 20v10q4 17 388 159q475 199 528 199zM2251 1016v-30h-866l-20 20l10 10h876zM1365 956h886v-20 h-816l10 -30h806v-29h-796v-30h796v-20h-796v-30h796v-30h-796v-30h796v-20h-796v-29h796v-30h-796v-30h806l20 -20h-826v-30h796v-30h-796l-30 -30h826v-19h-846l30 -30h816v-30h-796v-30h796v-20h-796v-30h796l20 -20v-10h-657l-269 -10q20 19 20 130q9 114 -30 159 q31 13 30 130v218z" />
<glyph unicode="5" horiz-adv-x="2818" d="M1975 1457h229q44 0 279 -259h10q-71 -229 -100 -229l-249 -10v-10q280 -57 408 -189q269 -255 269 -338v-10q0 -343 -1313 -408h-398q-601 0 -906 189q-199 199 -199 229v80q36 109 289 129v10l-100 159q149 627 169 627h1194q232 0 418 30zM1806 1407h-1433l-149 -587 l50 -10h109q197 0 269 80q149 69 348 69h80q358 -19 358 -149q25 0 40 -279q0 -199 -259 -199l-99 -10h-110q-269 15 -269 80v30l50 70v29q0 64 -358 80q-322 0 -398 -99q0 -164 736 -239l329 -10q1079 0 1433 298l19 70v40q0 225 -845 328l-448 20q-330 0 -627 -50l-20 40 q37 219 70 219h1413q89 0 89 90l40 109l-99 10h-70zM1985 1377h159v-10l-19 -79h-1384l-228 -30v-10h99l-10 -30h-109l-10 -30h109l-6 -20h-103l-10 -30h108l-10 -29h-103l-10 -30h112l-8 -20h-109l-10 -30h116l-10 -30h-112l-10 -30h125l20 -20h-149l-10 -30h169 q-10 -29 -60 -29h-99l-30 -20h-99l119 477h1323zM1378 959h50q630 0 1015 -209l20 -30l-50 10h-846l10 -29h916v-30h-896v-30h906v-20h-896v-30h866q-10 -30 -60 -30h-806v-30h786v-10l-50 -9h-736v-30h677v-10l-140 -20h-537v-30h488v-10l-100 -10h-388v-30h219v-10 l-348 -30h-30v10q60 0 80 189v110l-30 169h637v10l-180 20h-457l-20 20h278v10q-328 0 -328 49q0 23 -50 30v10zM1537 780l30 -30h796v10l-129 20h-697zM811 571v-10l209 -209h139q289 0 289 150l-10 109v60l-139 20h-100q-225 0 -388 -120zM363 551h130q112 0 238 -30 q-33 -69 -49 -69h-329l-129 -20q-112 40 -129 70q104 49 268 49zM254 422h428v-20h-329l-99 10v10zM453 372h229l20 -20v-10l-249 20v10z" />
<glyph unicode="6" horiz-adv-x="2934" d="M1916 1433h388q43 0 288 -249v-60q0 -39 -438 -39v-10q261 -31 468 -179q18 -38 139 -140l110 -119q60 -76 60 -139v-40q0 -320 -896 -438q-101 -20 -318 -20h-359q-916 0 -1224 418q-139 113 -139 279v99q0 517 1393 617zM25 836v-100q0 -296 696 -437q357 -40 627 -40 q1019 0 1304 358l20 90q0 269 -627 368l-368 20q-232 0 -567 -70l-20 20q0 224 477 269q241 39 577 39h80q109 0 109 50h-9l-170 10q-1651 0 -2050 -388q-79 -128 -79 -189zM1259 1323h40v-9h-40v9zM1249 1314h10v-10q-40 0 -199 -110h-60v-10h80l-20 -20h-150l-159 -20v-10 h299l-20 -29h-378l-100 -20v-10h478v-20h-518l-69 -20v-10h587l20 -30h-677l-40 -20v-10h747l-10 -20h-767l-29 -30h796v-29h-826l-20 -20v-10h846v-20h-856l-20 -20v-10h876v-30h-896l-10 -30h906v-20h-906v-29h906v-30h-906v-30h906v-20h-906v-10l20 -20h886v-30h-856 q-102 0 -139 219v40q0 315 845 468zM1577 1035h169q563 0 806 -199v-10l-10 10h-825v-30h855l20 -20v-10h-866v-30h886v-20h-886v-29h886v-10l-20 -20h-866v-30h866l-20 -20h-846v-30h826q-6 -30 -79 -30h-747v-30h747v-10l-50 -9h-697v-30h637v-10l-119 -20h-518v-30h478 v-10l-70 -10h-408v-30h249v-10l-378 -40q40 69 40 120v477h587v10l-279 20h-308q-12 80 -60 80v10zM1328 1015h80q179 0 179 -100v-427q0 -180 -189 -180h-80q-162 0 -199 70v528q0 109 209 109zM1697 886l10 -30h756v10l-100 20h-666zM1388 687v-349h10q159 0 159 100v308 h-20q-149 -10 -149 -59zM234 527h836v-19h-786l-50 9v10zM323 478h747v-30h-627l-120 20v10zM473 418h597v-20h-528l-69 10v10zM692 368h378v-30h-10l-368 20v10z" />
<glyph unicode="7" horiz-adv-x="2878" d="M2615 1413l260 -260v-30q-15 -30 -320 -200q-510 -355 -510 -640l220 -220v-40l-20 -20h-1510l-190 220v50q0 80 170 80q24 31 50 140q172 219 390 350l180 90v10h-480q-92 0 -250 -90h-420q-20 0 -100 80t-80 100v90q77 290 130 290h2480zM35 1113h100q266 0 340 60 q60 40 180 40h1230l20 -20v-10q-79 -52 -640 -310q-510 -292 -510 -520q-39 -26 -180 -50v-20l20 -20h1400v30q0 16 -170 50q-43 43 -50 150q0 319 440 620q198 150 400 250v30h-2370q-150 0 -150 -70zM155 1333h2280v-10q-120 -70 -150 -70h-300l-160 20h-1140l-400 -20 v-10h190v-10l-90 -20h-150v-30h130v-10h-260zM1945 1243h350v-10l-70 -20h-230l-50 10v20zM1975 1183h230l-20 -20h-230zM1965 1133h170q-10 -30 -60 -30h-40v-30h30l-90 -80l-90 -20v-10h60v-10l-170 -30v-10h120q-10 -30 -60 -30h-120l-70 -20v-10h200l-20 -20h-200 l-90 -20v-10h270v-10l-20 -20h-300l-70 -20v-10h370l-20 -20h-400l-40 -20v-10h430v-10l-20 -20h-470l-40 -20v-10h520v-20h-550l-40 -20v-10h580v-10l-20 -20h-600l-30 -30h640v-20h-670l-30 -30h700v-30h-720l-30 -30h760v-20h-770l-30 -30h800l20 -20v-10h-680l-270 -10 q0 349 1160 810z" />
<glyph unicode="8" horiz-adv-x="2925" d="M1198 1429h330q964 0 1160 -330q150 -125 150 -180q0 -97 -250 -170v-10q38 0 320 -320l10 -70q0 -257 -1010 -350l-230 -10h-380q-622 0 -1030 180q-270 224 -270 290v110q0 116 320 200q-220 212 -220 270v80q0 222 770 300zM128 1159v-40q0 -147 520 -260l20 -30 q-11 -20 -320 -70q-330 -94 -330 -220q0 -93 330 -190q385 -100 950 -100q936 0 1310 250q40 53 40 90v30q0 153 -650 290v30q570 96 570 220q0 207 -1140 250h-70q-965 0 -1210 -220zM1358 1349h120q390 0 470 -140l10 -40v-10q0 -141 -270 -200q-800 118 -800 250 q42 125 470 140zM938 1339h10v-10q-76 0 -120 -120h-110l-160 -20v-10h280v-20h-360l-80 -20v-10h460l20 -20v-10h-520q-60 -6 -60 -30h640l50 -10v-10h-700l-10 -10q-100 36 -100 90q54 150 760 210zM1908 1329h10q353 -24 600 -160v-10l-10 -10l-50 10h-410l30 -30h390 q0 -30 -110 -30h-270l10 -30h220v-10l-100 -10h-120q0 -49 -120 -60q-19 0 -40 -60l10 -60v-10h-30v-10l150 -10v-10h-940l-120 10v10h590v10l-200 20h-660q-52 0 -60 30h620v10l-140 20h-570l-100 10v10h630v10l-80 20h-580l-140 20v10h690l-20 30q582 -140 710 -140 q320 59 320 260l-10 10h380v10l-160 20h-210l-20 20v10h20v10q-33 0 -100 70h-10v10zM1328 1059v-10l360 -60q190 44 190 80l-170 10h-160zM718 849h180v-10l-120 -10h-60v20zM2088 819h10q248 -22 470 -160l10 -10v-10h-10l-80 20h-600l-130 20v10h640v10l-130 20h-600 l-120 10v10h650v10l-120 20h-570l-240 20v10h820v20zM718 799h20q-96 -74 -110 -140q-30 -20 -80 -20v-10h70v-20h-150l-100 -20v-10h250v-10l-20 -20h-300l-70 -20v-10h400v-20h-430l-40 -20q-66 27 -80 60v20q0 60 280 140q350 67 360 100zM958 799q950 -169 950 -260 q20 0 20 -70q0 -124 -540 -150h-160q-560 0 -560 260q0 182 290 220zM1898 629h700v-20h-680zM1958 579h630v-20l-50 -10h-560l-20 20v10zM938 369l250 -20h240q136 0 350 40v10l-630 130q-210 -54 -210 -160zM1978 519h560v-10l-50 -10h-510v20zM1988 489h10l30 -20h410 v-10l-140 -20h-250l10 -30h200v-10l-100 -10h-90q0 -37 -180 -50h-20v10q77 0 120 140zM188 469h440l20 -20v-10h-330q-130 0 -130 30zM348 409h330l20 -20h-250l-100 10v10zM588 359h130l50 -10v-10h-60l-120 10v10z" />
<glyph unicode="9" horiz-adv-x="2955" d="M1200 1442h310q938 0 1220 -410q220 -175 220 -390q0 -523 -1430 -620q-193 -20 -500 -20h-470q-50 0 -220 190v90q0 70 140 70h220v20q-256 31 -470 190q-220 204 -220 320v90q0 296 760 440q241 30 440 30zM30 992v-60q0 -235 720 -330l220 -10q249 0 600 70l20 -70 q0 -270 -1200 -270l-30 -10v-40l100 -10q1698 0 2110 360q110 117 110 270v10q0 520 -1330 520q-1067 0 -1300 -370zM1310 1372h80q190 0 190 -100v-510q-47 -90 -220 -90h-60q-138 0 -180 70v560q30 70 190 70zM1090 1362l-40 -100h-70v-10h80v-30h-280l-140 -20v-10h420 v-20h-490l-80 -20v-10h570v-30h-630l-70 -20v-10h700v-20h-720q-60 -6 -60 -30h780v-30h-810l-30 -30h840v-20h-850l-30 -30h880v-30h-890v-30h890v-20h-860l-50 -10q-70 72 -70 120v20q0 166 420 300q177 60 590 90zM1610 1362q702 -58 830 -180l90 -50v-20h-810v-30h840 l20 -20h-860v-30h880v-30h-880v-30h900v-20h-900v-30h890l20 -20l-10 -10h-900v-30h910l-20 -20h-890v-30h900v-20l-50 -10h-850v-30h870v-20h-870v-30h840q-10 -30 -60 -30h-770l-20 -20v-10h790v-10l-50 -10h-750l-10 -30h730q0 -30 -110 -30h-610l30 -30h570v-10l-70 -10 h-510v-10l20 -20h410v-10l-200 -20h-230l-10 -30h180v-10l-490 -60h-20v10q260 62 260 230v10q0 49 -30 100l20 60v450l10 60l-30 80v10zM1680 1272v-20h270v10zM1700 1222l10 -30h590v10l-160 20h-440zM1720 1172v-30h740v10l-100 20h-640zM1380 1022v-320h30 q140 23 140 60v340h-30q-140 0 -140 -80zM190 812h870v-30h-780l-90 20v10zM320 752h730l20 -20h-680l-70 10v10zM490 702h580l20 -20v-10h-310l-290 20v10z" />
<glyph unicode=":" horiz-adv-x="1211" d="M378 1104h189q357 0 487 -208l159 -159v-30q-108 -139 -427 -139h-249q-321 0 -447 199q-89 56 -89 119v60q0 132 377 158zM31 936q97 -110 437 -110q360 0 477 120v29q-45 94 -487 110q-301 0 -427 -110v-39zM408 1025h119q309 -10 348 -70q-76 -39 -119 -39h-318 l-238 -10l-110 40q79 79 318 79zM478 946v-10h218v10h-218zM378 538h189q357 0 487 -208l159 -159v-30q0 -63 -239 -119l-188 -20h-249q-321 0 -447 199q-89 55 -89 119v59q0 132 377 159zM31 369q97 -109 437 -109q412 15 477 119v30q-45 94 -487 109q-301 0 -427 -109v-40 zM408 459h119q303 -10 348 -70l-59 -20h-368l-159 -19v-10h407v-10l-119 -10h-218q-114 0 -269 59q74 80 318 80z" />
<glyph unicode=";" horiz-adv-x="1246" d="M415 1109h179q362 0 526 -248q120 -99 120 -139q-99 -149 -418 -149h-248q-348 0 -497 229q-49 25 -49 79v99q79 122 387 129zM48 941q106 -110 457 -110q466 25 466 149q-123 110 -486 110q-437 -23 -437 -139v-10zM455 1030h119q182 0 328 -60q-57 -49 -129 -49h-338 l-209 -10l-119 40v9q116 70 348 70zM495 951v-10h228v10h-228zM326 543h218q397 0 547 -228q159 -131 159 -199q0 -153 -696 -278h-159l-178 70l-149 119v109l99 20v30q-28 0 -169 159v89q0 83 328 109zM28 434v-20l367 -109l20 -30v-20q0 -69 -298 -129v-10l159 -20 q186 0 606 159q95 62 99 90v19q0 133 -506 159h-50q-326 -4 -397 -89zM356 464h129q339 0 447 -100q-46 -49 -90 -49h-377l-30 30h457v10l-219 19h-258l-268 50v20zM465 285h338v-10l-70 -10h-268v20zM465 245l10 -10h179v-10l-229 -49q40 44 40 69z" />
<glyph unicode="&#x3c;" horiz-adv-x="3488" d="M3486 1005v-159q0 -29 -497 -59l-735 -80v-10q518 -40 993 -99l239 -239v-168h-50q-165 0 -3278 337l-159 159v209q0 26 477 59q2266 249 2771 289zM29 886v-99l3188 -328v119l-2344 238l-10 30q0 26 626 70l1728 179v119h-10zM3148 1154h20v-10l-1292 -129h-39v10z M1737 1015h100v-10h-100v10zM1638 1005h99v-10h-99v10zM1549 995h89v-10h-89v10zM1439 985h110v-10h-110v10zM1360 975h69v-10h-69v10zM1261 965h69v-10h-69v10zM1171 955h60v-9h-60v9zM1072 946h59v-10h-59v10zM963 936h89v-10h-89v10zM863 926h90v-10h-90v10zM853 916h10 v-10q-49 0 -49 -70v-10l9 -10v-10h-19q-249 -2 -249 -19l-30 10l-417 29q0 27 487 60q0 12 258 30zM694 777h110l69 -10v-10h-40l-139 10v10zM982 747h60v-10h-60v10zM1072 737h69v-10h-69v10zM1161 727h80v-10h-80v10zM1241 717h69l139 -10v-10h-49l-159 10v10zM1449 697 h90v-10h-90v10zM1549 687h89v-10h-89v10zM1638 677h99v-10h-99v10zM1737 667h40l1391 -139v-10h-30l-1401 139v10z" />
<glyph unicode="=" horiz-adv-x="3488" d="M-1 1085h3248l239 -239v-159h-189l189 -188v-159h-3328l-159 159v238h109l-109 109v239zM29 1065v-119h3188v119h-3188zM29 717v-119h3188v119h-3188z" />
<glyph unicode="&#x3e;" horiz-adv-x="3488" d="M2 1235h10l3238 -328l239 -238v-159h-10l-3288 -328h-30l-159 159v238q0 27 407 50q0 13 795 79v10l-1043 110l-159 158v249zM32 1215v-129l2344 -239l10 -10v-29l-2354 -239v-129l3198 338v99zM91 1145h30l1401 -139v-10h-40l-665 70v-10l-726 79v10zM1522 996h49 l140 -10v-9h-50l-139 9v10zM1711 977h49l249 -20v-10h-50l-248 20v10zM2009 947h89v-10h-89v10zM2108 937h79v-10h-79v10zM2207 927h80v-10h-80v10zM2307 917h69v-10h-69v10zM2376 907h40l725 -70q0 -31 -517 -59h-168v-10h29v-10l-79 -10h-10v10q40 0 50 50h188v10 q-198 0 -198 29q0 46 -60 50v10zM2297 748h99v-10h-99v10zM2197 738h90v-10h-90v10zM2118 728h69v-10h-69v10zM2018 718h70v-10h-70v10zM1919 708h80v-10h-80v10zM1820 698h79v-10h-79v10zM1750 688h70v-9l-159 -10h-40v10zM1522 669h89v-10h-89v10zM1422 659h100v-10h-100 v10zM1383 649h39v-10l-1321 -129h-20v10z" />
<glyph unicode="?" horiz-adv-x="2569" d="M1264 1454q863 0 1109 -295q193 -187 193 -244q0 -158 -804 -325q-163 -46 -163 -163l265 -285q0 -117 -397 -163h-285q-357 0 -519 244l-40 41v132q101 122 285 122v11q-41 0 -41 61v71q0 113 81 203l-193 -20h-295q-277 0 -407 203l-51 51v112q0 198 865 244h397z M22 1200q0 -91 387 -91q244 0 366 50v11l-40 132q51 81 223 81h61q214 0 214 -152v-112q0 -120 -264 -275q-72 -81 -72 -153v-51l51 -10h295q92 0 92 92q0 121 549 224q407 107 407 224q0 186 -895 254l-295 10q-828 0 -1058 -183zM1243 1373h21q654 0 956 -183l10 -31 l-61 21h-804v-31h855q-10 -30 -61 -30h-783v-31h753v-10l-72 -10h-681v-31h590v-10l-183 -20h-407v-31h366v-10l-102 -10h-275l-10 -31h183v-10l-183 -20h-10l-30 -31h61q0 -20 -92 -20q0 -20 -31 -20v-11h62v-20q-143 -10 -143 -41h112v-20h-122q-61 -6 -61 -30h173v-11 h-326q13 110 265 255q61 60 81 173l-10 10v102q0 95 -41 142zM704 1363l-30 -92l10 -40h-183l-143 -21v-10h356v-10l-102 -10h-427q-102 12 -102 40q296 143 621 143zM1315 1281v-20h417v10l-387 21zM1345 1231l10 -31h743v10l-153 21h-600zM999 1037l51 -101 q153 86 153 162v11h-31q-144 0 -173 -72zM643 366q0 -99 468 -122q478 25 478 152q-126 112 -498 112q-448 -23 -448 -142zM1060 447h92q217 0 366 -61v-10q-84 -41 -163 -41h-315l-214 -10l-122 41q76 81 356 81z" />
<glyph unicode="@" horiz-adv-x="5399" d="M2604 1433h447q1202 0 1758 -307q347 -321 347 -398v-49q0 -51 -69 -130h69l239 -238q-291 -238 -1311 -377q-495 -70 -1063 -70h-497q-1264 0 -2086 328q-121 57 -258 198q-179 143 -179 308q0 278 417 418q843 317 2186 317zM2544 1414v-10h536v10h-536zM31 748v-10 q0 -357 1331 -546h30v10q-1103 160 -1103 516q0 331 1043 566q703 110 1142 110v10h-139q-744 0 -1688 -229q-616 -194 -616 -427zM3259 1404v-10h109v10h-109zM3448 1394v-10h89v10h-89zM3587 1384v-10h79v10h-79zM3686 1374v-10q359 0 904 -209q179 -116 179 -208v-40 q0 -234 -755 -387v-10h20q864 162 864 437q0 287 -1162 427h-50zM2753 1135v-9q245 0 317 -100q97 80 130 80h526v10l-487 19h-486zM557 480v-40q259 -119 815 -218l99 -10h10v10q-117 0 -328 268v119q0 210 735 417q305 70 378 70v10h-20q-276 0 -1033 -169 q-656 -217 -656 -457zM1183 609v-20q0 -121 378 -139h139q395 0 943 219l10 -10v-20l-49 -70v-20q82 -99 437 -99h466v10q-268 0 -268 70q0 74 318 317q244 229 268 229v10h-29l-626 -10l-90 -80h-10q-103 100 -238 100h-20v-10q149 -17 149 -109q0 -213 -665 -408l-189 -30 h-50q-130 0 -169 70v30q0 155 537 397q136 60 367 60v10h-159q-462 0 -1102 -219q-348 -159 -348 -278zM3896 1101l227 -224v-20q-127 -87 -427 -367q481 69 705 149q338 154 338 248q-238 129 -735 199zM478 1056h10v-10q-70 -13 -219 -199q0 -37 -49 -99h19v-20 q-49 0 -49 -20v-10h49v-29h-69v-30h69l20 -20l-109 -10q-53 53 -70 129q0 166 398 318zM3666 1026q-33 -46 -109 -89v10l-10 -10h-218l-50 -10v-10h258q-10 -30 -59 -30h-239l-30 -20h-19l-80 20h-10v-30h378v-10l-50 -10h-338v-29h318v-20l-69 -10h-259l-29 -30h298v-10 l-50 -10h-258l-40 -20v-10h288q-10 -29 -60 -29h-268l-30 -30h298l-20 -20h-298l-69 -20v-10h348v-10l-20 -20h-378v-29h398v-20h-209q-190 0 -318 49q37 37 60 110q288 149 288 298l59 -30q26 1 139 89h457zM2226 1016h10v-10q-34 0 -278 -169l-119 -19v-10h89 q-10 -30 -60 -30h-109l-89 -20v-10h208l-19 -20h-229l-69 -20v-10h288l-30 -29h-328l-40 -20v-10h378v-20h-408l-29 -30h437l20 -20v-10h-487l-30 -20q-52 0 -99 50q0 178 725 368zM4819 986h10l10 -49v-30l-20 -20l10 50l-10 40v9zM2375 629v-10h10q69 0 407 179v10h-10 q-108 -13 -407 -179zM190 589h69l20 -20v-10h-30q-51 0 -59 30zM279 530h40v-20h-10l-30 10v10zM1362 530h536v-10l-49 -10h-338l-149 10v10zM4193 261v-10h30q540 110 774 229q4 19 60 30v10h-60l-168 -80q-267 -119 -636 -179zM3964 510v-10h40v10h-40zM3905 500v-10h40 v10h-40zM1809 182v-10l586 -20h397l586 20v10q-585 0 -645 119l-50 30q-398 -149 -874 -149zM4143 251v-10h40v10h-40zM4084 241v-9h49v9h-49zM4024 232v-10h40v10h-40zM3964 222v-10h40v10h-40zM3895 212v-10h40v10h-40zM1412 192v-10h49v10h-49zM1491 182v-10h50v10h-50z M1590 172v-10h40v10h-40z" />
<glyph unicode="A" horiz-adv-x="3050" d="M620 1423h1275q97 0 250 -191q141 -115 241 -331q319 -537 351 -562q70 0 190.5 -125.5t120.5 -145.5v-40l-30 -30h-1505l-190 191v10l10 10l-10 30h-332l181 -201q-15 -40 -30 -40h-953l-191 191v90q3 40 211 100l491 783v10q-20 0 -110 100v121zM610 1373 q0 -23 171 -50l20 -41q-530 -873 -602 -943l-171 -50v-10l20 -20h853v40q-251 33 -251 80q75 131 91 131h732q80 -88 80 -141q0 -49 -200 -70v-40h1374q52 0 61 30v20q-227 0 -352 311l-451 743q-44 40 -161 40h-1154q-60 -6 -60 -30zM831 1343h1064q55 0 90 -81v-10h-1084 v-10l20 -20h171q-7 -30 -81 -30h-80v-30h111q0 -20 -111 -20l-10 -10v-20h80v-10q0 -20 -110 -20l-10 -10v-20h90q0 -20 -110 -20l-10 -10v-20h90v-21l-50 -10h-70l-10 -30h100l-20 -20h-90l-20 -20v-10h100l-30 -30h-100l-10 -30h100v-20h-121l-10 -30h101v-10l-20 -20 h-111l-10 -30h111l-20 -21h-111l-10 -30h111v-20l-51 -10h-90l-10 -30h120l-20 -20h-120l-10 -30h130q-10 -30 -60 -30h-80l-30 -30h130l-20 -20h-130l-10 -30h120l-30 -30h-100l-30 -31h140v-20h-160l-11 -30h171l20 -20h-361q592 909 592 953v10zM1142 1222h853l20 -20 v-10h-793q-74 0 -80 30zM1112 1162h10q63 -69 331 -582v-10l-20 -20h-642l-20 20v20zM1202 1162h833l20 -20h-853v20zM1232 1112h833l20 -20v-10h-833l-20 20v10zM1262 1062l10 -10h843v-20h-823l10 -30h823l20 -21v-10h-822l30 -30h812l20 -20h-832l10 -30h833l20 -20v-10 h-823v-10l20 -20h833v-20h-833l10 -30h853v-30h-823v-10l20 -20h823l20 -21h-843l10 -30h843l20 -20v-10h-833v-10l20 -20h843v-20h-843l30 -30h833l20 -20l-10 -10h-833v-10l20 -20h853v-20h-853v-30h863l20 -20v-10h-862l10 -31h873l20 -20h-863v-10l20 -20h843l50 -10 v-10h-974q0 50 21 50q-12 85 -101 181h-10l10 10v10q0 46 -251 472v20zM1272 761l-100 -191h211v10q-70 143 -111 181z" />
<glyph unicode="B" horiz-adv-x="3299" d="M38 1423h1897q921 0 1093 -291q181 -157 181 -211q0 -100 -251 -160v-10q23 0 90 -71q251 -237 251 -301v-20q0 -309 -1093 -361h-1997l-211 171v140q0 23 241 70l10 51v652h-30q-40 0 -121 90q-100 92 -100 131v80zM28 1393v-40q241 -23 241 -60v-904q0 -52 -241 -80 v-30l20 -20h1335q1512 0 1635 271l20 80q0 211 -893 281l-20 30q0 20 372 50q441 78 441 201q-94 231 -1314 231h-1496zM1343 1363h210q311 0 311 -191v-10q0 -140 -70 -191q-117 -40 -241 -40h-210l-20 20v392zM299 1343h973v-91h-903v-10l20 -20h883v-30h-873l10 -30h863 v-20h-863v-30h863v-30h-863v-30h863v-20h-863v-30h863v-31h-863v-30h863v-20h-863v-30h863v-30h-863v-30h863v-20h-863v-30h863v-30h-863v-30h863v-21h-863v-30h863v-30h-863v-30h863v-20h-863v-30h863v-30h-863v-30h863v-20h-863v-30h863v-30h-863v-31h863v-20h-863v-30 h863v-20h-983q40 39 40 131v802q0 53 -30 91zM1854 1343h10q797 0 1014 -171v-10l-20 -20h-873l10 -30h803v-10l-171 -20h-622v-30h582v-10l-151 -10h-431l-10 -30h190v-11l-130 -20h-60v-30h80v-20h-80l-20 -20v-10h90l20 -20v-10h-140l-30 -30h200q737 -56 823 -161 l30 -30v-10l-10 10h-973v-30h993v-20h-993v-30h983q-10 -30 -60 -30h-913v-30h913v-10l-50 -10h-863v-30h803v-10l-141 -20h-662v-31h592v-10l-171 -10h-431v-30h150v-10l-291 -10q61 61 61 201v60l-10 201h331l-10 30h-321l-101 110q101 0 121 211v110zM1925 1252v-30h602 v10l-392 20h-210zM1965 1192l10 -30h853v10l-151 20h-712zM1593 1092v-131h11q220 0 220 111v20h-231zM1343 891h230q261 0 261 -140q20 0 20 -201q0 -241 -180 -241l-181 -10h-150l-20 20v552zM1935 751l30 -30h522v10l-342 20h-210zM1965 700v-10l20 -20h823v10l-201 20 h-642zM1593 620v-291q231 0 231 161v110l-20 20h-211z" />
<glyph unicode="C" horiz-adv-x="2453" d="M1114 1465h221l351 -30l150 30h241q54 0 231 -211l30 -30q54 0 120 -321v-20l-70 -20h-301q-106 0 -271 201q-110 50 -190 50h-20q-121 0 -121 -90v-683q187 0 221 151q42 50 120 50h261q114 0 141 -60l220 -221v-20q0 -199 -772 -241h-321q-872 0 -1255 512 q-100 112 -100 251v130q0 414 833 552zM30 903v-100q0 -287 602 -472q334 -70 693 -70q660 0 852 191v40q0 30 -200 30q-261 0 -261 -70q-34 -141 -261 -141h-60q-139 0 -181 80v853q0 141 191 141h30q228 0 391 -221q39 -40 231 -40q141 0 141 30q-74 281 -111 281l-50 10 h-130l-241 -40q-271 40 -452 40q-797 0 -1124 -351q-60 -99 -60 -191zM1154 1385h60q-50 -55 -50 -111h-211l-170 -20v-10h381v-30h-492l-100 -20v-10h592v-20h-632l-70 -20v-10h702v-30h-773l-40 -20v-10h813v-20h-843l-30 -30h873v-31h-903l-30 -30h933v-20h-943l-20 -20 v-10h963v-30h-983v-30h983v-20h-993v-30h993v-30h-993v-30h993v-21h-993v-30h993v-30h-983v-30h983v-20h-973q-111 113 -111 211v60q0 360 773 482q120 20 301 20zM1846 1385h231l10 -70v-11h-140v-10h150l10 -10v-10h-301l-80 81zM1836 1244h281v-30h-231l-50 10v20z M231 582h933v-30h-873q-52 0 -60 30zM321 522h843v-20h-823zM411 472h753v-30h-632l-121 20v10zM2107 462v-10q-258 -111 -391 -111l80 121h311zM562 411h602v-20h-502l-100 10v10zM793 361h381v-30h-10l-371 20v10z" />
<glyph unicode="D" horiz-adv-x="3312" d="M79 1427h1716q968 0 1295 -442q220 -185 220 -401q0 -447 -923 -562l-351 -20h-1846l-191 191v120q0 28 231 60l30 40v673q-57 0 -131 90q-110 90 -110 141v80q10 30 60 30zM49 1397v-20q0 -26 211 -40l20 -30v-914q0 -42 -251 -90l-10 -10v-10l60 -20h1475 q1485 0 1485 552v30q0 562 -1475 562h-1344zM1354 1357h170q321 -20 321 -121v-782q0 -117 -190 -141l-81 -10h-220l-20 20v1014zM330 1347h953l-10 -71l10 -10l-10 -10h-873v-30h883v-20v-10h-863v-30h863v-20h-863v-30h863v-20v-10h-863v-30h863v-20h-863v-30h863v-21v-10 h-863v-30h863v-20h-863v-30h863v-20v-10h-863v-30h863v-20h-863v-30h863v-20v-10h-863v-30h863v-21h-863v-30h863v-20v-10h-863v-30h863v-20h-863v-30h863v-20v-10h-863v-30h863v-20h-863v-30h863v-20v-10h-863v-31h863v-20h-863v-30h863v-20h-983q40 53 40 111v812z M1835 1347h10q592 0 1004 -231l20 -30h-883v-30h913l20 -20h-933v-30h943l20 -21v-10h-963v-30h983v-20h-983v-30h993v-30h-993v-30h1003l-20 -20h-983v-30h993v-10l-20 -20h-973v-30h983v-21h-983v-30h953v-20l-50 -10h-903v-30h913l-20 -20h-893v-30h853q-7 -30 -81 -30 h-772v-30h762v-10l-70 -10h-692v-30h632v-10l-141 -20h-491v-31h431v-10l-120 -10h-311v-30h90v-10l-231 -10q61 80 61 181v722h411v10l-331 20h-90q0 33 -61 91zM1956 1196v-10l20 -20h652v10l-140 20h-532zM1986 1146v-30h793v10l-91 20h-702zM1605 1086v-753 q220 0 220 161v582l-50 10h-170z" />
<glyph unicode="E" horiz-adv-x="2616" d="M20 1436h2081q53 0 182 -142q257 -261 293 -353h-10l-41 -10h-252l141 -142v-283q0 -20 -30 -20l232 -232q-141 -237 -181 -253h-2253l-192 192v121q0 26 253 61l10 10v707q-71 0 -101 51l-152 151v121zM30 1395v-30q253 -18 253 -61v-919q0 -40 -273 -81v-30l71 -10 h2051q92 0 141 131q17 2 71 101l-152 10q-257 0 -333 -101q-121 -101 -273 -101h-222l-20 20v516l20 20h252q122 0 182 -101l142 -20h101l101 10v272l-71 11h-202q-74 0 -131 -91q-52 -31 -101 -31h-273l-20 21v414l20 20h222q142 0 354 -152q85 -20 222 -20h81l50 10v10 q-139 192 -182 192l-91 10h-1969zM323 1355h970l-10 -10v-81h-899v-10l20 -20h879v-31h-869l10 -30h859v-20h-859v-31h859v-30h-859v-30h859v-20h-859v-31h859v-30h-859v-30h859v-20h-859v-31h859l20 -20l-10 -10h-869v-30h869l-20 -21h-849v-30h859v-30h-859v-30h859v-21 h-859v-30h859v-30h-859v-31h859v-20h-859v-30h859v-30h-859v-31h859v-20h-859v-30h859v-31h-859v-30h859v-20h-859v-30h859v-21h-970l20 61v828l11 41zM1828 1355h273l71 -81v-10h-192q-43 0 -152 91zM1606 1092v-151h41q70 0 161 111h101v10l-121 30h-182zM1828 971h263 v-101h-162l-30 -30h192v-21h-141l-122 -10l-70 81q35 0 70 81zM1606 587v-252h10q134 0 303 151l31 10l-101 91h-243zM2041 446h202v-10q-34 -81 -122 -81v-10h51v-21h-323q134 122 192 122z" />
<glyph unicode="F" horiz-adv-x="2594" d="M98 1436h2030q49 0 81 -51q254 -241 384 -424l-30 -30h-303v-11l161 -151v-263l-30 -30h-374q-70 0 -161 101l-61 10h-172v-242q49 0 71 -51l232 -252l-30 -41h-1667l-232 202v111q0 25 263 61l10 10v707q-71 0 -142 91l-101 101v111q17 41 71 41zM58 1385v-20 q242 -20 242 -91v-859q0 -91 -202 -91l-81 -10v-20q0 -30 162 -30h1404l71 10v40q-303 0 -303 101v384q6 61 30 61h212q166 0 192 -101l192 -20h121l51 10v262l-51 10h-141q-170 0 -192 -60q0 -51 -182 -61h-202l-30 31v404l30 30h212q152 0 354 -142q37 -30 282 -30h21 l70 10q-148 209 -212 212h-1939q-111 0 -111 -30zM320 1355h980v-91h-919v-10l20 -20h899v-11v-20h-879l10 -30h869v-20h-869l10 -31h859v-10v-20h-859v-30h859v-20h-859v-31h859v-10v-20h-859v-30h859v-20h-859v-31h869v-30h-869v-30h859v-21h-859v-30h859v-10v-20h-859 v-30h859v-21h-859v-30h859v-10v-20h-859v-31h859v-20h-859v-30h859v-10v-20h-859v-31h859v-20h-859v-30h859v-10v-21h-859v-30h859v-20h-859v-30h869l20 -21h-1000v11l21 60v849l10 10zM1846 1355h272l81 -91h-192q-48 0 -161 91zM1623 1102v-171h10q82 0 182 111h132 q-14 53 -303 60h-21zM1846 961h252v-71l-20 -20h-101q-61 -6 -61 -30h182v-21h-182l-70 -20l-11 10l-10 -10l-60 81v10q22 0 81 71z" />
<glyph unicode="G" horiz-adv-x="3290" d="M1354 1460h242l525 -41l122 41h232q83 0 182 -132q158 -142 343 -383q37 0 293 -273v-10q0 -61 -91 -61q-121 -13 -121 -40v-485q0 -91 -71 -91h-273l-464 81q-249 -81 -525 -81h-314q-759 0 -1181 374q-253 231 -253 363v152q0 342 849 535q250 51 505 51zM20 823 q0 -342 829 -535q314 -40 555 -40q359 0 647 91l606 -91h70q75 0 81 30v535q0 38 222 71v30l-121 10h-1323q-75 0 -81 -30v-10q222 -20 222 -111v-354q0 -121 -222 -121h-91q-202 0 -202 142v717q12 192 142 192q0 28 242 40h81q290 0 747 -242l192 -10h31l101 10v10 q-204 273 -253 273l-121 10h-51q-59 0 -232 -51q-371 51 -626 51q-844 0 -1324 -344q-121 -132 -121 -273zM1253 1379h10v-10q-34 0 -101 -101l-192 -20v-10h192v-11l-1 -20h-302l-132 -20v-10h435v-20h-485l-101 -20v-11h586v-10l-1 -20h-646l-71 -20v-10h718v-20h-738 l-70 -21v-10h808v-10l-1 -20h-848l-30 -30h879v-20h-899l-31 -31h930v-10l-1 -20h-959l-10 -30h970v-21h-980l-10 -30h990v-10l-1 -20h-979l-20 -20v-10h1000v-21h-1000v-10l20 -20h980v-10l-1 -20h-999q-81 74 -81 161v51q0 277 757 464zM2263 1379h222q53 -35 71 -81h-182 v-10h202l10 -10v-10h-273l-161 60v21zM2364 1238h242l20 -21v-10h-141l-121 20v11zM1485 965v-41l30 21h909v10q-326 161 -545 161h-81q-313 0 -313 -151zM1758 864h1010l-20 -81l10 -10l-10 -10h-930l31 -30h909l-21 -21h-878v-30h878l21 -20l-10 -10h-879v-31h889l-21 -20 h-868v-30h868l21 -20l-10 -10h-879v-31h889l-21 -20h-868v-30h868l21 -20l-10 -11h-879v-30h889l-21 -20h-424l-273 10l-171 -20q0 -41 -111 -41l20 81v334l10 10zM1485 793v-465h50q162 0 162 91v192q-38 0 -91 71l-111 111h-10zM192 621h970v-20h-950zM263 571h899v-10 l-1 -20h-818q-74 0 -80 30zM364 510h798v-20h-748l-50 10v10zM475 460h687v-10l-1 -21h-565l-121 21v10zM636 399h526v-20h-425l-101 10v10zM879 349h283l20 -21v-10l-303 21v10zM2384 349h353l21 -21l-10 -10h-132l-232 21v10z" />
<glyph unicode="H" horiz-adv-x="3389" d="M31 1436h1435l272 -273v-61q-161 -20 -161 -50v-132h222v223q-18 0 -151 141v101l10 51h1474l273 -283v-10q-9 -61 -202 -61q0 -20 -50 -20v-758q0 -20 30 -20l202 -202v-61l-20 -20h-1556l-182 202v111q0 21 172 61v212h-222v-374l151 -181l-30 -31h-1515l-182 182v131 q0 24 212 61l10 10v717q-46 0 -222 202v101zM31 1405v-30q174 -27 212 -71v-929q0 -40 -222 -61v-30l20 -20h1415v30q-7 21 -142 61l-10 50v425l30 30h465q30 -10 30 -61v-384q0 -83 -151 -101h-20v-50h1454v30q0 20 -182 51q-50 32 -50 80v839q0 101 242 101l10 10v30 l-50 10h-1384l-20 -20v-30q151 0 151 -111v-323l-30 -31h-475l-20 20v374q0 51 172 71v40l-101 10h-1293zM284 1355h990l-31 -61l11 -10v-20h-910v-10l21 -20h889v-11l-1 -20h-878l10 -30h869v-20h-869v-31h869v-10l-1 -20h-868v-30h869v-20h-869v-31h869v-10l-1 -20h-868 v-30h869v-20h-869v-31h868l11 -20l-10 -10h-869v-30h869v-21h-869v-30h869v-10l-1 -20h-868v-30h869v-21h-869v-30h869v-10l-1 -20h-868v-31h869v-20h-869v-30h869v-10l-1 -20h-868v-31h869v-20h-869v-30h869v-10l-1 -21h-868v-30h869v-20h-869v-30h869l20 -21h-1000 q30 39 30 91v849zM1860 1355h990l-21 -91h-899l10 -30h889v-11v-20h-868v-30h868v-20h-858v-31h858v-10v-20h-858v-30h858v-20h-858v-31h858v-10v-20h-858v-30h858v-20h-858v-31h858v-10v-20h-858v-30h858v-21h-868v-30h868v-10v-20h-878l10 -30h868v-21h-868l10 -30h858 v-10v-20h-858v-31h858v-20h-858v-30h858v-10v-20h-858v-31h858v-20h-858v-30h858v-10v-21h-858v-30h858v-20h-858v-30h869l20 -21h-1000l20 81v394l-10 81l10 81v313z" />
<glyph unicode="I" horiz-adv-x="1890" d="M61 1436h1575l273 -273v-10q0 -71 -141 -71q-132 -7 -132 -40v-677q0 -61 51 -91l202 -212v-41l-20 -20h-1687l-182 182v91q0 71 121 71q162 20 162 50v697h-30q-69 0 -91 51l-152 171v112zM40 1405v-40q263 -18 263 -81v-909q0 -43 -273 -61v-50h1586v50h-10 q-242 0 -242 101v839q0 111 272 111v30l-20 20h-1525zM323 1355h1020q-30 -32 -30 -91h-929v-10l20 -20h909v-11v-20h-879v-10l21 -20h858v-20h-869v-31h869v-10v-20h-869v-30h869v-20h-869v-31h869v-10v-20h-869v-30h869v-20h-869v-31h869v-10v-20h-869v-30h869v-21h-869 v-30h869v-10v-20h-869v-30h869v-21h-869v-30h869v-10v-20h-869v-31h869v-20h-869v-30h869v-10v-20h-869v-31h869v-20h-869v-30h869v-10v-21h-869v-30h869v-20h-869v-30h869l20 -21h-990l21 91v849l-10 10v10h10z" />
<glyph unicode="J" horiz-adv-x="2182" d="M309 1434h1584q44 0 67.5 -20t223.5 -250v-30q0 -40 -241 -61l-10 -70v-792q0 -201 -641 -331q-311 -50 -662 -50h-421q-44 0 -211 170v141q0 29 341 40q251 57 251 170v722q0 15 -121 41l-170 170v100zM329 1394v-10q11 -19 261 -60l30 -80v-872q0 -231 -502 -231h-70 l-20 -20v-20l80 -10q1299 0 1535 301l30 80v832q18 60 240 60v40l-50 10h-1514zM630 1354h1003l-21 -90v-20h-912l30 -30h882v-20h-872l10 -30h862v-30h-852v-30h852v-21h-852v-30h852v-30h-852v-30h852v-20h-852v-30h852v-30h-852v-30h852v-20h-852v-30h852v-30h-852v-30 h852v-20h-852v-31h852v-30h-852v-30h852v-20h-852v-30h852v-30h-852v-30h852v-20h-852v-30h852v-30h-852v-30h842v-20h-842v-30h802q-6 -31 -80 -31h-722v-30h712v-10l-70 -10h-642v-30h582v-10l-141 -20h-441l-10 -30h381v-10l-150 -10h-221q-15 0 -30 -40h-20l-170 -10 h-21v10q80 0 151 150v883l10 40q-13 69 -50 120z" />
<glyph unicode="K" horiz-adv-x="3316" d="M10 1433h1522q20 0 272 -251l70 50q-50 61 -50 91v100l50 10h897q272 -260 272 -292q0 -60 -241 -60l-444 -212q490 -489 585 -514q121 0 191 -101l182 -181v-40l-31 -31h-1441l-191 192v91q0 60 80 60v10l-131 121l-40 -30v-182l181 -221l-40 -41h-1512l-191 192v121 q8 22 202 60l10 10v716q-51 0 -212 181v101zM30 1393v-30q202 -18 202 -71v-917q0 -38 -212 -70v-30l71 -11h1280q110 0 110 51h-10q-181 32 -181 80v303q0 30 131 70l433 -393q-12 -60 -171 -60v-30l20 -21h1270q81 0 81 51h-11q-181 0 -332 191l-635 585v10q0 33 484 242 q211 18 211 40v10l-20 20h-877l-20 -20v-20q172 -30 172 -60v-11q-27 -47 -716 -423l-20 30v383q0 48 232 71v30l-20 20h-1452zM262 1353h998l-31 -91l11 -10l-11 -10h-896l30 -30h877l-1 -20h-866v-31h866l1 -20l-1 -10h-866v-30h867l-1 -20h-866v-30h866l1 -21l-1 -10 h-866v-30h867l-1 -20h-866v-30h866l1 -20l-1 -11h-866v-30h877v-20h-877v-30h998q13 43 292 181l413 252l10 40l-10 41v10h353v-10q-219 -101 -282 -101l10 -10v-10q-152 -63 -152 -161l-10 -10q51 0 51 -21v-10h-91l-70 -20v-10h211l20 -20h-252l-70 -20v-10h353l20 -20 v-11h-413q-61 -6 -61 -30h524l20 -20h-594l-41 -20v-10h665l21 -20v-10h-726q-50 -3 -50 -21l-101 51q-67 -30 -141 -30h-897v-31h907v-10l-41 -10h-866v-30h867v-10l-1 -20h-866v-31h867l-1 -20h-866v-30h866l1 -20l-1 -10h-866v-30h867l-1 -21h-866v-30h866l1 -20l-1 -10 h-866v-30h867l-1 -20h-866v-31h867v-30h-867v-30h-101l20 91v836q0 49 -30 101zM1512 768h836v-20h-816zM1572 718h816l21 -20v-10h-776q-53 0 -61 30zM1633 657h816l20 -20h-816zM1693 607h816l21 -20v-10h-776q-53 0 -61 30zM1754 547h816l20 -21h-786l-50 11v10z M1814 496h816l20 -20v-10h-776q-52 0 -60 30zM1874 436h817l20 -20h-816zM1905 385h816l50 -10v-20h-846l20 -30h-50z" />
<glyph unicode="L" horiz-adv-x="2577" d="M31 1430h1549q282 -254 282 -311q-25 -30 -131 -30q-141 -24 -141 -51v-704q142 0 312 171l80 20h302q43 0 60 -40l232 -221q-107 -262 -192 -262h-2152q-70 0 -241 192v110q0 34 201 50l40 31l10 10v683l-70 41l-171 181v100zM31 1390v-20q242 -16 242 -110v-815 q0 -141 -252 -141v-30l101 -10h1951q144 0 171 121q60 81 60 110h-10l-91 10h-100q-234 0 -282 -110q-122 -91 -261 -91h-211l-20 20v966q0 55 261 70v40l-101 10h-1438zM303 1350h995q-30 -38 -30 -90v-21h-895l30 -30h865v-20h-865v-30h865v-30h-855v-30h855v-21h-855v-30 h855v-30h-855v-30h855v-20h-855v-30h855v-30h-855v-31h855v-20h-855v-30h855v-30h-855v-30h855v-20h-855v-31h855v-30h-855v-30h855v-20h-855v-30h855v-30h-855v-31h855v-20h-855v-30h855v-30h-855v-30h855v-20h-855v-30h855v-31h-855v-30h-120q30 52 30 101v845zM1982 445 h232v-10q-45 -81 -61 -81h-70q-34 0 -71 -30h-191q109 121 161 121z" />
<glyph unicode="M" horiz-adv-x="3608" d="M24 1433h1169l474 -443l474 443h1169q37 0 80 -50q212 -207 212 -232h10q0 -60 -242 -80l-10 -10v-746l222 -222v-40l-10 -51h-1562l-202 202v101l-50 -41h-404l-423 393l-10 11h-10v-373q28 0 61 -51q181 -173 181 -191q0 -51 -91 -51h-816q-47 0 -222 192v111 q0 28 182 70l10 10v706q-42 0 -81 50q-25 0 -141 141v91q6 60 30 60zM24 1393v-30q222 0 222 -141v-786q0 -111 -151 -111l-51 -40l81 -21h645q111 0 111 31q0 26 -202 60l-30 30v605l30 30l524 -494h303l534 504h10l20 -20v-615q0 -50 -222 -70l-10 -10v-40l51 -11h1421v61 q-222 0 -222 101v836q0 81 91 81l161 30v30l-101 10h-1078l-484 -443h-20l-474 443h-1139zM256 1353h907l101 -101v-10h-937l30 -30h957l20 -20h-967l10 -31h988l20 -20v-10h-1008l10 -30h1038l20 -20h-1058v-30h232l-30 -31h-202v-30h202v-20h-202v-30h202v-31h-202v-30 h202v-20h-202v-30h202v-30h-202v-31h202v-20h-202v-30h202v-30h-202v-31h202v-20h-202v-30h202v-30h-202v-30h202v-21h-202v-30h202v-30h-202v-30h202v-20h-202v-31h212v-30h-212v-30h-111l20 91v846q0 37 -40 91zM2171 1353h887l-31 -71l10 -10v-10l-20 -20h-766l-40 -20 v-10h826v-20h-846l-30 -31h876v-10v-20h-907l-30 -30h937v-20h-937l-60 10q-32 0 -292 -252h-11l-20 20h-786l-20 20h776l-20 30q42 0 242 202zM730 1051h725l51 -11v-20h-696q-74 0 -80 31zM2120 1051h917v-11v-20h-896l-21 20v11zM800 990h746l20 -20h-746zM2120 990h917 v-20h-896zM851 940h745l31 -31h-716q-52 0 -60 31zM3037 940v-10v-21h-836l10 -30h826v-20h-826v-30h826v-10v-20h-826v-31h826v-20h-826v-30h826v-10v-20h-826v-31h826v-20h-826v-30h826v-10v-20h-826v-30h826v-21h-826v-30h826v-10v-20h-826v-30h826v-20h-826v-31h816 l21 -20l-11 -10h-826v-30h-121q30 36 30 81v524l10 10h907zM972 829h765q-10 -30 -60 -30h-635l-70 10v20zM1032 768h645l-20 -20h-605zM1082 718h535v-20l-71 -10h-403q-52 0 -61 30zM1143 657h413l-20 -20h-343l-50 10v10zM1203 607h303l-20 -20h-263zM1858 355l182 30 v141z" />
<glyph unicode="N" horiz-adv-x="2861" d="M71 1433h888l969 -565v222q-96 0 -161 91q-121 103 -121 151v71l10 30h939l272 -272v-41q0 -28 -222 -60v-1060h-575q-41 0 -1081 616h-10v-273l273 -283v-10l-10 -50h-1020q-192 161 -192 192v141q233 30 233 61v696q-71 0 -172 111l-91 101v81q14 50 71 50zM30 1383 v-10q253 -19 253 -111v-889q0 -35 -233 -60v-41l51 -10h878v41q-272 28 -272 101v504l30 31l1171 -677h465v1030q0 51 232 71v20l-30 30h-899v-20q0 -28 242 -61q41 -27 41 -70v-394l-20 -20q-42 0 -1000 565h-828q-74 0 -81 -30zM313 1353h596q34 0 212 -111v-10l-51 10 h-686l10 -31h717l40 10l182 -111h-10l-61 21h-838v-31h878l41 10l182 -111h-11l-60 20h-1030v-30h283v-10l-51 -10h-232v-30h232v-10v-21h-232v-30h232v-20h-232v-30h232v-10v-21h-232v-30h232v-20h-232v-30h232v-11v-20h-232v-30h232v-20h-232v-30h232v-11v-20h-232v-30 h232v-20h-232v-31h232v-10v-20h-232v-30h232v-20h-232v-31h232v-30h-232v-30h-101l20 91v848zM1989 1353h353l-30 -91l10 -10l-10 -10h-252v-21l50 -10h212v-20h-232v-10l20 -20h212v-20v-10h-222v-31h222v-20h-222v-30h222v-20v-11h-222v-30h222v-20h-222v-30h222v-20v-11 h-222v-30h222v-20h-222v-30h222v-21v-10h-222v-30h222v-20h-222l-30 -30h252v-21v-10h-999q-75 0 -81 31h747v10l-40 20h-748l-50 10v10h747q-10 30 -60 30h-707q-75 0 -81 31h747v10l-40 20h-747l-51 10v10h747l-10 10v10h10l222 -111q81 0 81 81v394zM414 1191l10 -30h798 v10l-41 20h-767zM424 1080v-30h990v10l-41 20h-949zM1535 999q156 -81 161 -101l-50 10h-697l-91 21v10h747v10l-40 20h-747l-51 10v10h727zM1343 656h979v-20h-929l-50 10v10zM1434 606h888v-21v-10h-808q-74 0 -80 31zM1535 545h787v-20h-767zM1626 494h696v-20v-10h-616 q-74 0 -80 30zM1716 434h606v-20h-555l-51 10v10zM1817 383h505v-20v-10h-424q-74 0 -81 30z" />
<glyph unicode="O" horiz-adv-x="3200" d="M1351 1454h283q979 0 1403 -546q162 -145 162 -282v-71q0 -300 -657 -495q-337 -80 -717 -80h-333q-1004 0 -1393 525q-101 96 -101 232v141q0 267 525 454q367 122 828 122zM18 838q0 -413 909 -566l535 -30q1060 0 1403 394q71 103 71 192q0 407 -878 565 q-312 40 -586 40q-1109 -10 -1403 -424q-51 -95 -51 -171zM1432 1393h80q223 0 223 -111v-909q-55 -91 -233 -91h-70q-222 0 -222 122v898q60 91 222 91zM1189 1373l-40 -91l10 -30l-10 -10h-162l-171 -21v-10h343v-20h-414l-101 -20v-10h515v-10v-20h-596l-70 -21v-10h666 v-20h-697l-70 -20v-10h767v-10v-21h-818l-30 -30h848v-20h-878l-31 -30h909v-10v-21h-929l-20 -20v-10h949v-20h-969l-10 -30h979v-10v-21h-989v-30h989v-20h-999v-30h999v-11v-20h-989v-30h989v-20h-969l-10 -10q-50 0 -101 161v81q0 277 707 454zM1755 1373 q588 -57 777 -172q44 0 212 -121h-868v-30h899l20 -20v-11h-919v-30h949l20 -20h-969v-30h969l20 -20l-10 -11h-979v-30h1000v-20h-1000v-30h1000v-10l-21 -21h-979v-30h1000l-21 -20h-979v-30h969v-21l-50 -10h-919v-30h929l-20 -20h-909v-30h878q-10 -31 -60 -31h-818v-30 h798v-10l-51 -10h-747v-31h697q0 -30 -111 -30h-586v-30h565v-10l-70 -10h-495v-31h384v-10l-233 -20h-151v-30h30v-10l-151 -10q40 46 40 141v818q0 58 -40 111zM1846 1282v-10h101v10h-101zM1856 1242v-10l20 -21h474v10l-171 21h-323zM1876 1191v-30h646v10l-101 20h-545 zM1876 1131v-31h808v10l-81 21h-727zM1482 1060v-747h51q181 0 181 121v686h-60q-131 0 -172 -60zM190 606h969v-11v-20h-888q-75 0 -81 31zM271 545h888v-20h-838l-50 10v10zM361 494h798v-10v-20h-676l-122 20v10zM503 434h656v-20h-585l-71 10v10zM674 383h485v-30h-232 l-253 20v10zM1028 323h151v-10h-151v10z" />
<glyph unicode="P" horiz-adv-x="3325" d="M32 1433h1787q1077 0 1343 -403q162 -132 162 -233q0 -264 -677 -353q-313 -50 -1040 -50v-71q27 0 273 -273v-20q-10 -30 -61 -30h-1575q-47 0 -222 192v121q0 30 222 50v727q-64 0 -242 202v111zM32 1403v-20q0 -26 192 -51l51 -40v-929q0 -38 -233 -50v-20 q7 -31 81 -31h1383l101 10v31q-272 15 -272 111v222l30 30h232q1147 0 1414 253l40 100v41q0 265 -1070 343l-465 10h-1433zM1365 1373h192q303 0 303 -141v-384q0 -120 -253 -142h-252l-20 21v616zM295 1353h989v-31l-10 -40l10 -30l-10 -10h-909l31 -31h888v-20h-878 l10 -30h868v-10v-20h-868v-31h868v-20h-868v-30h868v-10v-21h-868v-30h868v-20h-868v-30h868v-10v-21h-868v-30h868v-20h-868v-30h868v-10v-21h-868v-30h868v-20h-868v-30h868v-31h-868v-30h868v-20h-868v-30h868v-11v-20h-868v-30h868v-20h-868v-31h868v-10v-20h-868v-30 h868v-20h-868v-31h868v-30h-868v-30h-101l20 81v868q0 32 -40 81zM1860 1353h10q963 -48 1090 -243h-10l-60 21h-889v-31h969l21 -20h-990v-30h1000v-10l-21 -21h-979v-30h979l-10 -20h-969v-30h929q-10 -31 -61 -31h-868v-30h838v-10l-50 -10h-788v-30h697v-10l-232 -21 h-465v-30h374v-10l-253 -10h-91l-80 -20h-91q45 51 60 121v373q0 62 -60 132zM1930 1242l31 -31h595v10l-242 21h-384zM1981 1191v-10l20 -20h798v10l-142 20h-676zM1607 1100v-363h10q212 0 212 111v252h-222z" />
<glyph unicode="Q" horiz-adv-x="3282" d="M1363 1454h263q1012 0 1403 -525q192 -157 192 -344q0 -159 -172 -313l20 -20l192 -182l20 -191q0 -51 -292 -61q-414 0 -788 182l-343 -20h-364q-1068 0 -1464 636q-30 90 -30 181q0 535 1121 647zM30 807q0 -313 707 -494q348 -71 757 -71l525 30q390 -181 798 -181 q108 0 192 30v101q0 71 -20 71q-455 36 -455 101q414 182 414 424v20q0 458 -1080 575l-374 20q-1166 0 -1444 -474zM1454 1393h60q233 0 233 -121v-717q0 -52 -31 -61l-262 21l-30 -10v-11q0 -22 242 -70l61 -41l10 -10q-38 -91 -233 -91h-60q-150 0 -212 81v949 q51 81 222 81zM1767 1373q607 -61 787 -172q109 -32 202 -121h-868v-30h909l20 -20v-11h-929v-30h949l20 -20h-969v-30h990v-31h-990v-30h1010l-20 -20h-990v-30h1010v-10l-20 -21h-990v-30h1000v-20h-1000v-30h979v-21l-50 -10h-929v-30h939l-20 -20h-919v-30h889 q-7 -31 -81 -31h-808v-30h808v-10l-51 -10h-757v-31h707v-10l-91 -20h-616l-10 -30h616v-20h-616l-10 -31h616v-30h-677v-10q0 -20 111 -20v-10h-141l10 10v71l-40 50v10q50 0 50 71v757q0 53 -30 91zM1191 1363v-10q-20 -40 -20 -111h-171l-172 -21v-10h343v-20h-414 l-101 -20v-10h515v-30h-595l-71 -21v-10h666v-20h-696l-71 -20v-10h767v-31h-818l-30 -30h848v-20h-878l-30 -30h908v-31h-929l-20 -20v-10h949v-20h-969l-10 -30h979v-31h-989l-10 -30h999v-20h-999v-30h999v-31h-999v-10l20 -20h979v-20h-999q-68 57 -91 171v51 q0 156 293 323q406 182 817 182zM1848 1282v-10h111v10h-111zM1858 1242l10 -31h505v10l-172 21h-343zM1878 1191v-30h676v10l-111 20h-565zM1888 1131v-31h818v10l-91 21h-727zM1494 1030v-495l222 -10v595h-80q-142 -12 -142 -90zM212 606h959v-31h-898q-53 0 -61 31z M293 545h878v-20h-828l-50 10v10zM384 494h787v-30h-666l-121 20v10zM525 434h646v-20h-575l-71 10v10zM697 383h464l20 -20l-10 -10h-232l-242 20v10zM1060 323h141v-10h-141v10zM2050 323h444l50 -10v-10h-424l-70 10v10zM2655 282q165 -40 293 -40v-71q0 -23 -161 -30 l-162 10v10h303v10l-212 21h-293l-71 10v10h334v10l-51 20h-313l-141 20v10h384z" />
<glyph unicode="R" horiz-adv-x="3337" d="M72 1434h1830q594 0 1011 -182q354 -303 354 -384v-20q0 -131 -344 -213v-10q273 -254 273 -323v-102l142 -141v-30l-31 -31h-1031q-225 0 -384 223l-51 50v243h-232v-293q22 0 161 -152v-10q0 -61 -60 -61h-1466q-54 0 -223 192l-10 51v40q0 71 121 71q112 16 112 51 v687q-79 0 -142 91l-101 101v112q16 40 71 40zM21 1373v-10q253 0 253 -101v-869q0 -54 -233 -81l71 -51h1284q112 0 112 30v21q-172 22 -172 70v385l20 20h202q303 -14 303 -91v-303q0 -132 334 -132h819q52 0 61 30q0 31 -101 31l-51 40v192q0 180 -768 233l-10 10v20 q0 24 363 51q496 88 496 232q0 258 -1223 314h-1669q-77 0 -91 -41zM1356 1373h182q323 0 323 -131v-253q-27 -152 -252 -152h-253l-20 21v495zM294 1353h991l-10 -10v-30l10 -10l-10 -31h-859l-51 -10v-10h920v-20h-910l30 -31h880v-20v-10h-869v-30h869v-20h-869v-31h869 v-20v-10h-869v-30h869v-21h-869v-30h869v-20v-10h-869v-31h869v-20h-869v-30h869v-20v-11h-869v-30h879l-10 -20h-869v-30h869v-21v-10h-869v-30h869v-20h-869v-31h869v-20v-10h-869v-30h869v-21h-869v-30h869v-20v-10h-869v-31h869v-20h-869v-30h869v-20v-10h-869v-31h869 l10 -20h-879v-20h-122q41 56 41 121v819q0 33 -41 91zM1872 1353h40q651 0 1021 -212v-20h-930v-31h940q-10 -30 -60 -30h-880v-30h869v-11l-70 -10h-799v-30h728v-10l-233 -20h-495v-31h404v-10l-252 -10h-152v-30h101q0 -31 -111 -31l-10 -10v-20h91l20 -20h-121l-31 -30 h142l71 -21v-10h-233q-81 81 -131 81q131 85 131 233v202q0 46 -50 111zM1932 1262v-10h303v10l-272 10zM1952 1232l31 -31h637v11l-223 20h-445zM1993 1171l10 -30h859v10l-101 20h-768zM1609 1100v-232h10q222 0 222 162v50l-20 20h-212zM2235 716h11q539 -27 616 -152 v-10l-50 10h-809v-30h859v-20v-10h-859v-31h859v-20h-859v-30h859v-20v-10h-859v-31h859v-20h-859q-55 0 -81 40v284l61 -21h293v10l-41 21h-313v20h313v20zM1993 615v-10l20 -20h718v10l-223 20h-515z" />
<glyph unicode="S" horiz-adv-x="2332" d="M1598 1468q232 0 232 -60q24 0 263 -263l141 -233v-10l-20 -20h-414q-51 0 -445 202l-182 30h-20v-10q484 -182 849 -404q323 -315 323 -394v-41q0 -217 -707 -283h-344l-394 30l-152 -30h-263q-62 0 -243 222l-161 273v102h10l40 10h304q70 0 353 -192q184 -71 294 -71 h101v10q-680 247 -941 455q-222 207 -222 303v61q0 246 627 303h243q163 0 505 -40q114 40 223 50zM30 1175v-20q0 -168 668 -425q434 -182 596 -273q51 -32 51 -81v-10q-38 -71 -202 -71h-41q-280 0 -607 243q-41 30 -252 30h-71q-71 -3 -71 -20q164 -301 202 -303h61 q155 0 303 40l536 -40q537 0 809 172q35 38 51 101q0 189 -516 384l-657 303q-101 71 -101 122q36 60 121 60h71q210 0 606 -232l172 -10h152l51 10q-160 273 -193 273l-131 10h-10q-129 0 -263 -51q-359 51 -586 51q-749 -41 -749 -263zM748 1377q0 -50 -20 -50l10 -10v-31 h-10l-202 -20v-10h232v-20h-313l-101 -20v-11h455l30 -30h-566l-30 -30h667l20 -20h-728l-10 -31h768l-10 10v10h10l921 -424l80 -71h-788l-122 20v10h850v10l-71 21h-839l-71 10v10h880v10l-91 20h-809l-122 20v11h890v10l-81 20h-879l-51 10v10h900v10l-81 20h-859l-91 21 v10h889v10l-91 20h-859l-51 10v10h880v10l-71 21h-839l-91 20v10h870v10l-71 20h-839l-51 10v11h860v10l-71 20h-799l-10 -10q-91 51 -91 121q126 202 667 202zM1537 1377h212l61 -91h-172l-101 -20v-10h303v-20h-253q-40 0 -202 91h-10v10zM1173 589h819v-21h-769l-50 11 v10zM1284 538h718v-10l-20 -20h-617q-75 0 -81 30zM192 508h223q57 0 182 -111h-324l10 -31h354l51 -10v-10h-385l10 -30h223v-10l-233 10zM1355 477h627l-20 -20h-557l-50 10v10zM1395 427h516v-10l-121 -20h-374l-21 20v10zM1405 376l11 -10h333v-10l-121 -10h-172l10 -10 v-20l-91 -10z" />
<glyph unicode="T" horiz-adv-x="2891" d="M2557 1438q293 -276 293 -344l41 -131q0 -51 -91 -51h-314q-88 0 -182 122q-69 70 -121 70h-51v-809l233 -222v-40l-30 -31h-1598l-192 192v112q0 35 222 70v698l-111 -152l-71 -10h-353q-60 0 -233 202v71v10q32 243 101 243h2457zM29 1185h10l142 -10h40q223 0 223 81 q60 121 202 121h132l20 -20v-981q0 -40 -213 -60l-10 -10v-31l51 -10h1405l71 10v20q0 25 -202 51l-41 51v950l31 30h81q149 0 293 -182l40 -10h293q21 0 21 31q-48 202 -101 202h-2285q-162 0 -162 -41zM130 1357h314q-45 -81 -61 -81h-91l-71 -10v-10h162l-20 -20h-273 q18 121 40 121zM848 1357h961v-61v-20h-819l-51 -10v-10h870v-20h-870v-31h870v-10v-20h-870v-30h870v-20h-870v-31h870v-10v-20h-870v-30h870v-21h-870v-30h870v-10v-20h-870v-31h870v-20h-870v-30h870v-10v-21h-870v-30h870v-20h-870v-30h870v-11v-20h-870v-30h870v-20 h-870v-31h870v-10v-20h-870v-30h870v-21h-870v-30h870v-10v-20h-870v-31h870v-20h-870v-30h870v-10v-20h-870v-31h880v-20h-880v-20h-101l20 31v980l-10 10v10zM2183 1357h334l20 -81h-263l-91 71v10zM2284 1256h253l20 -20h-222l-51 10v10z" />
<glyph unicode="U" horiz-adv-x="2770" d="M31 1434h1477q20 0 262 -273v-30q0 -31 -192 -71v-678h91q143 0 192 71v657l-202 213v81l31 30h788q44 0 273 -253l20 -20v-40q0 -35 -202 -51l-20 -30v-819q0 -171 -597 -233l-252 -10h-415q-764 0 -960 273q-102 99 -102 152v687q-54 0 -111 81l-111 91v142zM21 1383 v-20q223 -20 223 -71v-778q0 -273 1071 -273q792 0 961 192v809q0 111 162 111l60 10v41l-50 10h-708l-50 -10v-10q0 -27 171 -61q31 -39 31 -91v-748q0 -142 -253 -142h-91q-243 0 -243 111v799q0 83 152 101q40 0 40 20v11l-20 20h-1375q-74 0 -81 -31zM274 1353h1001 q-26 -81 -40 -81h-850l-50 -10v-10h920v-20h-900l30 -31h870v-10v-20h-870v-30h870v-20h-870v-31h870v-10v-20h-870v-30h870v-21h-870v-30h870v-10v-20h-870v-31h870v-20h-870v-30h870v-10v-21h-870v-30h870v-20h-870v-30h870v-11v-20h-870v-30h870v-20h-870v-31h870v-10 v-20h-870v-30h870v-21h-870v-30h870v-10v-20h-870v-31h870v-20h-870v-30h870l10 -30h-769q-192 17 -192 111v728q0 86 -30 121zM1922 1353h334q-31 -43 -31 -81h-171l-71 -10v-10h242v-20h-222l10 -31h212v-10v-20h-202v-30h202v-20h-192v-31h192v-10v-20h-192v-30h192v-21 h-192v-30h192v-10v-20h-192v-31h192v-20h-192v-30h192v-10v-21h-192v-30h192v-20h-192v-30h192v-11v-20h-192v-30h192v-20h-192v-31h192v-10v-20h-192v-30h192v-21h-192v-30h192v-10v-20h-192v-31h182l-10 -20h-172v-30h132q0 -30 -111 -30h-21q0 -48 -172 -61h-10v10 q91 30 91 111v809zM547 362h748l20 -20h-616l-152 10v10zM992 312h455v-10h-455v10z" />
<glyph unicode="V" horiz-adv-x="3054" d="M20 1433h1443l262 -262v-61l-191 -40q0 -49 211 -313l303 383q0 25 -131 131v142l20 20h868l252 -283v-30q0 -15 -192 -71l-857 -1069h-757q-85 0 -383 393l-555 697q-162 27 -162 60l-151 152v131zM30 1413v-51q206 0 313 -202q682 -873 737 -918h686l444 565 q315 425 454 535l121 20v51h-838v-41q232 -25 232 -70v-31q-422 -543 -474 -585h-10l-434 606q0 55 202 90v10l-20 21h-1413zM262 1352h959l-10 -81h-868l-81 71v10zM2220 1352h353l-81 -81h-151l-51 -10v-10h192v-20h-182l10 -30h132v-20l-51 -10h-70l-11 -31h91 q0 -20 -111 -20l-10 -10v-20h71v-20q-121 -10 -121 -41h80q0 -20 -100 -20l-21 -30h81q0 -25 -121 -41l-10 -10v-10h81q0 -20 -101 -20l-20 -30h80q0 -30 -111 -30l-10 -11v-20h71v-20h-91l-20 -20v-10h70v-20q-121 -10 -121 -41h81q0 -20 -101 -20l-20 -30h71v-20 q-121 -10 -121 -41h80q0 -20 -111 -20l-30 -10v-10l-81 20h-847l-20 20h888l-31 31h-847l-51 10v20h787l91 -20q72 21 313 353q222 261 222 313zM353 1251h858l20 -20h-858zM393 1201h848l20 -20v-10h-817l-51 10v20zM434 1140h857l21 -20h-858zM474 1090h848l20 -20v-10 h-838zM525 1029h857v-20h-837zM565 979h837l21 -20v-10h-828zM605 918h858v-20h-837zM656 868h827l20 -20v-10h-827l-20 20v10zM696 807h848v-20h-828zM737 757h827l20 -20v-10h-817zM787 696h817l20 -20h-837v20zM908 535h1009q-10 -30 -61 -30h-918zM958 474h909l-21 -20 h-867zM999 424h827l-30 -30h-747l-50 10v20zM1039 363h737v-20h-717zM1090 313h645v-10h-645v10z" />
<glyph unicode="W" horiz-adv-x="4377" d="M0 1436h1312q43 0 292 -273v-40q0 -17 -121 -50v-21l182 -242l161 253q-282 201 -282 222v131l20 20h1362l252 -262v-41q0 -30 -182 -60l142 -222h10q222 290 222 312l-10 11l-121 131l-10 20v101l10 10h887l253 -262v-11q0 -80 -162 -80q-53 -26 -262 -333 q-517 -722 -565 -757l-40 -10h-676q-63 0 -263 242q0 24 -171 242q-290 -441 -343 -484h-706q-113 17 -354 363l-544 737q-293 181 -293 202v151zM30 1416v-51q195 0 263 -161q527 -700 686 -939l70 -20h555q68 0 192 212l262 363h10q58 -48 414 -565l71 -10h514 q106 0 192 172l666 908l181 60l10 10v11l-50 10h-787l-20 -21l202 -50l30 -40q0 -51 -373 -535h-11q-373 498 -373 545q0 40 172 50v51h-1322l-20 -21v-10q0 -16 151 -60l172 -232q-215 -331 -263 -353q-381 492 -413 565q0 40 50 40l81 30v31l-71 10h-1241zM252 1355h918 l-10 -50v-31h-787l-50 -10q-51 81 -71 81v10zM1766 1355h918l-10 -40l10 -30l-10 -11h-818l-10 -10h-10zM3531 1355h343l-70 -81h-152l-50 -10v-10h202l-21 -20h-171l10 -30h141l-30 -30h-111v-31h101l-20 -20h-91l-20 -20v-10h91q0 -30 -132 -41l-10 -10v-10h101l-20 -20 h-101l-10 -30h91q0 -30 -121 -30l-10 -11v-20h90l-20 -20h-101l-10 -30h91q0 -30 -121 -30l-10 -11v-20h91q0 -20 -111 -20l-20 -30h90l-30 -30h-91l-10 -31h91q0 -20 -111 -20l-20 -30h91l-31 -30h-1029l-20 20v10h898l-10 30h-908l-20 20h908l-10 10v11q72 46 343 454 q40 37 70 111zM333 1254h847v-20h-827zM1846 1254h838l20 -20h-837zM373 1204h828l20 -20v-10h-797l-51 10v20zM1887 1204h827l20 -20v-10h-827l-20 20v10zM414 1143h827l20 -20h-827zM1927 1143h837l21 -20h-858v20zM1937 1113l30 -20h828l20 -20v-10h-838l31 -31h847v-20 h-847l10 -30h857l21 -20v-10h-888l-10 -31h918l20 -20h-948l-21 -20v-10h51q0 -26 -91 -41v-20h50l-20 -20h-60l-10 -30h50q0 -26 -91 -40v-21h51q0 -20 -81 -30l-10 -10v-10h50v-20l-90 -20l-101 10h-858l-30 30h898l-30 30h-888l-20 20h797l111 -10q115 85 292 384v40z M454 1093h827l21 -20v-10h-818zM494 1032h848v-20h-827zM535 982h827l20 -20v-10h-817zM575 921h848v-20h-828zM615 871h828l20 -20v-10h-817zM2109 871h847l20 -20v-10h-807q-52 0 -60 30zM656 810h837l20 -20h-837zM2159 810h837l21 -20h-838zM696 760h827l21 -20v-10 h-818zM2199 760h838l20 -20l-10 -10h-797l-51 10v20zM817 588h999l-20 -20h-959zM2321 588h998l-20 -20h-958zM858 538h918v-10l-20 -20h-868zM2361 538h918l-30 -30h-868l-20 20v10zM898 477h847l-20 -20h-807zM2401 477h838l-21 -20h-817v20zM938 427h767l-30 -30h-706z M2431 427h767l-30 -30h-706zM979 366h686l-20 -20h-646zM2472 366h686l-20 -20h-646zM1019 316h605v-10h-605v10zM2512 316h606v-10h-606v10z" />
<glyph unicode="X" horiz-adv-x="2998" d="M50 1432h1373q20 0 272 -273l151 71v30q-40 0 -40 31v111l30 30h807q21 0 263 -262v-51q0 -16 -212 -71l-616 -322q486 -384 586 -384q103 0 181 -131q23 0 91 -81q71 -55 71 -80q-14 -51 -71 -51h-1433q-43 0 -212 172v131l-242 -121l91 -111v-51l-20 -20h-928l-192 192 v121q0 19 262 71l585 312q-509 404 -635 404q-40 0 -111 91l-101 101v131zM30 1402v-21q0 -20 131 -40q76 -35 818 -575q0 -37 -263 -161q-473 -293 -676 -293h-10v-30l20 -21h808l20 21v10q0 33 -121 40l-10 10q-31 0 -31 20v21q13 35 394 222l10 10l40 20 q247 -153 333 -242v-31q-2 -29 -171 -50v-30l20 -21h1322l70 11v20q0 20 -181 50l-797 575l-11 10v10q745 424 868 424h20v51h-777l-20 -21v-30q162 -13 162 -50q-30 -55 -434 -252q-224 132 -323 232v20q0 37 171 50v51h-1331zM262 1351h929l-11 -40l11 -30l-11 -11h-776 q-53 0 -142 81zM2038 1351h353v-10q-158 -81 -272 -81v-10h80v-10l-80 -10l10 -10v-10q-402 -205 -424 -242q-15 -41 -30 -41h-10l-81 21h-726q-53 0 -61 30h757l-20 30q92 0 484 232l30 41v50l-10 10v10zM404 1250h807v-20h-757l-50 10v10zM484 1200h747l50 -10v-20h-736 q-53 0 -61 30zM565 1139h777l20 -20h-777zM636 1089h776l31 -30h-727q-74 0 -80 30zM716 1028h747l71 -10v-10h-767l-51 10v10zM878 917h807l20 -20h-807zM948 867h747l50 -10v-20h-716q-74 0 -81 30zM1019 806h787l20 -20h-787zM1029 756h827l51 -10v-20h-848l31 -31h877 l21 -20h-686l-162 10q-484 -239 -484 -292q0 -51 -20 -51l-51 -20h-262v10q574 288 706 394v30zM1261 645h747q60 -6 60 -30h-726q-75 0 -81 30zM1342 584h777l20 -20h-747l-50 10v10zM1423 534h746l51 -10v-20h-737q-52 0 -60 30zM1493 473h787l20 -20h-756l-51 10v10z M1544 423h777q60 -6 60 -30h-817l-20 20v10zM1544 362h887l21 -20h-858l10 -10v-10h-70z" />
<glyph unicode="Y" horiz-adv-x="2998" d="M22 1434h1403l171 -192q28 -10 81 -81v-40q-10 -40 -111 -40v-20l131 -101l313 262q-41 0 -41 40l-40 10v142l20 20h787q20 0 262 -252v-61q0 -18 -191 -60l-626 -535v-162q0 -55 51 -80l212 -222v-31l-31 -30h-1634q-44 0 -212 172v131q0 37 242 60l10 10v293l-272 232 q-182 192 -333 192q-44 0 -61 40l-151 131v152zM22 1393v-30q190 0 363 -191l464 -414v-384q0 -42 -252 -70v-30l51 -11h1503l20 21v30q-262 15 -262 71v393q642 565 696 565l121 20v30l-20 21h-737l-20 -21v-20q172 -25 172 -90v-11l-434 -343q-414 351 -414 374v20l131 40 v30l-20 21h-1342zM274 1353h959l-10 -10v-71h-828q-64 0 -121 81zM2151 1353h343v-10l-101 -71h-121l-50 -10v-10h151l-20 -20h-121q0 -30 80 -30l-60 -41q0 -17 -273 -242q-108 -101 -131 -101l10 -10v-20h-968v20h868l-31 31h-847q-53 0 -61 30h838q83 0 292 192 q222 169 222 211v51zM385 1252h858v-20h-837zM446 1202h837l21 -20v-10h-798q-52 0 -60 30zM506 1141h848l20 -20h-817l-51 10v10zM567 1091h817l51 -10v-20h-787q-75 0 -81 30zM638 1030h847l20 -20h-847zM698 980h817l51 -10v-20h-807q-53 0 -61 30zM759 919h857l20 -20 h-827l-50 10v10zM1858 758v-20v-10h-928l30 -31h898v-20h-877v-30h877v-20v-10h-867v-31h867v-20h-867v-30h867v-20v-10h-867v-31h867v-20h-867v-30h867v-20v-10h-867v-31h867v-20h-867v-20h-101l10 41v322l10 41l-10 10v10l10 10h948z" />
<glyph unicode="Z" horiz-adv-x="2380" d="M200 1436h1937l242 -242v-10l-585 -656v-10h323l262 -263l-161 -252h-2059l-161 172v90l626 666h-394l-161 162v91zM220 1416l-121 -212v-10h151q273 0 273 70q131 111 282 111h222l20 -20v-10l-1009 -1080h1917q28 0 142 233h-192q-191 0 -252 -101q-94 -81 -253 -81 h-232l-30 30l959 1070h-1877zM260 1355h283q-68 -91 -192 -91l-30 -10h-121v10zM1108 1355h857q-61 -79 -80 -81h-666l-20 -20h676l-21 -20h-676v-30h646v-20l-50 -10h-616l-30 -31h646l-20 -20h-646l-30 -30h645v-20l-50 -10h-626l-30 -31h656l-20 -20h-666l-10 -30h655 q-10 -30 -60 -30h-626l-30 -31h656l-20 -20h-656l-30 -30h666q-11 -30 -61 -30h-636l-30 -31h676l-20 -20h-666l-30 -30h666q-10 -30 -61 -30h-635l-31 -31h676l-20 -20h-676l-30 -30h676q-10 -30 -61 -30h-635l-31 -31h676l-20 -20h-676l-30 -30h676v-20l-51 -10h-655 l-31 -31h686l-20 -20h-686l-30 -30h686v-20l-50 -10h-656l-31 -31h697v-20h-717l-30 -20h-171l928 989zM1804 437h202q-35 -91 -91 -91l-91 -20h-161q95 111 141 111z" />
<glyph unicode="\" horiz-adv-x="2087" d="M8 1432h447q18 0 881 -700l600 -483l154 -247h-494q-76 43 -967 769l-514 415l-107 157v89zM68 1412v-9l1421 -1145h381q-11 26 -1335 1085q-63 69 -93 69h-374zM215 1353h227q21 -1 967 -779l314 -247v-9h-20l-33 29h-194q-49 0 -53 30h200q-7 29 -40 29h-194l-33 10v10 h207v10l-27 20h-193q-50 0 -54 29h200v10l-26 20h-207l-34 10v10h207v9l-26 20h-194q-49 0 -53 30h200v10l-27 19h-207l-33 10v10h207v10l-27 20h-193q-50 0 -54 29h200v10l-26 20h-207l-33 10v10h206v9l-26 20h-194q-49 0 -53 30h200v10l-27 19h-207l-33 10v10h207v10 l-47 20h-173q-49 0 -54 29h201v10l-27 20h-207l-33 10v10h206v9l-46 20h-174q-49 0 -53 30h200v10l-27 19h-206l-34 10v10h207v10l-47 20h-173q-49 0 -54 29h201v10l-47 20h-187l-33 10v10h207v9l-47 20h-174q-49 0 -53 30h200v10l-60 19h-173l-107 69v10z" />
<glyph unicode="_" horiz-adv-x="2169" d="M-5 175h2021l157 -233v-68h-2073l-105 155v146zM15 155v-29h1981v29h-1981z" />
<glyph unicode="a" horiz-adv-x="2891" d="M1485 1263q835 0 1024 -200q241 -231 241 -281v-552l140 -151v-20q0 -60 -351 -60h-381q-262 0 -462 80q-335 -80 -562 -80h-311q-532 0 -703 261q-120 93 -120 191v130q0 152 241 221q-141 138 -141 180v91q0 120 793 190h592zM130 1043q0 -71 342 -71q582 0 582 101 q0 120 230 120h81q180 0 180 -90v-141q0 -36 -812 -100q-527 -63 -653 -161q-54 -67 -60 -150q0 -291 763 -291q307 0 752 100q134 -100 623 -100q471 0 471 60q-150 27 -150 50v653q0 178 -893 210l-312 10q-892 0 -1134 -160zM1044 1183q-40 -42 -51 -90l-190 -10v-10h180 v-10l-562 -30q-136 0 -220 20v10q340 120 843 120zM1575 1183h11q842 -42 842 -180l-10 -11h-732v-30h742v-20h-742v-30h742v-20v-10h-742v-30h742v-20h-742l-20 -20v-10h762v-20v-10h-752v-10l20 -20h732v-20h-742v-31h742v-20v-10h-742v-30h742v-20h-742v-30h742v-20v-10 h-742v-30h742v-20h-742v-30h742v-20v-10h-742v-31h742v-20h-742l-10 -30l-111 40l41 91v361l-20 70l20 81v80zM1656 1093v-20h351v10zM1666 1053l10 -30h662v10l-160 20h-512zM1505 892l40 -30v-371q0 -111 -200 -111h-91q-210 0 -210 161v70q0 251 311 251l70 10l80 10v10z M1064 832l-60 -90l10 -10l-10 -10h-41l-281 -21v-10h311l-10 -30h-481l-141 -20v-10h622v-20h-672l-70 -20v-10h742v-30h-772l-30 -30h812v-20h-822v-30h823l10 -30h-813l-40 -10q-71 30 -71 100v30q0 142 261 181q213 50 723 90zM1315 410h70q86 0 130 61v110h-10 q-190 -20 -190 -161v-10zM181 410h843l20 -20h-813l-50 10v10zM341 360h693l100 -10v-10l-201 -10h-251l-341 20v10zM1686 360h742v-30h-411q-212 0 -331 20v10z" />
<glyph unicode="b" horiz-adv-x="2934" d="M22 1425h1124l181 -201l351 30h211q352 0 632 -150q401 -352 401 -522l10 -90q0 -414 -582 -482q-89 -20 -241 -20h-251q-166 0 -451 50q0 -40 -30 -40h-1194l-181 181v130q0 16 181 50v723l-181 180v141zM32 1405v-50h60q85 0 121 -60v-924q0 -44 -181 -70v-40h1054 q60 0 60 60h20v10q323 -80 622 -80q620 0 823 251q50 121 50 231q0 319 -301 421q-290 80 -582 80q-338 0 -602 -80q-40 10 -40 60v181l-50 10h-1054zM253 1345h833v-81h-713l-50 -10v-20h763v-10v-20h-743v-10l20 -20h723l10 -20h-743v-30h753l-20 -30h-733v-30h733v-20 h-733v-30h733v-10v-21h-733v-30h733v-20h-733v-30h733v-10v-20h-733v-30h733v-20h-733v-30h733v-10v-20h-733v-30h733v-20h-733v-31h733v-10v-20h-733v-30h733v-20h-733v-30h733v-10v-20h-733v-30h733v-20h-733v-30h733v-10v-20h-733v-31h733l10 -20h-743v-30h743v-10 l-20 -20h-823l10 50v924zM1557 1174h322q395 0 642 -170v-21h-783v-10l20 -20h783l20 -20h-803v-30h823v-30h-823v-30h843v-20h-843v-30h843v-30h-843v-30h853l-20 -20h-833v-31h843v-10l-20 -20h-823v-30h833v-20h-833v-30h813v-10l-20 -20h-793v-30h783l-20 -20h-763v-30 h723q-10 -30 -61 -30h-662v-31h612v-10l-70 -10h-542v-30h432v-10q-144 -20 -592 -30l-41 10v10q102 0 121 171v522l10 -10h753v10l-111 20h-662v20h552v10l-372 20l-180 -10q-60 80 -111 80v10zM1337 1134h100q181 0 181 -110v-552q-22 -121 -201 -121h-100q-181 0 -181 91 v602q0 90 201 90zM1407 823v-442h10q181 0 181 131v351h-41q-150 0 -150 -40z" />
<glyph unicode="c" horiz-adv-x="2350" d="M1046 1263h271q696 0 893 -311q132 -112 140 -160q-18 -110 -261 -121h-231q-218 0 -301 101l-140 150q-80 -12 -80 -70v-512h50q241 24 241 161q0 80 70 80h321q64 0 321 -291v-10q0 -181 -532 -261q-60 -20 -261 -20h-331q-785 0 -1094 411q-120 90 -120 241v121 q0 324 743 471zM22 742q0 -350 733 -452q216 -30 431 -30q633 0 853 191q30 36 30 70v20l-170 20h-30q-211 0 -211 -30q0 -142 -151 -201l-150 -20h-71q-181 8 -210 70v753q40 60 170 60h40q181 -10 181 -50v-20q0 -34 -30 -70v-40q0 -67 341 -81q301 0 301 111 q0 63 -301 150q-310 50 -602 50q-776 0 -1074 -301q-80 -106 -80 -200zM1036 1183v-10q-18 -80 -41 -80l-110 -10v-10h131v-20h-231l-151 -20v-10h382v-31h-472l-70 -20v-10h542v-20h-572l-71 -20v-10h643v-30h-673q-60 -6 -60 -30h733v-20h-753l-30 -30h783v-30h-813 l-10 -30h823v-20h-833l-10 -31h843v-30h-843v-30h843v-20h-843v-30h843v-30h-843q-91 74 -91 150v61q0 259 622 391q178 30 332 30zM1517 1173q231 0 502 -130q0 -45 -251 -51q-218 8 -271 31l30 100zM1588 1083v-10h130v10h-130zM1598 1053v-10l20 -20h351v10l-141 20h-230 zM213 521h803v-20h-753l-50 10v10zM1708 501h301q-74 -81 -161 -81l10 -10v-10l-210 -50q60 74 60 151zM303 471h713v-30h-593l-120 20v10zM454 410h562v-20h-462l-100 10v10zM684 360h332l20 -20v-10h-10l-342 20v10z" />
<glyph unicode="d" horiz-adv-x="2964" d="M1337 1429h1124q43 0 291 -271v-853q0 -40 90 -120l120 -121v-30l-30 -30h-1224q-20 0 -20 40q-268 -50 -442 -50h-271q-683 0 -943 482q-30 49 -30 130v151q0 411 542 481l251 20h200q162 0 392 -40q-60 64 -60 101v60zM1357 1409v-40q200 -12 200 -60v-121l-20 -30 q-355 80 -642 80q-706 0 -833 -301q-30 -93 -30 -170v-40l-10 -10q0 -462 923 -462q280 0 572 80q40 -6 40 -70h1114l20 20v20q-210 0 -210 100v994l-51 10h-1073zM1598 1349h832v-81h-702l-50 -10v-20h752v-10v-20h-742v-10l20 -20h722v-20h-732v-30h732v-10v-20h-722 l-20 -20v-10h742v-20h-752v-30h752v-10v-21h-742l10 -30h732v-20h-732v-30h732v-10v-20h-732v-30h732v-20h-732v-30h732v-10v-20h-732v-30h732v-20h-732v-31h732v-10v-20h-732v-30h732v-20h-732v-30h732v-10v-20h-732v-30h732v-20h-732v-30h732v-10v-20h-732v-31h732v-20 h-732v-30h722l21 -20v-10h-843l-10 40l20 61v632l-10 90l10 70v111l-10 10v10zM805 1178h301l20 -20q-28 0 -110 -60l-352 -20v-10h362l-20 -20h-422l-130 -20v-10h562v-31h-653l-40 -20v-10h693v-20h-723l-30 -30h753v-30h-773l-20 -20v-10h793v-20h-813v-30h813v-30h-833 v-30h833v-20h-843v-31h843v-30h-843v-30h843v-20h-843v-30h843v-30h-843v-30h843v-20h-843q-91 75 -91 180v41q0 268 171 351q229 110 552 110zM1276 1138h31q250 0 250 -50v-662q0 -51 -230 -71h-71q-138 0 -180 71v632q56 80 200 80zM1337 777v-392h10l180 30v452h-50 q-140 0 -140 -90zM213 466h803v-30h-723q-74 0 -80 30zM313 405h703l20 -20h-653l-70 10v10zM484 355h552q60 -6 60 -30h-251l-361 20v10z" />
<glyph unicode="e" horiz-adv-x="2663" d="M1161 1269h272q791 0 1080 -414q151 -118 151 -262v-81h-202q202 -182 202 -202v-50q-34 -96 -303 -182q-316 -80 -635 -80h-363q-626 0 -1049 232q-313 256 -313 433v121q0 303 686 444q268 41 474 41zM21 744q0 -327 757 -444q301 -40 565 -40q796 0 1049 232l10 50 q-51 20 -182 20h-111q-161 0 -161 -40q0 -185 -464 -212h-111q-303 22 -303 152v292l30 30h1302v10q0 308 -484 394q-261 60 -606 60q-998 0 -1250 -353q-31 -51 -41 -151zM1252 1198h70q192 0 192 -101v-242l-20 -20h-404l-20 20v242q0 101 182 101zM1050 1188 q-40 -57 -40 -101h-41v-10h51v-20h-182l-161 -20v-11h343v-10v-20h-444l-101 -20v-10h545v-20h-585q-61 -7 -61 -31h646v-10v-20h-706l-31 -30h737v-20h-767l-20 -20v-10h797v-11l-10 -20h-807l-20 -20v-10h827v-20h-827l-21 -20v-10h848v-11v-20h-837l-21 -20v-10h858v-20 h-848v-30h848v-10v-21h-807q-85 0 -131 162v60q0 321 968 414zM1544 1188q328 0 696 -172l20 -30v-10l-80 20h-525v-30h626l20 -20h-646v-31h676v-30h-676v-30h686v-10h-686l-91 -10l11 50v202q0 46 -31 91v10zM1615 1097v-20h222v10zM1635 1057v-10l20 -21h444v11l-141 20 h-323zM1343 875v-20h141v71h-30q-111 -16 -111 -51zM233 522h787v-20h-737l-50 10v10zM1343 512v-171h161q414 26 414 171h-575zM1998 502h313q0 -52 -383 -141h-10q80 78 80 141zM344 472h676v-10v-21h-535l-141 21v10zM526 411h504v-20h-404l-100 10v10zM788 361h262 l20 -20v-11l-282 21v10z" />
<glyph unicode="f" horiz-adv-x="1658" d="M779 1462h302q343 0 343 -91q28 0 232 -232v-20q-42 -50 -121 -50h-20l81 -71v-50q0 -30 -152 -51l-40 -40v-625l151 -152q21 0 21 -50l-11 -30h-1381l-182 181v141q171 24 171 61v504q0 69 -50 91l-121 111v141l20 20h151v41q0 121 414 161zM184 1230h-142l-20 -20v-20 q182 -32 182 -81v-706q0 -101 -182 -101v-20l20 -20h1261v40q-171 0 -171 91v656q0 141 191 141v20l-20 20h-565q-167 0 -201 61v20q0 38 171 60l444 -50q231 15 232 50v21q-119 50 -464 50q-716 -20 -716 -141q0 -71 -20 -71zM496 1361l-10 -50v-61h-20v-10l61 -10v-20 h-152l-20 -20v-10h10l747 -10l-31 -81l-756 10h-10l-20 -20v-10h786v-20h-766l10 -31h756v-10v-20h-736v-30h736v-20h-736v-31h736v-10v-20h-736v-30h736v-20h-736v-30h736v-11v-20h-736v-30h736v-20h-736v-30h736v-11v-20h-736v-30h736v-20h-736v-30h736v-10v-21h-736v-30 h736v-20h-736v-30h736v-10v-21h-736v-30h736v-20h-736v-30h736l10 -20l-10 -11h-847l20 61v646l10 60q-12 58 -50 101q35 0 50 111q99 40 232 60zM335 1139v-10h313l-11 31h-282z" />
<glyph unicode="g" horiz-adv-x="2916" d="M1737 1456h272q278 0 333 -81l111 -110l121 -132q-40 -60 -81 -60v-20q28 0 333 -323l10 -51v-20q0 -156 -322 -252v-10q109 0 403 -353q0 -222 -1150 -222h-666q-917 0 -917 121q-25 0 -152 151v91q20 41 61 41q-91 88 -91 131v50q0 99 232 141q-202 191 -202 273v50 q0 307 1009 394h494l-40 40v81q0 70 242 70zM1525 1396q0 -25 262 -71l10 -10v-30q0 -33 -121 -51l-373 10q-856 0 -1210 -262l-30 -101q0 -152 514 -262l10 -10v-30q-555 -68 -555 -152v-20q0 -50 333 -111q51 -3 51 -30q-21 -20 -323 -61l-30 -30v-10q235 -81 1190 -81 q1294 0 1392 182q0 181 -1100 181h-807q-201 0 -201 51v10q0 52 282 71l545 -21q750 0 1140 222q70 64 70 152t-313 201l-312 71l-10 10v30q323 75 363 131v11q-122 50 -424 50q-243 0 -353 -40zM1808 1375h232l121 -10v-10q-248 -50 -273 -80h-30q0 53 -50 100zM1858 1254 h20q0 -47 41 -111v-10h50q289 -23 504 -161l31 -30h-807v-31h817v-10l-21 -20h-796v-30h796v-10l-50 -10h-746v-30h716q0 -31 -111 -31h-605v-30h585v-10l-101 -10h-484v-30h383v-11l-293 -20h-90q0 -40 -111 -40h-10l40 91v373l-51 101h71l40 -10q132 26 182 80zM1293 1194 h51q211 0 211 -121v-353q0 -111 -222 -111h-50q-212 0 -212 101v363q0 104 222 121zM1071 1184l-80 -101h-31v-10h51v-20h-192l-171 -20v-11h363v-30h-444l-121 -20v-10h565v-20h-616l-70 -20v-11h686v-30h-737l-30 -30h767v-20h-777l-20 -20v-10h797v-31h-716 q-116 0 -182 121q0 151 656 263zM1636 1093v-20h404l-21 30zM1656 1053l31 -31h534v11l-161 20h-404zM1687 992l10 -30h736v10l-101 20h-645zM1333 841v-202h31q126 0 161 61v222h-10q-135 0 -182 -81zM345 740h666v-20h-595l-71 10v10zM547 690h454l20 -21l-10 -10h-333 l-131 20v11zM637 629h81v-10h-81v10zM476 508q0 -36 51 -91l-11 -10l727 -20h544q753 -17 797 -111l-40 -20l-252 20h-162q-114 50 -312 50h-1019l-91 -10l-71 10h-151l-91 21v10h232v30h-222q-100 -2 -100 -20q-197 31 -202 60q93 41 373 81zM466 296h151v-10l-70 -10h-81 v20zM829 266h1049q202 0 202 -51v-10q0 -80 -565 -80h-494q-423 0 -434 70v10q33 61 242 61zM476 246h61v-31h-31v-10q31 0 31 -40h-10l-11 -10l-10 10h-80l-152 10v10q171 0 202 61zM2130 246h384v-10l-182 -21h-181l-21 21v10zM2130 185h81v-10h-81v10z" />
<glyph unicode="h" horiz-adv-x="3007" d="M19 1432h1140q218 -222 242 -222q312 51 504 51h172q416 0 555 -162l222 -232v-666l151 -171l-30 -30h-959q-184 0 -363 232q-30 10 -30 60v555h-10q-182 -13 -182 -40v-606l162 -151q-13 -50 -31 -50h-1321q-43 0 -212 171v131q0 31 81 31q91 24 91 50v716 q-41 0 -202 172v141zM29 1412v-30q0 -21 101 -21q88 -32 91 -60v-938q0 -33 -172 -71v-20l51 -10h1200l20 20q0 20 -50 20q-102 40 -111 71v686q0 48 282 60h41q135 0 171 -70v-676q0 -111 273 -111h756q52 0 61 30q-152 38 -152 71v706q0 136 -524 171h-91 q-260 0 -807 -101l-10 11v252l-50 10h-1080zM261 1351h848v-80h-727l-50 -10v-21h777v-10l-1 -20h-756l10 -30h747v-20h-747v-31h757v-10l-21 -20h-736v-30h747v-20h-747v-31h747v-10l-1 -20h-746v-30h747v-20h-747v-31h747v-10l-1 -20h-746v-30h747v-20h-747v-30h747v-11 l-1 -20h-746v-30h747v-20h-747v-30h747v-11l-1 -20h-746v-30h747v-20h-747v-30h747v-10l-1 -21h-746v-30h747v-20h-747v-30h747v-10l-1 -21h-746v-30h747v-20h-747v-30h746l11 -20l-10 -11h-848l20 81v858zM1885 1180h192q322 0 454 -101v-30h-827q0 83 -101 101v10z M1734 1079v-10h676v10l-313 20zM1704 1018h827v-30h-767l30 -30h737v-20h-747l10 -31h737v-30h-737v-30h737v-20h-737v-30h737v-31h-737v-30h737v-20h-737v-30h737v-31h-737v-30h737v-20h-737v-30h737v-31h-737v-30h737v-20h-737v-30h737v-31h-737v-30h737v-20h-737v-30h747 v-31h-575q-185 0 -262 41v655z" />
<glyph unicode="i" horiz-adv-x="1585" d="M707 1462h262q212 0 212 -60l232 -232v-10q0 -31 -121 -61l121 -101v-736l172 -202v-30l-31 -30h-1351l-192 191v81q0 81 172 81v534q0 52 -182 242v111l81 10l-10 11v110q95 91 635 91zM102 1371v-20q139 -30 333 -30q488 0 716 81v10q-131 30 -293 30q-497 0 -756 -71z M31 1220v-40h51q131 0 131 -91v-726q0 -44 -172 -61v-40h1251l20 20v20q-161 17 -161 51v867l-51 10h-998zM243 1170h847v-81h-716l-50 -10v-10h766v-20h-756v-10l20 -21h736v-30h-736v-30h736v-20h-736v-31h736v-30h-736v-30h736v-20h-736v-30h736v-31h-736v-30h736v-20 h-736v-30h736v-31h-736v-30h736v-20h-736v-30h736v-31h-736v-30h736v-20h-736v-30h736v-31h-736v-30h736v-20h-736v-30h746v-31h-847l10 11v696l10 60z" />
<glyph unicode="j" horiz-adv-x="1658" d="M859 1457h232q333 0 333 -70l232 -232q0 -41 -161 -61l111 -101v-857q0 -257 -1029 -323l-404 -10l-171 171v122l10 50q333 13 363 91v665q0 45 -171 202v121q0 20 111 20v11q-31 0 -31 20v90q0 74 575 91zM315 1356q122 -40 413 -40q378 0 656 71q0 40 -404 50 q-665 -20 -665 -81zM234 1225v-40q154 0 171 -91v-857q0 -81 -342 -121h-31v-41h10q1006 0 1261 232q41 54 41 91v817l-71 10h-1039zM436 1165h847v-81h-716l-51 -10v-10h767v-20h-756v-10l20 -21h736v-30h-736v-30h736v-20h-736v-31h736v-30h-736v-30h736v-20h-736v-30h736 v-31h-736v-30h736v-20h-736v-30h736v-31h-736v-30h736v-20h-736v-30h736v-31h-736v-30h736v-20h-736v-30h736v-31h-736v-30h736v-20h-736v-30h716q-6 -31 -81 -31h-635v-30h625v-10l-71 -10h-554v-30h484v-10l-182 -21h-302v-30h201v-10l-343 -20q49 49 61 111v817 q0 46 -30 91z" />
<glyph unicode="k" horiz-adv-x="3063" d="M30 1435h1112q273 -261 273 -293v-222q179 93 182 111l-81 71v121l31 30h960l273 -272v-21q0 -43 -273 -70l-243 -122v-10q383 -414 465 -414q79 0 105.5 -25.5t228.5 -237.5v-71l-51 -10h-1021q-108 0 -252 182l-202 202q-122 -54 -122 -71v-91q0 -41 132 -161v-31 l-31 -30h-1294q-50 0 -222 192v111q0 27 172 51v778q-162 121 -162 152v131zM40 1415v-40q0 -17 132 -51q30 -37 30 -71v-859q0 -91 -172 -91v-30l71 -10h1122l51 10v30q-132 24 -132 61v202q0 22 233 131q352 -403 394 -424l172 -10h788l71 10v30q-157 0 -323 213 q-19 0 -496 475v10q76 72 304 161q222 21 222 51l-20 20h-880l-70 -10v-10q0 -30 192 -40l50 -41v-20q-54 -57 -536 -324q-45 -40 -91 -40l-10 10v637l-20 20h-1082zM222 1355h860l10 -31l-10 -40l10 -10v-10l-10 -11h-799l30 -30h779v-20h-769l11 -30h758v-21v-10h-748v-30 h748v-20h-748v-31h748v-20v-10h-748v-30h748v-20h-748v-31h748v-20v-10h-748v-30h748v-21h-748v-30h748v-20v-10h-748v-31h748v-20h-748v-30h748l30 -10v-21h-778v-30h839v-10l-51 -10h-788v-30h758v-10l-10 -21h-748v-30h748v-20h-748v-31h748v-20v-10h-748v-30h748v-20 h-748v-31h748v-20v-10h-748v-30h758v-11h-859v11l10 40v829l10 40zM1830 1173h323v-11q-153 -80 -253 -80v-21h51l-30 -50l10 -30h-10l-31 -31l71 -10l-20 -20h-81l-71 -20v-10h213l20 -21h-273l-41 -20v-10h344l20 -20v-10h-404q-61 -7 -61 -31h506l20 -20h-576l-41 -20 v-10h647l20 -20v-11h-727q-53 51 -91 51l-142 -61l-10 10v11q544 297 617 374l10 50zM1486 667h738l20 -20h-738zM1526 617h748l21 -21v-10h-708q-52 0 -61 31zM1577 556h778v-20h-758zM1627 505h738l51 -10v-20h-758zM1678 445h778l21 -20h-779zM1729 394h778l20 -20v-10 h-748l-50 10v20zM1789 334h789v-11h-789v11z" />
<glyph unicode="l" horiz-adv-x="1555" d="M19 1431h1142l213 -222q40 -20 40 -81v-940l142 -121v-51l-20 -20h-1355l-182 182v121q0 27 172 51l10 10v738q-17 50 -182 182v131zM19 1401v-10q0 -23 152 -40l30 -41v-960q0 -27 -182 -61v-10l20 -20h1183l71 10v20q-152 14 -152 61v1061h-1051zM252 1351h829v-21h10 l-10 -10v-40l10 -10v-10l-10 -11h-759v-10l21 -20h748v-20h-748v-30h748v-21v-10h-748v-30h748v-20h-748v-31h748v-20v-10h-748v-30h748v-20h-748v-31h748v-20v-10h-748v-30h748v-21h-748v-30h748v-20v-10h-748v-31h748v-20h-748v-30h748v-20v-11h-748v-30h748v-20h-748v-30 h748v-21v-10h-748v-30h748v-20h-748v-31h748v-20v-10h-748v-30h748v-20h-748v-31h748v-20v-10h-748v-30h748v-11h-839v11l10 91v828z" />
<glyph unicode="m" horiz-adv-x="4385" d="M1828 1264h212q296 0 526 -112q414 112 727 112h182q473 0 617 -243q162 -127 162 -212v-587l131 -161v-51l-50 -10h-951q-136 0 -202 81q-162 139 -162 192v576q-202 -14 -202 -50v-587l142 -141v-41l-30 -30h-991q-162 0 -324 212q-40 14 -40 91v536l-172 -20v-617 l152 -141v-31l-31 -30h-1344q-20 0 -101 81t-81 101v131l172 51v546q0 50 -162 182l-10 10v141l51 10h1061q91 -40 91 -80q372 91 627 91zM1150 1132l-20 30v61l-50 10h-1001l-51 -10v-20q0 -20 81 -20q81 -29 81 -51v-768q0 -27 -162 -71v-30h1203l51 10v30 q-152 20 -152 61v697q21 51 324 51h30q86 0 121 -61v-687q0 -73 152 -101h879l51 10v30q-142 17 -142 61v687q0 45 182 61h162q152 -10 152 -51v-717q57 -81 202 -81h829l50 10v30q-87 0 -141 71v698q0 98 -243 141q-182 30 -394 30q-337 0 -778 -121q-228 121 -627 121 q-364 0 -789 -111zM1878 1183h132q300 0 495 -91q-13 -61 -30 -61h-799l-20 20v10h768v11l-222 20h-304l-242 -20q0 58 -111 80v10zM3314 1183h111q490 0 505 -142l-10 -10h-819v30h779v11l-253 20h-293l-233 -20q-47 80 -121 80v10zM230 1173h850l10 -81h-728l-51 -10v-21 h769v-10l-1 -20h-747v-30h748v-20h-748v-31h748v-10l-1 -20h-747v-30h748v-21h-748v-30h748v-10l-1 -20h-747v-31h748v-20h-748v-30h748v-10l-1 -21h-747v-30h748v-20h-748v-30h748v-10l-1 -21h-747v-30h748v-20h-748v-31h748v-10l-1 -20h-747v-30h748v-20h-748v-31h748v-10 l-1 -20h-747v-30h758v-11h-849v11l10 60v698zM1666 1011l50 -10h779v-20h-768l10 -31h758v-20v-10h-748v-30h748v-21h-748v-30h748v-20v-10h-748v-31h748v-20h-748v-30h748v-20v-11h-748v-30h748v-20h-748v-30h748v-21v-10h-748v-30h748v-20h-748v-31h748v-20v-10h-748v-30 h748v-20h-748v-31h748v-20v-10h-748v-30h758v-11h-778q-39 12 -71 51v627zM3101 1011l71 -10h758v-20h-768l10 -31h758v-20v-10h-748v-30h748v-21h-748v-30h748v-20v-10h-748v-31h748v-20h-748v-30h748v-20v-11h-748v-30h748v-20h-748v-30h748v-21v-10h-748v-30h748v-20 h-748v-31h748v-20v-10h-748v-30h748v-20h-748v-31h748v-20v-10h-748v-30h758v-11h-758q-81 19 -81 41v647z" />
<glyph unicode="n" horiz-adv-x="2990" d="M1858 1264h232q461 0 627 -263q122 -101 122 -152v-627q141 -148 151 -171q-13 -51 -30 -51h-981q-172 0 -313 192q-61 35 -61 91v566l-202 -20v-617l162 -131v-71l-51 -10h-1324q-192 162 -192 192v111q0 27 162 61l10 101v495q-41 0 -162 132v141l20 20h1122 q0 -40 41 -40l10 -40q328 91 657 91zM1140 1132l-10 10v91h-1071l-21 -20v-10l142 -51l10 -10v-738q0 -81 -162 -101v-20l21 -20h1142l101 10v40q-132 0 -162 61v698q2 37 273 50h71q162 0 162 -91v-697q73 -71 202 -71h829l50 10v20q0 19 -121 51l-20 30v698 q0 171 -617 171q-409 0 -819 -111zM1909 1183h121q397 0 485 -101v-51h-809l-20 20v10h789v11l-223 20h-364l-202 -10q-38 70 -91 70l10 10v11zM230 1173h829q21 0 31 -71l-10 -10h-718l-51 -10v-21h768l1 -20v-10h-748v-30h748l-1 -20h-747v-31h747l1 -20v-10h-748v-30h748 l-1 -21h-747v-30h747l1 -20v-10h-748v-31h748l-1 -20h-747v-30h747l1 -20v-11h-748v-30h748l-1 -20h-747v-30h747l1 -21v-10h-748v-30h748l-1 -20h-747v-31h747l1 -20v-10h-748v-30h748l-1 -20h-747v-31h747l1 -20v-10h-748v-30h758v-11h-860v11q21 39 21 111v647z M1696 1021l61 -20h758v-20h-758l10 -31h748v-30h-738v-30h738v-21h-738v-30h738v-30h-738v-31h738v-20h-738v-30h738v-31h-738v-30h738v-20h-738v-30h738v-31h-738v-30h738v-20h-738v-31h738v-30h-738v-30h738v-20h-738v-31h738v-30h-738v-30h758v-11h-768l-81 31v616z" />
<glyph unicode="o" horiz-adv-x="2809" d="M1136 1251h289q674 0 1047 -259q339 -321 339 -438v-30q0 -370 -748 -489q-179 -40 -458 -40h-319q-670 0 -1037 270q-249 228 -249 358v130q0 373 817 478zM20 743q0 -293 498 -409q329 -79 748 -79q969 0 1246 358q29 77 29 140v40q0 331 -956 428l-309 10 q-947 0 -1206 -329q-40 -69 -50 -159zM1306 1181q209 0 209 -119v-608q0 -150 -229 -150h-50q-209 0 -209 190v498q0 189 219 189h60zM1525 1171q315 -8 727 -139l170 -100v-20h-768v-30h808v-19h-808v-30h828v-30h-828v-30h838v-20h-838v-30h828v-30h-828v-30h818l-20 -20 h-798v-30h778v-20l-50 -10h-728v-29h728v-10l-50 -10h-678v-30h638q-6 -30 -79 -30h-559v-30h519v-10l-70 -10h-449v-30h349v-10l-239 -20h-110v-20l10 -10v-10h-79l-70 -10q50 56 50 120v578l10 60zM1017 1162q-27 -100 -110 -100h-40v-10h110v-10v-20h-259l-140 -20v-10 h399v-20h-459l-79 -20v-10h538v-10v-20h-588l-70 -20v-10h658v-19h-688l-30 -30h718v-10v-20h-758l-10 -30h768v-20h-788l-10 -30h798v-10v-20h-808v-30h808v-20h-818v-30h818v-10v-20h-808v-29h808v-20h-768q-129 44 -129 179v50q0 277 727 389zM1605 1082l-10 -10v-10 l10 -10h309v10zM1635 1022v-10l19 -20h549v10l-130 20h-438zM1654 972v-30h698v10l-90 20h-608zM1296 803v-469h20q169 0 169 100v478h-20q-169 0 -169 -109zM239 504h738v-10v-20h-628q-110 0 -110 30zM359 444h618v-20h-548l-70 10v10zM528 394h459v-30h-230l-229 20v10z M857 334h160l10 -10v-10l-170 10v10z" />
<glyph unicode="p" horiz-adv-x="2882" d="M1650 1250h240q541 0 747 -299q249 -192 249 -428q0 -287 -209 -389q-278 -130 -618 -130h-249q-205 0 -389 50v-30l160 -149v-30l-20 -20h-1386q-20 0 -99.5 79.5t-79.5 99.5v110q0 26 149 60v787q-39 0 -94 60t-55 80v119l20 20h1086q31 -50 80 -50q279 60 468 60z M1112 1151l-40 69h-1046v-40q149 0 149 -89v-917q0 -33 -149 -60v-10l20 -20h1266v20q0 22 -200 50l-20 60v89q0 60 40 60q243 -99 608 -99q644 0 837 269q40 108 40 229v10q0 270 -269 379q-230 79 -588 79q-275 0 -648 -79zM1551 1170h289q492 -6 618 -159l-50 10h-738 l30 -30h798v-20h-788l10 -30h808v-30h-798v-30h807l20 -19h-827v-30h827v-30h-827v-30h837l-20 -20h-817v-30h827v-30h-827v-30h827v-20h-827v-30h807v-10l-19 -20h-788v-29h788l-20 -20h-768v-30h748q-10 -30 -60 -30h-688v-30h658v-10l-50 -10h-608v-30h528v-10l-179 -20 h-349v-30h219v-10h-408v10q80 0 99 110v518l10 60l-10 30h648v10l-249 20h-399zM215 1161h818l29 -40l-10 -40h-717l-50 -10v-20h757v-10l1 -20h-738v-10l20 -20h717v-20h-727v-30h727v-10l1 -20h-728v-30h727v-19h-727v-30h727v-10l1 -20h-728v-30h727v-20h-727v-30h727 v-10l1 -20h-728v-30h727v-20h-727v-30h727v-10l1 -20h-728v-29h727v-20h-727v-30h727v-10l1 -20h-728v-30h727v-20h-727v-30h747l-29 -30h-718v-30h727v-20h-727v-30h727v-10l1 -19h-728v-30h727v-20h-727v-30h728l9 -20l-10 -10h-817v967zM1322 1141h29q240 0 240 -120 v-558q0 -100 -170 -100h-50q-279 0 -279 110v558q0 110 230 110zM1361 822v-429h100q77 0 100 50v428h-30q-170 -16 -170 -49z" />
<glyph unicode="q" horiz-adv-x="2912" d="M1008 1248h259q338 0 648 -99l358 99h220l239 -239v-957l179 -179l-10 -50h-1435l-159 159v20h-339q-637 0 -857 359q-110 101 -110 269v160q0 264 319 359q310 99 688 99zM21 750q0 -320 309 -419q248 -69 578 -69q190 0 628 79v-10l10 -40v-49q0 -110 -160 -110 l-59 -10v-40h1315v20q0 23 -149 50q-30 36 -30 70v1006h-110q-128 0 -438 -109q-306 109 -778 109q-870 -13 -1056 -259q-56 -99 -60 -219zM1077 1168h10v-9q-25 0 -89 -80l-250 -20v-10h260v-10v-20h-409l-140 -20v-10h549v-20h-598l-70 -20v-10h668v-10v-20h-718l-30 -30 h748v-19h-768l-30 -30h798v-10v-20h-818l-10 -30h828v-20h-838v-30h838v-10v-20h-828l-20 -20v-10h848v-20h-848v-30h848v-10v-20h-838v-29h838v-20h-828v-30h828v-10v-20h-818q-109 84 -109 239v70q0 388 996 388zM2413 1168v-89h-30l-120 -20v-10h150v-10v-20h-199 l-140 -20v-10h339v-20h-738v-30h738v-10v-20h-728v-30h728v-19h-728v-30h728v-10v-20h-728v-30h728v-20h-728v-30h728v-10v-20h-728v-30h728v-20h-728v-30h728v-10v-20h-728v-29h728v-20h-728v-30h728v-10v-20h-728v-30h728v-20h-728v-30h728v-10v-20h-738v-30h738v-20h-748 l-10 -30h758v-10v-19h-748v-10l20 -20h728v-20h-738v-10l20 -20h718l10 -20v-10h-847l20 80v79q0 52 -30 90q30 6 30 80v578h129v10l-99 10l-30 -10v10q-20 70 -50 70v10h20q183 -30 339 -80q55 0 348 99h160zM1257 1149h80q209 0 209 -140v-518q0 -130 -229 -130h-50 q-210 0 -210 120v578q54 90 200 90zM1645 1019l10 -30h319v10l-99 20h-230zM1327 820v-429h19q130 0 170 60v428h-60q-85 0 -129 -59zM230 441h778l10 -20h-738l-50 10v10zM350 391h678l19 -20v-10h-528l-169 20v10zM659 331h438v-10h-438v10z" />
<glyph unicode="r" horiz-adv-x="2152" d="M1486 1248h159q220 0 369 -209q140 -115 140 -170v-39q-55 -100 -239 -100h-200q-87 0 -249 60h-10q-70 0 -70 -70v-468l200 -190v-40l-20 -20h-1336q-44 0 -209 170v139q0 17 149 50v528q0 61 -49 90l-120 120v129l50 10h947q109 -96 109 -119q156 129 379 129z M1018 1029l-20 30v139l-20 20h-857l-100 -10v-10q0 -16 159 -49l10 -10v-778q0 -43 -139 -50v-40l50 -9h1226v39q-210 18 -210 90v548q0 120 130 120h40q220 -70 319 -70h10q279 0 279 120q0 104 -329 119h-10q-320 0 -489 -179zM1516 1168h90q147 0 229 -49v-20l-20 -20 h-239l-140 -10q-111 50 -169 50v10q101 39 249 39zM240 1159h708v-80h-568l-70 -10v-20h638v-30h-618v-30h618l109 -10l10 10v-20h-737v-30h737v-10v-20h-737v-30h737v-19h-737v-30h737v-10v-20h-737v-30h737v-20h-737v-30h737v-10v-20h-737v-30h737v-20h-737v-30h737v-10 v-20h-737v-29h737v-20h-737v-30h737v-10v-20h-737v-30h737v-20h-737v-30h737v-10v-20h-737v-30h757v-10h-847v10l10 60v698z" />
<glyph unicode="s" horiz-adv-x="2006" d="M749 1245l449 -30q10 30 60 30h259q356 -338 438 -488l-29 -20h-339l-60 10h-10v-10q100 0 478 -429l10 -49v-40q0 -189 -588 -230h-229q-156 0 -379 40l-40 -40h-328q-78 0 -180 130q-86 74 -219 289v90h10l40 10h269l359 -140l89 -20h10v10q-550 207 -648 359 q-169 136 -169 229v80q0 168 488 219h259zM32 1006q0 -145 648 -389q388 -167 388 -239v-10q-15 -50 -129 -50h-50q-176 0 -448 140q-47 30 -180 30h-80l-99 -10v-10q136 -219 199 -219h160q90 0 139 49h30q331 -49 498 -49q628 33 628 209l10 10v10q0 181 -648 418 q-396 167 -408 220v10q15 49 129 49h20q160 0 548 -169l150 -10h70l69 10v10q-146 209 -209 209h-139q-64 0 -160 -40l-488 40q-575 0 -648 -189v-30zM640 1165l-10 -59l10 -30l-229 -20v-10h259l30 -30h-399l-70 -20v-10h518l50 -10v-10h-608l-10 -30h638l-20 30h10 q662 -273 818 -389v-10l-10 10h-658l-120 20v10h698v10l-70 20h-678l-69 10v10h717v10l-80 20h-657l-120 20v10h718v10l-80 20h-688l-70 10v10h718v10l-80 20h-667l-90 20v10h698v10l-80 20h-668l-50 9v10h688v10l-70 20h-648q-129 36 -129 120q39 109 478 139h80z M1288 1165h189l80 -89h-190l-159 60v10zM959 548h707v-20h-637l-70 10v10zM1048 498h638v-30h-558q-73 0 -80 30zM1108 438h568v-10l-49 -10h-519v20zM181 428h180l189 -80v-10l-60 -30h-219q-63 64 -90 120zM1128 388h459v-10l-140 -20h-289l30 -30h189v-10l-249 -10h-30 q30 43 30 80zM261 338v-10h249v10l-119 10h-80z" />
<glyph unicode="t" horiz-adv-x="1675" d="M796 1424h348q20 0 139 -159q159 -30 159 -50l239 -238v-50q0 -30 -259 -30h-20v-617q24 0 239 -228v-50h-1084q-143 0 -348 249q-18 0 -20 49v607l-189 169v139q0 24 378 50q353 70 418 159zM70 1215l-50 -10v-39h169l20 -20v-776q76 -109 239 -109h935v10q0 29 -199 59 l-50 50v756l30 30h209l49 10v39h-258l-30 30v140l-20 19h-259q-62 0 -149 -79q-333 -110 -636 -110zM1084 1345v-60v-20h-99l-70 -10v-10h169v-20h-199l-40 -20v-9h259l-30 -30h-298l-110 -20v-10h418v-20h-467l-219 -20v-10h686v-10v-20h-746v-10l20 -20h726v-19h-736v-30 h736v-10v-20h-736v-30h736v-20h-736v-30h736v-10v-20h-736v-29h736v-20h-736v-30h736v-10v-20h-736v-30h736v-20h-736v-30h736v-9v-20h-736v-30h736v-20h-736v-30h736v-10v-20h-736v-30h736v-20h-736v-29h736v-10v-20h-736v-30h736v-20h-696l-60 -10q-59 23 -59 40v726 l-10 70q478 59 547 159l10 10h268z" />
<glyph unicode="u" horiz-adv-x="2977" d="M31 1231h1114l249 -298v-537h49l140 20v497l-150 149q-17 0 -20 50v99l20 20h1114l259 -288v-676q0 -68 50 -90l119 -129v-30l-20 -20h-1144q-47 0 -89 60q-374 -70 -607 -70h-249q-458 0 -577 209q-109 84 -109 149v517q0 61 -50 90l-129 169v79zM31 1201v-29 q0 -20 159 -40l10 -10v-667q0 -142 229 -179l368 -29q308 0 805 99q0 -89 90 -89h1014v19q0 23 -139 40l-30 40v855h-1044l-50 -10v-39q169 -20 169 -60v-686q0 -34 -199 -50h-99q-189 0 -189 109v736h-1025zM250 1152h815l10 -30l-10 -40l10 -10v-10l-10 -10h-746v-10 l20 -20h736v-19h-736v-30h736v-20v-10h-736v-30h736v-20h-736v-30h736v-20v-10h-736v-29h736v-20h-736v-30h736v-20v-10h-736v-30h736v-20h-736v-30h736v-19v-10h-736v-30h736v-20h-736v-30h736v-20v-10h-736v-30h736v-20h-736v-29h746v-30h-746v-30h786l20 -20h-746 q-90 0 -139 70v666zM1652 1152h826l10 -30l-10 -40l10 -10v-10l-10 -10h-766l30 -30h746v-19h-746l10 -30h736v-20v-10h-736v-30h736v-20h-736v-30h736v-20v-10h-736v-29h736v-20h-736v-30h736v-20v-10h-736v-30h736v-20h-736v-30h736v-19v-10h-736v-30h736v-20h-736v-30 h736v-20v-10h-736v-30h736v-20h-736v-29h736v-20v-10h-736v-30h736v-20h-736v-30h-70l-40 60q20 0 30 70v636zM608 316h388v-10h-388v10z" />
<glyph unicode="v" horiz-adv-x="2612" d="M28 1243h1213q37 0 80 -49q219 -218 219 -239q0 -40 -169 -60q0 -50 119 -169l229 289v10q0 19 -30 19q-7 40 -50 50v149h716q20 0 259 -288q0 -40 -159 -60q-51 -41 -716 -885l-10 -10h-687q-262 226 -407 448q-358 457 -378 457q-88 20 -110 60l-149 149v70 q10 59 30 59zM28 1204q0 -20 129 -50l706 -875l60 -20h547q90 89 587 736q129 189 288 189v39h-676v-39q149 -17 149 -70q0 -37 -348 -438h-20q-348 407 -348 458q0 30 169 50v29l-99 10h-1124zM237 1164h825l-10 -10v-40l10 -50h-746l-79 90v10zM1858 1164h269l-90 -100 h-109l10 -30h79l-20 -19h-49v-30h29l-59 -50l10 -10v-20l-50 -20l10 -10v-20q-40 0 -60 -39h20l-60 -40v-10h20q0 -20 -59 -40v-10l10 -10v-10q-60 -20 -60 -40h20q0 -19 -60 -39v-10l10 -30h-10q-50 -3 -50 -30h20v-20l-49 -10h-806l-50 10v20h806l-30 30h-796l-20 20h806 l-10 10v10q106 79 378 447l10 60v20l-10 10v10zM336 1034h746l20 -19h-746zM376 985h746l20 -20v-10h-736zM426 925h746l20 -20h-766v20zM465 875h746l20 -20l-10 -10h-706l-50 10v20zM505 816h766v-20h-746zM545 766h746l20 -20v-10h-736zM595 706h746l20 -20h-746z M635 656h746l19 -19v-10h-736zM764 487h825l-19 -20h-786zM814 438h736q-10 -30 -60 -30h-627l-49 10v20zM853 378h647l-20 -20h-607zM903 328h557v-10h-557v10z" />
<glyph unicode="w" horiz-adv-x="3926" d="M19 1243h1174l139 -139h10v119l20 20h1263q20 0 259 -248v-70l-180 -40l110 -159q30 16 209 279q-100 108 -100 129v89l20 20h726q20 0 259 -268v-30q0 -26 -179 -60l-647 -875l-10 -10h-716q-90 9 -368 378l-298 -378h-726q-238 219 -537 647q-205 268 -249 268 l-199 179v129zM19 1213v-19l139 -60q646 -845 686 -875h587q54 0 130 139l258 318h20q40 -30 328 -428q38 -29 90 -29h547q68 0 219 248q454 616 487 637l149 40v20l-20 19h-686v-19q0 -24 149 -50l30 -30q0 -35 -328 -458h-10q-109 109 -358 458v20l179 40v20l-20 19h-1164 l-69 -10v-29q156 0 248 -169l60 -60v-20q-195 -268 -219 -279h-10q-50 40 -368 458v20q0 27 120 50v29l-50 10h-1074zM208 1164h816l-10 -40l19 -60h-746q-26 11 -79 100zM1571 1164h815v-30l10 -70h-736q-89 73 -89 100zM3172 1164h269l-80 -100h-119v-10q0 -20 99 -20 l-20 -19h-59v-30h39v-20q-69 -10 -69 -30v-10h30l-70 -40v-10h30v-20q-70 -10 -70 -39h30l-70 -40v-10h30v-20q-69 -10 -69 -30v-10h29l-69 -40v-10h30v-19q-70 -10 -70 -40h30q0 -20 -60 -20l-10 -30h30v-20l-50 -10h-855l-30 30h816l-30 30h-806l-20 20h816l119 149 q239 336 239 358v10zM307 1034h766v-19h-746zM1680 1034h746l20 -19h-746zM347 985h746l20 -20v-10h-716l-50 10v20zM1720 985h736l20 -20v-10h-756v30zM1461 955q0 -46 -129 -60q35 -64 139 -179h10l129 189q-100 0 -119 50l-30 10v-10zM1740 945l20 -20h746l19 -20h-755 l29 -30h746l20 -20v-10h-766v-29h806v-20h-806l-20 -20l10 -10v-10q-41 -14 -59 -50l10 -10q-46 -19 -50 -40l10 -9q-20 -1 -110 -130h-875l-30 30h816l-30 30h-806l-19 20h825q60 47 269 348zM387 925h756l20 -20h-756zM427 875h756l20 -20v-10h-746zM476 816h766v-20h-746 zM516 766h746l20 -20v-10h-736zM1879 766h746l20 -20v-10h-706q-52 0 -60 30zM556 706h756l20 -20h-756zM1929 706h746l20 -20h-746zM596 656h756l20 -19v-10h-746zM1968 656h746l20 -19v-10h-716l-50 10v19zM725 487h846l-20 -20h-806zM2088 487h855l-20 -20h-815zM775 438 h746v-20l-50 -10h-676l-20 20v10zM2128 438h775v-20l-49 -10h-697zM815 378h666l-20 -20h-626zM2177 378h687l-20 -20h-647zM854 328h587v-10h-587v10zM2217 328h607v-10h-607v10z" />
<glyph unicode="x" horiz-adv-x="2586" d="M-5 1244h1273q20 0 200 -221l131 50q-40 39 -40 71v70l10 30h721q20 0 261 -261v-50q0 -16 -171 -50l-521 -281q339 -250 381 -250q97 0 219 -130.5t122 -150.5v-50l-20 -20h-1333q-191 177 -191 200q-100 -45 -100 -60l80 -70v-50l-20 -20h-792q-20 0 -100 80t-80 100 v141q177 30 311 100l341 180v20l-381 261q-118 26 -151 70q-150 120 -150 140v151zM15 1224v-30q0 -17 170 -60l622 -472v-10q-4 -17 -351 -190q-248 -152 -401 -160v-40h702v30q0 30 -111 30l-30 30v10q0 44 361 180q201 -133 231 -180v-10q0 -30 -131 -40l-10 -10v-30 l51 -10h1192v50q-123 0 -310 160q-428 307 -461 351v10q6 20 541 280q0 31 210 71v40h-701v-30q130 -23 130 -50v-21q-21 -40 -361 -180l-220 170v21q0 34 120 60v30h-1243zM236 1164h851l-10 -41l21 -60h-702q-28 0 -160 91v10zM1769 1164h271v-10q-552 -261 -552 -301v-20 h-10l10 -10v-30h-751l-20 20h731v10l-70 20h-681q-52 0 -61 30h692q451 170 451 261l-10 10v20zM416 1033h702l50 -10v-10h-732zM486 983h702l50 -10v-20h-672q-74 0 -80 30zM566 923h702l50 -10v-10h-732zM787 763h721l31 -30h-692q-52 0 -60 30zM847 703h742l20 -21h-742z M857 652h802l30 -30h-802v-10q40 -5 40 -30q-371 -139 -371 -220l10 -10v-30h-240v10q430 213 531 290v30zM1007 592h732l20 -20h-702l-50 10v10zM1087 542h722l30 -30h-691q-52 0 -61 30zM1158 482h731l20 -20h-701l-50 10v10zM1228 432h701q61 -6 61 -30h-702 q-52 0 -60 30zM1268 372h772l20 -20h-792v20z" />
<glyph unicode="y" horiz-adv-x="2590" d="M18 1241h1234l259 -258h10q0 -68 -159 -80l-10 -30l119 -159q165 184 229 299q-47 69 -70 69l-19 60v80l19 19h687l269 -268v-30l-169 -60q-554 -743 -697 -896q-265 -159 -806 -159h-339q-331 0 -408 100q-159 136 -159 179v79q0 55 259 70h139q131 0 279 -80l70 -10 l99 10l-587 717l-110 60q-159 119 -159 139v130zM18 1212v-20q0 -22 99 -30q137 -109 498 -577l299 -369v-20q-15 -49 -130 -49h-69l-199 69l-180 20q-291 -16 -298 -60v-20q156 -69 507 -69q843 0 1006 249l617 806q75 40 149 40v30l-99 10h-558l-20 -20l160 -60l10 -10 v-30l-339 -438q-46 23 -368 418l-20 40q0 54 169 70v20l-50 10h-1134zM217 1162h816v-50l10 -50h-736zM1859 1162h249q-63 -100 -109 -100h-70v-10q0 -20 80 -20q0 -19 -60 -19v-30h20l-60 -50v-10h20q0 -20 -50 -20l-10 -30h20q0 -16 -69 -50v-10h20q0 -19 -40 -19l-10 -10 v-10l10 -30h-10q-46 -20 -50 -40h20l-60 -40v-10h20q0 -19 -60 -40v-20h20l-69 -39v-10h29l-29 -30h-856l-30 30h816v10l-40 20h-796l-20 19h806l-10 10v10q70 36 199 229q189 239 189 269zM326 1032h737l20 -19h-737zM366 983h737l20 -20v-10h-727zM416 923h757v-20h-737z M456 873h746l20 -20v-10h-736zM506 813h746l20 -19h-746zM545 764h747l20 -20v-10h-737zM595 704h747l20 -20h-747zM635 654h727l49 -10v-20h-746zM774 485h817l-20 -20h-777zM814 435h737v-20l-50 -10h-627q-52 0 -60 30zM864 375h647l-20 -19h-607zM904 326h557 q-10 -30 -59 -30h-468zM954 266h428v-10l-50 -10h-378v20zM974 216h258v-10q-84 -20 -219 -20h-10v-20h-39zM207 176h159l179 -20v-9h-129q-209 0 -209 29z" />
<glyph unicode="z" horiz-adv-x="2173" d="M1943 1237l239 -249l-467 -477h218l239 -258l-158 -256l-1780 -2l-228 169v79l467 487h-268l-179 179v89q142 239 169 239h1748zM56 998l10 -10h79q255 0 338 100q101 79 218 79h189l20 -20v-10l-854 -874h1718l129 219v10h-49q-328 0 -328 -70q-120 -109 -278 -109h-189 l-30 30l865 864v10h-1640q-89 0 -129 -119zM215 1157h268v-10q-129 -99 -249 -99h-79zM960 1157h804q-79 -99 -129 -99h-596v-30h596l-20 -20h-586l-10 -30h567q-10 -29 -60 -29h-536l-30 -30h566l-20 -20h-566l-30 -30h566q-10 -30 -59 -30h-507q-60 -6 -60 -30h567 l-20 -19h-537q-59 -7 -59 -30h566q-10 -30 -60 -30h-526l-30 -30h556l-19 -20h-557l-30 -29h557q-10 -30 -60 -30h-526l-30 -30h556l-20 -20h-556l-30 -30h556q-9 -30 -59 -30h-527l-29 -29h556l-20 -20h-556l-30 -30h556q-10 -30 -59 -30h-527l-30 -30h567l-20 -20h-567 l-39 -29h-169l765 785v49zM1804 432v-10q-46 -99 -129 -99h-189v10q131 99 179 99h139z" />
<glyph unicode="{" horiz-adv-x="2199" d="M1537 1441h428l234 -234v-166l-20 -20h-262q-302 0 -302 -97q0 -253 -175 -323l-107 -29q263 -253 263 -332h350l253 -254v-156h-525q-771 0 -905 215q-146 101 -146 322v20q-177 39 -438 39l-185 156v263h29q594 0 594 196q0 244 107 293q240 107 807 107zM29 816v-127 q594 -21 594 -156q24 -40 48 -273q39 -176 1265 -176v127h-253q-331 0 -331 137q0 284 -262 331q-253 52 -253 79q16 19 311 78q214 58 214 371q41 78 389 78h185v137h-10q-1255 0 -1255 -196q-17 -26 -29 -224q-29 -82 -146 -137q-229 -49 -467 -49zM1664 1363h204l20 -20 h-10q-443 0 -555 -78h-78v-9h88l-29 -30h-253l-127 -19v-10h380v-20h-409q-58 -6 -58 -29h467v-10l-20 -19h-476l-10 -29h496v-20h-486l-20 -19v-10h496v-10l-19 -20h-477v-29h477l-20 -19h-457v-30h418q0 -29 -107 -29h-311l-19 -19v-10h292v-10l-98 -10h-194l-20 -19v-10 h78q0 -27 -126 -39l-10 -10v-10h97v-19h-117l-107 -20v-9h224l20 -20v-10h-224q-354 49 -477 49h-29v29h19q490 0 574 176q30 64 39 186h-9q0 152 253 195q291 39 710 39zM574 660h350q199 -17 331 -117v-20l-49 10h-525v20h467v9l-185 20h-292l-29 29h292v10l-19 19h-292 l-49 10v10zM691 504h584v-30h-536l10 -29h545v-19h-525v-30h525v-29h-516l10 -29h516v-20h-516v-29h506l20 -20v-9h-526v-20h-10q-52 0 -77 137l9 10v9zM808 230h535l19 -19h-457l-97 10v9zM1022 182h369l487 -30v-10h-185l-671 30v10z" />
<glyph unicode="|" horiz-adv-x="859" d="M1 1432h626l234 -234v-1350h-704l-156 157v1427zM21 1413v-1310h586v1310h-586zM79 1354h470v-98h-372l-20 -19v-10h392v-20h-392v-29h392v-29h-392v-30h392v-19h-392v-29h392v-30h-392v-29h392v-20h-392v-29h392v-29h-392v-30h392v-19h-392v-30h392v-29h-392v-29h392 v-20h-392v-29h392v-29h-392v-30h392v-19h-392v-30h392v-29h-392v-29h392v-20h-392v-29h392v-30h-392v-29h392v-19h-392v-30h392v-29h-392v-29h392v-20h-392v-29h392v-30h-392v-29h392v-20h-392v-29h392v-29h-392v-20h-78v1193z" />
<glyph unicode="}" horiz-adv-x="2203" d="M2 1441h420q641 0 841 -127q303 -294 303 -352q0 -98 49 -98l303 -19h49l235 -235v-186h-49q-577 0 -577 -215q0 -264 -98 -264q-202 -117 -831 -117h-489l-156 156v255h254q333 0 333 107q0 263 195 333h20q-215 192 -215 332l-49 10h-362l-176 176v244zM31 1422v-137 h176q401 0 401 -108q0 -292 215 -342q303 -62 303 -78v-10q0 -16 -303 -78q-205 -68 -205 -303q0 -157 -303 -157h-284v-127h10q1261 0 1261 196q0 362 216 362q136 48 420 48v128q-478 0 -577 127q-36 0 -59 283q-55 94 -166 118q-212 78 -1105 78zM80 1363h235 q823 0 919 -137v-19l-10 9h-577v20h440v10l-283 19h-157q-151 69 -273 69h-294v29zM667 1187h577l19 -19l-9 -10h-558l30 -30h537v-19h-528v-10l20 -19h508v-30h-518v-29h528v-20h-518v-29h518l20 -20v-9h-509l-49 -10q-68 78 -68 186v68zM784 913h538v-19h-469l-69 10v9z M950 864h392q58 -6 58 -29h-195l-255 20v9zM1469 816q166 -49 410 -49h10v-30l-391 -9h-313v29h333v10l-69 19h-264l-19 20h244zM1175 708l10 -10h313v-10l-98 -9h-156l10 -30h117q0 -26 -137 -39l-10 -10h-10v-9h98l-19 -20h-157l-137 -19v-10h284v-10l-20 -20h-342 l-68 -19v-10h420v-19h-440l-29 -30h459v-10l-19 -19h-450l-20 -20v-9h489v-20h-498l-10 -29h499v-10l-20 -20h-479v-29h479l-20 -20h-449l-20 -19v-10h381v-10l-195 -19h-196l-9 -30h78v-9l-460 -10h-264v19h235q266 0 342 108l20 147h-10q0 123 176 205q332 65 332 88z" />
<glyph unicode="&#xad;" d="M2004 737l240 -238v-159h-2086l-159 159v238h2005zM29 717v-119h1946v119h-1946z" />
<glyph unicode="&#x410;" horiz-adv-x="3050" d="M620 1423h1275q97 0 250 -191q141 -115 241 -331q319 -537 351 -562q70 0 190.5 -125.5t120.5 -145.5v-40l-30 -30h-1505l-190 191v10l10 10l-10 30h-332l181 -201q-15 -40 -30 -40h-953l-191 191v90q3 40 211 100l491 783v10q-20 0 -110 100v121zM610 1373 q0 -23 171 -50l20 -41q-530 -873 -602 -943l-171 -50v-10l20 -20h853v40q-251 33 -251 80q75 131 91 131h732q80 -88 80 -141q0 -49 -200 -70v-40h1374q52 0 61 30v20q-227 0 -352 311l-451 743q-44 40 -161 40h-1154q-60 -6 -60 -30zM831 1343h1064q55 0 90 -81v-10h-1084 v-10l20 -20h171q-7 -30 -81 -30h-80v-30h111q0 -20 -111 -20l-10 -10v-20h80v-10q0 -20 -110 -20l-10 -10v-20h90q0 -20 -110 -20l-10 -10v-20h90v-21l-50 -10h-70l-10 -30h100l-20 -20h-90l-20 -20v-10h100l-30 -30h-100l-10 -30h100v-20h-121l-10 -30h101v-10l-20 -20 h-111l-10 -30h111l-20 -21h-111l-10 -30h111v-20l-51 -10h-90l-10 -30h120l-20 -20h-120l-10 -30h130q-10 -30 -60 -30h-80l-30 -30h130l-20 -20h-130l-10 -30h120l-30 -30h-100l-30 -31h140v-20h-160l-11 -30h171l20 -20h-361q592 909 592 953v10zM1142 1222h853l20 -20 v-10h-793q-74 0 -80 30zM1112 1162h10q63 -69 331 -582v-10l-20 -20h-642l-20 20v20zM1202 1162h833l20 -20h-853v20zM1232 1112h833l20 -20v-10h-833l-20 20v10zM1262 1062l10 -10h843v-20h-823l10 -30h823l20 -21v-10h-822l30 -30h812l20 -20h-832l10 -30h833l20 -20v-10 h-823v-10l20 -20h833v-20h-833l10 -30h853v-30h-823v-10l20 -20h823l20 -21h-843l10 -30h843l20 -20v-10h-833v-10l20 -20h843v-20h-843l30 -30h833l20 -20l-10 -10h-833v-10l20 -20h853v-20h-853v-30h863l20 -20v-10h-862l10 -31h873l20 -20h-863v-10l20 -20h843l50 -10 v-10h-974q0 50 21 50q-12 85 -101 181h-10l10 10v10q0 46 -251 472v20zM1272 761l-100 -191h211v10q-70 143 -111 181z" />
<glyph unicode="&#x411;" horiz-adv-x="3303" d="M40 1425h2430q49 0 81 -51q254 -241 384 -424l-30 -30q-101 0 -201 1t-150 3l-49 2q-63 47 -144 81t-152 48.5t-133 21.5t-98 7q-73 0 -206.5 -1.5t-185.5 -2.5l-1 -89q281 -15 298 -16q19 -1 53.5 -3.5t136.5 -12.5t198.5 -23.5t222 -37.5t226.5 -53t192.5 -71.5 t137.5 -91.5q251 -237 251 -301v-20q0 -309 -1093 -361h-1997l-211 171v140q0 23 241 70l10 51v652h-30q-40 0 -121 90q-100 92 -100 131v80zM2450 1400h-1118l-1202 5l-100 -10v-40q241 -23 241 -60v-904q0 -52 -241 -80v-30l20 -20h1335q1512 0 1635 271l20 80 q0 32 -19.5 60.5t-70.5 59t-132.5 56.5t-213 51t-303.5 44t-413 34.5t-534 23.5l-20 30l-2 376q33 0 260.5 -0.5t345.5 -0.5q32 -6 84 -20q45 -12 86 -26t92 -37.5t89 -50.5q37 -30 282 -30h21l70 10q-147 208 -212 208zM301 1345h973v-91h-903v-10l20 -20h883v-30h-873 l10 -30h863v-20h-863v-30h863v-30h-863v-30h863v-20h-863v-30h863v-31h-863v-30h863v-20h-863v-30h863v-30h-863v-30h863v-20h-863v-30h863v-30h-863v-30h863v-21h-863v-30h863v-30h-863v-30h863v-20h-863v-30h863v-30h-863v-30h863v-20h-863v-30h863v-30h-863v-31h863v-20 h-863v-30h863v-20h-983q40 39 40 131v802q0 53 -30 91zM2188 1344h272l81 -91h-192q-48 0 -161 91zM1345 893h230q261 0 261 -140q20 0 20 -201q0 -241 -180 -241l-181 -10h-150l-20 20v552zM2117 833q737 -56 823 -161l30 -30v-10l-10 10h-973v-30h993v-20h-993v-30h983 q-10 -30 -60 -30h-913v-30h913v-10l-50 -10h-863v-30h803v-10l-141 -20h-662v-31h592v-10l-171 -10h-431v-30h150v-10l-291 -10q61 61 61 201v60l-10 201h331l-10 30h-321l22 20h198zM1937 753l30 -30h522v10l-342 20h-210zM1967 702v-10l20 -20h823v10l-201 20h-642z M1595 622v-291q231 0 231 161v110l-20 20h-211z" />
<glyph unicode="&#x412;" horiz-adv-x="3299" d="M38 1423h1897q921 0 1093 -291q181 -157 181 -211q0 -100 -251 -160v-10q23 0 90 -71q251 -237 251 -301v-20q0 -309 -1093 -361h-1997l-211 171v140q0 23 241 70l10 51v652h-30q-40 0 -121 90q-100 92 -100 131v80zM28 1393v-40q241 -23 241 -60v-904q0 -52 -241 -80 v-30l20 -20h1335q1512 0 1635 271l20 80q0 211 -893 281l-20 30q0 20 372 50q441 78 441 201q-94 231 -1314 231h-1496zM1343 1363h210q311 0 311 -191v-10q0 -140 -70 -191q-117 -40 -241 -40h-210l-20 20v392zM299 1343h973v-91h-903v-10l20 -20h883v-30h-873l10 -30h863 v-20h-863v-30h863v-30h-863v-30h863v-20h-863v-30h863v-31h-863v-30h863v-20h-863v-30h863v-30h-863v-30h863v-20h-863v-30h863v-30h-863v-30h863v-21h-863v-30h863v-30h-863v-30h863v-20h-863v-30h863v-30h-863v-30h863v-20h-863v-30h863v-30h-863v-31h863v-20h-863v-30 h863v-20h-983q40 39 40 131v802q0 53 -30 91zM1854 1343h10q797 0 1014 -171v-10l-20 -20h-873l10 -30h803v-10l-171 -20h-622v-30h582v-10l-151 -10h-431l-10 -30h190v-11l-130 -20h-60v-30h80v-20h-80l-20 -20v-10h90l20 -20v-10h-140l-30 -30h200q737 -56 823 -161 l30 -30v-10l-10 10h-973v-30h993v-20h-993v-30h983q-10 -30 -60 -30h-913v-30h913v-10l-50 -10h-863v-30h803v-10l-141 -20h-662v-31h592v-10l-171 -10h-431v-30h150v-10l-291 -10q61 61 61 201v60l-10 201h331l-10 30h-321l-101 110q101 0 121 211v110zM1925 1252v-30h602 v10l-392 20h-210zM1965 1192l10 -30h853v10l-151 20h-712zM1593 1092v-131h11q220 0 220 111v20h-231zM1343 891h230q261 0 261 -140q20 0 20 -201q0 -241 -180 -241l-181 -10h-150l-20 20v552zM1935 751l30 -30h522v10l-342 20h-210zM1965 700v-10l20 -20h823v10l-201 20 h-642zM1593 620v-291q231 0 231 161v110l-20 20h-211z" />
<glyph unicode="&#x413;" horiz-adv-x="2613" d="M0 206v111q0 25 263 61l10 10v707q-71 0 -142 91l-101 101v111q17 41 71 41h2030q49 0 81 -51q254 -241 384 -424l-30 -30q-101 0 -201 1t-149 3l-50 2q-60 51 -138 84t-146.5 44t-128 15t-94.5 0l-35 -3q2 -469 2 -732q49 0 71 -51l232 -252l-30 -41h-1667zM20 297 q0 -30 162 -30h1404l71 10v40q-57 0 -109 10.5t-85.5 25t-59.5 29.5t-37 26l-12 10v920l30 30h212q152 0 354 -142q37 -30 282 -30h21l70 10q-148 209 -212 212h-1939q-111 0 -111 -30v-20q242 -20 242 -91v-859q0 -91 -202 -91l-81 -10v-20zM323 1358h980v-91h-919v-10 l20 -20h899v-11v-20h-879l10 -30h869v-20h-869l10 -31h859v-10v-20h-859v-30h859v-20h-859v-31h859v-10v-20h-859v-30h859v-20h-859v-31h857v-30h-857v-30h859v-21h-859v-30h859v-10v-20h-859v-30h859v-21h-859v-30h859v-10v-20h-859v-31h859v-20h-859v-30h859v-10v-20h-859 v-31h859v-20h-859v-30h859v-10v-21h-859v-30h859v-20h-859v-30h869l20 -21h-1000v11l21 60v849l10 10zM1849 1358h272l81 -91h-192q-48 0 -161 91z" />
<glyph unicode="&#x414;" horiz-adv-x="3487" d="M815 1698h1285q28 0 52.5 -5t56.5 -19t67 -44t72 -76q348 -567 558 -895h307q5 -3 12 -9t18 -23.5t9 -33.5v-288q0 -20 30 -20l202 -202v-61l-20 -20h-1662l-182 202v102h-572v-92l151 -181l-30 -31h-987l-182 182v131q0 24 212 61l10 10v183q3 52 32 90h153l488 778v10 q-20 0 -110 100v121zM865 1678q-60 -6 -60 -30q0 -23 171 -50l20 -41q-78 -128 -221.5 -357.5t-248.5 -395.5l-105 -166h-150q-15 -20 -21.5 -41.5t-5.5 -55.5l-2 -165q0 -40 -222 -61v-30l20 -20h887v30q-7 21 -142 61l-10 50v81h5h-2h-3v62l30 30h957q16 -5 23 -17t7 -36 q0 -19 0.5 -51t0.5 -46.5t-1.5 -39.5t-3.5 -52l-137 -31v-41h1560v30q-1 20 -182 51q-50 32 -50 80v61q0 11 -0.5 21.5t-1.5 18.5l-2 16t-2 14t-2 11t-2 8.5t-2 6.5t-1.5 4l-0.5 1q-10 20 -17.5 29.5t-22.5 20.5h-42.5h-17.5h-5h-4t-16 -0.5t-39 -0.5q-68 109 -160 258 l-451 743q-44 40 -161 40h-1164zM705 485q-10 0 -322 2l1 -30h321q0 -17 -1 -31h-320v-30h321v-20h-321v-30h321l20 -21h-452q30 39 30 91v71q0 23 0.5 35.5t6 29t15.5 26.5h132q393 651 589 969v10l-20 61h1074q55 0 90 -81v-10h-1094v-10l20 -20h171q-7 -30 -81 -30h-80 v-30h111q0 -20 -111 -20l-10 -10v-20h80v-10q2 -10 -26.5 -15t-83.5 -5l-10 -10v-20h90q0 -20 -110 -20l-10 -10v-20h90v-21l-50 -10h-70l-10 -30h100l-20 -20h-90l-20 -20v-10h100l-30 -30h-100l-10 -30h100v-20h-121l-10 -30h101v-10l-20 -20h-111l-10 -30h111l-20 -21 h-111l-10 -30h111v-20l-51 -10h-90l-10 -30h120l-20 -20h-120l-10 -30h130q-10 -30 -60 -30h-80l-30 -30h130l-20 -20h-130l-10 -30h126q-4 -5 -8 -12.5t-6 -12.5l-2 -5h-120l-30 -31h134l-15 -26h-117l-26 -31l97 -1v-26h-107l-25 -22h102q6 -15 8 -35h-127l-9 -22h135 v-7.5v-8.5zM1337 1497h863l20 -20v-10h-803q-74 0 -80 30zM1307 1437h10q374 -687 433 -800q-35 1 -62 1h-374h-479q427 725 472 799zM1397 1437h843l20 -20h-863v20zM1427 1387h843l20 -20v-10h-843l-20 20v10zM1457 1337l10 -10h853v-20h-833l10 -30h833l20 -21v-10h-832 l30 -30h822l20 -20h-842l10 -30h843l20 -20v-10h-833v-10l20 -20h843v-20h-843l10 -30h863v-30h-833v-10l20 -20h833l20 -21h-853l10 -30h853l20 -20v-10h-843v-10l20 -20h853v-20h-853l30 -30h843l20 -20l-10 -10h-843v-10l20 -20h863v-20h-863v-30h873l20 -20v-10h-872 l10 -31h883q6 -6 15 -27q-620 -2 -774 -2v-16l797 -1l6 -16h-801l1 -24h915h48q10 -8 13.5 -22.5t3.5 -37t2 -31.5h-56l-5 10q-74 0 -262.5 -0.5t-405 -0.5t-247.5 -1v-35l976 -3v-31h-972v-30h972v-20h-972v-30h983l20 -21h-1086l4 188l-19 123h-45q-64 122 -183 350.5 t-173 330.5v20zM1467 1036l-208 -377h417zM2843 544l-893 -2l1 -26l905 3z" />
<glyph unicode="&#x415;" horiz-adv-x="2616" d="M20 1436h2081q53 0 182 -142q257 -261 293 -353h-10l-41 -10h-252l141 -142v-283q0 -20 -30 -20l232 -232q-141 -237 -181 -253h-2253l-192 192v121q0 26 253 61l10 10v707q-71 0 -101 51l-152 151v121zM30 1395v-30q253 -18 253 -61v-919q0 -40 -273 -81v-30l71 -10 h2051q92 0 141 131q17 2 71 101l-152 10q-257 0 -333 -101q-121 -101 -273 -101h-222l-20 20v516l20 20h252q122 0 182 -101l142 -20h101l101 10v272l-71 11h-202q-74 0 -131 -91q-52 -31 -101 -31h-273l-20 21v414l20 20h222q142 0 354 -152q85 -20 222 -20h81l50 10v10 q-139 192 -182 192l-91 10h-1969zM323 1355h970l-10 -10v-81h-899v-10l20 -20h879v-31h-869l10 -30h859v-20h-859v-31h859v-30h-859v-30h859v-20h-859v-31h859v-30h-859v-30h859v-20h-859v-31h859l20 -20l-10 -10h-869v-30h869l-20 -21h-849v-30h859v-30h-859v-30h859v-21 h-859v-30h859v-30h-859v-31h859v-20h-859v-30h859v-30h-859v-31h859v-20h-859v-30h859v-31h-859v-30h859v-20h-859v-30h859v-21h-970l20 61v828l11 41zM1828 1355h273l71 -81v-10h-192q-43 0 -152 91zM1606 1092v-151h41q70 0 161 111h101v10l-121 30h-182zM1828 971h263 v-101h-162l-30 -30h192v-21h-141l-122 -10l-70 81q35 0 70 81zM1606 587v-252h10q134 0 303 151l31 10l-101 91h-243zM2041 446h202v-10q-34 -81 -122 -81v-10h51v-21h-323q134 122 192 122z" />
<glyph unicode="&#x416;" horiz-adv-x="4563" d="M1684 1268h952q273 -261 273 -293v-50q179 93 182 111l-81 71v121l31 30h960l273 -272v-21q0 -43 -273 -70l-243 -122v-10q383 -414 465 -414q79 0 105.5 -25.5t228.5 -237.5v-71l-51 -10h-1021q-108 0 -252 182l-202 202q-122 -54 -122 -71v-91q0 -41 132 -161v-31 l-31 -30h-1294q-50 0 -222 192v111q0 27 172 51v177l-449 -516l-176 -10q-159 0 -399 -1.5t-432 -1.5q-30 15 -81 64.5t-87 92.5l-35 42q-1 3 -1.5 7t-1.5 16t-2 22.5t-1.5 24.5t0 24.5t2.5 18.5t6 9q12 6 49.5 12.5t56.5 13.5q41 14 279.5 234t421.5 418v10l-235 120 q-273 27 -273 70v21l29 36h960l1 -2h12l273 -272v-21q0 -28 -114 -49l201 -118l-6 447zM1712 1248l-22 -28q2 -319 6 -474l-30 16q-275 163 -601 360v20l50 41q103 5 150 17q7 1 18 3t15 4q9 6 9 16v2l-10 15l-48 3h-892l-20 -20q0 -30 222 -51q228 -89 304 -161v-10 q-21 -20 -95.5 -94.5l-109 -109t-106.5 -104.5t-122 -117t-118 -108.5t-131 -114.5q-70 -40 -137 -40v-30l71 -10h788l172 10q42 21 394 424q19 -9 228 -114q-1 -145 -1 -221q0 -15 -4 -25.5t-15 -17.5t-23.5 -11.5t-34.5 -6.5t-42 -2.5t-53 -0.5v-30l71 -10h1122l51 10v30 q-132 24 -132 61v202q0 22 233 131q352 -403 394 -424l172 -10h788l71 10v30q-157 0 -323 213q-19 0 -496 475v10q76 72 304 161q222 21 222 51l-20 20h-880l-70 -10v-10q0 -30 192 -40l50 -41v-20q-54 -57 -536 -324q-45 -40 -91 -40l-10 10v465l-20 20h-904zM1402 737 l-31 -30h-568l-31 -30h586l-20 -20h-587l-31 -30h598q-9 -31 -61 -31h-569l-31 -30h610l-20 -20h-611l-32 -31h613l-31 -30h-614l-31 -30h625l-20 -20h-626l-32 -31h627v-20l-50 -10h-608l-31 -30h629v-11h-750h-56l635 625l37 38q17 22 -3 52q-17 8 -86 48t-141 76v11h351 l-64 -57l-109 2l48 -21l88 -2q13 -12 16 -15q1 0 -7.5 0t-21 0.5t-25 0.5h-20.5h-8q1 -1 12 -8t18.5 -10.5t12.5 -3.5q11 1 27 1.5t23 0.5t16 -1.5t15 -4.5l32 -22l-69 -3v-1q3 -2 7.5 -5.5t7 -6t5.5 -6t3.5 -6t-0.5 -6.5l97 1l39 -23l-142 -4l-14 -24l196 4l40 -30l-258 -1 l-17 -23l326 -1q6 -3 21.5 -14t22.5 -15h-388l-27 -30h455q14 -8 55 -30h-535l-32 -31l625 1q5 -3 18 -10.5t20 -10.5h-684l-32 -30zM1537 736l69 1l58 -30h-73zM1637 675h40l-1 -21zM1746 1188h836v-102h-751l2 -30h753v-20h-751l1 -30h750v-21v-10h-748v-30h748v-20h-748 v-30h748v-21h-748v-30h748v-20v-10h-748v-31h748v-20h-748v-30h748l30 -10v-21h-778v-30h839v-10l-51 -10h-788v-30h758v-10l-10 -21h-748v-30h748v-20h-748v-31h748v-20v-10h-748v-30h748v-20h-748v-31h748v-20v-10h-748v-30h758v-11h-859v11l10 40q0 393 -1 809z M3324 1178h323v-11q-153 -80 -253 -80v-21h51l-30 -50l10 -30h-10l-31 -31l71 -10l-20 -20h-81l-71 -20v-10h213l20 -21h-273l-41 -20v-10h344l20 -20v-10h-404q-61 -7 -61 -31h506l20 -20h-576l-41 -20v-10h647l20 -20v-11h-727q-53 51 -91 51l-142 -61l-10 10v11 q544 297 617 374l10 50zM2980 672h738l20 -20h-738zM3020 622h748l21 -21v-10h-708q-52 0 -61 31zM3071 561h778v-20h-758zM3121 510h738l51 -10v-20h-758zM3172 450h778l21 -20h-779zM3223 399h778l20 -20v-10h-748l-50 10v20zM3283 339h789v-11h-789v11z" />
<glyph unicode="&#x417;" horiz-adv-x="2671" d="M939 1431q58 0 159 -1l202 -2q921 0 1093 -291q181 -157 181 -211q0 -100 -251 -160v-10q23 0 90 -71q251 -237 251 -301v-20q0 -309 -1093 -361h-645v-1q-331 0 -518 4q-30 0 -90.5 59.5t-156.5 176.5l-161 273v102h10l40 10h304q40 0 101.5 -37t192.5 -153 q94 -48 150 -66.5t140 -30.5q122 0 186.5 36t64.5 119v110l-20 20h-111q-17 0 -46.5 21t-59.5 50.5t-57 59t-45 50.5l-17 21q-9 27 -15 48q-6 19 -8.5 29.5t0 31t14.5 34.5q20 21 43 27t35 -2q8 -4 13 -11t6 -13l1 -5q38 -15 87.5 -9t93.5 20.5t69.5 42.5t16.5 57v20 q-208 1 -385 -2l-129 -181l-71 -10h-353q-60 0 -233 202v71v10q32 243 101 243q248 0 820 1zM251 1410q-162 0 -162 -41l-41 -192h10l142 -10h40q223 0 223 81q27 53 75 86q71 35 127 35q46 0 130.5 -0.5t122.5 -0.5q311 0 311 -191v-10q0 -81 -13.5 -125.5t-56.5 -65.5 q-47 -23 -89.5 -31.5t-105.5 -8.5h-42l-20 22q6 5 0 11q-4 4 -17.5 4.5t-22.5 -4.5q-16 -7 -24.5 -30t-0.5 -44q7 -21 24 -28q8 -4 20 -4t17 4q2 3 2 5t-1 3l-1 1l20 20h66q65 0 106 -7.5t64.5 -25.5t34 -41t15.5 -61l1.5 -10t3 -19.5t3.5 -28t3.5 -38.5t2.5 -49t1 -61 q0 -241 -180 -241q-11 0 -43.5 -2t-54 -2.5t-52 3t-54.5 11.5q-93 12 -221.5 97.5t-179.5 154.5q-41 30 -252 30h-71q-71 -3 -71 -20q164 -301 202 -303q76 -6 158.5 -13.5t115.5 -10t109 -5.5t208 -6q100 -3 170 -3t192.5 3.5t220 13.5t229.5 31t246 51.5t244 79.5t248 111 l20 80q0 211 -893 281l-20 30q0 20 372 50q441 78 441 201q-94 231 -1314 231q-521 0 -738 2zM149 1349h314q43 0 -7 -44q-37 -32 -54 -37h-91l-71 -10v-10h162l-20 -20h-273q18 121 40 121zM1219 1348h10q797 0 1014 -171v-10l-20 -20h-873l10 -30h803v-10l-171 -20h-622 v-30h582v-10l-151 -10h-431l-10 -30h190v-11l-130 -20h-60v-30h80v-20h-80l-20 -20v-10h90l20 -20v-10h-140l-30 -30h200q737 -56 823 -161l30 -30v-10l-10 10h-973v-30h993v-20h-993v-30h983q-10 -30 -60 -30h-913v-30h913v-10l-50 -10h-863v-30h803v-10l-141 -20h-662v-31 h592v-10l-171 -10h-431v-30h150v-10l-291 -10q61 61 61 201v60l-10 201h331l-10 30h-321l-101 110q101 0 121 211v110zM1290 1257v-30h602v10l-392 20h-210zM1330 1197l10 -30h853v10l-151 20h-712zM1300 756l30 -30h522v10l-342 20h-210zM1330 705v-10l20 -20h823v10 l-201 20h-642zM131 546h223q57 0 182 -111h-324l14 -31h350q7 -1 20 -6t22 -9l9 -5h-385l14 -26l417 -4l69 -44l-482 21z" />
<glyph unicode="&#x418;" horiz-adv-x="3407" d="M30 1439h1435l272 -273v-61q-161 -20 -161 -50v-226l222 278v39q-18 0 -151 141v101l10 51h1474l273 -283v-10q-9 -61 -202 -61q0 -20 -50 -20v-758q0 -20 30 -20l202 -202v-61l-20 -20h-1556l-182 202v111q0 21 172 61v396l-222 -360v-198l151 -181l-30 -31h-1515 l-182 182v131q0 24 212 61l10 10v717q-46 0 -222 202v101zM30 1408v-30q174 -27 212 -71v-929q0 -40 -222 -61v-30l20 -20h1415v30q-7 21 -142 61l-10 12v3l30 30l465 606q30 -10 30 -61v-530q0 -83 -151 -101h-20v-50h1454v30q0 20 -182 51q-50 32 -50 80v839 q0 101 242 101l10 10v30l-50 10h-1384l-20 -20v-30q151 0 151 -111v-139l-30 -31l-475 -606l-20 20v796q0 51 172 71v40l-101 10h-1293zM283 1358h990l-31 -61l11 -10v-20h-910v-10l21 -20h889v-11l-1 -20h-878l10 -30h869v-20h-869v-31h869v-10l-1 -20h-868v-30h869v-20 h-869v-31h869v-10l-1 -20h-868v-30h869v-20h-869v-31h868l11 -20l-10 -10h-869v-30h869v-21h-869v-30h869v-10l-1 -20h-868v-30h869v-21h-869v-30h869v-10l-1 -20h-868v-31h869v-20h-869v-30h869v-10l-1 -20h-868v-31h869v-20h-869v-30h869v-10l-1 -21h-868v-30h869v-20 h-869v-30h869l20 -21h-1000q30 39 30 91v849zM1859 1358h990l-21 -91h-899l10 -30h889v-11v-20h-868v-30h868v-20h-858v-31h858v-10v-20h-858v-30h858v-20h-858v-31h858v-10v-20h-858v-30h858v-20h-858v-31h858v-10v-20h-858v-30h858v-21h-868v-30h868v-10v-20h-878l10 -30 h868v-21h-868l10 -30h858v-10v-20h-858v-31h858v-20h-858v-30h858v-10v-20h-858v-31h858v-20h-858v-30h858v-10v-21h-858v-30h858v-20h-858v-30h869l20 -21h-1000l20 81q-4 130 -4 274.5t2 321t2 273.5z" />
<glyph unicode="&#x419;" horiz-adv-x="3408" d="M1464 1713h758l270 -281h639l273 -283v-10q-9 -61 -202 -61q0 -20 -50 -20v-758q0 -20 30 -20l202 -202v-61l-20 -20h-1556l-182 202v111q0 21 172 61v396l-222 -360v-198l151 -181l-30 -31h-1515l-182 182v131q0 24 212 61l10 10v717q-46 0 -222 202v101l30 31h885 q-5 69 -5 99q449 182 554 182zM1720 1691q-413 0 -554 -96l-128 -42v-11h53l1067 139v10h-438zM1467 1430l270 -271v-61q-161 -20 -161 -50v-226l222 278v39q-18 0 -151 141v101l10 49h-190zM81 1411l-51 -10v-30q174 -27 212 -71v-929q0 -40 -222 -61v-30l20 -20h1415v30 q-7 21 -142 61l-10 12v3l30 30l465 606q30 -10 30 -61v-530q0 -83 -151 -101h-20v-50h1454v30q0 20 -182 51q-50 32 -50 80v839q0 101 242 101l10 10v30l-50 10h-1384l-20 -20v-30q151 0 151 -111v-139l-30 -31l-475 -606l-20 20v796q0 51 172 71v40l-101 10h-1293z M283 1351h990l-31 -61l11 -10v-20h-910v-10l21 -20h889v-11l-1 -20h-878l10 -30h869v-20h-869v-31h869v-10l-1 -20h-868v-30h869v-20h-869v-31h869v-10l-1 -20h-868v-30h869v-20h-869v-31h868l11 -20l-10 -10h-869v-30h869v-21h-869v-30h869v-10l-1 -20h-868v-30h869v-21 h-869v-30h869v-10l-1 -20h-868v-31h869v-20h-869v-30h869v-10l-1 -20h-868v-31h869v-20h-869v-30h869v-10l-1 -21h-868v-30h869v-20h-869v-30h869l20 -21h-1000q30 39 30 91v849zM1859 1351h990l-21 -91h-899l10 -30h889v-11v-20h-868v-30h868v-20h-858v-31h858v-10v-20 h-858v-30h858v-20h-858v-31h858v-10v-20h-858v-30h858v-20h-858v-31h858v-10v-20h-858v-30h858v-21h-868v-30h868v-10v-20h-878l10 -30h868v-21h-868l10 -30h858v-10v-20h-858v-31h858v-20h-858v-30h858v-10v-20h-858v-31h858v-20h-858v-30h858v-10v-21h-858v-30h858v-20 h-858v-30h869l20 -21h-1000l20 81q-4 130 -4 274.5t2 321t2 273.5z" />
<glyph unicode="&#x41a;" horiz-adv-x="3316" d="M10 1433h1522q20 0 272 -251l70 50q-50 61 -50 91v100l50 10h897q272 -260 272 -292q0 -60 -241 -60l-444 -212q490 -489 585 -514q121 0 191 -101l182 -181v-40l-31 -31h-1441l-191 192v91q0 60 80 60v10l-131 121l-40 -30v-182l181 -221l-40 -41h-1512l-191 192v121 q8 22 202 60l10 10v716q-51 0 -212 181v101zM30 1393v-30q202 -18 202 -71v-917q0 -38 -212 -70v-30l71 -11h1280q110 0 110 51h-10q-181 32 -181 80v303q0 30 131 70l433 -393q-12 -60 -171 -60v-30l20 -21h1270q81 0 81 51h-11q-181 0 -332 191l-635 585v10q0 33 484 242 q211 18 211 40v10l-20 20h-877l-20 -20v-20q172 -30 172 -60v-11q-27 -47 -716 -423l-20 30v383q0 48 232 71v30l-20 20h-1452zM262 1353h998l-31 -91l11 -10l-11 -10h-896l30 -30h877l-1 -20h-866v-31h866l1 -20l-1 -10h-866v-30h867l-1 -20h-866v-30h866l1 -21l-1 -10 h-866v-30h867l-1 -20h-866v-30h866l1 -20l-1 -11h-866v-30h877v-20h-877v-30h998q13 43 292 181l413 252l10 40l-10 41v10h353v-10q-219 -101 -282 -101l10 -10v-10q-152 -63 -152 -161l-10 -10q51 0 51 -21v-10h-91l-70 -20v-10h211l20 -20h-252l-70 -20v-10h353l20 -20 v-11h-413q-61 -6 -61 -30h524l20 -20h-594l-41 -20v-10h665l21 -20v-10h-726q-50 -3 -50 -21l-101 51q-67 -30 -141 -30h-897v-31h907v-10l-41 -10h-866v-30h867v-10l-1 -20h-866v-31h867l-1 -20h-866v-30h866l1 -20l-1 -10h-866v-30h867l-1 -21h-866v-30h866l1 -20l-1 -10 h-866v-30h867l-1 -20h-866v-31h867v-30h-867v-30h-101l20 91v836q0 49 -30 101zM1512 768h836v-20h-816zM1572 718h816l21 -20v-10h-776q-53 0 -61 30zM1633 657h816l20 -20h-816zM1693 607h816l21 -20v-10h-776q-53 0 -61 30zM1754 547h816l20 -21h-786l-50 11v10z M1814 496h816l20 -20v-10h-776q-52 0 -60 30zM1874 436h817l20 -20h-816zM1905 385h816l50 -10v-20h-846l20 -30h-50z" />
<glyph unicode="&#x41b;" horiz-adv-x="3052" d="M622 1428h1275q28 0 52.5 -5t56.5 -19t67 -44t72 -76q14 -13 75.5 -121t137.5 -243t183 -300.5t198 -275.5q70 0 190.5 -125.5t120.5 -145.5v-40l-30 -30h-1505l-190 191v10l10 10v106q46 3 78.5 7.5t44.5 7.5t28.5 8.5l22.5 7.5q-16 28 -98.5 181.5t-136.5 233.5 l-281 -522l181 -201q-15 -40 -30 -40h-953l-191 191v90q3 40 211 100l491 783v10q-20 0 -110 100v121zM672 1408q-60 -6 -60 -30q0 -23 171 -50l20 -41q-530 -873 -602 -943l-171 -50v-10l20 -20h853v40q-251 33 -251 80l462 783h10q302 -560 431 -793q0 -49 -200 -70v-40 h1374q52 0 61 30v20q-109 0 -188.5 74.5t-163.5 236.5l-451 743q-44 40 -161 40h-1154zM833 1348h1064q55 0 90 -81v-10h-1084v-10l20 -20h171q-7 -30 -81 -30h-80v-30h111q0 -20 -111 -20l-10 -10v-20h80v-10q0 -20 -110 -20l-10 -10v-20h90q0 -20 -110 -20l-10 -10v-20h90 v-21l-50 -10h-70l-10 -30h100l-20 -20h-90l-20 -20v-10h100l-30 -30h-100l-10 -30h100v-20h-121l-10 -30h101v-10l-20 -20h-111l-10 -30h111l-20 -21h-111l-10 -30h111v-20l-51 -10h-90l-10 -30h120l-20 -20h-120l-10 -30h130q-10 -30 -60 -30h-80l-30 -30h130l-20 -20h-130 l-10 -30h120l-30 -30h-100l-30 -31h140v-20h-160l-11 -30h171l20 -20h-361q592 909 592 953v10zM1144 1227h853l20 -20v-10h-793q-74 0 -80 30zM1204 1167h833l20 -20h-853v20zM1234 1117h833l20 -20v-10h-833l-20 20v10zM1264 1067l10 -10h843v-20h-823l10 -30h823l20 -21 v-10h-822l30 -30h812l20 -20h-832l10 -30h833l20 -20v-10h-823v-10l20 -20h833v-20h-833l10 -30h853v-30h-823v-10l20 -20h823l20 -21h-843l10 -30h843l20 -20v-10h-833v-10l20 -20h843v-20h-843l30 -30h833l20 -20l-10 -10h-833v-10l20 -20h853v-20h-853v-30h863l20 -20 v-10h-862l10 -31h873l20 -20h-863v-10l20 -20h843l50 -10v-10h-974q0 15 5.5 27.5t10.5 17.5l5 5l-352 673v20z" />
<glyph unicode="&#x41c;" horiz-adv-x="3612" d="M24 1433h1169l474 -443l474 443h1169q37 0 80 -50q212 -207 212 -232h10q0 -60 -242 -80l-10 -10v-746l222 -222v-40l-10 -51h-1562l-202 202v101l-50 -41h-404l-423 393l-10 11h-10v-373q28 0 61 -51q181 -173 181 -191q0 -51 -91 -51h-816q-47 0 -222 192v111 q0 28 182 70l10 10v706q-42 0 -81 50q-25 0 -141 141v91q6 60 30 60zM24 1393v-30q222 0 222 -141v-786q0 -111 -151 -111l-51 -40l81 -21h645q111 0 111 31q0 26 -202 60l-30 30v605l30 30l524 -494h303l534 504h10l20 -20v-615q0 -50 -222 -70l-10 -10v-40l51 -11h1421v61 q-222 0 -222 101v836q0 81 91 81l161 30v30l-101 10h-1078l-484 -443h-20l-474 443h-1139zM256 1353h907l101 -101v-10h-937l30 -30h957l20 -20h-967l10 -31h988l20 -20v-10h-1008l10 -30h1038l20 -20h-1058v-30h232l-30 -31h-202v-30h202v-20h-202v-30h202v-31h-202v-30 h202v-20h-202v-30h202v-30h-202v-31h202v-20h-202v-30h202v-30h-202v-31h202v-20h-202v-30h202v-30h-202v-30h202v-21h-202v-30h202v-30h-202v-30h202v-20h-202v-31h212v-30h-212v-30h-111l20 91v846q0 37 -40 91zM2171 1353h887l-31 -71l10 -10v-10l-20 -20h-766l-40 -20 v-10h826v-20h-846l-30 -31h876v-10v-20h-907l-30 -30h937v-20h-937l-60 10q-32 0 -292 -252h-11l-20 20h-786l-20 20h776l-20 30q42 0 242 202zM730 1051h725l51 -11v-20h-696q-74 0 -80 31zM2120 1051h917v-11v-20h-896l-21 20v11zM800 990h746l20 -20h-746zM2120 990h917 v-20h-896zM851 940h745l31 -31h-716q-52 0 -60 31zM3037 940v-10v-21h-836l10 -30h826v-20h-826v-30h826v-10v-20h-826v-31h826v-20h-826v-30h826v-10v-20h-826v-31h826v-20h-826v-30h826v-10v-20h-826v-30h826v-21h-826v-30h826v-10v-20h-826v-30h826v-20h-826v-31h816 l21 -20l-11 -10h-826v-30h-121q30 36 30 81v524l10 10h907zM972 829h765q-10 -30 -60 -30h-635l-70 10v20zM1032 768h645l-20 -20h-605zM1082 718h535v-20l-71 -10h-403q-52 0 -61 30zM1143 657h413l-20 -20h-343l-50 10v10zM1203 607h303l-20 -20h-263zM1858 355l182 30 v141z" />
<glyph unicode="&#x41d;" horiz-adv-x="3407" d="M31 1436h1435l272 -273v-61q-161 -20 -161 -50v-132h222v223q-18 0 -151 141v101l10 51h1474l273 -283v-10q-9 -61 -202 -61q0 -20 -50 -20v-758q0 -20 30 -20l202 -202v-61l-20 -20h-1556l-182 202v111q0 21 172 61v212h-222v-374l151 -181l-30 -31h-1515l-182 182v131 q0 24 212 61l10 10v717q-46 0 -222 202v101zM31 1405v-30q174 -27 212 -71v-929q0 -40 -222 -61v-30l20 -20h1415v30q-7 21 -142 61l-10 50v425l30 30h465q30 -10 30 -61v-384q0 -83 -151 -101h-20v-50h1454v30q0 20 -182 51q-50 32 -50 80v839q0 101 242 101l10 10v30 l-50 10h-1384l-20 -20v-30q151 0 151 -111v-323l-30 -31h-475l-20 20v374q0 51 172 71v40l-101 10h-1293zM284 1355h990l-31 -61l11 -10v-20h-910v-10l21 -20h889v-11l-1 -20h-878l10 -30h869v-20h-869v-31h869v-10l-1 -20h-868v-30h869v-20h-869v-31h869v-10l-1 -20h-868 v-30h869v-20h-869v-31h868l11 -20l-10 -10h-869v-30h869v-21h-869v-30h869v-10l-1 -20h-868v-30h869v-21h-869v-30h869v-10l-1 -20h-868v-31h869v-20h-869v-30h869v-10l-1 -20h-868v-31h869v-20h-869v-30h869v-10l-1 -21h-868v-30h869v-20h-869v-30h869l20 -21h-1000 q30 39 30 91v849zM1860 1355h990l-21 -91h-899l10 -30h889v-11v-20h-868v-30h868v-20h-858v-31h858v-10v-20h-858v-30h858v-20h-858v-31h858v-10v-20h-858v-30h858v-20h-858v-31h858v-10v-20h-858v-30h858v-21h-868v-30h868v-10v-20h-878l10 -30h868v-21h-868l10 -30h858 v-10v-20h-858v-31h858v-20h-858v-30h858v-10v-20h-858v-31h858v-20h-858v-30h858v-10v-21h-858v-30h858v-20h-858v-30h869l20 -21h-1000l20 81v394l-10 81l10 81v313z" />
<glyph unicode="&#x41e;" horiz-adv-x="3200" d="M1351 1454h283q979 0 1403 -546q162 -145 162 -282v-71q0 -300 -657 -495q-337 -80 -717 -80h-333q-1004 0 -1393 525q-101 96 -101 232v141q0 267 525 454q367 122 828 122zM18 838q0 -413 909 -566l535 -30q1060 0 1403 394q71 103 71 192q0 407 -878 565 q-312 40 -586 40q-1109 -10 -1403 -424q-51 -95 -51 -171zM1432 1393h80q223 0 223 -111v-909q-55 -91 -233 -91h-70q-222 0 -222 122v898q60 91 222 91zM1189 1373l-40 -91l10 -30l-10 -10h-162l-171 -21v-10h343v-20h-414l-101 -20v-10h515v-10v-20h-596l-70 -21v-10h666 v-20h-697l-70 -20v-10h767v-10v-21h-818l-30 -30h848v-20h-878l-31 -30h909v-10v-21h-929l-20 -20v-10h949v-20h-969l-10 -30h979v-10v-21h-989v-30h989v-20h-999v-30h999v-11v-20h-989v-30h989v-20h-969l-10 -10q-50 0 -101 161v81q0 277 707 454zM1755 1373 q588 -57 777 -172q44 0 212 -121h-868v-30h899l20 -20v-11h-919v-30h949l20 -20h-969v-30h969l20 -20l-10 -11h-979v-30h1000v-20h-1000v-30h1000v-10l-21 -21h-979v-30h1000l-21 -20h-979v-30h969v-21l-50 -10h-919v-30h929l-20 -20h-909v-30h878q-10 -31 -60 -31h-818v-30 h798v-10l-51 -10h-747v-31h697q0 -30 -111 -30h-586v-30h565v-10l-70 -10h-495v-31h384v-10l-233 -20h-151v-30h30v-10l-151 -10q40 46 40 141v818q0 58 -40 111zM1846 1282v-10h101v10h-101zM1856 1242v-10l20 -21h474v10l-171 21h-323zM1876 1191v-30h646v10l-101 20h-545 zM1876 1131v-31h808v10l-81 21h-727zM1482 1060v-747h51q181 0 181 121v686h-60q-131 0 -172 -60zM190 606h969v-11v-20h-888q-75 0 -81 31zM271 545h888v-20h-838l-50 10v10zM361 494h798v-10v-20h-676l-122 20v10zM503 434h656v-20h-585l-71 10v10zM674 383h485v-30h-232 l-253 20v10zM1028 323h151v-10h-151v10z" />
<glyph unicode="&#x41f;" horiz-adv-x="3408" d="M30 1440h3101l273 -283v-10q-9 -61 -202 -61q0 -20 -50 -20v-758q0 -20 30 -20l202 -202v-61l-20 -20h-1556l-182 202v111q0 21 172 61v708h-222v-870l151 -181l-30 -31h-1515l-182 182v131q0 24 212 61l10 10v717q-46 0 -222 202v101zM30 1409v-30q174 -27 212 -71v-929 q0 -40 -222 -61v-30l20 -20h1415v30q-7 21 -142 61l-10 50v921l30 30h465q30 -10 30 -61v-880q0 -83 -151 -101h-20v-50h1454v30q0 20 -182 51q-50 32 -50 80v839q0 101 242 101l10 10v30l-50 10h-1531.5h-1468.5zM283 1359h990l-31 -61l11 -10v-20h-910v-10l21 -20h889v-11 l-1 -20h-878l10 -30h869v-20h-869v-31h869v-10l-1 -20h-868v-30h869v-20h-869v-31h869v-10l-1 -20h-868v-30h869v-20h-869v-31h868l11 -20l-10 -10h-869v-30h869v-21h-869v-30h869v-10l-1 -20h-868v-30h869v-21h-869v-30h869v-10l-1 -20h-868v-31h869v-20h-869v-30h869v-10 l-1 -20h-868v-31h869v-20h-869v-30h869v-10l-1 -21h-868v-30h869v-20h-869v-30h869l20 -21h-1000q30 39 30 91v849zM1859 1359h990l-21 -91h-899l10 -30h889v-11v-20h-868v-30h868v-20h-858v-31h858v-10v-20h-858v-30h858v-20h-858v-31h858v-10v-20h-858v-30h858v-20h-858 v-31h858v-10v-20h-858v-30h858v-21h-868v-30h868v-10v-20h-878l10 -30h868v-21h-868l10 -30h858v-10v-20h-858v-31h858v-20h-858v-30h858v-10v-20h-858v-31h858v-20h-858v-30h858v-10v-21h-858v-30h858v-20h-858v-30h869l20 -21h-1000l20 81q-4 130 -4 274.5t2 321t2 273.5z " />
<glyph unicode="&#x420;" horiz-adv-x="3325" d="M32 1433h1787q1077 0 1343 -403q162 -132 162 -233q0 -264 -677 -353q-313 -50 -1040 -50v-71q27 0 273 -273v-20q-10 -30 -61 -30h-1575q-47 0 -222 192v121q0 30 222 50v727q-64 0 -242 202v111zM32 1403v-20q0 -26 192 -51l51 -40v-929q0 -38 -233 -50v-20 q7 -31 81 -31h1383l101 10v31q-272 15 -272 111v222l30 30h232q1147 0 1414 253l40 100v41q0 265 -1070 343l-465 10h-1433zM1365 1373h192q303 0 303 -141v-384q0 -120 -253 -142h-252l-20 21v616zM295 1353h989v-31l-10 -40l10 -30l-10 -10h-909l31 -31h888v-20h-878 l10 -30h868v-10v-20h-868v-31h868v-20h-868v-30h868v-10v-21h-868v-30h868v-20h-868v-30h868v-10v-21h-868v-30h868v-20h-868v-30h868v-10v-21h-868v-30h868v-20h-868v-30h868v-31h-868v-30h868v-20h-868v-30h868v-11v-20h-868v-30h868v-20h-868v-31h868v-10v-20h-868v-30 h868v-20h-868v-31h868v-30h-868v-30h-101l20 81v868q0 32 -40 81zM1860 1353h10q963 -48 1090 -243h-10l-60 21h-889v-31h969l21 -20h-990v-30h1000v-10l-21 -21h-979v-30h979l-10 -20h-969v-30h929q-10 -31 -61 -31h-868v-30h838v-10l-50 -10h-788v-30h697v-10l-232 -21 h-465v-30h374v-10l-253 -10h-91l-80 -20h-91q45 51 60 121v373q0 62 -60 132zM1930 1242l31 -31h595v10l-242 21h-384zM1981 1191v-10l20 -20h798v10l-142 20h-676zM1607 1100v-363h10q212 0 212 111v252h-222z" />
<glyph unicode="&#x421;" horiz-adv-x="2460" d="M1114 1465h221l351 -30l150 30h241q54 0 231 -211l30 -30q54 0 120 -321v-20l-70 -20h-301q-106 0 -271 201q-110 50 -190 50h-20q-121 0 -121 -90v-683q187 0 221 151q42 50 120 50h261q114 0 141 -60l220 -221v-20q0 -199 -772 -241h-321q-872 0 -1255 512 q-100 112 -100 251v130q0 414 833 552zM30 903v-100q0 -287 602 -472q334 -70 693 -70q660 0 852 191v40q0 30 -200 30q-261 0 -261 -70q-34 -141 -261 -141h-60q-139 0 -181 80v853q0 141 191 141h30q228 0 391 -221q39 -40 231 -40q141 0 141 30q-74 281 -111 281l-50 10 h-130l-241 -40q-271 40 -452 40q-797 0 -1124 -351q-60 -99 -60 -191zM1154 1385h60q-50 -55 -50 -111h-211l-170 -20v-10h381v-30h-492l-100 -20v-10h592v-20h-632l-70 -20v-10h702v-30h-773l-40 -20v-10h813v-20h-843l-30 -30h873v-31h-903l-30 -30h933v-20h-943l-20 -20 v-10h963v-30h-983v-30h983v-20h-993v-30h993v-30h-993v-30h993v-21h-993v-30h993v-30h-983v-30h983v-20h-973q-111 113 -111 211v60q0 360 773 482q120 20 301 20zM1846 1385h231l10 -70v-11h-140v-10h150l10 -10v-10h-301l-80 81zM1836 1244h281v-30h-231l-50 10v20z M231 582h933v-30h-873q-52 0 -60 30zM321 522h843v-20h-823zM411 472h753v-30h-632l-121 20v10zM2107 462v-10q-258 -111 -391 -111l80 121h311zM562 411h602v-20h-502l-100 10v10zM793 361h381v-30h-10l-371 20v10z" />
<glyph unicode="&#x422;" horiz-adv-x="2891" d="M2557 1438q293 -276 293 -344l41 -131q0 -51 -91 -51h-314q-88 0 -182 122q-69 70 -121 70h-51v-809l233 -222v-40l-30 -31h-1598l-192 192v112q0 35 222 70v698l-111 -152l-71 -10h-353q-60 0 -233 202v71v10q32 243 101 243h2457zM29 1185h10l142 -10h40q223 0 223 81 q60 121 202 121h132l20 -20v-981q0 -40 -213 -60l-10 -10v-31l51 -10h1405l71 10v20q0 25 -202 51l-41 51v950l31 30h81q149 0 293 -182l40 -10h293q21 0 21 31q-48 202 -101 202h-2285q-162 0 -162 -41zM130 1357h314q-45 -81 -61 -81h-91l-71 -10v-10h162l-20 -20h-273 q18 121 40 121zM848 1357h961v-61v-20h-819l-51 -10v-10h870v-20h-870v-31h870v-10v-20h-870v-30h870v-20h-870v-31h870v-10v-20h-870v-30h870v-21h-870v-30h870v-10v-20h-870v-31h870v-20h-870v-30h870v-10v-21h-870v-30h870v-20h-870v-30h870v-11v-20h-870v-30h870v-20 h-870v-31h870v-10v-20h-870v-30h870v-21h-870v-30h870v-10v-20h-870v-31h870v-20h-870v-30h870v-10v-20h-870v-31h880v-20h-880v-20h-101l20 31v980l-10 10v10zM2183 1357h334l20 -81h-263l-91 71v10zM2284 1256h253l20 -20h-222l-51 10v10z" />
<glyph unicode="&#x423;" horiz-adv-x="3000" d="M20 1435h1403l171 -192q28 -10 81 -81v-40q-10 -40 -111 -40v-20l131 -101l313 262q-41 0 -41 40l-40 10v142l20 20h787q20 0 262 -252v-61q0 -18 -191 -60q-194 -168 -286 -246.5t-253 -212.5t-293 -238q-12 -10 -22 -20t-18 -22t-6.5 -22t13.5 -16l212 -222v-31 l-31 -30h-1456q-9 0 -21.5 8t-35 29.5t-39.5 38.5t-55 57t-61 63v107q-2 21 91 29t226.5 10.5t180.5 9.5q8 1 16 7t14.5 12.5t8.5 7.5q-746 670 -990 882v152zM20 1394v-30q190 0 363 -191l775 -683l-164 -153q-9 -9 -98 -12.5t-217 -7.5t-196 -12v-30l51 -11h1325l20 21v30 q-78 4 -208.5 6t-222.5 1h-91q85 74 220.5 191.5t440 373.5t471.5 385q95 72 114 72l121 20v30l-20 21h-737l-20 -21v-20q172 -25 172 -90v-11l-434 -343q-414 351 -414 374v20l131 40v30l-20 21h-1342zM272 1354h959l-10 -10v-71h-828q-64 0 -121 81zM2149 1354h343v-10 l-101 -71h-121l-50 -10v-10h151l-20 -20h-121q0 -30 80 -30l-60 -41l-428 -373h-924l-10 20h868l-31 31h-847q-53 0 -61 30h886l244 192q222 183 222 211v51zM383 1253h858v-20h-837zM444 1203h837l21 -20v-10h-798q-52 0 -60 30zM504 1142h848l20 -20h-817l-51 10v10z M565 1092h817l51 -10v-20h-787q-75 0 -81 30zM636 1031h847l20 -20h-847zM696 981h817l51 -10v-20h-807q-53 0 -61 30zM757 920h857l20 -20h-827l-50 10v10zM1028 698h694l-30 -20h-639zM1087 648h571l-40 -30h-497zM1155 587h431l-28 -20h-377zM1223 537h305l-40 -30h-229z M1231 476h225l-28 -20h-223zM1185 426h209l-40 -30h-205zM1320 365l-34 -28h-202l34 28h202zM995 728l-37 31h830q-1 -5 -8 -12.5t-14 -12.5l-6 -5z" />
<glyph unicode="&#x424;" horiz-adv-x="4668" d="M1283 1439h265h41v-1h1573q1077 0 1343 -403q162 -132 162 -233q0 -264 -677 -353q-313 -50 -1040 -50v-71q27 0 273 -273v-20q-10 -30 -61 -30h-1575q-47 0 -222 192v121q0 30 222 50v32h-53q-15 -1 -41 -2t-108 -0.5t-164.5 5t-199 19t-222.5 37.5t-225 64t-216.5 94.5 t-186 133t-145.5 176.5q-114 240 260 376q292 106 796 131q106 5 201 5zM1543 1418q-104 -2 -182.5 -1t-177 -1.5t-185.5 -10.5q-121 -11 -217 -22t-199 -28t-180 -37t-148.5 -47.5t-118 -61t-76 -78t-33.5 -96.5q-4 -61 92 -124t248 -111.5t337.5 -82t357.5 -42.5 q110 -5 231.5 -5.5t187.5 1.5l66 2l41 -1l31 -23v-281q0 -38 -233 -50v-20q7 -31 81 -31h1383l101 10v31q-272 15 -272 111v222l30 30h232q1147 0 1414 253l40 100v41q0 265 -1070 343l-465 10h-1316zM2708 1378h192q303 0 303 -141v-384q0 -120 -253 -142h-252l-20 21v616z M1585 1367l35 -35l-3 -596l-30 -23q-27 0 -41 2q-45 1 -95.5 1t-100.5 -2.5t-95.5 3t-80.5 18t-56 43.5t-20 78l2 370q1 28 11.5 50t25 36t38 24t45 15t53 8t53.5 3.5t56 1t52 1.5zM1126 1362q-24 -28 -35 -41t-23 -34.5t-15 -38.5q0 2 -10 4t-69.5 4t-185.5 -8l-242 -21 v-10l517 -2l-3 -19l-615 1q-62 -6 -142 -30h745v-30h-764q-35 -8 -51 -31h816l1 -20h-826q-15 -18 -5 -30h826l1 -31h-828q-11 -11 -1 -30h831l3 -20h-819q1 -14 29 -31l787 1l3 -31h-754l63 -25l690 -5l2 -20h-649l94 -30h552l1 -31h-414l-36 1q16 -5 37.5 -9.5t49 -10 t44.5 -8.5l318 -3l1 -20h-70q-29 1 -79 2t-92 2.5t-81 4.5q-40 4 -72.5 10t-68.5 15t-51 12q-117 24 -273 83q-6 3 -87 53q-17 14 -44 40q-2 3 -11 16t-12.5 20t-6.5 20t-1 25q4 41 24 71q27 43 92.5 79.5t146.5 60t182 41.5t188.5 28t177 16t137 8t77.5 2zM1638 1358h989 v-24v-32t-2.5 -28.5t-7.5 -26.5h-909l31 -31h888v-20h-878l10 -30h868v-34l-868 4v-31h868v-20h-868v-30h868v-10v-21h-868v-30h868v-20h-868v-30h868v-10v-21h-868v-30h868v-20h-868v-30h868v-10v-21h-868v-30h868v-20h-868v-30h868v-31h-868v-30h868v-20h-868v-30h868v-11 v-20h-868v-30h868v-20h-868v-31h868v-10v-20h-868v-30h868v-20h-868v-31h868v-30h-868v-30h-101l20 81v868q0 32 -40 81zM3203 1358h10q963 -48 1090 -243h-10l-60 21h-889v-31h969l21 -20h-990v-30h1000v-10l-21 -21h-979v-30h979l-10 -20h-969v-30h929q-10 -31 -61 -31 h-868v-30h838v-10l-50 -10h-788v-30h697v-10l-232 -21h-465v-30h374v-10l-253 -10h-91l-80 -20h-91q45 51 60 121v373q0 62 -60 132zM3273 1247l31 -31h595v10l-242 21h-384zM3324 1196v-10l20 -20h798v10l-142 20h-676zM1495 1105h-46h15q-14 -1 -27 -4.5t-30 -11.5 t-27 -25.5t-9 -41.5l-2 -274l218 -2v355q-18 4 -92 4zM1464 1105h13h-13zM2950 1105v-363h10q212 0 212 111v252h-222z" />
<glyph unicode="&#x425;" horiz-adv-x="3013" d="M50 1432h1373q20 0 272 -273l151 71v30q-40 0 -40 31v111l30 30h807q21 0 263 -262v-51q0 -16 -212 -71l-616 -322q486 -384 586 -384q103 0 181 -131q23 0 91 -81q71 -55 71 -80q-14 -51 -71 -51h-1433q-43 0 -212 172v131l-242 -121l91 -111v-51l-20 -20h-928l-192 192 v121q0 19 262 71l585 312q-509 404 -635 404q-40 0 -111 91l-101 101v131zM30 1402v-21q0 -20 131 -40q76 -35 818 -575q0 -37 -263 -161q-473 -293 -676 -293h-10v-30l20 -21h808l20 21v10q0 33 -121 40l-10 10q-31 0 -31 20v21q13 35 394 222l10 10l40 20 q247 -153 333 -242v-31q-2 -29 -171 -50v-30l20 -21h1322l70 11v20q0 20 -181 50l-797 575l-11 10v10q745 424 868 424h20v51h-777l-20 -21v-30q162 -13 162 -50q-30 -55 -434 -252q-224 132 -323 232v20q0 37 171 50v51h-1331zM262 1351h929l-11 -40l11 -30l-11 -11h-776 q-53 0 -142 81zM2038 1351h353v-10q-158 -81 -272 -81v-10h80v-10l-80 -10l10 -10v-10q-402 -205 -424 -242q-15 -41 -30 -41h-10l-81 21h-726q-53 0 -61 30h757l-20 30q92 0 484 232l30 41v50l-10 10v10zM404 1250h807v-20h-757l-50 10v10zM484 1200h747l50 -10v-20h-736 q-53 0 -61 30zM565 1139h777l20 -20h-777zM636 1089h776l31 -30h-727q-74 0 -80 30zM716 1028h747l71 -10v-10h-767l-51 10v10zM878 917h807l20 -20h-807zM948 867h747l50 -10v-20h-716q-74 0 -81 30zM1019 806h787l20 -20h-787zM1029 756h827l51 -10v-20h-848l31 -31h877 l21 -20h-686l-162 10q-484 -239 -484 -292q0 -51 -20 -51l-51 -20h-262v10q574 288 706 394v30zM1261 645h747q60 -6 60 -30h-726q-75 0 -81 30zM1342 584h777l20 -20h-747l-50 10v10zM1423 534h746l51 -10v-20h-737q-52 0 -60 30zM1493 473h787l20 -20h-756l-51 10v10z M1544 423h777q60 -6 60 -30h-817l-20 20v10zM1544 362h887l21 -20h-858l10 -10v-10h-70z" />
<glyph unicode="&#x426;" horiz-adv-x="3595" d="M30 1439h1435l272 -273v-61q-161 -20 -161 -50v-728h58q15 5 38.5 16.5t66 33.5t59.5 31v738q-18 0 -151 141v101l10 51h1474l273 -283v-10q-9 -61 -202 -61q-1 0 -12 -1t-18.5 -2.5t-14 -9t-5.5 -19.5v-711q127 -20 219.5 -67.5t162.5 -126.5q48 -64 58 -123 t-12.5 -105.5t-69 -87t-108.5 -70t-133.5 -52t-141 -35.5t-134.5 -18q-73 0 -112.5 1t-100 7.5t-110.5 20.5l-157 157v108l98 20v29q-1520 0 -2429 4l-182 182v131q0 24 212 61l10 10v717q-46 0 -222 202v101zM81 1418l-51 -10v-30q174 -27 212 -71v-929q0 -40 -222 -61v-30 l20 -20q1617 1 2403 -2l393 -147l20 -39q0 -82 -294 -137v-10l157 -20q231 0 598 157q46 20 70.5 45.5t27.5 42.5v20q-10 36 -35.5 60t-66 36.5t-79.5 19t-94.5 14.5t-91.5 17l-128 30q-41 30 -41 74v839q0 101 242 101l10 10v30l-50 10h-1384l-20 -20v-30q151 0 151 -111 v-866l-169 -84h-213q-27 20 -133 51l-10 50v889q0 51 172 71v40l-101 10h-1293zM283 1358h990l-31 -61l11 -10v-20h-910v-10l21 -20h889v-11l-1 -20h-878l10 -30h869v-20h-869v-31h869v-10l-1 -20h-868v-30h869v-20h-869v-31h869v-10l-1 -20h-868v-30h869v-20h-869v-31h868 l11 -20l-10 -10h-869v-30h869v-21h-869v-30h869v-10l-1 -20h-868v-30h869v-21h-869v-30h869v-10l-1 -20h-868v-31h869v-20h-869v-30h869v-10l-1 -20h-868v-31h869v-20h-869v-30h869v-10l-1 -21h-868v-30h869v-20h-869v-30h869l20 -21h-1000q30 39 30 91v849zM1859 1358h990 l-21 -91h-899l10 -30h889v-11v-20h-868v-30h868v-20h-858v-31h858v-10v-20h-858v-30h858v-20h-858v-31h858v-10v-20h-858v-30h858v-20h-858v-31h858v-10v-20h-858v-30h858v-21h-862v-30h862v-10v-20h-862l2 -30h860v-21h-858v-30h858v-10v-20h-858v-31h858v-20h-858v-30h858 v-10v-20h-858v-31h858v-20h-858v-30h858v-10v-21h-858v-30h858v-20h-858v-30l862 5l28 -25q-45 0 -126.5 -0.5t-349 -1.5t-525.5 1l20 81q0 1 0.5 419.5t-0.5 449.5zM2818 300q203 0 350 -32l-557 7l-57 22q51 -1 139 1t125 2zM2705 243l555 -3q12 -4 72 -25l-428 3l-128 1z M3348 192q-3 -11 -9 -23l-456 2l-49 20zM3339 169zM3313 148q0 -2 -0.5 -6t-9.5 -10.5t-25 -7.5h-373l-5 21zM2905 99h334v-10l-69 -10h-265v20zM2905 59l10 -6l207 2q-45 -23 -138 -40t-118 -24q39 44 39 68z" />
<glyph unicode="&#x427;" horiz-adv-x="3409" d="M30 1437h1435l272 -273v-61q-161 -20 -161 -50v-310h222v401q-18 0 -151 141v101l10 51h1474l273 -283v-10q-9 -61 -202 -61q0 -20 -50 -20v-758q0 -20 30 -20l202 -202v-61l-20 -20h-1556l-182 202v111q0 21 172 61v34h-1396l-182 182l2 508v3q-46 0 -222 202v101z M30 1406v-30q174 -27 212 -71l2 -37l-4 -575l20 -40q1013 10 1538 10q30 -10 30 -61v-186q0 -83 -151 -101h-20v-50h1454v30q0 20 -182 51q-50 32 -50 80v839q0 101 242 101l10 10v30l-50 10h-1384l-20 -20v-30q151 0 151 -111v-501l-30 -31h-475l-20 20v552q0 51 172 71v40 l-101 10h-1293zM283 1356h990l-31 -61l11 -10v-20h-910v-10l21 -20h889v-11l-1 -20h-878l10 -30h869v-20h-869v-31h869v-10l-1 -20h-868v-30h869v-20h-869v-31h869v-10l-1 -20h-868v-30h869v-20h-869v-31h868l11 -20l-10 -10h-869v-30h869v-21h-869v-30h869v-10l-1 -20h-868 v-30h869v-21h-947l-3 533v23zM1859 1356h990l-21 -91h-899l10 -30h889v-11v-20h-868v-30h868v-20h-858v-31h858v-10v-20h-858v-30h858v-20h-858v-31h858v-10v-20h-858v-30h858v-20h-858v-31h858v-10v-20h-858v-30h858v-21h-868v-30h868v-10v-20h-878l10 -30h868v-21h-868 l10 -30h858v-10v-20h-858v-31h858v-20h-858v-30h858v-10v-20h-858v-31h858v-20h-858v-30h858v-10v-21h-858v-30h858v-20h-858v-30h869l20 -21h-1000l20 81v216l-10 81l10 81v491z" />
<glyph unicode="&#x428;" horiz-adv-x="4360" d="M30 1438h1435l272 -273q16 -13 19 -24.5t-2 -19t-17 -17.5q-161 -20 -161 -50v-728h58q15 5 38.5 16.5t66 33.5t59.5 31v738q-18 0 -151 141v101l10 51h748l309 -283v-10q-4 -25 -10 -35t-36 -18t-92 -8q-2 -2 -17 -1.5t-25 -6t-7 -26.5l-1 -717q29 12 79 12 q162 20 162 50v753q-112 84 -185 166v112l51 10h1487l237 -273v-10q0 -71 -141 -71q-42 -2 -64 -8t-27 -12.5t-5 -19.5v-677q0 -61 51 -91l166 -212v-41l-20 -20h-1651l-2 2q-368 0 -823.5 -1t-814 -1t-844.5 2l-182 182v131q0 24 212 61l10 10v717q-46 0 -222 202v101z M81 1417l-51 -10v-30q174 -27 212 -71v-929q0 -40 -222 -61v-30l20 -20q2291 2 4060 -2v50h-10q-242 0 -242 101v839q0 111 272 111v30l-20 20h-1437l-51 -10v-40q51 -4 85.5 -9.5t52 -11.5t26 -17.5t10 -19t1.5 -23.5v-909q0 -11 -46.5 -26t-93.5 -25l-47 -10l-136 -3 q-81 22 -161 36q-50 32 -50 80v839q0 50 7 63q17 31 113 37q10 1 22 1l10 10v30l-50 10h-658l-20 -20v-30q151 0 151 -111v-866l-169 -84h-213q-27 20 -133 51l-10 50v889q0 51 172 71v40l-101 10h-1293zM283 1357h990l-31 -61l11 -10v-20h-910v-10l21 -20h889v-11l-1 -20 h-878l10 -30h869v-20h-869v-31h869v-10l-1 -20h-868v-30h869v-20h-869v-31h869v-10l-1 -20h-868v-30h869v-20h-869v-31h868l11 -20l-10 -10h-869v-30h869v-21h-869v-30h869v-10l-1 -20h-868v-30h869v-21h-869v-30h869v-10l-1 -20h-868v-31h869v-20h-869v-30h869v-10l-1 -20 h-868v-31h869v-20h-869v-30h869v-10l-1 -21h-868v-30h869v-20h-869v-30h869l20 -21h-1000q30 39 30 91v849zM1859 1357h364l-21 -91h-273l10 -30h263v-11v-20h-242v-30h242v-20h-232v-31h232v-10v-20h-232v-30h232v-20h-232v-31h232v-10v-20h-232v-30h232v-20h-232v-31h232 v-10v-20h-232v-30h232v-21h-236v-30h236v-10v-20h-236l2 -30h234v-21h-232v-30h232v-10v-20h-232v-31h232v-20h-232v-30h232v-10v-20h-232v-31h232v-20h-232v-30h232v-10v-21h-232v-30h232v-20h-232v-30h243l20 -21h-374l20 81q0 1 0.5 419.5t-0.5 449.5zM2807 1355h1020 q-30 -32 -30 -91h-929v-10l20 -20h909v-11v-20h-879v-10l21 -20h858v-20h-869v-31h869v-10v-20h-869v-30h869v-20h-869v-31h869v-10v-20h-869v-30h869v-20h-869v-31h869v-10v-20h-869v-30h869v-21h-869v-30h869v-10v-20h-869v-30h869v-21h-869v-30h869v-10v-20h-869v-31h869 v-20h-869v-30h869v-10v-20h-869v-31h869v-20h-869v-30h869v-10v-21h-869v-30h869v-20h-869v-30h869l20 -21h-990l21 91v869z" />
<glyph unicode="&#x429;" horiz-adv-x="4559" d="M2622 1441h1474l273 -283v-10q-9 -61 -202 -61q-1 0 -12 -1t-18.5 -2.5t-14 -9t-5.5 -19.5v-711q127 -20 219.5 -67.5t162.5 -126.5q48 -64 58 -123t-12.5 -105.5t-69 -87t-108.5 -70t-133.5 -52t-141 -35.5t-134.5 -18q-73 0 -112.5 1t-100 7.5t-110.5 20.5l-157 157 v108l98 20v29h-354.5h-300.5h-265q-364 0 -819 -1t-812.5 -1t-842.5 2l-182 182v131q0 24 212 61l10 10v717q-46 0 -222 202v101l30 31h1435l272 -273v-61q-161 -20 -161 -50v-728h58q15 5 38.5 16.5t66 33.5t59.5 31v738q-18 0 -151 141v101l10 51h780l273 -283v-10 q-2 -13 -2.5 -16.5t-4 -13t-8.5 -12t-14 -8t-23 -7t-34.5 -3t-47.5 -1.5q-2 0 -5.5 -0.5t-12.5 -3.5t-15.5 -8t-11.5 -15t-5 -23v-705q3 0 37 -1t48 0q25 9 152 73v748q-18 0 -151 141v101zM2662 1420l-20 -20v-30q151 0 151 -111v-876l-169 -84l-228 5l-134 62l-9 899 q1 4 2.5 11t12.5 24t28 30.5t51.5 24.5t79.5 11l10 10v30l-50 10h-690l-20 -20v-30q151 0 151 -111v-866l-169 -84h-213q-27 20 -133 51l-10 50v889q0 51 172 71v40l-101 10h-1293l-51 -10v-30q174 -27 212 -71v-929q0 -40 -222 -61v-30l20 -20q3123 3 3368 2l393 -147 l20 -39q0 -82 -294 -137v-10l157 -20q101 0 254 37.5t344 119.5q46 20 70.5 45.5t27.5 42.5v20q-10 36 -35.5 60t-66 36.5t-79.5 19t-94.5 14.5t-91.5 17l-128 30q-41 30 -41 74v839q0 101 242 101l10 10v30l-50 10h-1384zM2824 1360h990l-21 -91h-899l10 -30h889v-11v-20 h-868v-30h868v-20h-858v-31h858v-10v-20h-858v-30h858v-20h-858v-31h858v-10v-20h-858v-30h858v-20h-858v-31h858v-10v-20h-858v-30h858v-21h-862v-30h862v-10v-20h-862l2 -30h860v-21h-858v-30h858v-10v-20h-858v-31h858v-20h-858v-30h858v-10v-20h-858v-31h858v-20h-858 v-30h858v-10v-21h-858v-30h858v-20h-858v-30l862 5l28 -25q-45 0 -126.5 -0.5t-349 -1.5t-525.5 1l20 81v869zM283 1356h990l-31 -61l11 -10v-20h-910v-10l21 -20h889v-11l-1 -20h-878l10 -30h869v-20h-869v-31h869v-10l-1 -20h-868v-30h869v-20h-869v-31h869v-10l-1 -20 h-868v-30h869v-20h-869v-31h868l11 -20l-10 -10h-869v-30h869v-21h-869v-30h869v-10l-1 -20h-868v-30h869v-21h-869v-30h869v-10l-1 -20h-868v-31h869v-20h-869v-30h869v-10l-1 -20h-868v-31h869v-20h-869v-30h869v-10l-1 -21h-868v-30h869v-20h-869v-30h869l20 -21h-1000 q30 39 30 91v849zM1859 1356h364l-21 -91h-273l10 -30h263v-11v-20h-242v-30h242v-20h-232v-31h232v-10v-20h-232v-30h232v-20h-232v-31h232v-10v-20h-232v-30h232v-20h-232v-31h232v-10v-20h-232v-30h232v-21h-236v-30h236v-10v-20h-236l2 -30h234v-21h-232v-30h232v-10 v-20h-232v-31h232v-20h-232v-30h232v-10v-20h-232v-31h232v-20h-232v-30h232v-10v-21h-232v-30h232v-20h-232v-30h243l20 -21h-374l20 81q0 1 0.5 419.5t-0.5 449.5zM3782 302q204 0 351 -32l-557 7l-57 22q51 -1 139 1t124 2zM3670 245l555 -3q12 -4 72 -25l-428 3l-128 1z M4313 194q-3 -11 -9 -23l-456 2l-49 20zM4304 171zM4278 150q0 -2 -1 -6t-9.5 -10.5t-24.5 -7.5h-373l-6 21zM3870 101h334v-10l-69 -10h-265v20zM3870 61l10 -6l207 2q-45 -23 -138 -40t-118 -24q39 44 39 68z" />
<glyph unicode="&#x42a;" horiz-adv-x="3821" d="M101 1429q201 0 911 0.5t1097 0.5l263 -291v-14q0 -17 -41 -34t-82 -17q-5 0 -16 -1h-28t-26.5 -1t-26 -3t-20 -5.5t-15.5 -8.5t-5 -12v-75h11q69 -6 220.5 -18.5t226.5 -19t207 -21t206.5 -26.5t177.5 -32t168 -42.5t130 -53.5t108 -68q251 -237 251 -301v-20 q0 -309 -1093 -361h-1997l-211 171v140q0 23 241 70l10 51v628l-111 -152l-71 -10h-353q-60 0 -233 202v71v10q32 243 101 243zM519 1332q72 36 128 36h132l16 -16l-7 -72v-884q0 -52 -241 -80v-30l20 -20h1335q1512 0 1635 271l20 80q0 105 -238.5 181t-676.5 112 q-50 5 -134.5 12.5t-129.5 11.5t-127 8.5t-179 7.5h-210l-20 20v300q31 82 266 90l-1 36l-20 14q-167 0 -1854 -1q-162 0 -162 -41l-41 -192h10l142 -10h40q223 0 223 81q26 53 74 85zM818 1350h973v-91h-903v-10l20 -20h883v-30h-873l10 -30h863v-20h-863v-30h863v-30h-863 v-30h863v-20h-863v-30h863v-31h-863v-30h863v-20h-863v-30h863v-30h-863v-30h863v-20h-863v-30h863v-30h-863v-30h863v-21h-863v-30h863v-30h-863v-30h863v-20h-863v-30h863v-30h-863v-30h863v-20h-863v-30h863v-30h-863v-31h863v-20h-863v-30h863v-20h-983q40 39 40 131 v802q0 53 -30 91zM131 1348h314q-45 -81 -61 -81h-91l-71 -10v-10h162l-20 -20h-273q18 121 40 121zM1862 898h230q128 0 189.5 -34.5t71.5 -105.5l4 -18q4 -18 7 -37.5t6 -59.5t3 -86q0 -241 -180 -241l-181 -10h-150l-20 20v552zM2429 838h2h3h200q737 -56 823 -161 l30 -30v-10l-10 10h-973v-30h993v-20h-993v-30h983q-10 -30 -60 -30h-913v-30h913v-10l-50 -10h-863v-30h803v-10l-141 -20h-662v-31h592v-10l-171 -10h-431v-30h150v-10l-291 -10q61 61 61 201v60l-10 201h331l-10 30h-321q-20 -1 -19 7q2 10 28 12q3 1 6 1zM2454 758 l30 -30h522v10l-342 20h-210zM2484 707v-10l20 -20h823v10l-201 20h-642zM2112 627v-291q231 0 231 161v110l-20 20h-211z" />
<glyph unicode="&#x42b;" horiz-adv-x="4791" d="M2941 1437h1575l273 -273v-10q0 -71 -141 -71q-132 -7 -132 -40v-677q0 -61 51 -91l202 -212v-41l-20 -20h-1687l-97 97q-270 -74 -757 -97h-1997l-211 171v140q0 23 241 70l10 51v652h-30q-40 0 -121 90q-100 92 -100 131v80l40 40h1552l263 -291v-14q0 -17 -41 -33.5 t-82 -17.5h-16q-18 0 -28 -0.5t-26.5 -1.5t-26 -3t-20 -5t-15.5 -8.5t-5 -12.5v-75h11q69 -6 220.5 -18.5t226.5 -19t207 -21t206.5 -26.5t177.5 -32t168 -42.5t130 -53.5t108 -68q42 -40 113 -112v521h-30q-69 0 -91 51l-152 171v112zM2971 1416l-51 -10v-40 q263 -18 263 -81v-733l2 -2l-2 -171q1 -3 0 -5q-3 -11 -50.5 -19t-117 -18t-105.5 -22v-50q246 1 330 0h1256v50h-10q-242 0 -242 101v839q0 111 272 111v30l-20 20h-1525zM130 1407l-100 -10v-40q241 -23 241 -60v-904q0 -52 -241 -80v-30l20 -20h1335q1512 0 1635 271 l20 80q0 105 -238.5 181t-676.5 113q-50 4 -134.5 12t-129.5 11.5t-127 8t-179 7.5h-210l-20 20v300q31 83 266 91l-1 35l-20 14h-1440zM3203 1356h1020q-30 -32 -30 -91h-929v-10l20 -20h909v-11v-20h-879v-10l21 -20h858v-20h-869v-31h869v-10v-20h-869v-30h869v-20h-869 v-31h869v-10v-20h-869v-30h869v-20h-869v-31h869v-10v-20h-869v-30h869v-21h-869v-30h869v-10v-20h-869v-30h869v-21h-869v-30h869v-10v-20h-869v-31h869v-20h-869v-30h869v-10v-20h-869v-31h869v-20h-869v-30h869v-10v-21h-869v-30h869v-20h-869v-30h869l20 -21h-990l21 91 v849l-10 10v10h10zM301 1347h973v-91h-903v-10l20 -20h883v-30h-873l10 -30h863v-20h-863v-30h863v-30h-863v-30h863v-20h-863v-30h863v-31h-863v-30h863v-20h-863v-30h863v-30h-863v-30h863v-20h-863v-30h863v-30h-863v-30h863v-21h-863v-30h863v-30h-863v-30h863v-20h-863 v-30h863v-30h-863v-30h863v-20h-863v-30h863v-30h-863v-31h863v-20h-863v-30h863v-20h-983q40 39 40 131v802q0 53 -30 91zM1345 895h230q128 0 189.5 -34.5t71.5 -105.5l4 -18q4 -18 7 -37.5t6 -59.5t3 -86q0 -241 -180 -241l-181 -10h-150l-20 20v552zM1914 835h3h200 q737 -56 823 -161l30 -30v-10l-10 10h-973v-30h993v-20h-993v-30h983q-10 -30 -60 -30h-913v-30h913v-10l-50 -10h-863v-30h803v-10l-141 -20h-662v-31h592v-10l-171 -10h-431v-30h150v-10l-291 -10q61 61 61 201v60l-10 201h331l-10 30h-321q-20 0 -19 7q2 11 28 13h8z M1937 755l30 -30h522v10l-342 20h-210zM1967 704v-10l20 -20h823v10l-201 20h-642zM1595 624v-291q231 0 231 161v110l-20 20h-211z" />
<glyph unicode="&#x42c;" horiz-adv-x="3312" d="M40 1429h1552l263 -291v-14q0 -17 -41 -33.5t-82 -17.5h-16q-18 0 -28 -0.5t-26.5 -1.5t-26 -3t-20 -5t-15.5 -8.5t-5 -12.5v-75h11q69 -6 220.5 -18.5t226.5 -19t207 -21t206.5 -26.5t177.5 -32t168 -42.5t130 -53.5t108 -68q251 -237 251 -301v-20q0 -309 -1093 -361 h-1997l-211 171v140q0 23 241 70l10 51v652h-30q-40 0 -121 90q-100 92 -100 131v80zM130 1409l-100 -10v-40q241 -23 241 -60v-904q0 -52 -241 -80v-30l20 -20h1335q1512 0 1635 271l20 80q0 105 -238.5 181t-676.5 113q-50 4 -134.5 12t-129.5 11.5t-127 8t-179 7.5h-210 l-20 20v300q31 83 266 91l-1 35l-20 14h-1440zM301 1349h973v-91h-903v-10l20 -20h883v-30h-873l10 -30h863v-20h-863v-30h863v-30h-863v-30h863v-20h-863v-30h863v-31h-863v-30h863v-20h-863v-30h863v-30h-863v-30h863v-20h-863v-30h863v-30h-863v-30h863v-21h-863v-30h863 v-30h-863v-30h863v-20h-863v-30h863v-30h-863v-30h863v-20h-863v-30h863v-30h-863v-31h863v-20h-863v-30h863v-20h-983q40 39 40 131v802q0 53 -30 91zM1345 897h230q128 0 189.5 -34.5t71.5 -105.5l4 -18q4 -18 7 -37.5t6 -59.5t3 -86q0 -241 -180 -241l-181 -10h-150 l-20 20v552zM1914 837h3h200q737 -56 823 -161l30 -30v-10l-10 10h-973v-30h993v-20h-993v-30h983q-10 -30 -60 -30h-913v-30h913v-10l-50 -10h-863v-30h803v-10l-141 -20h-662v-31h592v-10l-171 -10h-431v-30h150v-10l-291 -10q61 61 61 201v60l-10 201h331l-10 30h-321 q-20 0 -19 7q2 11 28 13h8zM1937 757l30 -30h522v10l-342 20h-210zM1967 706v-10l20 -20h823v10l-201 20h-642zM1595 626v-291q231 0 231 161v110l-20 20h-211z" />
<glyph unicode="&#x42d;" horiz-adv-x="2744" d="M1025 1434q284 15 553.5 -13t555.5 -99q58 -15 104 -30.5t65 -23t61.5 -27.5t55.5 -26q114 -52 191 -127.5t108 -163t24 -181t-60.5 -187.5t-146.5 -175q-423 -369 -1412 -380q-621 0 -935 189q-189 183 -189 229v80q0 106 289 129h248l110 -10h10v10q-24 0 -120 109 l-10 10q-29 0 -29 60h-10q-258 0 -448 279v99q0 203 985 249zM60 1165q88 -99 408 -99q348 20 348 69l-60 130v20q51 69 259 69h90q248 -17 248 -129q20 -45 20 -129q0 -170 -179 -170q0 -23 -378 -29h-199l-100 -10l30 -40h398q478 0 478 -219l30 -129q0 -180 -338 -180 h-100q-269 0 -269 100l50 109q-89 80 -388 80q-320 0 -388 -99v-20q0 -79 368 -170q349 -59 736 -59h30q1259 19 1466 431q101 377 -392 564q-368 140 -1044 159q-83 2 -221.5 -9t-293.5 -34.5t-292 -53.5t-227 -71t-90 -81zM1552 558l10 -30l857 -3l-20 -19l-827 3v-30h786 v-10l-139 -20h-637v-30h597v-10l-119 -10h-478v-30h309v-10l-488 -40q100 76 100 180l-40 199h1090q1 -23 -23 -30h-1027l29 -30q666 0 991 1q4 0 -6.5 -14t-30.5 -34t-41 -34zM2556 722l-954 5h-129l-20 20h1105zM2555 791l1 -24l-1099 -1l-134 81l-99 20v10 q199 23 199 189v79l-10 100h428v10l-448 20l-60 79h20q744 0 1015 -209v-10q-10 -29 -59 -29h-806v-30h930l20 -20h-940v-30h969l14 -28q-168 -2 -983 -2v-30h997l10 -28h-126.5h-254h-276t-244 -1.5t-106.5 -4.5q-10 -19 -16 -26q-1 -1 105.5 -1h259.5t305.5 0.5t260 0.5 t107.5 -1l8 -24l-1066 -6l-27 -27h1102l3 -39l-1097 -1l1 -16zM736 1344q-38 -45 -39 -89l10 -40h-130l-139 -20v-10h288l20 -20h-378l-109 -30l-140 40q0 84 617 169zM1443 1215l30 -30h726v10l-159 20h-597zM1473 1165l10 -30h865v10l-119 20h-756zM299 1135h318v-10h-318 v10zM1025 1036v-30l40 -70q278 0 278 130v20h-109q-209 -8 -209 -50zM2504 614q-114 2 -247.5 3t-227 1h-251h-236.5v-10l20 -20l918 -4q18 15 24 30zM776 578v-10q24 0 219 -209l10 -10h129q228 0 279 100v10q0 99 -50 99l-229 20h-358zM348 548h140q238 -7 238 -49 l-39 -50h-379l-99 -20q-129 46 -129 70q104 49 268 49zM239 419h458v-20h-359l-99 10v10zM458 369h239l19 -20v-10l-258 20v10z" />
<glyph unicode="&#x42e;" horiz-adv-x="4199" d="M2350 1479h282q980 0 1404 -546q162 -145 162 -282v-71q0 -300 -658 -495q-336 -80 -716 -80h-334q-1004 0 -1392 525q-31 29 -52 61h-68v-374l151 -181l-30 -31h-917l-182 182v131q0 24 212 61l10 10v717q-46 0 -222 202v101l30 31h837l272 -273l-18 -58 q-143 -18 -143 -53v-132h19q20 253 525 433q366 122 828 122zM1020 904h-295l-20 20v374q0 51 172 71v40l-101 10h-695l-51 -10v-30q174 -27 212 -71v-929q0 -40 -222 -61v-30l20 -20h817v30q-7 21 -142 61l-10 50v425l30 30q28 0 151.5 1t130.5 -1l12 -95q95 -337 897 -472 l534 -30q1060 0 1404 394q70 103 70 192q0 407 -878 565q-312 40 -586 40q-1108 -10 -1402 -424q-12 -21 -23.5 -53.5t-18.5 -54.5zM2430 1418h80q224 0 224 -111v-909q-56 -91 -234 -91h-70q-222 0 -222 122v898q60 91 222 91zM2188 1398l-40 -91l10 -30l-10 -10h-162 l-172 -21v-10h344v-20h-414l-102 -20v-10h516v-10v-20h-596l-70 -21v-10h666v-20h-698l-70 -20v-10h768v-10v-21h-818l-30 -30h848v-20h-878l-32 -30h910v-10v-21h-930l-20 -20v-10h950v-20h-970l-10 -30h980v-10v-21h-990v-30h990v-20h-1000v-30h1000v-11v-20h-990v-30h990 v-20h-970l-10 -10q-50 0 -100 161v81q0 277 706 454zM2754 1398q588 -57 776 -172q44 0 212 -121h-868v-30h900l20 -20v-11h-920v-30h950l20 -20h-970v-30h970l20 -20l-10 -11h-980v-30h1000v-20h-1000v-30h1000v-10l-20 -21h-980v-30h1000l-20 -20h-980v-30h970v-21 l-50 -10h-920v-30h930l-20 -20h-910v-30h878q-10 -31 -60 -31h-818v-30h798v-10l-50 -10h-748v-31h698q0 -30 -112 -30h-586v-30h566v-10l-70 -10h-496v-31h384v-10l-232 -20h-152v-30h30v-10l-150 -10q40 46 40 141v818q0 58 -40 111zM283 1359h392l-31 -61l11 -10v-20 h-312v-10l21 -20h291v-11l-1 -20h-280l10 -30h271v-20h-271v-31h271v-10l-1 -20h-270v-30h271v-20h-271v-31h271v-10l-1 -20h-270v-30h271v-20h-271v-31h270l11 -20l-10 -10h-271v-30h271v-21h-271v-30h271v-10l-1 -20h-270v-30h271v-21h-271v-30h271v-10l-1 -20h-270v-31 h271v-20h-271v-30h271v-10l-1 -20h-270v-31h271v-20h-271v-30h271v-10l-1 -21h-270v-30h271v-20h-271v-30h271l20 -21h-402q30 39 30 91v849zM2844 1307v-10h102v10h-102zM2854 1267v-10l20 -21h474v10l-170 21h-324zM2874 1216v-30h646v10l-100 20h-546zM2874 1156v-31h808 v10l-80 21h-728zM2652 1145q-130 0 -172 -60v-747h52q180 0 180 121v686h-60zM1188 631h970v-11v-20h-888q-76 0 -82 31zM1270 570h888v-20h-838l-50 10v10zM1360 519h798v-10v-20h-676l-122 20v10zM1502 459h656v-20h-586l-70 10v10zM1672 408h486v-30h-232l-254 20v10z M2026 348h152v-10h-152v10z" />
<glyph unicode="&#x42f;" horiz-adv-x="3327" d="M1515 1437h63h2h1472l273 -283v-10q-9 -61 -202 -61q-1 0 -6 -0.5t-7 -0.5t-7 -0.5t-7.5 -1t-7 -2t-6.5 -3.5t-4.5 -5t-4.5 -7v-758q0 -20 30 -20l202 -202v-61l-20 -20h-1556l-182 202v111q0 21 172 61v162h-27q-76 -5 -105.5 -10t-49.5 -17q-30 -11 -32 -30l1 -207 v-168q-4 -26 -25 -47t-52 -33t-59.5 -19t-54.5 -9q-390 3 -500 3l-555 -2q-94 105 -203 238q-32 7 -45.5 25t-12 33.5t7.5 22.5q8 8 26.5 13t75.5 14q4 1 7.5 3t7.5 6t6 6.5t6 9t5 7.5q7 18 3 65.5t0.5 109t23.5 76.5q48 43 87 64t95 35q80 25 203 44q-146 25 -212 47 q-50 16 -111.5 49t-98.5 61q-7 6 -19.5 22.5t-27 43t-20 59.5t-1 67.5t33.5 70.5t81 64q123 66 373 111q95 17 199.5 29t166.5 17t157 10.5t114 7.5q107 7 327 7zM1510 1417h-200q-1223 -56 -1223 -314q0 -144 496 -232q363 -27 363 -51v-20l-10 -10q-768 -53 -768 -233 v-192l-51 -40q-101 0 -101 -31q9 -30 61 -30h819q334 0 334 132v303q0 77 303 91q18 0 93 -1t93 0q30 -10 30 -61v-312q0 -83 -151 -101h-20v-50h1454v30q0 20 -182 51q-50 32 -50 80v839q0 101 242 101l10 10v30l-50 10q-251 0 -752.5 0.5t-739.5 0.5zM1562 1366 q152 0 187 -111v-373l-30 -41q-29 0 -111 -0.5t-126 -0.5q-225 0 -252 152v253q0 62 74 90.5t229 30.5h29zM1179 1356h60q-1 0 -9.5 -4.5t-10.5 -5.5t-9.5 -6t-10 -7.5t-8.5 -8t-8.5 -10t-5.5 -11t-3.5 -13.5t0.5 -15q-62 0 -177 -5t-141 -5v-10h317l1 -20h-480l-223 -20 v-11h700l1 -30h-842l-101 -20v-10h942v-20h-947q-17 -9 -2 -31h950v-30h-898q6 -10 25 -19.5t39 -10.5h835v-21h-804q4 -11 26 -19.5t46 -10.5h732l8 -30h-588l-69 6l234 -35l437 -2l12 -27q-288 -2 -500 8q-76 8 -153 21t-155 33.5t-136 45.5t-91 59t-24 71q8 37 62 70 t135.5 56.5t182.5 44t202.5 31.5t194.5 19t158.5 7t95.5 -4zM1780 1356h990l-21 -91h-899l10 -30h889v-11v-20h-868v-30h868v-20h-858v-31h858v-10v-20h-858v-30h858v-20h-858v-31h858v-10v-20h-858v-30h858v-20h-858v-31h858v-10v-20h-858v-30h858v-21h-868v-30h868v-10 v-20h-878l10 -30h868v-21h-868l10 -30h858v-10v-20h-858v-31h858v-20h-858v-30h858v-10v-20h-858v-31h858v-20h-858v-30h858v-10v-21h-858v-30h858v-20h-858v-30h869l20 -21h-1000l20 81v394l-10 81l10 81v313zM1612 1085q-48 1 -79 -13t-47 -56l1 -71q3 -3 7 -9t18 -20.5 t28 -24.5t34 -17.5t39 -3.5q37 0 51 0.5t55 0.5v80v31t-2 24t-12.5 26t-32.5 36l-10 5t-19 7.5t-20 4.5h-11zM987 871h231l22 -31h-174q-79 5 -79 31zM1017 810h244l2 -20h-266zM1007 760h199l-28 -31h-242v10zM845 719h11v-20h319v-20h-319l-41 -21v-10h361l-1 -30h-592 l-223 -20v-10h812v-24q-624 0 -865 2q-3 0 -4 -29h869l-1 -30h-869v-31h871l-1 -20h-869v-30h870l-1 -30h-869q0 -21 -1 -31h868l-28 -20h-913v222q77 125 616 152z" />
<glyph unicode="&#x430;" horiz-adv-x="2891" d="M1485 1263q835 0 1024 -200q241 -231 241 -281v-552l140 -151v-20q0 -60 -351 -60h-381q-262 0 -462 80q-335 -80 -562 -80h-311q-532 0 -703 261q-120 93 -120 191v130q0 152 241 221q-141 138 -141 180v91q0 120 793 190h592zM130 1043q0 -71 342 -71q582 0 582 101 q0 120 230 120h81q180 0 180 -90v-141q0 -36 -812 -100q-527 -63 -653 -161q-54 -67 -60 -150q0 -291 763 -291q307 0 752 100q134 -100 623 -100q471 0 471 60q-150 27 -150 50v653q0 178 -893 210l-312 10q-892 0 -1134 -160zM1044 1183q-40 -42 -51 -90l-190 -10v-10h180 v-10l-562 -30q-136 0 -220 20v10q340 120 843 120zM1575 1183h11q842 -42 842 -180l-10 -11h-732v-30h742v-20h-742v-30h742v-20v-10h-742v-30h742v-20h-742l-20 -20v-10h762v-20v-10h-752v-10l20 -20h732v-20h-742v-31h742v-20v-10h-742v-30h742v-20h-742v-30h742v-20v-10 h-742v-30h742v-20h-742v-30h742v-20v-10h-742v-31h742v-20h-742l-10 -30l-111 40l41 91v361l-20 70l20 81v80zM1656 1093v-20h351v10zM1666 1053l10 -30h662v10l-160 20h-512zM1505 892l40 -30v-371q0 -111 -200 -111h-91q-210 0 -210 161v70q0 251 311 251l70 10l80 10v10z M1064 832l-60 -90l10 -10l-10 -10h-41l-281 -21v-10h311l-10 -30h-481l-141 -20v-10h622v-20h-672l-70 -20v-10h742v-30h-772l-30 -30h812v-20h-822v-30h823l10 -30h-813l-40 -10q-71 30 -71 100v30q0 142 261 181q213 50 723 90zM1315 410h70q86 0 130 61v110h-10 q-190 -20 -190 -161v-10zM181 410h843l20 -20h-813l-50 10v10zM341 360h693l100 -10v-10l-201 -10h-251l-341 20v10zM1686 360h742v-30h-411q-212 0 -331 20v10z" />
<glyph unicode="&#x431;" horiz-adv-x="2814" d="M2089 1470q20 -1 52.5 -4t119 -14.5t157.5 -26t140 -40.5t94 -57q13 -20 22 -30q79 -79 111 -149.5t8 -99.5q-189 -152 -544 -145q-28 0 -28 -2q47 -10 73 -16.5t50.5 -16.5t33.5 -14.5t41 -23t53 -30.5q339 -257 339 -351v-24q0 -296 -748 -391q-179 -32 -458 -32h-319 q-670 0 -1037 216q-249 183 -249 287v104q0 194 346 298q-24 12 -65.5 29t-78 30t-76 33.5t-66 42t-40 53t-5.5 69.5q9 33 90.5 66.5t170.5 53t169 29.5q117 21 326.5 25t367 -1.5t225.5 -13.5q38 -4 93 -6t94.5 -2.5t135 -0.5h141.5q14 1 44 2t46.5 2t42.5 2.5t40.5 5t30 8 t22.5 12t7 16.5q1 20 -37.5 32.5t-85 17.5t-85 13.5t-38.5 21.5q86 2 154.5 7.5t94.5 9.5zM2087 1459q-121 -13 -226 -24q218 -19 218 -69v-10q0 -23 -43.5 -32.5t-158.5 -17.5q-121 -9 -292.5 -4t-316 14.5t-327.5 11.5t-326 -13q-312 -21 -498 -102q-15 -5 -27 -10.5 t-18.5 -10t-14 -12t-10 -11t-8.5 -13t-8 -12.5q-7 -34 36.5 -74t113 -72.5t136 -56.5t115.5 -35q-221 -63 -362 -177q-40 -55 -50 -127q0 -235 498 -328q329 -63 748 -63q969 0 1246 287q29 61 29 112v32q0 190 -491 283q-126 26 -157 30.5t-185 17.5q-493 47 -894 1 q-70 13 -139 49q-95 50 -22 81q29 12 84 21l628 -14q596 -12 977 52q296 49 305 124q1 9 -3 19q-59 110 -557 153zM2118 1414l81 1l24 -19h49l114 -24h-148q3 -6 3.5 -12t-1 -8.5t-5 -7t-4.5 -6.5h100l182 -20v-10h-291q-3 -13 -26 -26h387q-40 -18 -62 -26q-2 0 -346 -1 q3 -1 -3 -3q-39 -16 -106 -23q-23 -3 -36 -1h-87q-12 0 -398.5 11t-381.5 13h3h-249l-403 -26q116 0 306 -0.5t591.5 -0.5t667.5 -0.5t265 -0.5q-8 -1 -26 -5.5t-28 -5.5q-8 -1 -475 -3t-930 -3l-463 -1l-139 -26q106 0 279.5 -0.5t539.5 -1t605.5 -1t232.5 -1.5 q-71 -4 -149 -7q-47 -1 -166 -5t-165 -4t-209 2q-325 20 -496 7q-63 -5 -106 -14q-2 0 -209.5 -1t-208.5 -1q-10 -2 -18.5 -11t-13.5 -12q-1 0 39.5 0.5t99 1.5t117 1.5t99.5 1t40 0.5q-3 -2 -9 -7t-8 -6l-375 -6l35 -20l319 3l-3 -26h-276l58 -23l219 1q0 -9 2 -13 l-45.5 -0.5t-90.5 -0.5h-46l43 -16q157 1 158 0q5 -5 21.5 -13.5t19.5 -11.5h-69l-70 -1q2 -2 27 -6.5t28 -7.5l112 -2l34 -15q-3 0 -8.5 0.5t-19.5 0.5t-26.5 0.5t-25 0t-19 -0.5t-5.5 -1q4 -3 26.5 -7.5t26.5 -6.5q2 -1 46 -1t46 -1q4 -2 17.5 -8t17.5 -8l369 5 q-1 -4 -30.5 -11t-58.5 -12l-29 -5l-261 -3l-58 -28l304 1l-9 -14l-314 -3l-40 -15l350 2v-24q-326 0 -383 1l-61 -23l444 -2v-16h-487l-69 -16v-8h556v-8v-16h-588l-70 -16v-8h658v-15h-688l-30 -24h718v-8v-16h-758l-10 -24h768v-16h-788l-10 -24h798v-8v-16h-808v-24h808 v-16h-818v-24h818v-8v-16h-808v-24h808v-16h-768q-129 36 -129 144v40q2 40 26.5 74.5t60.5 57.5t89 46t100.5 38.5t108.5 36t100 36.5q-2 0 -3 -1q-8 5 -62 17q-35 8 -101.5 32.5t-139.5 56.5t-120.5 69t-36.5 63q24 29 81.5 52t122.5 36.5t152 24t148 15t133 8.5t86 5 q16 2 52 1q160 0 673 -26q158 -4 269 -6q186 0 206 -1q37 0 78 25t47 61h1q18 32 -33 75zM1246 953h60q209 0 209 -96v-487q0 -120 -229 -120h-50q-209 0 -209 152v399q0 152 219 152zM1525 945q315 -7 727 -112l170 -80v-16h-768v-24h808v-15h-808v-24h828v-24h-828v-24 h838v-16h-838v-24h828v-24h-828v-24h818l-20 -16h-798v-24h778v-16l-50 -8h-728v-24h728v-8l-50 -8h-678v-24h638q-6 -24 -79 -24h-559v-24h519v-8l-70 -8h-449v-24h349v-8l-239 -16h-110v-16l10 -8v-8h-79l-70 -8q50 45 50 96v463l10 48zM1605 873l-10 -8v-8l10 -8h309v8z M1635 825v-8l19 -16h549v8l-130 16h-438zM1654 785v-24h698v8l-90 16h-608zM1465 737q-169 0 -169 -87v-376h20q169 0 169 80v383h-20zM239 410h738v-8v-16h-628q-110 0 -110 24zM359 362h618v-16h-548l-70 8v8zM528 322h459v-24h-230l-229 16v8zM857 274h160l10 -8v-8 l-170 8v8z" />
<glyph unicode="&#x432;" horiz-adv-x="2904" d="M35 1253h1667q810 0 961 -256q159 -138 159 -185q0 -88 -221 -141v-9q21 0 79 -62q221 -208 221 -264v-18q0 -272 -961 -317h-1755l-185 150v123q0 20 212 62l9 44v573h-27q-35 0 -106 79q-88 81 -88 116v70zM26 1227v-36q212 -20 212 -52v-795q0 -45 -212 -70v-26 l18 -18h1173q1329 0 1437 238l18 71q0 185 -785 246l-18 27q0 17 327 44q388 68 388 176q-83 203 -1155 203h-1315zM1182 1200h185q273 0 273 -168v-8q0 -123 -62 -168q-102 -35 -211 -35h-185l-18 17v345zM265 1183h855v-80h-794v-9l18 -18h776v-26h-768l9 -26h759v-18 h-759v-26h759v-27h-759v-26h759v-18h-759v-26h759v-27h-759v-27h759v-17h-759v-27h759v-26h-759v-26h759v-18h-759v-26h759v-27h-759v-26h759v-18h-759v-27h759v-26h-759v-26h759v-18h-759v-26h759v-27h-759v-26h759v-18h-759v-26h759v-26h-759v-28h759v-17h-759v-27h759 v-17h-864q35 34 35 115v705q0 46 -26 80zM1631 1183h9q700 0 891 -151v-8l-18 -18h-767l9 -26h706v-9l-151 -18h-546v-26h511v-9l-132 -9h-379l-9 -26h167v-10l-114 -17h-53v-27h70v-17h-70l-18 -18v-9h80l17 -17v-9h-123l-26 -26h175q648 -49 724 -142l26 -26v-9l-9 9h-855 v-26h873v-18h-873v-26h864q-9 -27 -53 -27h-802v-26h802v-9l-44 -9h-758v-26h706v-9l-124 -17h-582v-28h520v-8l-150 -9h-379v-27h132v-8l-256 -9q54 53 54 176v53l-9 177h291l-9 26h-282l-89 97q89 0 107 185v97zM1694 1103v-27h529v9l-345 18h-184zM1729 1050l8 -26h750v8 l-133 18h-625zM1402 962v-115h9q194 0 194 98v17h-203zM1182 785h202q230 0 230 -123q17 0 17 -176q0 -212 -158 -212l-159 -9h-132l-18 18v485zM1702 662l27 -26h458v9l-300 17h-185zM1729 618v-9l17 -18h724v9l-177 18h-564zM1402 547v-255q203 0 203 141v97l-18 17h-185z " />
<glyph unicode="&#x433;" horiz-adv-x="2154" d="M1644 1248q220 0 369 -209q140 -115 140 -170v-39q-55 -100 -239 -100h-200q-87 0 -249 60h-10q-70 0 -70 -70v-468l200 -190v-40l-20 -20h-1336q-44 0 -209 170v139q0 17 149 50v528q0 61 -49 90l-120 120v129l50 10h947q146 1 326.5 5.5t320.5 4.5zM977 1218h-857 l-100 -10v-10q0 -16 159 -49l10 -10v-778q0 -43 -139 -50v-40l50 -9h1226v39q-210 18 -210 90v548q0 120 130 120h40q220 -70 319 -70h10q279 0 279 120q0 104 -329 119q-229 -5 -588 -10zM1515 1168h90q147 0 229 -49v-20l-20 -20h-239l-140 -10q-111 50 -169 50v10 q101 39 249 39zM239 1159h826v-80h-686l-70 -10v-20h756v-30h-736v-30h737v-20h-737v-30h737v-10v-20h-737v-30h737v-19h-737v-30h737v-10v-20h-737v-30h737v-20h-737v-30h737v-10v-20h-737v-30h737v-20h-737v-30h737v-10v-20h-737v-29h737v-20h-737v-30h737v-10v-20h-737 v-30h737v-20h-737v-30h737v-10v-20h-737v-30h757v-10h-847v10l10 60v698z" />
<glyph unicode="&#x434;" horiz-adv-x="2733" d="M1266 1247q338 0 648 -99q140 -67 278 -95t300 -28l239 -239q-7 -675 -6 -879q0 -257 -1029 -323l-404 -10l-171 171v122l10 50q333 13 363 91v83q-87 -24 -170 -41t-128 -23t-123.5 -14.5t-105.5 -11.5q-315 -6 -530.5 85.5t-326.5 273.5q-110 101 -110 269v160 q0 264 319 359q310 99 688 99h259zM1136 1227q-870 -13 -1056 -259q-56 -99 -60 -219q0 -320 309 -419q248 -69 578 -69q77 2 165 11t138 16t164 25.5t151 24.5q-1 -55 -0.5 -165t-0.5 -165q0 -81 -342 -121h-31v-41q98 0 167 1t169.5 6t180 14t180.5 26.5t190 41.5 t189 60.5t195 82.5q41 54 41 91q0 50 -2 400.5t1 435.5q-16 2 -42.5 5t-101.5 14t-140.5 23t-141 31.5t-122.5 39.5q-306 109 -778 109zM1076 1167h10v-9q-25 0 -89 -80l-250 -20v-10h260v-10v-20h-409l-140 -20v-10h549v-20h-598l-70 -20v-10h668v-10v-20h-718l-30 -30h748 v-19h-768l-30 -30h798v-10v-20h-818l-10 -30h828v-20h-838v-30h838v-10v-20h-828l-20 -20v-10h848v-20h-848v-30h848v-10v-20h-838v-29h838v-20h-828v-30h828v-10v-20h-818q-109 84 -109 239v70q0 388 996 388zM1256 1148h80q209 0 209 -140v-518q0 -130 -229 -130h-50 q-210 0 -210 120v578q54 90 200 90zM1545 1148h20q183 -30 339 -80q43 -18 80.5 -34t43 -18.5t26.5 -9.5t28.5 -8.5t51 -12.5t93.5 -25q-97 5 -178.5 6.5t-209 1.5h-165.5l6 -30h732v-30h-728v-30h728v-19h-728v-30h728v-10v-20h-728v-30h728v-20h-728v-30h728v-10v-20h-728 v-30h728v-20h-728v-30h728v-10v-20h-728v-29h728v-20h-728v-30h728v-10v-20h-728v-30h728v-20h-728v-30h726v-30h-730v-27h728l-1 -24l-727 -3v-26h728v-20h-728v-30h728v-31h-728v-30h724v-20h-724v-30h702q-6 -31 -81 -31h-621v-30h611v-10l-71 -10h-540v-30h470v-10 l-182 -21h-288v-30h187v-10l-343 -20q49 49 61 111q-1 142 4.5 496.5t5.5 523.5q-26 90 -50 90v10zM1625 1068l15 -20h84v10zM1658 1018l10 -30h305v10l-99 20h-216zM1455 878q-85 0 -129 -59v-429h19q130 0 170 60v428h-60zM229 440h778l10 -20h-738l-50 10v10zM349 390 h678l19 -20v-10h-528l-169 20v10zM658 330h438v-10h-438v10z" />
<glyph unicode="&#x435;" horiz-adv-x="2663" d="M1161 1269h272q791 0 1080 -414q151 -118 151 -262v-81h-202q202 -182 202 -202v-50q-34 -96 -303 -182q-316 -80 -635 -80h-363q-626 0 -1049 232q-313 256 -313 433v121q0 303 686 444q268 41 474 41zM21 744q0 -327 757 -444q301 -40 565 -40q796 0 1049 232l10 50 q-51 20 -182 20h-111q-161 0 -161 -40q0 -185 -464 -212h-111q-303 22 -303 152v292l30 30h1302v10q0 308 -484 394q-261 60 -606 60q-998 0 -1250 -353q-31 -51 -41 -151zM1252 1198h70q192 0 192 -101v-242l-20 -20h-404l-20 20v242q0 101 182 101zM1050 1188 q-40 -57 -40 -101h-41v-10h51v-20h-182l-161 -20v-11h343v-10v-20h-444l-101 -20v-10h545v-20h-585q-61 -7 -61 -31h646v-10v-20h-706l-31 -30h737v-20h-767l-20 -20v-10h797v-11l-10 -20h-807l-20 -20v-10h827v-20h-827l-21 -20v-10h848v-11v-20h-837l-21 -20v-10h858v-20 h-848v-30h848v-10v-21h-807q-85 0 -131 162v60q0 321 968 414zM1544 1188q328 0 696 -172l20 -30v-10l-80 20h-525v-30h626l20 -20h-646v-31h676v-30h-676v-30h686v-10h-686l-91 -10l11 50v202q0 46 -31 91v10zM1615 1097v-20h222v10zM1635 1057v-10l20 -21h444v11l-141 20 h-323zM1343 875v-20h141v71h-30q-111 -16 -111 -51zM233 522h787v-20h-737l-50 10v10zM1343 512v-171h161q414 26 414 171h-575zM1998 502h313q0 -52 -383 -141h-10q80 78 80 141zM344 472h676v-10v-21h-535l-141 21v10zM526 411h504v-20h-404l-100 10v10zM788 361h262 l20 -20v-11l-282 21v10z" />
<glyph unicode="&#x436;" horiz-adv-x="4468" d="M1494 1243h1090q267 -256 267 -287v-49q176 91 179 109l-80 69v119l31 29h941l267 -266v-21q0 -42 -267 -69l-239 -119v-10q376 -406 456 -406q78 0 104 -25t224 -233v-69l-50 -10h-1001q-106 0 -247 178l-198 198q-120 -53 -120 -69v-89q0 -41 130 -158v-31l-31 -29 h-1268q-49 0 -218 188v109q0 26 169 50v173l-441 -505l-172 -10q-156 0 -391 -1.5t-423 -1.5q-30 14 -79.5 63t-84.5 90l-35 42q-1 3 -1.5 7t-1.5 15.5t-2 22t-1.5 24t0 23.5t2.5 18t6 10q11 6 48 12.5t55 12.5q41 14 274.5 229.5t413.5 409.5v10l-231 117q-267 27 -267 69 v21l28 35h941l2 -2h11l268 -266v-21q0 -27 -112 -48l197 -116l-4 161q-159 119 -159 149v128zM1503 1223v-39q0 -16 130 -50q29 -36 29 -69q1 -128 1 -334l-30 16q-270 160 -590 353v19l49 41q102 5 148 16q6 2 17 4t15 4q9 5 9 15v2l-9 15l-48 3q-839 0 -875 -1l-19 -19 q0 -30 217 -50q224 -87 298 -158v-10q-19 -19 -92.5 -92t-107 -107t-104 -102.5t-120 -114.5t-116 -106.5t-127.5 -112.5q-69 -39 -135 -39v-30l69 -9h773l168 9q41 21 386 416q20 -9 224 -112v-216q0 -15 -4.5 -25.5t-15 -17.5t-22.5 -11t-34 -6t-41.5 -2.5t-51.5 -0.5v-29 l69 -10h1100l50 10v29q-129 24 -129 60v198q0 21 228 128q345 -395 386 -415l169 -10h772l70 10v29q-154 0 -317 209q-18 0 -486 465v10q75 71 298 158q218 21 218 50l-20 20h-863l-68 -10v-10q0 -29 188 -39l49 -40v-20q-53 -56 -525 -318q-44 -39 -90 -39l-9 10v456 l-20 19h-1061zM1374 723l-30 -30h-557l-30 -29h574l-20 -20h-575l-30 -29h585q-8 -31 -59 -31h-558l-30 -29h597l-19 -20h-599l-31 -30h600l-30 -30h-601l-31 -29h612l-19 -20h-613l-32 -30h614v-20l-49 -9h-595l-31 -30h617v-10h-735l-55 -1l623 613l36 37q16 22 -4 52 q-16 8 -83.5 47t-138.5 74v11h344l-63 -56l-106 1l46 -20l87 -2q13 -12 16 -14q1 0 -7.5 0h-20.5h-24.5t-20.5 0.5t-8 -0.5q2 -1 12.5 -7.5t18 -10t12.5 -3.5q10 0 25.5 1t23 1t16 -1.5t14.5 -4.5l31 -22l-68 -2l1 -1q2 -2 6.5 -6t7 -6t6 -5.5t3.5 -6t-1 -6.5l96 2l38 -23 l-139 -5l-15 -22l192 3l40 -29l-253 -1l-17 -22l320 -2q6 -3 21 -14t22 -14h-380l-27 -30h446q14 -7 54 -29h-524l-32 -30h613q5 -3 18 -10t19 -10h-670l-31 -30h555zM1507 722h67l57 -29h-72zM1604 662h40l-1 -20zM1682 1165h843l10 -31l-10 -39l10 -10v-10l-10 -10h-783 l29 -30h764v-19h-754l11 -30h743v-20v-10h-734v-30h734v-19h-734v-30h734v-20h-734v-30h734v-19v-10h-734v-30h734v-20h-734v-29h734l29 -10v-21h-763v-29h823v-10l-50 -10h-773v-29h743v-10l-9 -21h-734v-29h734v-20h-734v-30h734v-20v-9h-734v-30h734v-19h-734v-31h734 v-19v-10h-734v-30h743v-10h-842v10l10 40v644l10 39zM3258 1155h317v-11q-150 -78 -248 -78v-21h50l-30 -49l10 -29h-10l-30 -31l69 -10l-19 -19h-80l-69 -20v-10h209l19 -20h-267l-41 -20v-10h338l19 -19v-10h-396q-60 -7 -60 -30h496l20 -20h-565l-40 -20v-9h634l20 -20 v-11h-713q-52 50 -89 50l-139 -60l-10 10v11q533 291 605 367l10 49zM2921 659h723l20 -20h-724zM2960 610h733l21 -21v-10h-694q-51 0 -60 31zM3010 550h763v-20h-743zM3059 500h723l50 -10v-19h-743zM3109 441h763l20 -19h-763zM3159 391h763l19 -19v-10h-733l-49 10v19z M3218 332h773v-10h-773v10z" />
<glyph unicode="&#x437;" horiz-adv-x="2268" d="M799 1218q49 0 135 -1t172 -1q783 0 930 -248q154 -133 154 -179q0 -85 -214 -137v-8q20 0 77 -60q213 -202 213 -256v-17q0 -263 -930 -308h-548v-1q-282 0 -441 4q-26 0 -77.5 50.5t-132.5 150.5l-137 232v87h9l34 8h258q34 0 86.5 -31.5t163.5 -130.5q80 -40 128 -56 t119 -26q104 0 158.5 30.5t54.5 101.5v94l-17 17h-94q-15 0 -40 17.5t-50 42.5t-48.5 50.5t-38.5 43.5l-14 17q-8 23 -13 41q-5 16 -7 25t-0.5 26.5t12.5 29.5q17 18 36.5 23t29.5 -2q7 -3 11.5 -9.5t4.5 -10.5l1 -5q33 -12 75 -7t79.5 17.5t59.5 36t13 48.5v17 q-177 0 -327 -2l-109 -154l-61 -8h-300q-51 0 -198 172v60v9q27 206 86 206q211 0 697 1zM214 1200q-138 0 -138 -34l-35 -164h9l121 -8h34q189 0 189 69q23 45 63 72q61 31 109 31q38 0 110.5 -0.5t104.5 -0.5q265 0 265 -163v-8q0 -69 -11.5 -107t-48.5 -56 q-40 -19 -76.5 -26.5t-89.5 -7.5h-36l-17 19q5 4 0 9q-3 4 -14.5 4t-19.5 -4q-14 -6 -20.5 -25.5t-0.5 -37.5t20 -24q7 -3 17.5 -3t14.5 3q2 2 2 4t-1 3l-1 1l17 17h56q55 0 90 -6.5t55 -22t29 -35t13 -51.5l1.5 -8.5t3 -16.5t3 -24t2.5 -32.5t2 -41.5t1 -52 q0 -205 -153 -205q-10 0 -37.5 -1.5t-46 -2t-44 2t-45.5 9.5q-80 10 -189 83t-153 132q-35 25 -214 25h-61q-60 -2 -60 -17q140 -256 172 -257q65 -6 135 -12.5t98 -8.5t93 -4.5t176 -5.5q86 -2 145.5 -2t163.5 3t187 11.5t195.5 26t209.5 44t207.5 68t210.5 94.5l17 68 q0 180 -759 239l-17 26q0 17 316 42q375 66 375 171q-80 197 -1118 197q-443 0 -627 1zM127 1149h267q36 0 -6 -38q-32 -28 -46 -31h-77l-60 -9v-8h137l-17 -17h-232q15 103 34 103zM1037 1148h9q678 0 862 -146v-8l-17 -17h-743l9 -26h683v-8l-145 -17h-530v-26h496v-8 l-129 -9h-367l-8 -26h162v-9l-111 -17h-51v-25h68v-17h-68l-17 -17v-9h76l18 -17v-8h-120l-25 -26h170q627 -48 700 -137l26 -25v-9l-9 9h-828v-26h845v-17h-845v-26h837q-9 -25 -51 -25h-777v-26h777v-8l-43 -9h-734v-25h683v-9l-120 -17h-563v-26h504v-8l-146 -9h-367v-26 h128v-8l-248 -9q52 52 52 171v52l-8 170h281l-8 26h-273l-86 94q86 0 103 179v94zM1097 1070v-25h513v8l-334 17h-179zM1131 1019l9 -25h726v8l-129 17h-606zM1106 644l25 -26h444v9l-290 17h-179zM1131 601v-9l17 -17h701v9l-171 17h-547zM111 465h190q49 0 155 -94h-276 l12 -26h298q6 -2 17 -6t19 -8l7 -3h-327l11 -23l356 -3l58 -38l-410 18z" />
<glyph unicode="&#x438;" horiz-adv-x="2977" d="M31 1231h1114l249 -298v-537h49l140 20v497l-150 149q-17 0 -20 50v99l20 20h1114l259 -288v-676q0 -68 50 -90l119 -129v-30l-20 -20h-1144q-47 0 -89 60q-374 -70 -607 -70h-249q-458 0 -577 209q-109 84 -109 149v517q0 61 -50 90l-129 169v79zM31 1201v-29 q0 -20 159 -40l10 -10v-667q0 -142 229 -179l368 -29q308 0 805 99q0 -89 90 -89h1014v19q0 23 -139 40l-30 40v855h-1044l-50 -10v-39q169 -20 169 -60v-686q0 -34 -199 -50h-99q-189 0 -189 109v736h-1025zM250 1152h815l10 -30l-10 -40l10 -10v-10l-10 -10h-746v-10 l20 -20h736v-19h-736v-30h736v-20v-10h-736v-30h736v-20h-736v-30h736v-20v-10h-736v-29h736v-20h-736v-30h736v-20v-10h-736v-30h736v-20h-736v-30h736v-19v-10h-736v-30h736v-20h-736v-30h736v-20v-10h-736v-30h736v-20h-736v-29h746v-30h-746v-30h786l20 -20h-746 q-90 0 -139 70v666zM1652 1152h826l10 -30l-10 -40l10 -10v-10l-10 -10h-766l30 -30h746v-19h-746l10 -30h736v-20v-10h-736v-30h736v-20h-736v-30h736v-20v-10h-736v-29h736v-20h-736v-30h736v-20v-10h-736v-30h736v-20h-736v-30h736v-19v-10h-736v-30h736v-20h-736v-30 h736v-20v-10h-736v-30h736v-20h-736v-29h736v-20v-10h-736v-30h736v-20h-736v-30h-70l-40 60q20 0 30 70v636zM608 316h388v-10h-388v10z" />
<glyph unicode="&#x439;" horiz-adv-x="2977" d="M1 1122v79l30 30h849l-176 173l-11 107l75 11h693q116 0 565 -182l113 -109h408l259 -288v-676q0 -68 50 -90l119 -129v-30l-20 -20h-1144q-47 0 -89 60q-374 -70 -607 -70h-249q-458 0 -577 209q-109 84 -109 149v517q0 61 -50 90zM31 1172q0 -20 159 -40l10 -10v-667 q0 -142 229 -179l368 -29q308 0 805 99q0 -89 90 -89h1014v19q0 23 -139 40l-30 40v855h-1044l-50 -10v-39q169 -20 169 -60v-686q0 -34 -199 -50h-99q-189 0 -189 109v736h-1025l-69 -10v-29zM250 1152h815l10 -30l-10 -40l10 -10v-10l-10 -10h-746v-10l20 -20h736v-19 h-736v-30h736v-30h-736v-30h736v-20h-736v-30h736v-30h-736v-29h736v-20h-736v-30h736v-30h-736v-30h736v-20h-736v-30h736v-29h-736v-30h736v-20h-736v-30h736v-30h-736v-30h736v-20h-736v-29h746v-30h-746v-30h786l20 -20h-746q-90 0 -139 70v666zM608 306v10h388v-10 h-388zM810 1490l1045 -139h43v11q-324 128 -427 128l-234 10h-427v-10zM1194 1173l200 -240v-537h49l140 20v497l-150 149q-17 0 -20 50v33zM1642 376q20 0 30 70v636l-20 70h826l10 -30l-10 -40l10 -10v-10l-10 -10h-766l30 -30h746v-19h-746l10 -30h736v-30h-736v-30h736 v-20h-736v-30h736v-30h-736v-29h736v-20h-736v-30h736v-30h-736v-30h736v-20h-736v-30h736v-29h-736v-30h736v-20h-736v-30h736v-30h-736v-30h736v-20h-736v-29h736v-30h-736v-30h736v-20h-736v-30h-70z" />
<glyph unicode="&#x43a;" horiz-adv-x="2869" d="M9 1240h1315q17 0 235 -217l60 43q-43 53 -43 79v86l43 9h775q236 -225 236 -252q0 -52 -209 -52l-383 -183q423 -423 505 -445q105 0 165 -87l157 -156v-35l-26 -27h-1246l-165 166v79q0 52 70 52v8l-114 105l-34 -26v-157l156 -191l-34 -36h-1307l-165 166v105 q7 19 175 52l8 8v619q-44 0 -183 157v87zM26 1205v-25q174 -16 174 -62v-792q0 -33 -183 -61v-26l62 -9h1106q95 0 95 44h-9q-156 28 -156 69v262q0 26 113 60l374 -339q-10 -52 -148 -52v-26l18 -18h1097q70 0 70 44h-9q-157 0 -287 165l-549 505v9q0 29 418 209 q182 16 182 35v8l-17 18h-758l-17 -18v-17q149 -26 149 -52v-9q-24 -41 -619 -366l-17 26v331q0 42 200 62v25l-17 18h-1255zM226 1171h863l-27 -79l10 -8l-10 -9h-774l26 -26h758l-1 -17h-749v-27h749l1 -17l-1 -9h-749v-26h750l-1 -17h-749v-26h749l1 -18l-1 -9h-749v-26 h750l-1 -17h-749v-26h749l1 -17l-1 -10h-749v-26h758v-17h-758v-26h863q11 37 252 156l357 218l9 35l-9 35v9h305v-9q-189 -87 -244 -87l9 -9v-8q-131 -55 -131 -139l-9 -9q44 0 44 -18v-9h-79l-60 -17v-9h182l17 -17h-217l-61 -17v-9h305l18 -17v-10h-357q-53 -5 -53 -26 h453l17 -17h-513l-36 -17v-9h575l18 -17v-9h-627q-43 -2 -43 -18l-88 44q-58 -26 -122 -26h-775v-27h784v-8l-35 -9h-749v-26h750v-8l-1 -18h-749v-27h750l-1 -17h-749v-26h749l1 -17l-1 -9h-749v-26h750l-1 -18h-749v-26h749l1 -17l-1 -9h-749v-26h750l-1 -17h-749v-27h750 v-26h-750v-25h-87l17 78v723q0 42 -26 87zM1307 665h722v-17h-705zM1358 622h706l18 -17v-9h-671q-46 0 -53 26zM1411 569h705l18 -17h-706zM1463 526h705l18 -17v-9h-670q-46 0 -53 26zM1516 474h705l17 -18h-679l-43 10v8zM1568 430h705l17 -17v-9h-671q-45 0 -51 26z M1619 378h706l18 -17h-706zM1646 334h705l43 -8v-18h-731l18 -25h-44z" />
<glyph unicode="&#x43b;" horiz-adv-x="2922" d="M458 1232h2227l234 -243v-8q-8 -53 -173 -53q0 -17 -43 -17v-650q0 -17 26 -17l173 -173v-52l-17 -18h-1335l-156 174v95q0 18 148 52v607h-191v-746q-90 -133 -266 -182h-929l-156 156v113q0 20 182 52l8 9l-1 675q2 4 4.5 11.5t12 28.5t22.5 41t35 45t48.5 44t64.5 35 t82 21zM210 977l-2 -655q-1 -34 -191 -52v-26l17 -17h884q51 -1 98 13t76.5 43t24.5 65v790l26 25h399q26 -8 26 -52v-755q0 -71 -130 -86h-17v-43h1247v26q0 17 -156 43q-43 28 -43 69v719q0 87 207 87l9 9v25l-43 9h-1313h-892q-48 -11 -92 -39.5t-72.5 -63t-45.5 -70.5 t-17 -64zM465 1163h627l-27 -53l9 -8v-18l-638 2l-42 -27h680v-10v-17h-698l-21 -26h719v-17h-733l-12 -26h745v-9v-17h-745v-26h745v-17h-745v-26h745v-9v-17h-745v-26h745v-17h-745v-27h745l9 -17l-9 -8h-745v-26h745v-18h-745v-26h745v-8v-18h-745v-25h745v-18h-745v-26 h745v-9v-17h-745v-26h745v-17h-745v-26h745v-9v-17h-745v-27h745v-17h-745v-25h745v-9v-18h-745v-26h725l-4 -17h-721v-26h685l-44 -18h-736q26 34 26 78l-1 631q28 67 86.5 117.5t119.5 58.5zM1594 1163h849l-18 -79h-771l9 -25h762v-10v-17h-744v-26h744v-17h-736v-26h736 v-9v-17h-736v-26h736v-17h-736v-26h736v-9v-17h-736v-26h736v-17h-736v-27h736v-8v-17h-736v-26h736v-18h-744v-26h744v-8v-18h-753l9 -25h744v-18h-744l8 -26h736v-9v-17h-736v-26h736v-17h-736v-26h736v-9v-17h-736v-27h736v-17h-736v-25h736v-9v-18h-736v-26h736v-17 h-736v-26h746l17 -18h-858l17 70q-3 111 -3 235t1.5 275.5t1.5 234.5z" />
<glyph unicode="&#x43c;" horiz-adv-x="3049" d="M25 1207h985l399 -373l400 373h984q31 0 68 -42q178 -174 178 -196h9q0 -50 -204 -67l-9 -8v-629l187 -187v-33l-8 -43h-1316l-170 170v85l-42 -35h-340l-357 331l-8 10h-9v-315q24 0 52 -43q152 -145 152 -160q0 -43 -76 -43h-688q-39 0 -187 161v94q0 23 154 59l8 8 v595q-35 0 -68 42q-21 0 -119 119v76q5 51 25 51zM25 1173v-25q187 0 187 -119v-662q0 -93 -127 -93l-43 -34l68 -18h544q93 0 93 26q0 22 -170 51l-25 25v510l25 25l441 -416h256l449 425h9l17 -17v-518q0 -42 -187 -59l-9 -9v-33l43 -10h1197v52q-187 0 -187 85v704 q0 68 77 68l136 25v26l-86 8h-908l-407 -373h-17l-399 373h-960zM221 1140h764l85 -85v-9h-789l25 -25h806l17 -17h-815l9 -26h832l17 -17v-8h-849l8 -26h874l17 -17h-891v-25h195l-25 -26h-170v-25h170v-17h-170v-25h170v-26h-170v-26h170v-17h-170v-25h170v-25h-170v-26 h170v-17h-170v-25h170v-26h-170v-26h170v-17h-170v-25h170v-25h-170v-25h170v-18h-170v-25h170v-26h-170v-25h170v-17h-170v-26h179v-25h-179v-25h-93l16 76v713q0 31 -33 77zM1834 1140h747l-26 -60l8 -9v-8l-17 -17h-645l-33 -17v-8h695v-17h-712l-26 -26h738v-9v-16h-764 l-25 -26h789v-17h-789l-51 9q-26 0 -245 -212h-10l-17 16h-662l-17 17h654l-17 26q36 0 204 170zM620 885h611l43 -9v-17h-587q-62 0 -67 26zM1791 885h772v-9v-17h-754l-18 17v9zM679 834h628l17 -17h-628zM1791 834h772v-17h-754zM722 792h627l27 -26h-604q-43 0 -50 26z M2563 792v-9v-17h-704l9 -26h695v-17h-695v-25h695v-8v-17h-695v-26h695v-17h-695v-25h695v-9v-17h-695v-26h695v-17h-695v-25h695v-8v-17h-695v-25h695v-18h-695v-25h695v-9v-17h-695v-25h695v-17h-695v-26h687l18 -17l-10 -8h-695v-25h-102q25 30 25 68v441l8 9h764z M824 698h644q-8 -25 -50 -25h-535l-59 8v17zM874 647h544l-17 -17h-510zM916 605h451v-17l-60 -9h-339q-44 0 -52 26zM968 553h348l-17 -17h-289l-42 9v8zM1018 511h256l-17 -17h-222zM1570 299l153 25v119z" />
<glyph unicode="&#x43d;" horiz-adv-x="2915" d="M26 1229h1228l233 -234v-52q-138 -17 -138 -43v-113h190v191q-15 0 -129 121v86l8 44h1262l234 -242v-9q-8 -52 -173 -52q0 -17 -43 -17v-649q0 -17 26 -17l173 -173v-52l-18 -17h-1331l-156 173v95q0 18 147 52v181h-190v-320l129 -155l-25 -26h-1297l-156 155v113 q0 20 181 52l9 8v614q-39 0 -190 173v86zM26 1202v-25q149 -23 181 -61v-795q0 -34 -190 -52v-26l17 -17h1211v26q-6 17 -121 52l-9 43v363l26 26h398q26 -9 26 -52v-329q0 -71 -130 -86h-17v-43h1245v26q0 17 -156 43q-43 28 -43 69v718q0 86 207 86l9 9v25l-43 9h-1184 l-18 -17v-26q130 0 130 -95v-276l-26 -27h-407l-17 17v320q0 44 148 61v34l-87 9h-1107zM242 1160h848l-27 -53l10 -8v-17h-779v-9l18 -17h761v-9l-1 -17h-752l9 -26h744v-17h-744v-27h744v-8l-1 -17h-743v-26h744v-17h-744v-27h744v-8l-1 -17h-743v-26h744v-17h-744v-27 h743l9 -17l-8 -8h-744v-26h744v-18h-744v-26h744v-8l-1 -17h-743v-26h744v-18h-744v-26h744v-8l-1 -17h-743v-27h744v-17h-744v-26h744v-8l-1 -18h-743v-26h744v-17h-744v-26h744v-8l-1 -18h-743v-26h744v-17h-744v-26h744l17 -18h-856q25 34 25 78v727zM1591 1160h848 l-18 -78h-770l9 -26h761v-9v-17h-743v-26h743v-17h-735v-27h735v-8v-17h-735v-26h735v-17h-735v-27h735v-8v-17h-735v-26h735v-17h-735v-27h735v-8v-17h-735v-26h735v-18h-743v-26h743v-8v-17h-752l9 -26h743v-18h-743l8 -26h735v-8v-17h-735v-27h735v-17h-735v-26h735v-8 v-18h-735v-26h735v-17h-735v-26h735v-8v-18h-735v-26h735v-17h-735v-26h744l17 -18h-856l17 70v337l-8 69l8 69v268z" />
<glyph unicode="&#x43e;" horiz-adv-x="2809" d="M1136 1251h289q674 0 1047 -259q339 -321 339 -438v-30q0 -370 -748 -489q-179 -40 -458 -40h-319q-670 0 -1037 270q-249 228 -249 358v130q0 373 817 478zM20 743q0 -293 498 -409q329 -79 748 -79q969 0 1246 358q29 77 29 140v40q0 331 -956 428l-309 10 q-947 0 -1206 -329q-40 -69 -50 -159zM1306 1181q209 0 209 -119v-608q0 -150 -229 -150h-50q-209 0 -209 190v498q0 189 219 189h60zM1525 1171q315 -8 727 -139l170 -100v-20h-768v-30h808v-19h-808v-30h828v-30h-828v-30h838v-20h-838v-30h828v-30h-828v-30h818l-20 -20 h-798v-30h778v-20l-50 -10h-728v-29h728v-10l-50 -10h-678v-30h638q-6 -30 -79 -30h-559v-30h519v-10l-70 -10h-449v-30h349v-10l-239 -20h-110v-20l10 -10v-10h-79l-70 -10q50 56 50 120v578l10 60zM1017 1162q-27 -100 -110 -100h-40v-10h110v-10v-20h-259l-140 -20v-10 h399v-20h-459l-79 -20v-10h538v-10v-20h-588l-70 -20v-10h658v-19h-688l-30 -30h718v-10v-20h-758l-10 -30h768v-20h-788l-10 -30h798v-10v-20h-808v-30h808v-20h-818v-30h818v-10v-20h-808v-29h808v-20h-768q-129 44 -129 179v50q0 277 727 389zM1605 1082l-10 -10v-10 l10 -10h309v10zM1635 1022v-10l19 -20h549v10l-130 20h-438zM1654 972v-30h698v10l-90 20h-608zM1296 803v-469h20q169 0 169 100v478h-20q-169 0 -169 -109zM239 504h738v-10v-20h-628q-110 0 -110 30zM359 444h618v-20h-548l-70 10v10zM528 394h459v-30h-230l-229 20v10z M857 334h160l10 -10v-10l-170 10v10z" />
<glyph unicode="&#x43f;" horiz-adv-x="2922" d="M26 1232h2659l234 -243v-8q-8 -53 -173 -53q0 -17 -43 -17v-650q0 -17 26 -17l173 -173v-52l-17 -18h-1335l-156 174v95q0 18 148 52v607h-191v-746l130 -155l-26 -27h-1299l-156 156v113q0 20 182 52l8 9v615q-39 0 -190 173v86zM26 1205v-25q149 -23 182 -61v-797 q0 -34 -191 -52v-26l17 -17h1214v26q-6 18 -122 52l-9 43v790l26 25h399q26 -8 26 -52v-755q0 -71 -130 -86h-17v-43h1247v26q0 17 -156 43q-43 28 -43 69v719q0 87 207 87l9 9v25l-43 9h-1313h-1260zM243 1163h849l-27 -53l9 -8v-18h-780v-8l18 -17h762v-10v-17h-753l8 -26 h745v-17h-745v-26h745v-9v-17h-745v-26h745v-17h-745v-26h745v-9v-17h-745v-26h745v-17h-745v-27h745l9 -17l-9 -8h-745v-26h745v-18h-745v-26h745v-8v-18h-745v-25h745v-18h-745v-26h745v-9v-17h-745v-26h745v-17h-745v-26h745v-9v-17h-745v-27h745v-17h-745v-25h745v-9 v-18h-745v-26h745v-17h-745v-26h745l18 -18h-858q26 34 26 78v728zM1594 1163h849l-18 -79h-771l9 -25h762v-10v-17h-744v-26h744v-17h-736v-26h736v-9v-17h-736v-26h736v-17h-736v-26h736v-9v-17h-736v-26h736v-17h-736v-27h736v-8v-17h-736v-26h736v-18h-744v-26h744v-8 v-18h-753l9 -25h744v-18h-744l8 -26h736v-9v-17h-736v-26h736v-17h-736v-26h736v-9v-17h-736v-27h736v-17h-736v-25h736v-9v-18h-736v-26h736v-17h-736v-26h746l17 -18h-858l17 70q-3 111 -3 235t1.5 275.5t1.5 234.5z" />
<glyph unicode="&#x440;" horiz-adv-x="2882" d="M1650 1250h240q541 0 747 -299q249 -192 249 -428q0 -287 -209 -389q-278 -130 -618 -130h-249q-205 0 -389 50v-30l160 -149v-30l-20 -20h-1386q-20 0 -99.5 79.5t-79.5 99.5v110q0 26 149 60v787q-39 0 -94 60t-55 80v119l20 20h1086q31 -50 80 -50q279 60 468 60z M1112 1151l-40 69h-1046v-40q149 0 149 -89v-917q0 -33 -149 -60v-10l20 -20h1266v20q0 22 -200 50l-20 60v89q0 60 40 60q243 -99 608 -99q644 0 837 269q40 108 40 229v10q0 270 -269 379q-230 79 -588 79q-275 0 -648 -79zM1551 1170h289q492 -6 618 -159l-50 10h-738 l30 -30h798v-20h-788l10 -30h808v-30h-798v-30h807l20 -19h-827v-30h827v-30h-827v-30h837l-20 -20h-817v-30h827v-30h-827v-30h827v-20h-827v-30h807v-10l-19 -20h-788v-29h788l-20 -20h-768v-30h748q-10 -30 -60 -30h-688v-30h658v-10l-50 -10h-608v-30h528v-10l-179 -20 h-349v-30h219v-10h-408v10q80 0 99 110v518l10 60l-10 30h648v10l-249 20h-399zM215 1161h818l29 -40l-10 -40h-717l-50 -10v-20h757v-10l1 -20h-738v-10l20 -20h717v-20h-727v-30h727v-10l1 -20h-728v-30h727v-19h-727v-30h727v-10l1 -20h-728v-30h727v-20h-727v-30h727 v-10l1 -20h-728v-30h727v-20h-727v-30h727v-10l1 -20h-728v-29h727v-20h-727v-30h727v-10l1 -20h-728v-30h727v-20h-727v-30h747l-29 -30h-718v-30h727v-20h-727v-30h727v-10l1 -19h-728v-30h727v-20h-727v-30h728l9 -20l-10 -10h-817v967zM1322 1141h29q240 0 240 -120 v-558q0 -100 -170 -100h-50q-279 0 -279 110v558q0 110 230 110zM1361 822v-429h100q77 0 100 50v428h-30q-170 -16 -170 -49z" />
<glyph unicode="&#x441;" horiz-adv-x="2350" d="M1046 1263h271q696 0 893 -311q132 -112 140 -160q-18 -110 -261 -121h-231q-218 0 -301 101l-140 150q-80 -12 -80 -70v-512h50q241 24 241 161q0 80 70 80h321q64 0 321 -291v-10q0 -181 -532 -261q-60 -20 -261 -20h-331q-785 0 -1094 411q-120 90 -120 241v121 q0 324 743 471zM22 742q0 -350 733 -452q216 -30 431 -30q633 0 853 191q30 36 30 70v20l-170 20h-30q-211 0 -211 -30q0 -142 -151 -201l-150 -20h-71q-181 8 -210 70v753q40 60 170 60h40q181 -10 181 -50v-20q0 -34 -30 -70v-40q0 -67 341 -81q301 0 301 111 q0 63 -301 150q-310 50 -602 50q-776 0 -1074 -301q-80 -106 -80 -200zM1036 1183v-10q-18 -80 -41 -80l-110 -10v-10h131v-20h-231l-151 -20v-10h382v-31h-472l-70 -20v-10h542v-20h-572l-71 -20v-10h643v-30h-673q-60 -6 -60 -30h733v-20h-753l-30 -30h783v-30h-813 l-10 -30h823v-20h-833l-10 -31h843v-30h-843v-30h843v-20h-843v-30h843v-30h-843q-91 74 -91 150v61q0 259 622 391q178 30 332 30zM1517 1173q231 0 502 -130q0 -45 -251 -51q-218 8 -271 31l30 100zM1588 1083v-10h130v10h-130zM1598 1053v-10l20 -20h351v10l-141 20h-230 zM213 521h803v-20h-753l-50 10v10zM1708 501h301q-74 -81 -161 -81l10 -10v-10l-210 -50q60 74 60 151zM303 471h713v-30h-593l-120 20v10zM454 410h562v-20h-462l-100 10v10zM684 360h332l20 -20v-10h-10l-342 20v10z" />
<glyph unicode="&#x442;" horiz-adv-x="2473" d="M2182 1227q250 -235 250 -293l35 -112q0 -44 -78 -44h-267q-76 0 -156 104q-59 60 -103 60h-43v-690l198 -189v-35l-25 -26h-1363l-164 164v95q0 30 189 60v595l-95 -129l-60 -9h-301q-51 0 -199 173v60v9q27 207 86 207h2096zM26 1011h8l121 -8h34q191 0 191 69 q51 103 172 103h113l17 -17v-837q0 -34 -182 -51l-9 -9v-26l44 -9h1198l61 9v17q0 21 -172 43l-35 44v810l26 26h69q127 0 250 -155l34 -9h250q18 0 18 27q-41 172 -86 172h-1949q-138 0 -138 -35zM112 1158h268q-39 -69 -52 -69h-78l-61 -9v-8h139l-17 -17h-233 q15 103 34 103zM724 1158h820v-52v-17h-699l-43 -9v-8h742v-17h-742v-27h742v-8v-17h-742v-26h742v-17h-742v-26h742v-9v-17h-742v-26h742v-18h-742v-25h742v-9v-17h-742v-26h742v-17h-742v-26h742v-8v-18h-742v-26h742v-17h-742v-26h742v-9v-17h-742v-26h742v-17h-742v-26 h742v-9v-17h-742v-25h742v-18h-742v-26h742v-8v-17h-742v-27h742v-17h-742v-25h742v-9v-17h-742v-26h751v-18h-751v-17h-86l17 27v836l-9 8v9zM1863 1158h285l17 -69h-224l-78 60v9zM1949 1072h216l17 -17h-189l-44 8v9z" />
<glyph unicode="&#x443;" horiz-adv-x="2590" d="M18 1241h1234l259 -258h10q0 -68 -159 -80l-10 -30l119 -159q165 184 229 299q-47 69 -70 69l-19 60v80l19 19h687l269 -268v-30l-169 -60q-554 -743 -697 -896q-265 -159 -806 -159h-339q-331 0 -408 100q-159 136 -159 179v79q0 55 259 70h139q131 0 279 -80l70 -10 l99 10l-587 717l-110 60q-159 119 -159 139v130zM18 1212v-20q0 -22 99 -30q137 -109 498 -577l299 -369v-20q-15 -49 -130 -49h-69l-199 69l-180 20q-291 -16 -298 -60v-20q156 -69 507 -69q843 0 1006 249l617 806q75 40 149 40v30l-99 10h-558l-20 -20l160 -60l10 -10 v-30l-339 -438q-46 23 -368 418l-20 40q0 54 169 70v20l-50 10h-1134zM217 1162h816v-50l10 -50h-736zM1859 1162h249q-63 -100 -109 -100h-70v-10q0 -20 80 -20q0 -19 -60 -19v-30h20l-60 -50v-10h20q0 -20 -50 -20l-10 -30h20q0 -16 -69 -50v-10h20q0 -19 -40 -19l-10 -10 v-10l10 -30h-10q-46 -20 -50 -40h20l-60 -40v-10h20q0 -19 -60 -40v-20h20l-69 -39v-10h29l-29 -30h-856l-30 30h816v10l-40 20h-796l-20 19h806l-10 10v10q70 36 199 229q189 239 189 269zM326 1032h737l20 -19h-737zM366 983h737l20 -20v-10h-727zM416 923h757v-20h-737z M456 873h746l20 -20v-10h-736zM506 813h746l20 -19h-746zM545 764h747l20 -20v-10h-737zM595 704h747l20 -20h-747zM635 654h727l49 -10v-20h-746zM774 485h817l-20 -20h-777zM814 435h737v-20l-50 -10h-627q-52 0 -60 30zM864 375h647l-20 -19h-607zM904 326h557 q-10 -30 -59 -30h-468zM954 266h428v-10l-50 -10h-378v20zM974 216h258v-10q-84 -20 -219 -20h-10v-20h-39zM207 176h159l179 -20v-9h-129q-209 0 -209 29z" />
</font>
</defs>
</svg>
